<?xml version="1.0" encoding="UTF-8" standalone="no"?>
<!DOCTYPE svg PUBLIC "-//W3C//DTD SVG 1.1//EN"
 "http://www.w3.org/Graphics/SVG/1.1/DTD/svg11.dtd">
<!-- Generated by graphviz version 7.0.0 (20221023.0053)
 -->
<!-- Pages: 1 -->
<svg width="601pt" height="372pt"
 viewBox="0.00 0.00 601.00 372.00" xmlns="http://www.w3.org/2000/svg" xmlns:xlink="http://www.w3.org/1999/xlink">
<g id="graph0" class="graph" transform="scale(1 1) rotate(0) translate(4 368)">
<polygon fill="white" stroke="none" points="-4,4 -4,-368 597,-368 597,4 -4,4"/>
<!-- anyAtomicType -->
<g id="node1" class="node">
<title>anyAtomicType</title>
<g id="a_node1"><a xlink:href="#hier_anyAtomicType" xlink:title="xs:anyAtomicType">
<path fill="none" stroke="#e69f00" stroke-width="4" d="M198,-310C198,-310 102,-310 102,-310 96,-310 90,-304 90,-298 90,-298 90,-286 90,-286 90,-280 96,-274 102,-274 102,-274 198,-274 198,-274 204,-274 210,-280 210,-286 210,-286 210,-298 210,-298 210,-304 204,-310 198,-310"/>
<text text-anchor="middle" x="150" y="-288.3" font-family="Times,serif" font-size="14.00" fill="#0000ff">xs:anyAtomicType</text>
</a>
</g>
</g>
<!-- xitem -->
<g id="node2" class="node">
<title>xitem</title>
<polygon fill="none" stroke="black" stroke-width="2" points="54,-256 4,-256 0,-252 0,-220 50,-220 54,-224 54,-256"/>
<polyline fill="none" stroke="black" stroke-width="2" points="50,-252 0,-252"/>
<polyline fill="none" stroke="black" stroke-width="2" points="50,-252 50,-220"/>
<polyline fill="none" stroke="black" stroke-width="2" points="50,-252 54,-256"/>
<text text-anchor="middle" x="27" y="-234.3" font-family="Times,serif" font-size="14.00">item</text>
</g>
<!-- xitem&#45;&gt;anyAtomicType -->
<g id="edge1" class="edge">
<title>xitem&#45;&gt;anyAtomicType</title>
<path fill="none" stroke="black" d="M65.32,-254.65C77.75,-260.2 91.72,-266.44 104.64,-272.2"/>
<polygon fill="black" stroke="black" points="66.79,-251.48 56.24,-250.6 63.94,-257.87 66.79,-251.48"/>
</g>
<!-- xnode -->
<g id="node3" class="node">
<title>xnode</title>
<polygon fill="none" stroke="#cc79a7" stroke-width="2" points="177,-256 127,-256 123,-252 123,-220 173,-220 177,-224 177,-256"/>
<polyline fill="none" stroke="#cc79a7" stroke-width="2" points="173,-252 123,-252"/>
<polyline fill="none" stroke="#cc79a7" stroke-width="2" points="173,-252 173,-220"/>
<polyline fill="none" stroke="#cc79a7" stroke-width="2" points="173,-252 177,-256"/>
<text text-anchor="middle" x="150" y="-234.3" font-family="Times,serif" font-size="14.00">node</text>
</g>
<!-- xitem&#45;&gt;xnode -->
<g id="edge2" class="edge">
<title>xitem&#45;&gt;xnode</title>
<path fill="none" stroke="black" d="M66.28,-238C84.48,-238 105.79,-238 122.22,-238"/>
<polygon fill="black" stroke="black" points="66.37,-234.5 56.37,-238 66.37,-241.5 66.37,-234.5"/>
</g>
<!-- function -->
<g id="node10" class="node">
<title>function</title>
<polygon fill="none" stroke="#d55e00" stroke-width="2" points="188.5,-90 115.5,-90 111.5,-86 111.5,-54 184.5,-54 188.5,-58 188.5,-90"/>
<polyline fill="none" stroke="#d55e00" stroke-width="2" points="184.5,-86 111.5,-86"/>
<polyline fill="none" stroke="#d55e00" stroke-width="2" points="184.5,-86 184.5,-54"/>
<polyline fill="none" stroke="#d55e00" stroke-width="2" points="184.5,-86 188.5,-90"/>
<text text-anchor="middle" x="150" y="-68.3" font-family="Times,serif" font-size="14.00">function(*)</text>
</g>
<!-- xitem&#45;&gt;function -->
<g id="edge3" class="edge">
<title>xitem&#45;&gt;function</title>
<path fill="none" stroke="black" d="M48.13,-210.38C72.79,-176.56 113.89,-120.16 135.22,-90.91"/>
<polygon fill="black" stroke="black" points="45.6,-207.91 42.54,-218.06 51.26,-212.04 45.6,-207.91"/>
</g>
<!-- attribute -->
<g id="node4" class="node">
<title>attribute</title>
<path fill="none" stroke="#cc79a7" stroke-width="4" d="M333.5,-364C333.5,-364 295.5,-364 295.5,-364 289.5,-364 283.5,-358 283.5,-352 283.5,-352 283.5,-340 283.5,-340 283.5,-334 289.5,-328 295.5,-328 295.5,-328 333.5,-328 333.5,-328 339.5,-328 345.5,-334 345.5,-340 345.5,-340 345.5,-352 345.5,-352 345.5,-358 339.5,-364 333.5,-364"/>
<text text-anchor="middle" x="314.5" y="-342.3" font-family="Times,serif" font-size="14.00">attribute</text>
</g>
<!-- xnode&#45;&gt;attribute -->
<g id="edge4" class="edge">
<title>xnode&#45;&gt;attribute</title>
<path fill="none" stroke="black" d="M188.15,-251.19C195.86,-254.94 203.58,-259.52 210,-265 231.95,-283.71 223.6,-300.83 246,-319 256.39,-327.43 269.75,-333.51 281.83,-337.74"/>
<polygon fill="black" stroke="black" points="189.72,-248.06 179.16,-247.22 186.89,-254.46 189.72,-248.06"/>
</g>
<!-- document -->
<g id="node6" class="node">
<title>document</title>
<path fill="none" stroke="#cc79a7" stroke-width="4" d="M338,-310C338,-310 291,-310 291,-310 285,-310 279,-304 279,-298 279,-298 279,-286 279,-286 279,-280 285,-274 291,-274 291,-274 338,-274 338,-274 344,-274 350,-280 350,-286 350,-286 350,-298 350,-298 350,-304 344,-310 338,-310"/>
<text text-anchor="middle" x="314.5" y="-288.3" font-family="Times,serif" font-size="14.00">document</text>
</g>
<!-- xnode&#45;&gt;document -->
<g id="edge5" class="edge">
<title>xnode&#45;&gt;document</title>
<path fill="none" stroke="black" d="M188.66,-250.51C215.31,-259.37 250.85,-271.18 277.19,-279.93"/>
<polygon fill="black" stroke="black" points="189.86,-247.23 179.27,-247.39 187.66,-253.87 189.86,-247.23"/>
</g>
<!-- element -->
<g id="node8" class="node">
<title>element</title>
<path fill="none" stroke="#cc79a7" stroke-width="4" d="M332.5,-256C332.5,-256 296.5,-256 296.5,-256 290.5,-256 284.5,-250 284.5,-244 284.5,-244 284.5,-232 284.5,-232 284.5,-226 290.5,-220 296.5,-220 296.5,-220 332.5,-220 332.5,-220 338.5,-220 344.5,-226 344.5,-232 344.5,-232 344.5,-244 344.5,-244 344.5,-250 338.5,-256 332.5,-256"/>
<text text-anchor="middle" x="314.5" y="-234.3" font-family="Times,serif" font-size="14.00">element</text>
</g>
<!-- xnode&#45;&gt;element -->
<g id="edge6" class="edge">
<title>xnode&#45;&gt;element</title>
<path fill="none" stroke="black" d="M189,-238C217.54,-238 256.13,-238 282.74,-238"/>
<polygon fill="black" stroke="black" points="189.35,-234.5 179.35,-238 189.35,-241.5 189.35,-234.5"/>
</g>
<!-- leafNodes -->
<g id="node13" class="node">
<title>leafNodes</title>
<path fill="none" stroke="#cc79a7" stroke-width="4" d="M258,-109C258,-109 371,-109 371,-109 377,-109 383,-115 383,-121 383,-121 383,-189 383,-189 383,-195 377,-201 371,-201 371,-201 258,-201 258,-201 252,-201 246,-195 246,-189 246,-189 246,-121 246,-121 246,-115 252,-109 258,-109"/>
<text text-anchor="middle" x="314.5" y="-185.8" font-family="Times,serif" font-size="14.00">text</text>
<polyline fill="none" stroke="#cc79a7" stroke-width="4" points="246,-178 383,-178"/>
<text text-anchor="middle" x="314.5" y="-162.8" font-family="Times,serif" font-size="14.00">comment</text>
<polyline fill="none" stroke="#cc79a7" stroke-width="4" points="246,-155 383,-155"/>
<text text-anchor="middle" x="314.5" y="-139.8" font-family="Times,serif" font-size="14.00">processing&#45;instruction</text>
<polyline fill="none" stroke="#cc79a7" stroke-width="4" points="246,-132 383,-132"/>
<text text-anchor="middle" x="314.5" y="-116.8" font-family="Times,serif" font-size="14.00">namespace</text>
</g>
<!-- xnode&#45;&gt;leafNodes -->
<g id="edge7" class="edge">
<title>xnode&#45;&gt;leafNodes</title>
<path fill="none" stroke="black" d="M188.04,-219.08C205.29,-210.27 226.38,-199.5 246.29,-189.33"/>
<polygon fill="black" stroke="black" points="186.49,-215.94 179.18,-223.61 189.68,-222.17 186.49,-215.94"/>
</g>
<!-- user_defined_attribute_types -->
<g id="node5" class="node">
<title>user_defined_attribute_types</title>
<path fill="none" stroke="#009e73" stroke-width="4" d="M576.5,-364C576.5,-364 435.5,-364 435.5,-364 429.5,-364 423.5,-358 423.5,-352 423.5,-352 423.5,-340 423.5,-340 423.5,-334 429.5,-328 435.5,-328 435.5,-328 576.5,-328 576.5,-328 582.5,-328 588.5,-334 588.5,-340 588.5,-340 588.5,-352 588.5,-352 588.5,-358 582.5,-364 576.5,-364"/>
<text text-anchor="middle" x="506" y="-342.3" font-family="Times,serif" font-size="14.00">user&#45;defined attribute types</text>
</g>
<!-- attribute&#45;&gt;user_defined_attribute_types -->
<g id="edge8" class="edge">
<title>attribute&#45;&gt;user_defined_attribute_types</title>
<path fill="none" stroke="black" d="M358.62,-346C377.33,-346 399.9,-346 421.66,-346"/>
<polygon fill="black" stroke="black" points="358.73,-342.5 348.73,-346 358.73,-349.5 358.73,-342.5"/>
</g>
<!-- user_defined_document_types -->
<g id="node7" class="node">
<title>user_defined_document_types</title>
<path fill="none" stroke="#009e73" stroke-width="4" d="M581,-310C581,-310 431,-310 431,-310 425,-310 419,-304 419,-298 419,-298 419,-286 419,-286 419,-280 425,-274 431,-274 431,-274 581,-274 581,-274 587,-274 593,-280 593,-286 593,-286 593,-298 593,-298 593,-304 587,-310 581,-310"/>
<text text-anchor="middle" x="506" y="-288.3" font-family="Times,serif" font-size="14.00">user&#45;defined document types</text>
</g>
<!-- document&#45;&gt;user_defined_document_types -->
<g id="edge9" class="edge">
<title>document&#45;&gt;user_defined_document_types</title>
<path fill="none" stroke="black" d="M363.07,-292C379.51,-292 398.5,-292 417.13,-292"/>
<polygon fill="black" stroke="black" points="363.1,-288.5 353.1,-292 363.1,-295.5 363.1,-288.5"/>
</g>
<!-- user_defined_element_types -->
<g id="node9" class="node">
<title>user_defined_element_types</title>
<path fill="none" stroke="#009e73" stroke-width="4" d="M576,-256C576,-256 436,-256 436,-256 430,-256 424,-250 424,-244 424,-244 424,-232 424,-232 424,-226 430,-220 436,-220 436,-220 576,-220 576,-220 582,-220 588,-226 588,-232 588,-232 588,-244 588,-244 588,-250 582,-256 576,-256"/>
<text text-anchor="middle" x="506" y="-234.3" font-family="Times,serif" font-size="14.00">user&#45;defined element types</text>
</g>
<!-- element&#45;&gt;user_defined_element_types -->
<g id="edge10" class="edge">
<title>element&#45;&gt;user_defined_element_types</title>
<path fill="none" stroke="black" d="M357.65,-238C376.7,-238 399.9,-238 422.21,-238"/>
<polygon fill="black" stroke="black" points="357.88,-234.5 347.88,-238 357.88,-241.5 357.88,-234.5"/>
</g>
<!-- array -->
<g id="node11" class="node">
<title>array</title>
<polygon fill="none" stroke="#d55e00" stroke-width="2" points="344.5,-90 288.5,-90 284.5,-86 284.5,-54 340.5,-54 344.5,-58 344.5,-90"/>
<polyline fill="none" stroke="#d55e00" stroke-width="2" points="340.5,-86 284.5,-86"/>
<polyline fill="none" stroke="#d55e00" stroke-width="2" points="340.5,-86 340.5,-54"/>
<polyline fill="none" stroke="#d55e00" stroke-width="2" points="340.5,-86 344.5,-90"/>
<text text-anchor="middle" x="314.5" y="-68.3" font-family="Times,serif" font-size="14.00">array(*)</text>
</g>
<!-- function&#45;&gt;array -->
<g id="edge11" class="edge">
<title>function&#45;&gt;array</title>
<path fill="none" stroke="black" d="M200.37,-72C227.58,-72 260.47,-72 283.75,-72"/>
<polygon fill="black" stroke="black" points="200.61,-68.5 190.61,-72 200.61,-75.5 200.61,-68.5"/>
</g>
<!-- map -->
<g id="node12" class="node">
<title>map</title>
<polygon fill="none" stroke="#d55e00" stroke-width="2" points="342.5,-36 290.5,-36 286.5,-32 286.5,0 338.5,0 342.5,-4 342.5,-36"/>
<polyline fill="none" stroke="#d55e00" stroke-width="2" points="338.5,-32 286.5,-32"/>
<polyline fill="none" stroke="#d55e00" stroke-width="2" points="338.5,-32 338.5,0"/>
<polyline fill="none" stroke="#d55e00" stroke-width="2" points="338.5,-32 342.5,-36"/>
<text text-anchor="middle" x="314.5" y="-14.3" font-family="Times,serif" font-size="14.00">map(*)</text>
</g>
<!-- function&#45;&gt;map -->
<g id="edge12" class="edge">
<title>function&#45;&gt;map</title>
<path fill="none" stroke="black" d="M199.89,-55.75C227.9,-46.45 262.05,-35.1 285.55,-27.29"/>
<polygon fill="black" stroke="black" points="198.92,-52.39 190.54,-58.86 201.13,-59.03 198.92,-52.39"/>
</g>
</g>
</svg>
