<?xml version="1.0" encoding="UTF-8" standalone="no"?>
<!DOCTYPE svg PUBLIC "-//W3C//DTD SVG 1.1//EN"
 "http://www.w3.org/Graphics/SVG/1.1/DTD/svg11.dtd">
<!-- Generated by graphviz version 7.0.0 (20221023.0053)
 -->
<!-- Pages: 1 -->
<svg width="733pt" height="99pt"
 viewBox="0.00 0.00 733.00 99.00" xmlns="http://www.w3.org/2000/svg" xmlns:xlink="http://www.w3.org/1999/xlink">
<g id="graph0" class="graph" transform="scale(1 1) rotate(0) translate(4 95)">
<polygon fill="white" stroke="none" points="-4,4 -4,-95 729,-95 729,4 -4,4"/>
<g id="clust1" class="cluster">
<title>cluster_legend</title>
<polygon fill="none" stroke="black" points="8,-8 8,-83 717,-83 717,-8 8,-8"/>
<text text-anchor="middle" x="362.5" y="-67.8" font-family="Times,serif" font-size="14.00">Legend</text>
</g>
<!-- _bat -->
<g id="node1" class="node">
<title>_bat</title>
<path fill="none" stroke="#e69f00" stroke-width="2" d="M136,-52C136,-52 28,-52 28,-52 22,-52 16,-46 16,-40 16,-40 16,-28 16,-28 16,-22 22,-16 28,-16 28,-16 136,-16 136,-16 142,-16 148,-22 148,-28 148,-28 148,-40 148,-40 148,-46 142,-52 136,-52"/>
<text text-anchor="middle" x="82" y="-30.3" font-family="Times,serif" font-size="14.00">Built&#45;in atomic types</text>
</g>
<!-- _nod -->
<g id="node2" class="node">
<title>_nod</title>
<path fill="none" stroke="#cc79a7" stroke-width="2" d="M250,-52C250,-52 196,-52 196,-52 190,-52 184,-46 184,-40 184,-40 184,-28 184,-28 184,-22 190,-16 196,-16 196,-16 250,-16 250,-16 256,-16 262,-22 262,-28 262,-28 262,-40 262,-40 262,-46 256,-52 250,-52"/>
<text text-anchor="middle" x="223" y="-30.3" font-family="Times,serif" font-size="14.00">Node types</text>
</g>
<!-- _bat&#45;&gt;_nod -->
<!-- _fit -->
<g id="node3" class="node">
<title>_fit</title>
<path fill="none" stroke="#d55e00" stroke-width="2" d="M411,-52C411,-52 310,-52 310,-52 304,-52 298,-46 298,-40 298,-40 298,-28 298,-28 298,-22 304,-16 310,-16 310,-16 411,-16 411,-16 417,-16 423,-22 423,-28 423,-28 423,-40 423,-40 423,-46 417,-52 411,-52"/>
<text text-anchor="middle" x="360.5" y="-30.3" font-family="Times,serif" font-size="14.00">Function item types</text>
</g>
<!-- _nod&#45;&gt;_fit -->
<!-- _udt -->
<g id="node4" class="node">
<title>_udt</title>
<path fill="none" stroke="#009e73" stroke-width="2" d="M566,-52C566,-52 471,-52 471,-52 465,-52 459,-46 459,-40 459,-40 459,-28 459,-28 459,-22 465,-16 471,-16 471,-16 566,-16 566,-16 572,-16 578,-22 578,-28 578,-28 578,-40 578,-40 578,-46 572,-52 566,-52"/>
<text text-anchor="middle" x="518.5" y="-30.3" font-family="Times,serif" font-size="14.00">User&#45;defined types</text>
</g>
<!-- _fit&#45;&gt;_udt -->
<!-- _abt -->
<g id="node5" class="node">
<title>_abt</title>
<polygon fill="none" stroke="black" points="709,-52 618,-52 614,-48 614,-16 705,-16 709,-20 709,-52"/>
<polyline fill="none" stroke="black" points="705,-48 614,-48"/>
<polyline fill="none" stroke="black" points="705,-48 705,-16"/>
<polyline fill="none" stroke="black" points="705,-48 709,-52"/>
<text text-anchor="middle" x="661.5" y="-30.3" font-family="Times,serif" font-size="14.00">Abstract types</text>
</g>
<!-- _udt&#45;&gt;_abt -->
</g>
</svg>
