<?xml version="1.0" encoding="UTF-8" standalone="no"?>
<!DOCTYPE svg PUBLIC "-//W3C//DTD SVG 1.1//EN"
 "http://www.w3.org/Graphics/SVG/1.1/DTD/svg11.dtd">
<!-- Generated by graphviz version 12.2.1 (20241206.2353)
 -->
<!-- Title: Processing_Model Pages: 1 -->
<svg width="592pt" height="667pt"
 viewBox="0.00 0.00 591.62 666.50" xmlns="http://www.w3.org/2000/svg" xmlns:xlink="http://www.w3.org/1999/xlink">
<g id="graph0" class="graph" transform="scale(1 1) rotate(0) translate(4 662.5)">
<title>Processing_Model</title>
<g id="a_graph0"><a xlink:title="XPath Processing Model">
<polygon fill="white" stroke="none" points="-4,4 -4,-662.5 587.62,-662.5 587.62,4 -4,4"/>
</a>
</g>
<g id="clust1" class="cluster">
<title>clusterQT4</title>
<g id="a_clust1"><a xlink:title="XPath Expression Processing">
<polygon fill="none" stroke="black" points="260,-80.5 260,-575 488,-575 488,-80.5 260,-80.5"/>
<text text-anchor="middle" x="374" y="-557.7" font-family="Times,serif" font-size="14.00">XPath Expression Processing</text>
</a>
</g>
</g>
<g id="clust2" class="cluster">
<title>clusterEP</title>
<g id="a_clust2"><a xlink:title="External processing">
<polygon fill="none" stroke="black" points="8,-174 8,-349 252,-349 252,-174 8,-174"/>
<text text-anchor="middle" x="130" y="-331.7" font-family="Times,serif" font-size="14.00">External processing</text>
</a>
</g>
</g>
<!-- Exec -->
<g id="node1" class="node">
<title>Exec</title>
<g id="a_node1"><a xlink:title="Execution Engine">
<path fill="none" stroke="black" d="M332.38,-223C332.38,-223 285.62,-223 285.62,-223 279.62,-223 273.62,-217 273.62,-211 273.62,-211 273.62,-194 273.62,-194 273.62,-188 279.62,-182 285.62,-182 285.62,-182 332.38,-182 332.38,-182 338.38,-182 344.38,-188 344.38,-194 344.38,-194 344.38,-211 344.38,-211 344.38,-217 338.38,-223 332.38,-223"/>
<text text-anchor="middle" x="309" y="-205.7" font-family="Times,serif" font-size="14.00">Execution</text>
<text text-anchor="middle" x="309" y="-189.2" font-family="Times,serif" font-size="14.00">Engine</text>
</a>
</g>
</g>
<!-- XDM -->
<g id="node2" class="node">
<title>XDM</title>
<g id="a_node2"><a xlink:href="#dt-data-model-instance" xlink:title="XPath Data Model">
<polygon fill="none" stroke="black" points="347.5,-129.5 268.5,-129.5 268.5,-88.5 347.5,-88.5 347.5,-129.5"/>
<text text-anchor="middle" x="308" y="-112.2" font-family="Times,serif" font-size="14.00" fill="blue">XPath Data</text>
<text text-anchor="middle" x="308" y="-95.7" font-family="Times,serif" font-size="14.00" fill="blue">Model</text>
</a>
</g>
</g>
<!-- Exec&#45;&gt;XDM -->
<g id="edge8" class="edge">
<title>Exec&#45;&gt;XDM</title>
<g id="a_edge8"><a xlink:href="#DQ12345" xlink:title=" DQ4">
<path fill="none" stroke="black" d="M308.66,-170.46C308.56,-161.01 308.44,-150.62 308.34,-141.16"/>
<polygon fill="black" stroke="black" points="305.16,-170.17 308.77,-180.13 312.16,-170.09 305.16,-170.17"/>
<polygon fill="black" stroke="black" points="311.84,-141.29 308.23,-131.33 304.84,-141.37 311.84,-141.29"/>
</a>
</g>
<g id="a_edge8&#45;label"><a xlink:href="#DQ12345" xlink:title="Access and create">
<text text-anchor="middle" x="323.59" y="-150.7" font-family="Times,serif" font-size="14.00" fill="blue"> DQ4</text>
</a>
</g>
</g>
<!-- Serialize -->
<g id="node15" class="node">
<title>Serialize</title>
<polygon fill="none" stroke="black" points="333.62,-36 276.38,-36 276.38,0 339.62,0 339.62,-30 333.62,-36"/>
<polyline fill="none" stroke="black" points="333.62,-36 333.62,-30"/>
<polyline fill="none" stroke="black" points="339.62,-30 333.62,-30"/>
<text text-anchor="middle" x="308" y="-12.95" font-family="Times,serif" font-size="14.00">Serialize</text>
</g>
<!-- XDM&#45;&gt;Serialize -->
<g id="edge17" class="edge">
<title>XDM&#45;&gt;Serialize</title>
<g id="a_edge17"><a xlink:href="#id-serialization" xlink:title=" DM4">
<path fill="none" stroke="black" d="M308,-88.25C308,-76.33 308,-60.94 308,-47.69"/>
<polygon fill="black" stroke="black" points="311.5,-47.81 308,-37.81 304.5,-47.81 311.5,-47.81"/>
</a>
</g>
<g id="a_edge17&#45;label"><a xlink:href="#id-serialization" xlink:title="Serialize">
<text text-anchor="middle" x="324.5" y="-57.2" font-family="Times,serif" font-size="14.00" fill="blue"> DM4</text>
</a>
</g>
</g>
<!-- AST -->
<g id="node3" class="node">
<title>AST</title>
<g id="a_node3"><a xlink:href="#SQ5" xlink:title="Abstract Syntax Tree (AST)">
<path fill="none" stroke="black" d="M337.62,-316.5C337.62,-316.5 280.38,-316.5 280.38,-316.5 274.38,-316.5 268.38,-310.5 268.38,-304.5 268.38,-304.5 268.38,-287.5 268.38,-287.5 268.38,-281.5 274.38,-275.5 280.38,-275.5 280.38,-275.5 337.62,-275.5 337.62,-275.5 343.62,-275.5 349.62,-281.5 349.62,-287.5 349.62,-287.5 349.62,-304.5 349.62,-304.5 349.62,-310.5 343.62,-316.5 337.62,-316.5"/>
<text text-anchor="middle" x="309" y="-299.2" font-family="Times,serif" font-size="14.00" fill="blue">Abstract</text>
<text text-anchor="middle" x="309" y="-282.7" font-family="Times,serif" font-size="14.00" fill="blue">Syntax Tree</text>
</a>
</g>
</g>
<!-- AST&#45;&gt;Exec -->
<g id="edge3" class="edge">
<title>AST&#45;&gt;Exec</title>
<g id="a_edge3"><a xlink:href="#DQ12345" xlink:title=" DQ1">
<path fill="none" stroke="black" d="M309,-275.15C309,-263.28 309,-247.94 309,-234.5"/>
<polygon fill="black" stroke="black" points="312.5,-234.83 309,-224.83 305.5,-234.83 312.5,-234.83"/>
</a>
</g>
<g id="a_edge3&#45;label"><a xlink:href="#DQ12345" xlink:title="Access AST">
<text text-anchor="middle" x="324" y="-244.2" font-family="Times,serif" font-size="14.00" fill="blue"> DQ1</text>
</a>
</g>
</g>
<!-- AST&#45;&gt;AST -->
<g id="edge2" class="edge">
<title>AST&#45;&gt;AST</title>
<g id="a_edge2"><a xlink:href="#SQ5" xlink:title=" SQ5">
<path fill="none" stroke="black" d="M350.09,-304.63C360.14,-303.99 367.62,-301.11 367.62,-296 367.62,-293.12 365.26,-290.96 361.4,-289.49"/>
<polygon fill="black" stroke="black" points="362.05,-286.06 351.58,-287.65 360.76,-292.94 362.05,-286.06"/>
</a>
</g>
<g id="a_edge2&#45;label"><a xlink:href="#SQ5" xlink:title="Normalize">
<text text-anchor="middle" x="381.5" y="-290.95" font-family="Times,serif" font-size="14.00" fill="blue"> SQ5</text>
</a>
</g>
</g>
<!-- Static -->
<g id="node4" class="node">
<title>Static</title>
<g id="a_node4"><a xlink:href="#dt-static-context" xlink:title="Static Context">
<polygon fill="none" stroke="black" points="473.38,-432.5 418.62,-432.5 414.62,-428.5 414.62,-391.5 469.38,-391.5 473.38,-395.5 473.38,-432.5"/>
<polyline fill="none" stroke="black" points="469.38,-428.5 414.62,-428.5"/>
<polyline fill="none" stroke="black" points="469.38,-428.5 469.38,-391.5"/>
<polyline fill="none" stroke="black" points="469.38,-428.5 473.38,-432.5"/>
<text text-anchor="middle" x="444" y="-415.2" font-family="Times,serif" font-size="14.00" fill="blue">Static</text>
<text text-anchor="middle" x="444" y="-398.7" font-family="Times,serif" font-size="14.00" fill="blue">Context</text>
</a>
</g>
</g>
<!-- Static&#45;&gt;AST -->
<g id="edge5" class="edge">
<title>Static&#45;&gt;AST</title>
<g id="a_edge5"><a xlink:href="#SQ1234" xlink:title=" SQ4">
<path fill="none" stroke="black" d="M420.48,-391.14C398.42,-372.51 365.24,-344.49 340.81,-323.86"/>
<polygon fill="black" stroke="black" points="343.3,-321.38 333.4,-317.61 338.78,-326.73 343.3,-321.38"/>
</a>
</g>
<g id="a_edge5&#45;label"><a xlink:href="#SQ1234" xlink:title="Resolve names">
<text text-anchor="middle" x="410.36" y="-360.2" font-family="Times,serif" font-size="14.00" fill="blue"> SQ4</text>
</a>
</g>
</g>
<!-- Dynamic -->
<g id="node5" class="node">
<title>Dynamic</title>
<g id="a_node5"><a xlink:href="#dt-dynamic-context" xlink:title="Dynamic Context">
<polygon fill="none" stroke="black" points="480.12,-316.5 417.88,-316.5 413.88,-312.5 413.88,-275.5 476.12,-275.5 480.12,-279.5 480.12,-316.5"/>
<polyline fill="none" stroke="black" points="476.12,-312.5 413.88,-312.5"/>
<polyline fill="none" stroke="black" points="476.12,-312.5 476.12,-275.5"/>
<polyline fill="none" stroke="black" points="476.12,-312.5 480.12,-316.5"/>
<text text-anchor="middle" x="447" y="-299.2" font-family="Times,serif" font-size="14.00" fill="blue">Dynamic</text>
<text text-anchor="middle" x="447" y="-282.7" font-family="Times,serif" font-size="14.00" fill="blue">Context</text>
</a>
</g>
</g>
<!-- Static&#45;&gt;Dynamic -->
<g id="edge6" class="edge">
<title>Static&#45;&gt;Dynamic</title>
<g id="a_edge6"><a xlink:href="#DQ12345" xlink:title=" DQ2">
<path fill="none" stroke="black" d="M444.52,-391.14C444.98,-373.73 445.65,-348.14 446.18,-328.03"/>
<polygon fill="black" stroke="black" points="449.68,-328.23 446.44,-318.14 442.68,-328.05 449.68,-328.23"/>
</a>
</g>
<g id="a_edge6&#45;label"><a xlink:href="#DQ12345" xlink:title="Provide access">
<text text-anchor="middle" x="460.41" y="-360.2" font-family="Times,serif" font-size="14.00" fill="blue"> DQ2</text>
</a>
</g>
</g>
<!-- Dynamic&#45;&gt;Exec -->
<g id="edge7" class="edge">
<title>Dynamic&#45;&gt;Exec</title>
<g id="a_edge7"><a xlink:href="#DQ12345" xlink:title=" DQ5">
<path fill="none" stroke="black" d="M407.71,-268.95C389.08,-256.6 366.88,-241.88 348.26,-229.53"/>
<polygon fill="black" stroke="black" points="405.53,-271.7 415.79,-274.31 409.39,-265.87 405.53,-271.7"/>
<polygon fill="black" stroke="black" points="350.42,-226.76 340.15,-224.15 346.55,-232.59 350.42,-226.76"/>
</a>
</g>
<g id="a_edge7&#45;label"><a xlink:href="#DQ12345" xlink:title="Access and change">
<text text-anchor="middle" x="405.36" y="-244.2" font-family="Times,serif" font-size="14.00" fill="blue"> DQ5</text>
</a>
</g>
</g>
<!-- Schema -->
<g id="node6" class="node">
<title>Schema</title>
<g id="a_node6"><a xlink:href="#dt-issd" xlink:title="In&#45;Scope Schema Definitions">
<polygon fill="none" stroke="black" points="478.38,-542.5 401.62,-542.5 401.62,-485 478.38,-485 478.38,-542.5"/>
<text text-anchor="middle" x="440" y="-525.2" font-family="Times,serif" font-size="14.00" fill="blue">In&#45;Scope</text>
<text text-anchor="middle" x="440" y="-508.7" font-family="Times,serif" font-size="14.00" fill="blue">Schema</text>
<text text-anchor="middle" x="440" y="-492.2" font-family="Times,serif" font-size="14.00" fill="blue">Definitions</text>
</a>
</g>
</g>
<!-- Schema&#45;&gt;Static -->
<g id="edge4" class="edge">
<title>Schema&#45;&gt;Static</title>
<path fill="none" stroke="black" d="M441.12,-484.7C441.63,-472.08 442.23,-457.14 442.75,-444.17"/>
<polygon fill="black" stroke="black" points="446.24,-444.59 443.14,-434.46 439.24,-444.31 446.24,-444.59"/>
</g>
<!-- XPath -->
<g id="node7" class="node">
<title>XPath</title>
<path fill="none" stroke="black" d="M324,-430C324,-430 294,-430 294,-430 288,-430 282,-424 282,-418 282,-418 282,-406 282,-406 282,-400 288,-394 294,-394 294,-394 324,-394 324,-394 330,-394 336,-400 336,-406 336,-406 336,-418 336,-418 336,-424 330,-430 324,-430"/>
<text text-anchor="middle" x="309" y="-406.95" font-family="Times,serif" font-size="14.00">XPath</text>
</g>
<!-- XPath&#45;&gt;AST -->
<g id="edge1" class="edge">
<title>XPath&#45;&gt;AST</title>
<g id="a_edge1"><a xlink:href="#SQ1234" xlink:title=" SQ1">
<path fill="none" stroke="black" d="M309,-393.69C309,-376.32 309,-349.19 309,-328.09"/>
<polygon fill="black" stroke="black" points="312.5,-328.29 309,-318.29 305.5,-328.29 312.5,-328.29"/>
</a>
</g>
<g id="a_edge1&#45;label"><a xlink:href="#SQ1234" xlink:title="Parse expression">
<text text-anchor="middle" x="322.88" y="-360.2" font-family="Times,serif" font-size="14.00" fill="blue"> SQ1</text>
</a>
</g>
</g>
<!-- XML -->
<g id="node8" class="node">
<title>XML</title>
<polygon fill="none" stroke="black" points="64,-314 16,-314 16,-278 70,-278 70,-308 64,-314"/>
<polyline fill="none" stroke="black" points="64,-314 64,-308"/>
<polyline fill="none" stroke="black" points="70,-308 64,-308"/>
<text text-anchor="middle" x="43" y="-290.95" font-family="Times,serif" font-size="14.00">XML</text>
</g>
<!-- PSVI -->
<g id="node10" class="node">
<title>PSVI</title>
<g id="a_node10"><a xlink:href="#id-data-model-generation" xlink:title="Infoset/PSVI">
<polygon fill="none" stroke="black" points="84.62,-223 33.38,-223 33.38,-182 90.62,-182 90.62,-217 84.62,-223"/>
<polyline fill="none" stroke="black" points="84.62,-223 84.62,-217"/>
<polyline fill="none" stroke="black" points="90.62,-217 84.62,-217"/>
<text text-anchor="middle" x="62" y="-205.7" font-family="Times,serif" font-size="14.00" fill="blue">Infoset/</text>
<text text-anchor="middle" x="62" y="-189.2" font-family="Times,serif" font-size="14.00" fill="blue">PSVI</text>
</a>
</g>
</g>
<!-- XML&#45;&gt;PSVI -->
<g id="edge9" class="edge">
<title>XML&#45;&gt;PSVI</title>
<g id="a_edge9"><a xlink:href="#DM1" xlink:title=" DM1">
<path fill="none" stroke="black" d="M46.57,-277.79C49.12,-265.54 52.61,-248.73 55.62,-234.21"/>
<polygon fill="black" stroke="black" points="59,-235.16 57.61,-224.66 52.15,-233.74 59,-235.16"/>
</a>
</g>
<g id="a_edge9&#45;label"><a xlink:href="#DM1" xlink:title="Parse and optionally validate">
<text text-anchor="middle" x="70.7" y="-244.2" font-family="Times,serif" font-size="14.00" fill="blue"> DM1</text>
</a>
</g>
</g>
<!-- JSON -->
<g id="node9" class="node">
<title>JSON</title>
<polygon fill="none" stroke="black" points="136,-314 88,-314 88,-278 142,-278 142,-308 136,-314"/>
<polyline fill="none" stroke="black" points="136,-314 136,-308"/>
<polyline fill="none" stroke="black" points="142,-308 136,-308"/>
<text text-anchor="middle" x="115" y="-290.95" font-family="Times,serif" font-size="14.00">JSON</text>
</g>
<!-- JSON&#45;&gt;XDM -->
<g id="edge10" class="edge">
<title>JSON&#45;&gt;XDM</title>
<g id="a_edge10"><a xlink:href="#DM2" xlink:title=" DM2">
<path fill="none" stroke="black" d="M119.66,-277.61C127.32,-251.97 144.81,-203.83 175,-174 197.93,-151.34 230.44,-135.5 257.58,-125.24"/>
<polygon fill="black" stroke="black" points="258.43,-128.66 266.64,-121.96 256.05,-122.07 258.43,-128.66"/>
</a>
</g>
<g id="a_edge10&#45;label"><a xlink:href="#DM2" xlink:title="Generate Data Model">
<text text-anchor="middle" x="191.5" y="-197.45" font-family="Times,serif" font-size="14.00" fill="blue"> DM2</text>
</a>
</g>
</g>
<!-- PSVI&#45;&gt;XDM -->
<g id="edge11" class="edge">
<title>PSVI&#45;&gt;XDM</title>
<g id="a_edge11"><a xlink:href="#DM2" xlink:title=" DM2">
<path fill="none" stroke="black" d="M64.37,-181.68C66.83,-170 71.82,-155.9 82,-147.5 108.02,-126.01 198.84,-116.54 257.12,-112.59"/>
<polygon fill="black" stroke="black" points="257.05,-116.1 266.81,-111.97 256.61,-109.11 257.05,-116.1"/>
</a>
</g>
<g id="a_edge11&#45;label"><a xlink:href="#DM2" xlink:title="Generate Data Model">
<text text-anchor="middle" x="98.5" y="-150.7" font-family="Times,serif" font-size="14.00" fill="blue"> DM2</text>
</a>
</g>
</g>
<!-- Direct -->
<g id="node11" class="node">
<title>Direct</title>
<g id="a_node11"><a xlink:title="Other/Direct Generation">
<path fill="none" stroke="black" d="M232.12,-316.5C232.12,-316.5 171.88,-316.5 171.88,-316.5 165.88,-316.5 159.88,-310.5 159.88,-304.5 159.88,-304.5 159.88,-287.5 159.88,-287.5 159.88,-281.5 165.88,-275.5 171.88,-275.5 171.88,-275.5 232.12,-275.5 232.12,-275.5 238.12,-275.5 244.12,-281.5 244.12,-287.5 244.12,-287.5 244.12,-304.5 244.12,-304.5 244.12,-310.5 238.12,-316.5 232.12,-316.5"/>
<text text-anchor="middle" x="202" y="-299.2" font-family="Times,serif" font-size="14.00">Other/Direct</text>
<text text-anchor="middle" x="202" y="-282.7" font-family="Times,serif" font-size="14.00">Generation</text>
</a>
</g>
</g>
<!-- Direct&#45;&gt;XDM -->
<g id="edge12" class="edge">
<title>Direct&#45;&gt;XDM</title>
<g id="a_edge12"><a xlink:href="#DM3" xlink:title=" DM3">
<path fill="none" stroke="black" d="M203.17,-275.11C205.47,-249.87 212.21,-205.78 232,-174 240.96,-159.6 254.25,-146.83 267.22,-136.55"/>
<polygon fill="black" stroke="black" points="269.02,-139.58 274.88,-130.75 264.8,-133.99 269.02,-139.58"/>
</a>
</g>
<g id="a_edge12&#45;label"><a xlink:href="#DM3" xlink:title="Other/Direct Generation">
<text text-anchor="middle" x="248.5" y="-197.45" font-family="Times,serif" font-size="14.00" fill="blue"> DM3</text>
</a>
</g>
</g>
<!-- XSD -->
<g id="node12" class="node">
<title>XSD</title>
<g id="a_node12"><a xlink:title="XML Schema">
<polygon fill="none" stroke="black" points="418.75,-658.5 365.25,-658.5 365.25,-617.5 424.75,-617.5 424.75,-652.5 418.75,-658.5"/>
<polyline fill="none" stroke="black" points="418.75,-658.5 418.75,-652.5"/>
<polyline fill="none" stroke="black" points="424.75,-652.5 418.75,-652.5"/>
<text text-anchor="middle" x="395" y="-641.2" font-family="Times,serif" font-size="14.00">XML</text>
<text text-anchor="middle" x="395" y="-624.7" font-family="Times,serif" font-size="14.00">Schema</text>
</a>
</g>
</g>
<!-- XSD&#45;&gt;Schema -->
<g id="edge13" class="edge">
<title>XSD&#45;&gt;Schema</title>
<g id="a_edge13"><a xlink:href="#id-schema-import-processing" xlink:title=" SI1">
<path fill="none" stroke="black" d="M402.33,-617.09C408.65,-599.92 417.96,-574.63 425.74,-553.49"/>
<polygon fill="black" stroke="black" points="428.96,-554.89 429.13,-544.29 422.39,-552.47 428.96,-554.89"/>
</a>
</g>
<g id="a_edge13&#45;label"><a xlink:href="#id-schema-import-processing" xlink:title="XML Schema Import">
<text text-anchor="middle" x="426.06" y="-586.2" font-family="Times,serif" font-size="14.00" fill="blue"> SI1</text>
</a>
</g>
</g>
<!-- DirectXSD -->
<g id="node13" class="node">
<title>DirectXSD</title>
<g id="a_node13"><a xlink:title="Other/Direct Generation">
<path fill="none" stroke="black" d="M515.12,-658.5C515.12,-658.5 454.88,-658.5 454.88,-658.5 448.88,-658.5 442.88,-652.5 442.88,-646.5 442.88,-646.5 442.88,-629.5 442.88,-629.5 442.88,-623.5 448.88,-617.5 454.88,-617.5 454.88,-617.5 515.12,-617.5 515.12,-617.5 521.12,-617.5 527.12,-623.5 527.12,-629.5 527.12,-629.5 527.12,-646.5 527.12,-646.5 527.12,-652.5 521.12,-658.5 515.12,-658.5"/>
<text text-anchor="middle" x="485" y="-641.2" font-family="Times,serif" font-size="14.00">Other/Direct</text>
<text text-anchor="middle" x="485" y="-624.7" font-family="Times,serif" font-size="14.00">Generation</text>
</a>
</g>
</g>
<!-- DirectXSD&#45;&gt;Schema -->
<g id="edge14" class="edge">
<title>DirectXSD&#45;&gt;Schema</title>
<g id="a_edge14"><a xlink:href="#SI2" xlink:title=" SI2">
<path fill="none" stroke="black" d="M477.67,-617.09C471.35,-599.92 462.04,-574.63 454.26,-553.49"/>
<polygon fill="black" stroke="black" points="457.61,-552.47 450.87,-544.29 451.04,-554.89 457.61,-552.47"/>
</a>
</g>
<g id="a_edge14&#45;label"><a xlink:href="#SI2" xlink:title="Other/Direct Generation">
<text text-anchor="middle" x="481.69" y="-586.2" font-family="Times,serif" font-size="14.00" fill="blue"> SI2</text>
</a>
</g>
</g>
<!-- Host -->
<g id="node14" class="node">
<title>Host</title>
<g id="a_node14"><a xlink:title="Host Environment">
<path fill="none" stroke="black" d="M571.62,-534.25C571.62,-534.25 508.38,-534.25 508.38,-534.25 502.38,-534.25 496.38,-528.25 496.38,-522.25 496.38,-522.25 496.38,-505.25 496.38,-505.25 496.38,-499.25 502.38,-493.25 508.38,-493.25 508.38,-493.25 571.62,-493.25 571.62,-493.25 577.62,-493.25 583.62,-499.25 583.62,-505.25 583.62,-505.25 583.62,-522.25 583.62,-522.25 583.62,-528.25 577.62,-534.25 571.62,-534.25"/>
<text text-anchor="middle" x="540" y="-516.95" font-family="Times,serif" font-size="14.00">Host</text>
<text text-anchor="middle" x="540" y="-500.45" font-family="Times,serif" font-size="14.00">Environment</text>
</a>
</g>
</g>
<!-- Host&#45;&gt;Static -->
<g id="edge15" class="edge">
<title>Host&#45;&gt;Static</title>
<g id="a_edge15"><a xlink:href="#SQ1234" xlink:title=" SQ2">
<path fill="none" stroke="black" d="M505.43,-492.87C490.4,-483.73 474.92,-473.5 469.25,-467 463.24,-460.11 458.38,-451.55 454.58,-443.29"/>
<polygon fill="black" stroke="black" points="457.85,-442.05 450.78,-434.17 451.39,-444.74 457.85,-442.05"/>
</a>
</g>
<g id="a_edge15&#45;label"><a xlink:href="#SQ1234" xlink:title="Initialize from host environment">
<text text-anchor="middle" x="483.12" y="-453.7" font-family="Times,serif" font-size="14.00" fill="blue"> SQ2</text>
</a>
</g>
</g>
<!-- Host&#45;&gt;Dynamic -->
<g id="edge16" class="edge">
<title>Host&#45;&gt;Dynamic</title>
<g id="a_edge16"><a xlink:href="#DQ12345" xlink:title=" DQ3">
<path fill="none" stroke="black" d="M533.02,-492.77C522.38,-462.83 500.99,-404.74 479,-357 474.39,-347 468.9,-336.32 463.77,-326.79"/>
<polygon fill="black" stroke="black" points="467,-325.4 459.14,-318.31 460.86,-328.76 467,-325.4"/>
</a>
</g>
<g id="a_edge16&#45;label"><a xlink:href="#DQ12345" xlink:title="Initialize from host environment">
<text text-anchor="middle" x="525.43" y="-406.95" font-family="Times,serif" font-size="14.00" fill="blue"> DQ3</text>
</a>
</g>
</g>
</g>
</svg>
