<?xml version="1.0" encoding="UTF-8" standalone="no"?>
<!DOCTYPE svg PUBLIC "-//W3C//DTD SVG 1.1//EN"
 "http://www.w3.org/Graphics/SVG/1.1/DTD/svg11.dtd">
<!-- Generated by graphviz version 12.2.1 (20241206.2353)
 -->
<!-- Title: Processing_Model Pages: 1 -->
<svg width="452pt" height="622pt"
 viewBox="0.00 0.00 452.12 621.50" xmlns="http://www.w3.org/2000/svg" xmlns:xlink="http://www.w3.org/1999/xlink">
<g id="graph0" class="graph" transform="scale(1 1) rotate(0) translate(4 617.5)">
<title>Processing_Model</title>
<polygon fill="white" stroke="none" points="-4,4 -4,-617.5 448.12,-617.5 448.12,4 -4,4"/>
<g id="clust1" class="cluster">
<title>clusterQT4</title>
<polygon fill="none" stroke="black" points="124,-80.5 124,-528 352,-528 352,-80.5 124,-80.5"/>
</g>
<!-- Exec -->
<g id="node1" class="node">
<title>Exec</title>
<path fill="none" stroke="black" d="M196.38,-223C196.38,-223 149.62,-223 149.62,-223 143.62,-223 137.62,-217 137.62,-211 137.62,-211 137.62,-194 137.62,-194 137.62,-188 143.62,-182 149.62,-182 149.62,-182 196.38,-182 196.38,-182 202.38,-182 208.38,-188 208.38,-194 208.38,-194 208.38,-211 208.38,-211 208.38,-217 202.38,-223 196.38,-223"/>
<text text-anchor="middle" x="173" y="-205.7" font-family="Times,serif" font-size="14.00">Execution</text>
<text text-anchor="middle" x="173" y="-189.2" font-family="Times,serif" font-size="14.00">Engine</text>
</g>
<!-- XDM -->
<g id="node2" class="node">
<title>XDM</title>
<polygon fill="none" stroke="black" points="212.5,-129.5 133.5,-129.5 133.5,-88.5 212.5,-88.5 212.5,-129.5"/>
<text text-anchor="middle" x="173" y="-112.2" font-family="Times,serif" font-size="14.00">XPath Data</text>
<text text-anchor="middle" x="173" y="-95.7" font-family="Times,serif" font-size="14.00">Model</text>
</g>
<!-- Exec&#45;&gt;XDM -->
<g id="edge9" class="edge">
<title>Exec&#45;&gt;XDM</title>
<path fill="none" stroke="black" d="M173,-170.46C173,-161.01 173,-150.62 173,-141.16"/>
<polygon fill="black" stroke="black" points="169.5,-170.13 173,-180.13 176.5,-170.13 169.5,-170.13"/>
<polygon fill="black" stroke="black" points="176.5,-141.33 173,-131.33 169.5,-141.33 176.5,-141.33"/>
<text text-anchor="middle" x="188" y="-150.7" font-family="Times,serif" font-size="14.00"> DQ4</text>
</g>
<!-- Serialize -->
<g id="node13" class="node">
<title>Serialize</title>
<polygon fill="none" stroke="black" points="198.62,-36 141.38,-36 141.38,0 204.62,0 204.62,-30 198.62,-36"/>
<polyline fill="none" stroke="black" points="198.62,-36 198.62,-30"/>
<polyline fill="none" stroke="black" points="204.62,-30 198.62,-30"/>
<text text-anchor="middle" x="173" y="-12.95" font-family="Times,serif" font-size="14.00">Serialize</text>
</g>
<!-- XDM&#45;&gt;Serialize -->
<g id="edge17" class="edge">
<title>XDM&#45;&gt;Serialize</title>
<path fill="none" stroke="black" d="M173,-88.25C173,-76.33 173,-60.94 173,-47.69"/>
<polygon fill="black" stroke="black" points="176.5,-47.81 173,-37.81 169.5,-47.81 176.5,-47.81"/>
<text text-anchor="middle" x="189.5" y="-57.2" font-family="Times,serif" font-size="14.00"> DM4</text>
</g>
<!-- AST -->
<g id="node3" class="node">
<title>AST</title>
<path fill="none" stroke="black" d="M201.62,-316.5C201.62,-316.5 144.38,-316.5 144.38,-316.5 138.38,-316.5 132.38,-310.5 132.38,-304.5 132.38,-304.5 132.38,-287.5 132.38,-287.5 132.38,-281.5 138.38,-275.5 144.38,-275.5 144.38,-275.5 201.62,-275.5 201.62,-275.5 207.62,-275.5 213.62,-281.5 213.62,-287.5 213.62,-287.5 213.62,-304.5 213.62,-304.5 213.62,-310.5 207.62,-316.5 201.62,-316.5"/>
<text text-anchor="middle" x="173" y="-299.2" font-family="Times,serif" font-size="14.00">Abstract</text>
<text text-anchor="middle" x="173" y="-282.7" font-family="Times,serif" font-size="14.00">Syntax Tree</text>
</g>
<!-- AST&#45;&gt;Exec -->
<g id="edge3" class="edge">
<title>AST&#45;&gt;Exec</title>
<path fill="none" stroke="black" d="M173,-275.15C173,-263.28 173,-247.94 173,-234.5"/>
<polygon fill="black" stroke="black" points="176.5,-234.83 173,-224.83 169.5,-234.83 176.5,-234.83"/>
<text text-anchor="middle" x="188" y="-244.2" font-family="Times,serif" font-size="14.00"> DQ1</text>
</g>
<!-- AST&#45;&gt;AST -->
<g id="edge2" class="edge">
<title>AST&#45;&gt;AST</title>
<path fill="none" stroke="black" d="M214.09,-304.63C224.14,-303.99 231.62,-301.11 231.62,-296 231.62,-293.12 229.26,-290.96 225.4,-289.49"/>
<polygon fill="black" stroke="black" points="226.05,-286.06 215.58,-287.65 224.76,-292.94 226.05,-286.06"/>
<text text-anchor="middle" x="245.5" y="-290.95" font-family="Times,serif" font-size="14.00"> SQ5</text>
</g>
<!-- Static -->
<g id="node4" class="node">
<title>Static</title>
<polygon fill="none" stroke="black" points="287.38,-410 232.62,-410 228.62,-406 228.62,-369 283.38,-369 287.38,-373 287.38,-410"/>
<polyline fill="none" stroke="black" points="283.38,-406 228.62,-406"/>
<polyline fill="none" stroke="black" points="283.38,-406 283.38,-369"/>
<polyline fill="none" stroke="black" points="283.38,-406 287.38,-410"/>
<text text-anchor="middle" x="258" y="-392.7" font-family="Times,serif" font-size="14.00">Static</text>
<text text-anchor="middle" x="258" y="-376.2" font-family="Times,serif" font-size="14.00">Context</text>
</g>
<!-- Static&#45;&gt;AST -->
<g id="edge6" class="edge">
<title>Static&#45;&gt;AST</title>
<path fill="none" stroke="black" d="M239.56,-368.65C227.75,-355.94 212.25,-339.25 199.18,-325.18"/>
<polygon fill="black" stroke="black" points="201.81,-322.87 192.44,-317.92 196.68,-327.63 201.81,-322.87"/>
<text text-anchor="middle" x="236.99" y="-337.7" font-family="Times,serif" font-size="14.00"> SQ4</text>
</g>
<!-- Dynamic -->
<g id="node5" class="node">
<title>Dynamic</title>
<polygon fill="none" stroke="black" points="344.12,-316.5 281.88,-316.5 277.88,-312.5 277.88,-275.5 340.12,-275.5 344.12,-279.5 344.12,-316.5"/>
<polyline fill="none" stroke="black" points="340.12,-312.5 277.88,-312.5"/>
<polyline fill="none" stroke="black" points="340.12,-312.5 340.12,-275.5"/>
<polyline fill="none" stroke="black" points="340.12,-312.5 344.12,-316.5"/>
<text text-anchor="middle" x="311" y="-299.2" font-family="Times,serif" font-size="14.00">Dynamic</text>
<text text-anchor="middle" x="311" y="-282.7" font-family="Times,serif" font-size="14.00">Context</text>
</g>
<!-- Static&#45;&gt;Dynamic -->
<g id="edge7" class="edge">
<title>Static&#45;&gt;Dynamic</title>
<path fill="none" stroke="black" d="M269.5,-368.65C276.65,-356.3 285.98,-340.19 293.98,-326.38"/>
<polygon fill="black" stroke="black" points="296.78,-328.53 298.76,-318.13 290.72,-325.02 296.78,-328.53"/>
<text text-anchor="middle" x="304.25" y="-337.7" font-family="Times,serif" font-size="14.00"> DQ2</text>
</g>
<!-- Dynamic&#45;&gt;Exec -->
<g id="edge8" class="edge">
<title>Dynamic&#45;&gt;Exec</title>
<path fill="none" stroke="black" d="M271.71,-268.95C253.08,-256.6 230.88,-241.88 212.26,-229.53"/>
<polygon fill="black" stroke="black" points="269.53,-271.7 279.79,-274.31 273.39,-265.87 269.53,-271.7"/>
<polygon fill="black" stroke="black" points="214.42,-226.76 204.15,-224.15 210.55,-232.59 214.42,-226.76"/>
<text text-anchor="middle" x="269.36" y="-244.2" font-family="Times,serif" font-size="14.00"> DQ5</text>
</g>
<!-- Schema -->
<g id="node6" class="node">
<title>Schema</title>
<polygon fill="none" stroke="black" points="208.38,-520 131.62,-520 131.62,-462.5 208.38,-462.5 208.38,-520"/>
<text text-anchor="middle" x="170" y="-502.7" font-family="Times,serif" font-size="14.00">In&#45;Scope</text>
<text text-anchor="middle" x="170" y="-486.2" font-family="Times,serif" font-size="14.00">Schema</text>
<text text-anchor="middle" x="170" y="-469.7" font-family="Times,serif" font-size="14.00">Definitions</text>
</g>
<!-- Schema&#45;&gt;Static -->
<g id="edge4" class="edge">
<title>Schema&#45;&gt;Static</title>
<path fill="none" stroke="black" d="M194.75,-462.2C206.67,-448.68 220.95,-432.5 232.92,-418.93"/>
<polygon fill="black" stroke="black" points="235.41,-421.39 239.4,-411.58 230.16,-416.76 235.41,-421.39"/>
</g>
<!-- XQuery -->
<g id="node7" class="node">
<title>XQuery</title>
<path fill="none" stroke="black" d="M195.62,-410C195.62,-410 150.38,-410 150.38,-410 144.38,-410 138.38,-404 138.38,-398 138.38,-398 138.38,-381 138.38,-381 138.38,-375 144.38,-369 150.38,-369 150.38,-369 195.62,-369 195.62,-369 201.62,-369 207.62,-375 207.62,-381 207.62,-381 207.62,-398 207.62,-398 207.62,-404 201.62,-410 195.62,-410"/>
<text text-anchor="middle" x="173" y="-392.7" font-family="Times,serif" font-size="14.00">XQuery/</text>
<text text-anchor="middle" x="173" y="-376.2" font-family="Times,serif" font-size="14.00">XQueryX</text>
</g>
<!-- XQuery&#45;&gt;AST -->
<g id="edge1" class="edge">
<title>XQuery&#45;&gt;AST</title>
<path fill="none" stroke="black" d="M173,-368.65C173,-356.78 173,-341.44 173,-328"/>
<polygon fill="black" stroke="black" points="176.5,-328.33 173,-318.33 169.5,-328.33 176.5,-328.33"/>
<text text-anchor="middle" x="186.88" y="-337.7" font-family="Times,serif" font-size="14.00"> SQ1</text>
</g>
<!-- Modules -->
<g id="node8" class="node">
<title>Modules</title>
<path fill="none" stroke="black" d="M278,-509.25C278,-509.25 238,-509.25 238,-509.25 232,-509.25 226,-503.25 226,-497.25 226,-497.25 226,-485.25 226,-485.25 226,-479.25 232,-473.25 238,-473.25 238,-473.25 278,-473.25 278,-473.25 284,-473.25 290,-479.25 290,-485.25 290,-485.25 290,-497.25 290,-497.25 290,-503.25 284,-509.25 278,-509.25"/>
<text text-anchor="middle" x="258" y="-486.2" font-family="Times,serif" font-size="14.00">Modules</text>
</g>
<!-- Modules&#45;&gt;Static -->
<g id="edge5" class="edge">
<title>Modules&#45;&gt;Static</title>
<path fill="none" stroke="black" d="M258,-472.87C258,-458.72 258,-438.39 258,-421.47"/>
<polygon fill="black" stroke="black" points="261.5,-421.93 258,-411.93 254.5,-421.93 261.5,-421.93"/>
<text text-anchor="middle" x="271.88" y="-431.2" font-family="Times,serif" font-size="14.00"> SQ3</text>
</g>
<!-- XML -->
<g id="node9" class="node">
<title>XML</title>
<polygon fill="none" stroke="black" points="48,-314 0,-314 0,-278 54,-278 54,-308 48,-314"/>
<polyline fill="none" stroke="black" points="48,-314 48,-308"/>
<polyline fill="none" stroke="black" points="54,-308 48,-308"/>
<text text-anchor="middle" x="27" y="-290.95" font-family="Times,serif" font-size="14.00">XML</text>
</g>
<!-- XML&#45;&gt;XDM -->
<g id="edge12" class="edge">
<title>XML&#45;&gt;XDM</title>
<path fill="none" stroke="black" d="M20.09,-277.75C11.84,-254.15 1.36,-211.37 20,-182 42.28,-146.88 86.76,-128.59 122.04,-119.24"/>
<polygon fill="black" stroke="black" points="122.79,-122.66 131.66,-116.88 121.12,-115.87 122.79,-122.66"/>
<text text-anchor="middle" x="36.5" y="-197.45" font-family="Times,serif" font-size="14.00"> DM1</text>
</g>
<!-- PSVI -->
<g id="node10" class="node">
<title>PSVI</title>
<polygon fill="none" stroke="black" points="110,-220.5 62,-220.5 62,-184.5 116,-184.5 116,-214.5 110,-220.5"/>
<polyline fill="none" stroke="black" points="110,-220.5 110,-214.5"/>
<polyline fill="none" stroke="black" points="116,-214.5 110,-214.5"/>
<text text-anchor="middle" x="89" y="-197.45" font-family="Times,serif" font-size="14.00">PSVI</text>
</g>
<!-- XML&#45;&gt;PSVI -->
<g id="edge10" class="edge">
<title>XML&#45;&gt;PSVI</title>
<path fill="none" stroke="black" d="M38.66,-277.79C47.7,-264.46 60.38,-245.74 70.76,-230.42"/>
<polygon fill="black" stroke="black" points="73.62,-232.44 76.33,-222.2 67.82,-228.51 73.62,-232.44"/>
<text text-anchor="middle" x="80.05" y="-244.2" font-family="Times,serif" font-size="14.00"> DM1</text>
</g>
<!-- PSVI&#45;&gt;XDM -->
<g id="edge11" class="edge">
<title>PSVI&#45;&gt;XDM</title>
<path fill="none" stroke="black" d="M103.55,-184.23C112.7,-173.51 124.85,-159.53 136,-147.5 138.99,-144.27 142.17,-140.93 145.35,-137.64"/>
<polygon fill="black" stroke="black" points="147.63,-140.31 152.12,-130.71 142.63,-135.41 147.63,-140.31"/>
<text text-anchor="middle" x="152.5" y="-150.7" font-family="Times,serif" font-size="14.00"> DM2</text>
</g>
<!-- Direct -->
<g id="node11" class="node">
<title>Direct</title>
<path fill="none" stroke="black" d="M432.12,-223C432.12,-223 371.88,-223 371.88,-223 365.88,-223 359.88,-217 359.88,-211 359.88,-211 359.88,-194 359.88,-194 359.88,-188 365.88,-182 371.88,-182 371.88,-182 432.12,-182 432.12,-182 438.12,-182 444.12,-188 444.12,-194 444.12,-194 444.12,-211 444.12,-211 444.12,-217 438.12,-223 432.12,-223"/>
<text text-anchor="middle" x="402" y="-205.7" font-family="Times,serif" font-size="14.00">Other/Direct</text>
<text text-anchor="middle" x="402" y="-189.2" font-family="Times,serif" font-size="14.00">Generation</text>
</g>
<!-- Direct&#45;&gt;XDM -->
<g id="edge13" class="edge">
<title>Direct&#45;&gt;XDM</title>
<path fill="none" stroke="black" d="M359.41,-183.4C358.26,-182.93 357.12,-182.46 356,-182 311.27,-163.72 260.07,-143.65 223.22,-129.35"/>
<polygon fill="black" stroke="black" points="224.74,-126.19 214.16,-125.84 222.21,-132.72 224.74,-126.19"/>
<text text-anchor="middle" x="327.47" y="-150.7" font-family="Times,serif" font-size="14.00"> DM3</text>
</g>
<!-- Host -->
<g id="node12" class="node">
<title>Host</title>
<path fill="none" stroke="black" d="M357.62,-613.5C357.62,-613.5 294.38,-613.5 294.38,-613.5 288.38,-613.5 282.38,-607.5 282.38,-601.5 282.38,-601.5 282.38,-584.5 282.38,-584.5 282.38,-578.5 288.38,-572.5 294.38,-572.5 294.38,-572.5 357.62,-572.5 357.62,-572.5 363.62,-572.5 369.62,-578.5 369.62,-584.5 369.62,-584.5 369.62,-601.5 369.62,-601.5 369.62,-607.5 363.62,-613.5 357.62,-613.5"/>
<text text-anchor="middle" x="326" y="-596.2" font-family="Times,serif" font-size="14.00">Host</text>
<text text-anchor="middle" x="326" y="-579.7" font-family="Times,serif" font-size="14.00">Environment</text>
</g>
<!-- Host&#45;&gt;Static -->
<g id="edge15" class="edge">
<title>Host&#45;&gt;Static</title>
<path fill="none" stroke="black" d="M324.98,-572.19C322.63,-540.17 314.94,-475.81 290,-428 288.48,-425.08 286.69,-422.2 284.76,-419.4"/>
<polygon fill="black" stroke="black" points="287.55,-417.29 278.68,-411.5 282,-421.56 287.55,-417.29"/>
<text text-anchor="middle" x="333.46" y="-486.2" font-family="Times,serif" font-size="14.00"> SQ2</text>
</g>
<!-- Host&#45;&gt;Dynamic -->
<g id="edge16" class="edge">
<title>Host&#45;&gt;Dynamic</title>
<path fill="none" stroke="black" d="M335.99,-572.11C341.63,-559.76 348.11,-543.36 351,-528 364.52,-456.25 339.45,-371.63 323.24,-327.41"/>
<polygon fill="black" stroke="black" points="326.58,-326.35 319.77,-318.23 320.03,-328.82 326.58,-326.35"/>
<text text-anchor="middle" x="367.18" y="-431.2" font-family="Times,serif" font-size="14.00"> DQ3</text>
</g>
<!-- Host&#45;&gt;Schema -->
<g id="edge14" class="edge">
<title>Host&#45;&gt;Schema</title>
<path fill="none" stroke="black" d="M289.5,-572.01C268.01,-559.89 240.51,-543.76 217,-528 216.44,-527.63 215.88,-527.25 215.32,-526.86"/>
<polygon fill="black" stroke="black" points="217.55,-524.16 207.36,-521.27 213.53,-529.89 217.55,-524.16"/>
<text text-anchor="middle" x="269.42" y="-541.2" font-family="Times,serif" font-size="14.00"> SI1</text>
</g>
</g>
</svg>
