<?xml version="1.0" encoding="UTF-8" standalone="no"?>
<!DOCTYPE svg PUBLIC "-//W3C//DTD SVG 1.1//EN"
 "http://www.w3.org/Graphics/SVG/1.1/DTD/svg11.dtd">
<!-- Generated by graphviz version 7.0.0 (20221023.0053)
 -->
<!-- Pages: 1 -->
<svg width="497pt" height="153pt"
 viewBox="0.00 0.00 497.00 153.00" xmlns="http://www.w3.org/2000/svg" xmlns:xlink="http://www.w3.org/1999/xlink">
<g id="graph0" class="graph" transform="scale(1 1) rotate(0) translate(4 149)">
<polygon fill="white" stroke="none" points="-4,4 -4,-149 493,-149 493,4 -4,4"/>
<g id="clust1" class="cluster">
<title>cluster_legend</title>
<polygon fill="none" stroke="black" points="8,-8 8,-137 481,-137 481,-8 8,-8"/>
<text text-anchor="middle" x="244.5" y="-121.8" font-family="Times,serif" font-size="14.00">Legend</text>
</g>
<!-- _bat -->
<g id="node1" class="node">
<title>_bat</title>
<path fill="none" stroke="#e69f00" stroke-width="2" d="M136,-106C136,-106 28,-106 28,-106 22,-106 16,-100 16,-94 16,-94 16,-82 16,-82 16,-76 22,-70 28,-70 28,-70 136,-70 136,-70 142,-70 148,-76 148,-82 148,-82 148,-94 148,-94 148,-100 142,-106 136,-106"/>
<text text-anchor="middle" x="82" y="-84.3" font-family="Times,serif" font-size="14.00">Built&#45;in atomic types</text>
</g>
<!-- _bic -->
<g id="node2" class="node">
<title>_bic</title>
<path fill="none" stroke="#cc79a7" stroke-width="2" d="M314,-106C314,-106 196,-106 196,-106 190,-106 184,-100 184,-94 184,-94 184,-82 184,-82 184,-76 190,-70 196,-70 196,-70 314,-70 314,-70 320,-70 326,-76 326,-82 326,-82 326,-94 326,-94 326,-100 320,-106 314,-106"/>
<text text-anchor="middle" x="255" y="-84.3" font-family="Times,serif" font-size="14.00">Built&#45;in complex types</text>
</g>
<!-- _bat&#45;&gt;_bic -->
<!-- _fit -->
<g id="node3" class="node">
<title>_fit</title>
<path fill="none" stroke="#d55e00" stroke-width="2" d="M461,-106C461,-106 374,-106 374,-106 368,-106 362,-100 362,-94 362,-94 362,-82 362,-82 362,-76 368,-70 374,-70 374,-70 461,-70 461,-70 467,-70 473,-76 473,-82 473,-82 473,-94 473,-94 473,-100 467,-106 461,-106"/>
<text text-anchor="middle" x="417.5" y="-84.3" font-family="Times,serif" font-size="14.00">Built&#45;in list types</text>
</g>
<!-- _bic&#45;&gt;_fit -->
<!-- _udt -->
<g id="node4" class="node">
<title>_udt</title>
<path fill="none" stroke="#009e73" stroke-width="2" d="M129.5,-52C129.5,-52 34.5,-52 34.5,-52 28.5,-52 22.5,-46 22.5,-40 22.5,-40 22.5,-28 22.5,-28 22.5,-22 28.5,-16 34.5,-16 34.5,-16 129.5,-16 129.5,-16 135.5,-16 141.5,-22 141.5,-28 141.5,-28 141.5,-40 141.5,-40 141.5,-46 135.5,-52 129.5,-52"/>
<text text-anchor="middle" x="82" y="-30.3" font-family="Times,serif" font-size="14.00">User&#45;defined types</text>
</g>
<!-- _abt -->
<g id="node5" class="node">
<title>_abt</title>
<polygon fill="none" stroke="black" points="310,-52 204,-52 200,-48 200,-16 306,-16 310,-20 310,-52"/>
<polyline fill="none" stroke="black" points="306,-48 200,-48"/>
<polyline fill="none" stroke="black" points="306,-48 306,-16"/>
<polyline fill="none" stroke="black" points="306,-48 310,-52"/>
<text text-anchor="middle" x="255" y="-30.3" font-family="Times,serif" font-size="14.00">Conceptual types</text>
</g>
<!-- _udt&#45;&gt;_abt -->
</g>
</svg>
