<?xml version="1.0" encoding="UTF-8" standalone="no"?>
<!DOCTYPE svg PUBLIC "-//W3C//DTD SVG 1.1//EN"
 "http://www.w3.org/Graphics/SVG/1.1/DTD/svg11.dtd">
<!-- Generated by graphviz version 2.43.0 (0)
 -->
<!-- Title: %3 Pages: 1 -->
<svg width="593pt" height="207pt"
 viewBox="0.00 0.00 593.00 207.00" xmlns="http://www.w3.org/2000/svg" xmlns:xlink="http://www.w3.org/1999/xlink">
<g id="graph0" class="graph" transform="scale(1 1) rotate(0) translate(4 203)">
<title>%3</title>
<polygon fill="white" stroke="transparent" points="-4,4 -4,-203 589,-203 589,4 -4,4"/>
<g id="clust1" class="cluster">
<title>cluster_legend</title>
<polygon fill="none" stroke="black" points="8,-8 8,-191 577,-191 577,-8 8,-8"/>
<text text-anchor="middle" x="292.5" y="-175.8" font-family="Times,serif" font-size="14.00">Legend</text>
</g>
<!-- _bat -->
<g id="node1" class="node">
<title>_bat</title>
<path fill="none" stroke="#e69f00" stroke-width="2" d="M169,-160C169,-160 28,-160 28,-160 22,-160 16,-154 16,-148 16,-148 16,-136 16,-136 16,-130 22,-124 28,-124 28,-124 169,-124 169,-124 175,-124 181,-130 181,-136 181,-136 181,-148 181,-148 181,-154 175,-160 169,-160"/>
<text text-anchor="middle" x="98.5" y="-138.3" font-family="Times,serif" font-size="14.00">Built&#45;in atomic types</text>
</g>
<!-- _bic -->
<g id="node2" class="node">
<title>_bic</title>
<path fill="none" stroke="#cc79a7" stroke-width="2" d="M381,-160C381,-160 229,-160 229,-160 223,-160 217,-154 217,-148 217,-148 217,-136 217,-136 217,-130 223,-124 229,-124 229,-124 381,-124 381,-124 387,-124 393,-130 393,-136 393,-136 393,-148 393,-148 393,-154 387,-160 381,-160"/>
<text text-anchor="middle" x="305" y="-138.3" font-family="Times,serif" font-size="14.00">Built&#45;in complex types</text>
</g>
<!-- _bat&#45;&gt;_bic -->
<!-- _fit -->
<g id="node3" class="node">
<title>_fit</title>
<path fill="none" stroke="#d55e00" stroke-width="2" d="M557,-160C557,-160 441,-160 441,-160 435,-160 429,-154 429,-148 429,-148 429,-136 429,-136 429,-130 435,-124 441,-124 441,-124 557,-124 557,-124 563,-124 569,-130 569,-136 569,-136 569,-148 569,-148 569,-154 563,-160 557,-160"/>
<text text-anchor="middle" x="499" y="-138.3" font-family="Times,serif" font-size="14.00">Built&#45;in list types</text>
</g>
<!-- _bic&#45;&gt;_fit -->
<!-- _udt -->
<g id="node4" class="node">
<title>_udt</title>
<path fill="none" stroke="#009e73" stroke-width="2" d="M162.5,-106C162.5,-106 34.5,-106 34.5,-106 28.5,-106 22.5,-100 22.5,-94 22.5,-94 22.5,-82 22.5,-82 22.5,-76 28.5,-70 34.5,-70 34.5,-70 162.5,-70 162.5,-70 168.5,-70 174.5,-76 174.5,-82 174.5,-82 174.5,-94 174.5,-94 174.5,-100 168.5,-106 162.5,-106"/>
<text text-anchor="middle" x="98.5" y="-84.3" font-family="Times,serif" font-size="14.00">User&#45;defined types</text>
</g>
<!-- _abt -->
<g id="node5" class="node">
<title>_abt</title>
<polygon fill="none" stroke="black" points="375,-106 239,-106 235,-102 235,-70 371,-70 375,-74 375,-106"/>
<polyline fill="none" stroke="black" points="371,-102 235,-102 "/>
<polyline fill="none" stroke="black" points="371,-102 371,-70 "/>
<polyline fill="none" stroke="black" points="371,-102 375,-106 "/>
<text text-anchor="middle" x="305" y="-84.3" font-family="Times,serif" font-size="14.00">Conceptual types</text>
</g>
<!-- _udt&#45;&gt;_abt -->
<!-- _type -->
<g id="node6" class="node">
<title>_type</title>
<path fill="none" stroke="#000000" stroke-width="2" d="M131,-52C131,-52 66,-52 66,-52 60,-52 54,-46 54,-40 54,-40 54,-28 54,-28 54,-22 60,-16 66,-16 66,-16 131,-16 131,-16 137,-16 143,-22 143,-28 143,-28 143,-40 143,-40 143,-46 137,-52 131,-52"/>
<text text-anchor="middle" x="98.5" y="-30.3" font-family="Times,serif" font-size="14.00">supertype</text>
</g>
<!-- _stype -->
<g id="node7" class="node">
<title>_stype</title>
<path fill="none" stroke="#000000" stroke-width="2" d="M330,-52C330,-52 280,-52 280,-52 274,-52 268,-46 268,-40 268,-40 268,-28 268,-28 268,-22 274,-16 280,-16 280,-16 330,-16 330,-16 336,-16 342,-22 342,-28 342,-28 342,-40 342,-40 342,-46 336,-52 330,-52"/>
<text text-anchor="middle" x="305" y="-30.3" font-family="Times,serif" font-size="14.00">subtype</text>
</g>
<!-- _type&#45;&gt;_stype -->
<g id="edge4" class="edge">
<title>_type&#45;&gt;_stype</title>
<path fill="none" stroke="black" d="M153.5,-34C189.65,-34 236.24,-34 267.95,-34"/>
<polygon fill="black" stroke="black" points="153.12,-30.5 143.12,-34 153.12,-37.5 153.12,-30.5"/>
</g>
</g>
</svg>
