<?xml version="1.0" encoding="UTF-8" standalone="no"?>
<!DOCTYPE svg PUBLIC "-//W3C//DTD SVG 1.1//EN"
 "http://www.w3.org/Graphics/SVG/1.1/DTD/svg11.dtd">
<!-- Generated by graphviz version 14.0.0 (20250921.2048)
 -->
<!-- Title: xnodes Pages: 1 -->
<svg width="486pt" height="329pt"
 viewBox="0.00 0.00 486.00 329.00" xmlns="http://www.w3.org/2000/svg" xmlns:xlink="http://www.w3.org/1999/xlink">
<g id="graph0" class="graph" transform="scale(0.618026 0.618026) rotate(0) translate(4 528.5)">
<title>xnodes</title>
<!-- R -->
<g id="node1" class="node">
<title>R</title>
<polygon fill="none" stroke="black" points="210.38,-502 210.38,-524.5 451.88,-524.5 451.88,-502 210.38,-502"/>
<text xml:space="preserve" text-anchor="start" x="326.62" y="-508.2" font-family="Times,serif" font-size="14.00">R</text>
<polygon fill="none" stroke="black" points="210.38,-375.25 210.38,-502 256.12,-502 256.12,-375.25 210.38,-375.25"/>
<text xml:space="preserve" text-anchor="start" x="213.38" y="-433.57" font-family="Times,serif" font-size="14.00">content</text>
<polygon fill="none" stroke="black" points="256.12,-375.25 256.12,-502 451.88,-502 451.88,-375.25 256.12,-375.25"/>
<text xml:space="preserve" text-anchor="start" x="259.12" y="-485.7" font-family="monospace" font-size="14.00">{</text>
<text xml:space="preserve" text-anchor="start" x="259.12" y="-468.45" font-family="monospace" font-size="14.00"> &#160;&#160;&quot;a&quot;: 1,</text>
<text xml:space="preserve" text-anchor="start" x="259.12" y="-451.2" font-family="monospace" font-size="14.00"> &#160;&#160;&quot;b&quot;: (&quot;x&quot;, &quot;y&quot;),</text>
<text xml:space="preserve" text-anchor="start" x="259.12" y="-433.95" font-family="monospace" font-size="14.00"> &#160;&#160;&quot;c&quot;: [(10, 20), 30],</text>
<text xml:space="preserve" text-anchor="start" x="259.12" y="-416.7" font-family="monospace" font-size="14.00"> &#160;&#160;&quot;d&quot;: (10, [20, 30]),</text>
<text xml:space="preserve" text-anchor="start" x="259.12" y="-399.45" font-family="monospace" font-size="14.00"> &#160;&#160;&quot;e&quot;: (&lt;p/&gt;, &lt;q/&gt;)</text>
<text xml:space="preserve" text-anchor="start" x="259.12" y="-382.2" font-family="monospace" font-size="14.00">}</text>
</g>
<!-- J1 -->
<g id="node2" class="node">
<title>J1</title>
<polygon fill="none" stroke="black" points="0,-296.5 0,-319 80.25,-319 80.25,-296.5 0,-296.5"/>
<text xml:space="preserve" text-anchor="start" x="34.12" y="-302.7" font-family="Times,serif" font-size="14.00">J1</text>
<polygon fill="none" stroke="black" points="0,-273.25 0,-296.5 49.5,-296.5 49.5,-273.25 0,-273.25"/>
<text xml:space="preserve" text-anchor="start" x="4.88" y="-279.82" font-family="Times,serif" font-size="14.00">content</text>
<polygon fill="none" stroke="black" points="49.5,-273.25 49.5,-296.5 80.25,-296.5 80.25,-273.25 49.5,-273.25"/>
<text xml:space="preserve" text-anchor="start" x="60.75" y="-280.2" font-family="monospace" font-size="14.00">1</text>
<polygon fill="none" stroke="black" points="0,-250 0,-273.25 49.5,-273.25 49.5,-250 0,-250"/>
<text xml:space="preserve" text-anchor="start" x="7.88" y="-256.57" font-family="Times,serif" font-size="14.00">parent</text>
<polygon fill="none" stroke="black" points="49.5,-250 49.5,-273.25 80.25,-273.25 80.25,-250 49.5,-250"/>
<text xml:space="preserve" text-anchor="start" x="60.75" y="-256.95" font-family="monospace" font-size="14.00">R</text>
<polygon fill="none" stroke="black" points="0,-226.75 0,-250 49.5,-250 49.5,-226.75 0,-226.75"/>
<text xml:space="preserve" text-anchor="start" x="3" y="-233.32" font-family="Times,serif" font-size="14.00">position</text>
<polygon fill="none" stroke="black" points="49.5,-226.75 49.5,-250 80.25,-250 80.25,-226.75 49.5,-226.75"/>
<text xml:space="preserve" text-anchor="start" x="60.75" y="-233.7" font-family="monospace" font-size="14.00">1</text>
<polygon fill="none" stroke="black" points="0,-203.5 0,-226.75 49.5,-226.75 49.5,-203.5 0,-203.5"/>
<text xml:space="preserve" text-anchor="start" x="3.75" y="-210.07" font-family="Times,serif" font-size="14.00">selector</text>
<polygon fill="none" stroke="black" points="49.5,-203.5 49.5,-226.75 80.25,-226.75 80.25,-203.5 49.5,-203.5"/>
<text xml:space="preserve" text-anchor="start" x="52.5" y="-210.45" font-family="monospace" font-size="14.00">&quot;a&quot;</text>
</g>
<!-- R&#45;&gt;J1 -->
<g id="edge1" class="edge">
<title>R&#45;&gt;J1</title>
<path fill="none" stroke="black" d="M210.65,-395.24C170.05,-374.37 125.78,-348.37 89.12,-319 88.93,-318.85 88.74,-318.69 88.55,-318.54"/>
<polygon fill="black" stroke="black" points="91.09,-316.11 81.28,-312.14 86.47,-321.37 91.09,-316.11"/>
<text xml:space="preserve" text-anchor="middle" x="145.11" y="-343.95" font-family="Times,serif" font-size="14.00">①</text>
</g>
<!-- J2 -->
<g id="node4" class="node">
<title>J2</title>
<polygon fill="none" stroke="black" points="98.25,-296.5 98.25,-319 228,-319 228,-296.5 98.25,-296.5"/>
<text xml:space="preserve" text-anchor="start" x="157.12" y="-302.7" font-family="Times,serif" font-size="14.00">J2</text>
<polygon fill="none" stroke="black" points="98.25,-273.25 98.25,-296.5 147.75,-296.5 147.75,-273.25 98.25,-273.25"/>
<text xml:space="preserve" text-anchor="start" x="103.12" y="-279.82" font-family="Times,serif" font-size="14.00">content</text>
<polygon fill="none" stroke="black" points="147.75,-273.25 147.75,-296.5 228,-296.5 228,-273.25 147.75,-273.25"/>
<text xml:space="preserve" text-anchor="start" x="150.75" y="-280.2" font-family="monospace" font-size="14.00">(&quot;x&quot;,&quot;y&quot;)</text>
<polygon fill="none" stroke="black" points="98.25,-250 98.25,-273.25 147.75,-273.25 147.75,-250 98.25,-250"/>
<text xml:space="preserve" text-anchor="start" x="106.12" y="-256.57" font-family="Times,serif" font-size="14.00">parent</text>
<polygon fill="none" stroke="black" points="147.75,-250 147.75,-273.25 228,-273.25 228,-250 147.75,-250"/>
<text xml:space="preserve" text-anchor="start" x="183.75" y="-256.95" font-family="monospace" font-size="14.00">R</text>
<polygon fill="none" stroke="black" points="98.25,-226.75 98.25,-250 147.75,-250 147.75,-226.75 98.25,-226.75"/>
<text xml:space="preserve" text-anchor="start" x="101.25" y="-233.32" font-family="Times,serif" font-size="14.00">position</text>
<polygon fill="none" stroke="black" points="147.75,-226.75 147.75,-250 228,-250 228,-226.75 147.75,-226.75"/>
<text xml:space="preserve" text-anchor="start" x="183.75" y="-233.7" font-family="monospace" font-size="14.00">1</text>
<polygon fill="none" stroke="black" points="98.25,-203.5 98.25,-226.75 147.75,-226.75 147.75,-203.5 98.25,-203.5"/>
<text xml:space="preserve" text-anchor="start" x="102" y="-210.07" font-family="Times,serif" font-size="14.00">selector</text>
<polygon fill="none" stroke="black" points="147.75,-203.5 147.75,-226.75 228,-226.75 228,-203.5 147.75,-203.5"/>
<text xml:space="preserve" text-anchor="start" x="175.5" y="-210.45" font-family="monospace" font-size="14.00">&quot;b&quot;</text>
</g>
<!-- R&#45;&gt;J2 -->
<g id="edge3" class="edge">
<title>R&#45;&gt;J2</title>
<path fill="none" stroke="black" d="M264.97,-375.38C250.71,-359.55 235.74,-342.91 221.79,-327.42"/>
<polygon fill="black" stroke="black" points="224.47,-325.16 215.17,-320.07 219.26,-329.84 224.47,-325.16"/>
<text xml:space="preserve" text-anchor="middle" x="254.25" y="-343.95" font-family="Times,serif" font-size="14.00">②</text>
</g>
<!-- J3 -->
<g id="node6" class="node">
<title>J3</title>
<polygon fill="none" stroke="black" points="245.62,-296.5 245.62,-319 416.62,-319 416.62,-296.5 245.62,-296.5"/>
<text xml:space="preserve" text-anchor="start" x="325.12" y="-302.7" font-family="Times,serif" font-size="14.00">J3</text>
<polygon fill="none" stroke="black" points="245.62,-273.25 245.62,-296.5 295.12,-296.5 295.12,-273.25 245.62,-273.25"/>
<text xml:space="preserve" text-anchor="start" x="250.5" y="-279.82" font-family="Times,serif" font-size="14.00">content</text>
<polygon fill="none" stroke="black" points="295.12,-273.25 295.12,-296.5 416.62,-296.5 416.62,-273.25 295.12,-273.25"/>
<text xml:space="preserve" text-anchor="start" x="298.12" y="-280.2" font-family="monospace" font-size="14.00">[(10, 20), 30]</text>
<polygon fill="none" stroke="black" points="245.62,-250 245.62,-273.25 295.12,-273.25 295.12,-250 245.62,-250"/>
<text xml:space="preserve" text-anchor="start" x="253.5" y="-256.57" font-family="Times,serif" font-size="14.00">parent</text>
<polygon fill="none" stroke="black" points="295.12,-250 295.12,-273.25 416.62,-273.25 416.62,-250 295.12,-250"/>
<text xml:space="preserve" text-anchor="start" x="351.75" y="-256.95" font-family="monospace" font-size="14.00">R</text>
<polygon fill="none" stroke="black" points="245.62,-226.75 245.62,-250 295.12,-250 295.12,-226.75 245.62,-226.75"/>
<text xml:space="preserve" text-anchor="start" x="248.62" y="-233.32" font-family="Times,serif" font-size="14.00">position</text>
<polygon fill="none" stroke="black" points="295.12,-226.75 295.12,-250 416.62,-250 416.62,-226.75 295.12,-226.75"/>
<text xml:space="preserve" text-anchor="start" x="351.75" y="-233.7" font-family="monospace" font-size="14.00">1</text>
<polygon fill="none" stroke="black" points="245.62,-203.5 245.62,-226.75 295.12,-226.75 295.12,-203.5 245.62,-203.5"/>
<text xml:space="preserve" text-anchor="start" x="249.38" y="-210.07" font-family="Times,serif" font-size="14.00">selector</text>
<polygon fill="none" stroke="black" points="295.12,-203.5 295.12,-226.75 416.62,-226.75 416.62,-203.5 295.12,-203.5"/>
<text xml:space="preserve" text-anchor="start" x="343.5" y="-210.45" font-family="monospace" font-size="14.00">&quot;c&quot;</text>
</g>
<!-- R&#45;&gt;J3 -->
<g id="edge5" class="edge">
<title>R&#45;&gt;J3</title>
<path fill="none" stroke="black" d="M331.12,-375.38C331.12,-360.57 331.12,-345.07 331.12,-330.45"/>
<polygon fill="black" stroke="black" points="334.63,-330.46 331.13,-320.46 327.63,-330.46 334.63,-330.46"/>
<text xml:space="preserve" text-anchor="middle" x="338.25" y="-343.95" font-family="Times,serif" font-size="14.00">③</text>
</g>
<!-- J4 -->
<g id="node11" class="node">
<title>J4</title>
<polygon fill="none" stroke="black" points="434.62,-296.5 434.62,-319 605.62,-319 605.62,-296.5 434.62,-296.5"/>
<text xml:space="preserve" text-anchor="start" x="514.12" y="-302.7" font-family="Times,serif" font-size="14.00">J4</text>
<polygon fill="none" stroke="black" points="434.62,-273.25 434.62,-296.5 484.12,-296.5 484.12,-273.25 434.62,-273.25"/>
<text xml:space="preserve" text-anchor="start" x="439.5" y="-279.82" font-family="Times,serif" font-size="14.00">content</text>
<polygon fill="none" stroke="black" points="484.12,-273.25 484.12,-296.5 605.62,-296.5 605.62,-273.25 484.12,-273.25"/>
<text xml:space="preserve" text-anchor="start" x="487.12" y="-280.2" font-family="monospace" font-size="14.00">(10, [20, 30])</text>
<polygon fill="none" stroke="black" points="434.62,-250 434.62,-273.25 484.12,-273.25 484.12,-250 434.62,-250"/>
<text xml:space="preserve" text-anchor="start" x="442.5" y="-256.57" font-family="Times,serif" font-size="14.00">parent</text>
<polygon fill="none" stroke="black" points="484.12,-250 484.12,-273.25 605.62,-273.25 605.62,-250 484.12,-250"/>
<text xml:space="preserve" text-anchor="start" x="540.75" y="-256.95" font-family="monospace" font-size="14.00">R</text>
<polygon fill="none" stroke="black" points="434.62,-226.75 434.62,-250 484.12,-250 484.12,-226.75 434.62,-226.75"/>
<text xml:space="preserve" text-anchor="start" x="437.62" y="-233.32" font-family="Times,serif" font-size="14.00">position</text>
<polygon fill="none" stroke="black" points="484.12,-226.75 484.12,-250 605.62,-250 605.62,-226.75 484.12,-226.75"/>
<text xml:space="preserve" text-anchor="start" x="540.75" y="-233.7" font-family="monospace" font-size="14.00">1</text>
<polygon fill="none" stroke="black" points="434.62,-203.5 434.62,-226.75 484.12,-226.75 484.12,-203.5 434.62,-203.5"/>
<text xml:space="preserve" text-anchor="start" x="438.38" y="-210.07" font-family="Times,serif" font-size="14.00">selector</text>
<polygon fill="none" stroke="black" points="484.12,-203.5 484.12,-226.75 605.62,-226.75 605.62,-203.5 484.12,-203.5"/>
<text xml:space="preserve" text-anchor="start" x="532.5" y="-210.45" font-family="monospace" font-size="14.00">&quot;d&quot;</text>
</g>
<!-- R&#45;&gt;J4 -->
<g id="edge10" class="edge">
<title>R&#45;&gt;J4</title>
<path fill="none" stroke="black" d="M405.55,-375.38C421.74,-359.4 438.75,-342.61 454.56,-326.99"/>
<polygon fill="black" stroke="black" points="456.98,-329.52 461.63,-320.01 452.06,-324.54 456.98,-329.52"/>
<text xml:space="preserve" text-anchor="middle" x="449.68" y="-343.95" font-family="Times,serif" font-size="14.00">④</text>
</g>
<!-- J5 -->
<g id="node16" class="node">
<title>J5</title>
<polygon fill="none" stroke="black" points="623.88,-296.5 623.88,-319 778.38,-319 778.38,-296.5 623.88,-296.5"/>
<text xml:space="preserve" text-anchor="start" x="695.12" y="-302.7" font-family="Times,serif" font-size="14.00">J5</text>
<polygon fill="none" stroke="black" points="623.88,-273.25 623.88,-296.5 673.38,-296.5 673.38,-273.25 623.88,-273.25"/>
<text xml:space="preserve" text-anchor="start" x="628.75" y="-279.82" font-family="Times,serif" font-size="14.00">content</text>
<polygon fill="none" stroke="black" points="673.38,-273.25 673.38,-296.5 778.38,-296.5 778.38,-273.25 673.38,-273.25"/>
<text xml:space="preserve" text-anchor="start" x="676.38" y="-280.2" font-family="monospace" font-size="14.00">(&lt;p/&gt;, &lt;q/&gt;)</text>
<polygon fill="none" stroke="black" points="623.88,-250 623.88,-273.25 673.38,-273.25 673.38,-250 623.88,-250"/>
<text xml:space="preserve" text-anchor="start" x="631.75" y="-256.57" font-family="Times,serif" font-size="14.00">parent</text>
<polygon fill="none" stroke="black" points="673.38,-250 673.38,-273.25 778.38,-273.25 778.38,-250 673.38,-250"/>
<text xml:space="preserve" text-anchor="start" x="721.75" y="-256.95" font-family="monospace" font-size="14.00">R</text>
<polygon fill="none" stroke="black" points="623.88,-226.75 623.88,-250 673.38,-250 673.38,-226.75 623.88,-226.75"/>
<text xml:space="preserve" text-anchor="start" x="626.88" y="-233.32" font-family="Times,serif" font-size="14.00">position</text>
<polygon fill="none" stroke="black" points="673.38,-226.75 673.38,-250 778.38,-250 778.38,-226.75 673.38,-226.75"/>
<text xml:space="preserve" text-anchor="start" x="721.75" y="-233.7" font-family="monospace" font-size="14.00">1</text>
<polygon fill="none" stroke="black" points="623.88,-203.5 623.88,-226.75 673.38,-226.75 673.38,-203.5 623.88,-203.5"/>
<text xml:space="preserve" text-anchor="start" x="627.62" y="-210.07" font-family="Times,serif" font-size="14.00">selector</text>
<polygon fill="none" stroke="black" points="673.38,-203.5 673.38,-226.75 778.38,-226.75 778.38,-203.5 673.38,-203.5"/>
<text xml:space="preserve" text-anchor="start" x="713.5" y="-210.45" font-family="monospace" font-size="14.00">&quot;e&quot;</text>
</g>
<!-- R&#45;&gt;J5 -->
<g id="edge15" class="edge">
<title>R&#45;&gt;J5</title>
<path fill="none" stroke="black" d="M451.63,-398.69C500.12,-377.32 556.32,-351.03 614.08,-319.41"/>
<polygon fill="black" stroke="black" points="615.73,-322.5 622.79,-314.6 612.35,-316.37 615.73,-322.5"/>
<text xml:space="preserve" text-anchor="middle" x="584.8" y="-343.95" font-family="Times,serif" font-size="14.00">⑤</text>
</g>
<!-- J1_ch -->
<g id="node3" class="node">
<title>J1_ch</title>
<text xml:space="preserve" text-anchor="start" x="31.88" y="-96.08" font-family="monospace" font-size="14.00">()</text>
</g>
<!-- J1&#45;&gt;J1_ch -->
<g id="edge2" class="edge">
<title>J1&#45;&gt;J1_ch</title>
<path fill="none" stroke="black" d="M40.12,-203.92C40.12,-174.73 40.12,-140.99 40.12,-120.52"/>
<polygon fill="black" stroke="black" points="43.63,-120.68 40.13,-110.68 36.63,-120.68 43.63,-120.68"/>
</g>
<!-- J2_ch -->
<g id="node5" class="node">
<title>J2_ch</title>
<text xml:space="preserve" text-anchor="start" x="154.88" y="-96.08" font-family="monospace" font-size="14.00">()</text>
</g>
<!-- J2&#45;&gt;J2_ch -->
<g id="edge4" class="edge">
<title>J2&#45;&gt;J2_ch</title>
<path fill="none" stroke="black" d="M163.12,-203.92C163.12,-174.73 163.12,-140.99 163.12,-120.52"/>
<polygon fill="black" stroke="black" points="166.63,-120.68 163.13,-110.68 159.63,-120.68 166.63,-120.68"/>
</g>
<!-- J3_1 -->
<g id="node7" class="node">
<title>J3_1</title>
<polygon fill="none" stroke="black" points="205.38,-124 205.38,-147.25 254.88,-147.25 254.88,-124 205.38,-124"/>
<text xml:space="preserve" text-anchor="start" x="210.25" y="-130.57" font-family="Times,serif" font-size="14.00">content</text>
<polygon fill="none" stroke="black" points="254.88,-124 254.88,-147.25 326.88,-147.25 326.88,-124 254.88,-124"/>
<text xml:space="preserve" text-anchor="start" x="257.88" y="-130.95" font-family="monospace" font-size="14.00">(10, 20)</text>
<polygon fill="none" stroke="black" points="205.38,-100.75 205.38,-124 254.88,-124 254.88,-100.75 205.38,-100.75"/>
<text xml:space="preserve" text-anchor="start" x="213.25" y="-107.33" font-family="Times,serif" font-size="14.00">parent</text>
<polygon fill="none" stroke="black" points="254.88,-100.75 254.88,-124 326.88,-124 326.88,-100.75 254.88,-100.75"/>
<text xml:space="preserve" text-anchor="start" x="282.62" y="-107.7" font-family="monospace" font-size="14.00">J3</text>
<polygon fill="none" stroke="black" points="205.38,-77.5 205.38,-100.75 254.88,-100.75 254.88,-77.5 205.38,-77.5"/>
<text xml:space="preserve" text-anchor="start" x="208.38" y="-84.08" font-family="Times,serif" font-size="14.00">position</text>
<polygon fill="none" stroke="black" points="254.88,-77.5 254.88,-100.75 326.88,-100.75 326.88,-77.5 254.88,-77.5"/>
<text xml:space="preserve" text-anchor="start" x="286.75" y="-84.45" font-family="monospace" font-size="14.00">1</text>
<polygon fill="none" stroke="black" points="205.38,-54.25 205.38,-77.5 254.88,-77.5 254.88,-54.25 205.38,-54.25"/>
<text xml:space="preserve" text-anchor="start" x="209.12" y="-60.83" font-family="Times,serif" font-size="14.00">selector</text>
<polygon fill="none" stroke="black" points="254.88,-54.25 254.88,-77.5 326.88,-77.5 326.88,-54.25 254.88,-54.25"/>
<text xml:space="preserve" text-anchor="start" x="286.75" y="-61.2" font-family="monospace" font-size="14.00">1</text>
</g>
<!-- J3&#45;&gt;J3_1 -->
<g id="edge6" class="edge">
<title>J3&#45;&gt;J3_1</title>
<path fill="none" stroke="black" d="M308.03,-203.92C301.89,-188.96 295.26,-172.8 289.13,-157.85"/>
<polygon fill="black" stroke="black" points="292.37,-156.53 285.34,-148.61 285.9,-159.19 292.37,-156.53"/>
<text xml:space="preserve" text-anchor="middle" x="305.75" y="-172.2" font-family="Times,serif" font-size="14.00">①</text>
</g>
<!-- J3_2 -->
<g id="node9" class="node">
<title>J3_2</title>
<polygon fill="none" stroke="black" points="345.12,-124 345.12,-147.25 394.62,-147.25 394.62,-124 345.12,-124"/>
<text xml:space="preserve" text-anchor="start" x="350" y="-130.57" font-family="Times,serif" font-size="14.00">content</text>
<polygon fill="none" stroke="black" points="394.62,-124 394.62,-147.25 417.12,-147.25 417.12,-124 394.62,-124"/>
<text xml:space="preserve" text-anchor="start" x="397.62" y="-130.95" font-family="monospace" font-size="14.00">30</text>
<polygon fill="none" stroke="black" points="345.12,-100.75 345.12,-124 394.62,-124 394.62,-100.75 345.12,-100.75"/>
<text xml:space="preserve" text-anchor="start" x="353" y="-107.33" font-family="Times,serif" font-size="14.00">parent</text>
<polygon fill="none" stroke="black" points="394.62,-100.75 394.62,-124 417.12,-124 417.12,-100.75 394.62,-100.75"/>
<text xml:space="preserve" text-anchor="start" x="397.62" y="-107.7" font-family="monospace" font-size="14.00">J3</text>
<polygon fill="none" stroke="black" points="345.12,-77.5 345.12,-100.75 394.62,-100.75 394.62,-77.5 345.12,-77.5"/>
<text xml:space="preserve" text-anchor="start" x="348.12" y="-84.08" font-family="Times,serif" font-size="14.00">position</text>
<polygon fill="none" stroke="black" points="394.62,-77.5 394.62,-100.75 417.12,-100.75 417.12,-77.5 394.62,-77.5"/>
<text xml:space="preserve" text-anchor="start" x="401.75" y="-84.45" font-family="monospace" font-size="14.00">1</text>
<polygon fill="none" stroke="black" points="345.12,-54.25 345.12,-77.5 394.62,-77.5 394.62,-54.25 345.12,-54.25"/>
<text xml:space="preserve" text-anchor="start" x="348.88" y="-60.83" font-family="Times,serif" font-size="14.00">selector</text>
<polygon fill="none" stroke="black" points="394.62,-54.25 394.62,-77.5 417.12,-77.5 417.12,-54.25 394.62,-54.25"/>
<text xml:space="preserve" text-anchor="start" x="401.75" y="-61.2" font-family="monospace" font-size="14.00">2</text>
</g>
<!-- J3&#45;&gt;J3_2 -->
<g id="edge7" class="edge">
<title>J3&#45;&gt;J3_2</title>
<path fill="none" stroke="black" d="M348.89,-203.92C353.61,-188.96 358.71,-172.8 363.43,-157.85"/>
<polygon fill="black" stroke="black" points="366.66,-159.24 366.33,-148.65 359.98,-157.14 366.66,-159.24"/>
<text xml:space="preserve" text-anchor="middle" x="367.73" y="-172.2" font-family="Times,serif" font-size="14.00">②</text>
</g>
<!-- J3_1_ch -->
<g id="node8" class="node">
<title>J3_1_ch</title>
<text xml:space="preserve" text-anchor="start" x="257.88" y="-3.95" font-family="monospace" font-size="14.00">()</text>
</g>
<!-- J3_1&#45;&gt;J3_1_ch -->
<g id="edge8" class="edge">
<title>J3_1&#45;&gt;J3_1_ch</title>
<path fill="none" stroke="black" d="M266.12,-54.42C266.12,-45.21 266.12,-36.02 266.12,-28.38"/>
<polygon fill="black" stroke="black" points="269.63,-28.46 266.13,-18.46 262.63,-28.46 269.63,-28.46"/>
</g>
<!-- J3_2_ch -->
<g id="node10" class="node">
<title>J3_2_ch</title>
<text xml:space="preserve" text-anchor="start" x="372.88" y="-3.95" font-family="monospace" font-size="14.00">()</text>
</g>
<!-- J3_2&#45;&gt;J3_2_ch -->
<g id="edge9" class="edge">
<title>J3_2&#45;&gt;J3_2_ch</title>
<path fill="none" stroke="black" d="M381.12,-54.42C381.12,-45.21 381.12,-36.02 381.12,-28.38"/>
<polygon fill="black" stroke="black" points="384.63,-28.46 381.13,-18.46 377.63,-28.46 384.63,-28.46"/>
</g>
<!-- J4_1 -->
<g id="node12" class="node">
<title>J4_1</title>
<polygon fill="none" stroke="black" points="442.12,-124 442.12,-147.25 491.62,-147.25 491.62,-124 442.12,-124"/>
<text xml:space="preserve" text-anchor="start" x="447" y="-130.57" font-family="Times,serif" font-size="14.00">content</text>
<polygon fill="none" stroke="black" points="491.62,-124 491.62,-147.25 514.12,-147.25 514.12,-124 491.62,-124"/>
<text xml:space="preserve" text-anchor="start" x="494.62" y="-130.95" font-family="monospace" font-size="14.00">20</text>
<polygon fill="none" stroke="black" points="442.12,-100.75 442.12,-124 491.62,-124 491.62,-100.75 442.12,-100.75"/>
<text xml:space="preserve" text-anchor="start" x="450" y="-107.33" font-family="Times,serif" font-size="14.00">parent</text>
<polygon fill="none" stroke="black" points="491.62,-100.75 491.62,-124 514.12,-124 514.12,-100.75 491.62,-100.75"/>
<text xml:space="preserve" text-anchor="start" x="494.62" y="-107.7" font-family="monospace" font-size="14.00">J4</text>
<polygon fill="none" stroke="black" points="442.12,-77.5 442.12,-100.75 491.62,-100.75 491.62,-77.5 442.12,-77.5"/>
<text xml:space="preserve" text-anchor="start" x="445.12" y="-84.08" font-family="Times,serif" font-size="14.00">position</text>
<polygon fill="none" stroke="black" points="491.62,-77.5 491.62,-100.75 514.12,-100.75 514.12,-77.5 491.62,-77.5"/>
<text xml:space="preserve" text-anchor="start" x="498.75" y="-84.45" font-family="monospace" font-size="14.00">2</text>
<polygon fill="none" stroke="black" points="442.12,-54.25 442.12,-77.5 491.62,-77.5 491.62,-54.25 442.12,-54.25"/>
<text xml:space="preserve" text-anchor="start" x="445.88" y="-60.83" font-family="Times,serif" font-size="14.00">selector</text>
<polygon fill="none" stroke="black" points="491.62,-54.25 491.62,-77.5 514.12,-77.5 514.12,-54.25 491.62,-54.25"/>
<text xml:space="preserve" text-anchor="start" x="498.75" y="-61.2" font-family="monospace" font-size="14.00">1</text>
</g>
<!-- J4&#45;&gt;J4_1 -->
<g id="edge11" class="edge">
<title>J4&#45;&gt;J4_1</title>
<path fill="none" stroke="black" d="M505.2,-203.92C501.27,-189.1 497.04,-173.11 493.11,-158.28"/>
<polygon fill="black" stroke="black" points="496.5,-157.44 490.56,-148.67 489.74,-159.23 496.5,-157.44"/>
<text xml:space="preserve" text-anchor="middle" x="506.25" y="-172.2" font-family="Times,serif" font-size="14.00">①</text>
</g>
<!-- J4_2 -->
<g id="node14" class="node">
<title>J4_2</title>
<polygon fill="none" stroke="black" points="532.12,-124 532.12,-147.25 581.62,-147.25 581.62,-124 532.12,-124"/>
<text xml:space="preserve" text-anchor="start" x="537" y="-130.57" font-family="Times,serif" font-size="14.00">content</text>
<polygon fill="none" stroke="black" points="581.62,-124 581.62,-147.25 604.12,-147.25 604.12,-124 581.62,-124"/>
<text xml:space="preserve" text-anchor="start" x="584.62" y="-130.95" font-family="monospace" font-size="14.00">30</text>
<polygon fill="none" stroke="black" points="532.12,-100.75 532.12,-124 581.62,-124 581.62,-100.75 532.12,-100.75"/>
<text xml:space="preserve" text-anchor="start" x="540" y="-107.33" font-family="Times,serif" font-size="14.00">parent</text>
<polygon fill="none" stroke="black" points="581.62,-100.75 581.62,-124 604.12,-124 604.12,-100.75 581.62,-100.75"/>
<text xml:space="preserve" text-anchor="start" x="584.62" y="-107.7" font-family="monospace" font-size="14.00">J4</text>
<polygon fill="none" stroke="black" points="532.12,-77.5 532.12,-100.75 581.62,-100.75 581.62,-77.5 532.12,-77.5"/>
<text xml:space="preserve" text-anchor="start" x="535.12" y="-84.08" font-family="Times,serif" font-size="14.00">position</text>
<polygon fill="none" stroke="black" points="581.62,-77.5 581.62,-100.75 604.12,-100.75 604.12,-77.5 581.62,-77.5"/>
<text xml:space="preserve" text-anchor="start" x="588.75" y="-84.45" font-family="monospace" font-size="14.00">2</text>
<polygon fill="none" stroke="black" points="532.12,-54.25 532.12,-77.5 581.62,-77.5 581.62,-54.25 532.12,-54.25"/>
<text xml:space="preserve" text-anchor="start" x="535.88" y="-60.83" font-family="Times,serif" font-size="14.00">selector</text>
<polygon fill="none" stroke="black" points="581.62,-54.25 581.62,-77.5 604.12,-77.5 604.12,-54.25 581.62,-54.25"/>
<text xml:space="preserve" text-anchor="start" x="588.75" y="-61.2" font-family="monospace" font-size="14.00">2</text>
</g>
<!-- J4&#45;&gt;J4_2 -->
<g id="edge12" class="edge">
<title>J4&#45;&gt;J4_2</title>
<path fill="none" stroke="black" d="M537.18,-203.92C541.72,-188.96 546.61,-172.8 551.14,-157.85"/>
<polygon fill="black" stroke="black" points="554.37,-159.24 553.92,-148.66 547.67,-157.21 554.37,-159.24"/>
<text xml:space="preserve" text-anchor="middle" x="555.55" y="-172.2" font-family="Times,serif" font-size="14.00">②</text>
</g>
<!-- J4_1_ch -->
<g id="node13" class="node">
<title>J4_1_ch</title>
<text xml:space="preserve" text-anchor="start" x="469.88" y="-3.95" font-family="monospace" font-size="14.00">()</text>
</g>
<!-- J4_1&#45;&gt;J4_1_ch -->
<g id="edge13" class="edge">
<title>J4_1&#45;&gt;J4_1_ch</title>
<path fill="none" stroke="black" d="M478.12,-54.42C478.12,-45.21 478.12,-36.02 478.12,-28.38"/>
<polygon fill="black" stroke="black" points="481.63,-28.46 478.13,-18.46 474.63,-28.46 481.63,-28.46"/>
</g>
<!-- J4_2_ch -->
<g id="node15" class="node">
<title>J4_2_ch</title>
<text xml:space="preserve" text-anchor="start" x="559.88" y="-3.95" font-family="monospace" font-size="14.00">()</text>
</g>
<!-- J4_2&#45;&gt;J4_2_ch -->
<g id="edge14" class="edge">
<title>J4_2&#45;&gt;J4_2_ch</title>
<path fill="none" stroke="black" d="M568.12,-54.42C568.12,-45.21 568.12,-36.02 568.12,-28.38"/>
<polygon fill="black" stroke="black" points="571.63,-28.46 568.13,-18.46 564.63,-28.46 571.63,-28.46"/>
</g>
<!-- J5_ch -->
<g id="node17" class="node">
<title>J5_ch</title>
<text xml:space="preserve" text-anchor="start" x="692.88" y="-96.08" font-family="monospace" font-size="14.00">()</text>
</g>
<!-- J5&#45;&gt;J5_ch -->
<g id="edge16" class="edge">
<title>J5&#45;&gt;J5_ch</title>
<path fill="none" stroke="black" d="M701.12,-203.92C701.12,-174.73 701.12,-140.99 701.12,-120.52"/>
<polygon fill="black" stroke="black" points="704.63,-120.68 701.13,-110.68 697.63,-120.68 704.63,-120.68"/>
</g>
</g>
</svg>
