<?xml version="1.0" encoding="UTF-8" standalone="no"?>
<!DOCTYPE svg PUBLIC "-//W3C//DTD SVG 1.1//EN"
 "http://www.w3.org/Graphics/SVG/1.1/DTD/svg11.dtd">
<!-- Generated by graphviz version 2.43.0 (0)
 -->
<!-- Title: %3 Pages: 1 -->
<svg width="1459pt" height="811pt"
 viewBox="0.00 0.00 1459.00 811.00" xmlns="http://www.w3.org/2000/svg" xmlns:xlink="http://www.w3.org/1999/xlink">
<g id="graph0" class="graph" transform="scale(1 1) rotate(0) translate(4 807)">
<title>%3</title>
<polygon fill="white" stroke="transparent" points="-4,4 -4,-807 1455,-807 1455,4 -4,4"/>
<!-- anyAtomicType -->
<g id="node1" class="node">
<title>anyAtomicType</title>
<path fill="none" stroke="#e69f00" stroke-width="4" d="M134,-452C134,-452 12,-452 12,-452 6,-452 0,-446 0,-440 0,-440 0,-428 0,-428 0,-422 6,-416 12,-416 12,-416 134,-416 134,-416 140,-416 146,-422 146,-428 146,-428 146,-440 146,-440 146,-446 140,-452 134,-452"/>
<text text-anchor="middle" x="73" y="-430.3" font-family="Times,serif" font-size="14.00">xs:anyAtomicType</text>
</g>
<!-- untypedAtomic -->
<g id="node2" class="node">
<title>untypedAtomic</title>
<path fill="none" stroke="#e69f00" stroke-width="4" d="M315,-800C315,-800 194,-800 194,-800 188,-800 182,-794 182,-788 182,-788 182,-776 182,-776 182,-770 188,-764 194,-764 194,-764 315,-764 315,-764 321,-764 327,-770 327,-776 327,-776 327,-788 327,-788 327,-794 321,-800 315,-800"/>
<text text-anchor="middle" x="254.5" y="-778.3" font-family="Times,serif" font-size="14.00">xs:untypedAtomic</text>
</g>
<!-- anyAtomicType&#45;&gt;untypedAtomic -->
<g id="edge1" class="edge">
<title>anyAtomicType&#45;&gt;untypedAtomic</title>
<path fill="none" stroke="black" d="M75.63,-462.52C80.66,-524.15 100.96,-670.94 182,-755 185.22,-758.34 188.9,-761.28 192.85,-763.85"/>
<polygon fill="black" stroke="black" points="79.11,-462.09 74.88,-452.37 72.13,-462.6 79.11,-462.09"/>
</g>
<!-- string -->
<g id="node3" class="node">
<title>string</title>
<path fill="none" stroke="#e69f00" stroke-width="4" d="M282.5,-746C282.5,-746 226.5,-746 226.5,-746 220.5,-746 214.5,-740 214.5,-734 214.5,-734 214.5,-722 214.5,-722 214.5,-716 220.5,-710 226.5,-710 226.5,-710 282.5,-710 282.5,-710 288.5,-710 294.5,-716 294.5,-722 294.5,-722 294.5,-734 294.5,-734 294.5,-740 288.5,-746 282.5,-746"/>
<text text-anchor="middle" x="254.5" y="-724.3" font-family="Times,serif" font-size="14.00">xs:string</text>
</g>
<!-- anyAtomicType&#45;&gt;string -->
<g id="edge2" class="edge">
<title>anyAtomicType&#45;&gt;string</title>
<path fill="none" stroke="black" d="M77.9,-462.53C86.72,-516.39 113.07,-633.66 182,-701 190.83,-709.62 202.68,-715.54 214.19,-719.59"/>
<polygon fill="black" stroke="black" points="81.31,-461.68 76.32,-452.34 74.39,-462.76 81.31,-461.68"/>
</g>
<!-- duration -->
<g id="node5" class="node">
<title>duration</title>
<path fill="none" stroke="#e69f00" stroke-width="4" d="M291.5,-692C291.5,-692 217.5,-692 217.5,-692 211.5,-692 205.5,-686 205.5,-680 205.5,-680 205.5,-668 205.5,-668 205.5,-662 211.5,-656 217.5,-656 217.5,-656 291.5,-656 291.5,-656 297.5,-656 303.5,-662 303.5,-668 303.5,-668 303.5,-680 303.5,-680 303.5,-686 297.5,-692 291.5,-692"/>
<text text-anchor="middle" x="254.5" y="-670.3" font-family="Times,serif" font-size="14.00">xs:duration</text>
</g>
<!-- anyAtomicType&#45;&gt;duration -->
<g id="edge3" class="edge">
<title>anyAtomicType&#45;&gt;duration</title>
<path fill="none" stroke="black" d="M81.03,-461.84C93.75,-506.83 124.74,-595.62 182,-647 188.72,-653.03 196.91,-657.76 205.32,-661.45"/>
<polygon fill="black" stroke="black" points="84.4,-460.89 78.38,-452.17 77.64,-462.74 84.4,-460.89"/>
</g>
<!-- dateAndTime -->
<g id="node20" class="node">
<title>dateAndTime</title>
<path fill="none" stroke="#e69f00" stroke-width="4" d="M232,-591C232,-591 277,-591 277,-591 283,-591 289,-597 289,-603 289,-603 289,-625 289,-625 289,-631 283,-637 277,-637 277,-637 232,-637 232,-637 226,-637 220,-631 220,-625 220,-625 220,-603 220,-603 220,-597 226,-591 232,-591"/>
<text text-anchor="middle" x="254.5" y="-621.8" font-family="Times,serif" font-size="14.00">xs:date</text>
<polyline fill="none" stroke="#e69f00" stroke-width="4" points="220,-614 289,-614 "/>
<text text-anchor="middle" x="254.5" y="-598.8" font-family="Times,serif" font-size="14.00">xs:time</text>
</g>
<!-- anyAtomicType&#45;&gt;dateAndTime -->
<g id="edge4" class="edge">
<title>anyAtomicType&#45;&gt;dateAndTime</title>
<path fill="none" stroke="black" d="M88.19,-460.98C106.28,-493.17 140.25,-546.91 182,-581 193.12,-590.08 207.15,-597.26 219.82,-602.58"/>
<polygon fill="black" stroke="black" points="91.2,-459.19 83.31,-452.12 85.07,-462.56 91.2,-459.19"/>
</g>
<!-- dateTime -->
<g id="node21" class="node">
<title>dateTime</title>
<path fill="none" stroke="#e69f00" stroke-width="4" d="M294.5,-572C294.5,-572 214.5,-572 214.5,-572 208.5,-572 202.5,-566 202.5,-560 202.5,-560 202.5,-548 202.5,-548 202.5,-542 208.5,-536 214.5,-536 214.5,-536 294.5,-536 294.5,-536 300.5,-536 306.5,-542 306.5,-548 306.5,-548 306.5,-560 306.5,-560 306.5,-566 300.5,-572 294.5,-572"/>
<text text-anchor="middle" x="254.5" y="-550.3" font-family="Times,serif" font-size="14.00">xs:dateTime</text>
</g>
<!-- anyAtomicType&#45;&gt;dateTime -->
<g id="edge5" class="edge">
<title>anyAtomicType&#45;&gt;dateTime</title>
<path fill="none" stroke="black" d="M98.33,-459.4C119.03,-479.86 150.36,-508.21 182,-527 188.39,-530.79 195.4,-534.22 202.46,-537.26"/>
<polygon fill="black" stroke="black" points="100.74,-456.86 91.2,-452.25 95.78,-461.81 100.74,-456.86"/>
</g>
<!-- floatingPoint -->
<g id="node22" class="node">
<title>floatingPoint</title>
<path fill="none" stroke="#e69f00" stroke-width="4" d="M224,-471C224,-471 285,-471 285,-471 291,-471 297,-477 297,-483 297,-483 297,-505 297,-505 297,-511 291,-517 285,-517 285,-517 224,-517 224,-517 218,-517 212,-511 212,-505 212,-505 212,-483 212,-483 212,-477 218,-471 224,-471"/>
<text text-anchor="middle" x="254.5" y="-501.8" font-family="Times,serif" font-size="14.00">xs:double</text>
<polyline fill="none" stroke="#e69f00" stroke-width="4" points="212,-494 297,-494 "/>
<text text-anchor="middle" x="254.5" y="-478.8" font-family="Times,serif" font-size="14.00">xs:float</text>
</g>
<!-- anyAtomicType&#45;&gt;floatingPoint -->
<g id="edge6" class="edge">
<title>anyAtomicType&#45;&gt;floatingPoint</title>
<path fill="none" stroke="black" d="M137.52,-455.23C162.24,-463.5 189.86,-472.73 211.95,-480.11"/>
<polygon fill="black" stroke="black" points="138.45,-451.85 127.86,-452 136.23,-458.49 138.45,-451.85"/>
</g>
<!-- decimal -->
<g id="node23" class="node">
<title>decimal</title>
<path fill="none" stroke="#e69f00" stroke-width="4" d="M288.5,-452C288.5,-452 220.5,-452 220.5,-452 214.5,-452 208.5,-446 208.5,-440 208.5,-440 208.5,-428 208.5,-428 208.5,-422 214.5,-416 220.5,-416 220.5,-416 288.5,-416 288.5,-416 294.5,-416 300.5,-422 300.5,-428 300.5,-428 300.5,-440 300.5,-440 300.5,-446 294.5,-452 288.5,-452"/>
<text text-anchor="middle" x="254.5" y="-430.3" font-family="Times,serif" font-size="14.00">xs:decimal</text>
</g>
<!-- anyAtomicType&#45;&gt;decimal -->
<g id="edge7" class="edge">
<title>anyAtomicType&#45;&gt;decimal</title>
<path fill="none" stroke="black" d="M156.43,-434C174.35,-434 192.67,-434 208.5,-434"/>
<polygon fill="black" stroke="black" points="156.23,-430.5 146.23,-434 156.23,-437.5 156.23,-430.5"/>
</g>
<!-- binaryTypes -->
<g id="node24" class="node">
<title>binaryTypes</title>
<path fill="none" stroke="#e69f00" stroke-width="4" d="M199,-351C199,-351 310,-351 310,-351 316,-351 322,-357 322,-363 322,-363 322,-385 322,-385 322,-391 316,-397 310,-397 310,-397 199,-397 199,-397 193,-397 187,-391 187,-385 187,-385 187,-363 187,-363 187,-357 193,-351 199,-351"/>
<text text-anchor="middle" x="254.5" y="-381.8" font-family="Times,serif" font-size="14.00">xs:base64Binary</text>
<polyline fill="none" stroke="#e69f00" stroke-width="4" points="187,-374 322,-374 "/>
<text text-anchor="middle" x="254.5" y="-358.8" font-family="Times,serif" font-size="14.00">xs:hexBinary</text>
</g>
<!-- anyAtomicType&#45;&gt;binaryTypes -->
<g id="edge8" class="edge">
<title>anyAtomicType&#45;&gt;binaryTypes</title>
<path fill="none" stroke="black" d="M137.64,-412.73C153.63,-407.38 170.84,-401.63 186.97,-396.24"/>
<polygon fill="black" stroke="black" points="136.23,-409.51 127.86,-416 138.45,-416.15 136.23,-409.51"/>
</g>
<!-- boolean -->
<g id="node25" class="node">
<title>boolean</title>
<path fill="none" stroke="#e69f00" stroke-width="4" d="M288.5,-332C288.5,-332 220.5,-332 220.5,-332 214.5,-332 208.5,-326 208.5,-320 208.5,-320 208.5,-308 208.5,-308 208.5,-302 214.5,-296 220.5,-296 220.5,-296 288.5,-296 288.5,-296 294.5,-296 300.5,-302 300.5,-308 300.5,-308 300.5,-320 300.5,-320 300.5,-326 294.5,-332 288.5,-332"/>
<text text-anchor="middle" x="254.5" y="-310.3" font-family="Times,serif" font-size="14.00">xs:boolean</text>
</g>
<!-- anyAtomicType&#45;&gt;boolean -->
<g id="edge9" class="edge">
<title>anyAtomicType&#45;&gt;boolean</title>
<path fill="none" stroke="black" d="M98.33,-408.6C119.03,-388.14 150.36,-359.79 182,-341 190.1,-336.19 199.21,-331.97 208.14,-328.38"/>
<polygon fill="black" stroke="black" points="95.78,-406.19 91.2,-415.75 100.74,-411.14 95.78,-406.19"/>
</g>
<!-- anyURI -->
<g id="node34" class="node">
<title>anyURI</title>
<path fill="none" stroke="#e69f00" stroke-width="4" d="M287.5,-278C287.5,-278 221.5,-278 221.5,-278 215.5,-278 209.5,-272 209.5,-266 209.5,-266 209.5,-254 209.5,-254 209.5,-248 215.5,-242 221.5,-242 221.5,-242 287.5,-242 287.5,-242 293.5,-242 299.5,-248 299.5,-254 299.5,-254 299.5,-266 299.5,-266 299.5,-272 293.5,-278 287.5,-278"/>
<text text-anchor="middle" x="254.5" y="-256.3" font-family="Times,serif" font-size="14.00">xs:anyURI</text>
</g>
<!-- anyAtomicType&#45;&gt;anyURI -->
<g id="edge10" class="edge">
<title>anyAtomicType&#45;&gt;anyURI</title>
<path fill="none" stroke="black" d="M87.79,-406.51C105.48,-373.82 139.06,-319.58 182,-287 190.14,-280.82 199.85,-275.92 209.45,-272.08"/>
<polygon fill="black" stroke="black" points="84.61,-405.05 83.03,-415.52 90.8,-408.32 84.61,-405.05"/>
</g>
<!-- QName -->
<g id="node35" class="node">
<title>QName</title>
<path fill="none" stroke="#e69f00" stroke-width="4" d="M287.5,-224C287.5,-224 221.5,-224 221.5,-224 215.5,-224 209.5,-218 209.5,-212 209.5,-212 209.5,-200 209.5,-200 209.5,-194 215.5,-188 221.5,-188 221.5,-188 287.5,-188 287.5,-188 293.5,-188 299.5,-194 299.5,-200 299.5,-200 299.5,-212 299.5,-212 299.5,-218 293.5,-224 287.5,-224"/>
<text text-anchor="middle" x="254.5" y="-202.3" font-family="Times,serif" font-size="14.00">xs:QName</text>
</g>
<!-- anyAtomicType&#45;&gt;QName -->
<g id="edge11" class="edge">
<title>anyAtomicType&#45;&gt;QName</title>
<path fill="none" stroke="black" d="M81.95,-406.21C95.58,-363.3 127.36,-280.87 182,-233 189.78,-226.18 199.46,-221.01 209.16,-217.12"/>
<polygon fill="black" stroke="black" points="78.54,-405.39 78.95,-415.98 85.23,-407.45 78.54,-405.39"/>
</g>
<!-- NOTATION -->
<g id="node36" class="node">
<title>NOTATION</title>
<path fill="none" stroke="#e69f00" stroke-width="4" d="M300,-170C300,-170 209,-170 209,-170 203,-170 197,-164 197,-158 197,-158 197,-146 197,-146 197,-140 203,-134 209,-134 209,-134 300,-134 300,-134 306,-134 312,-140 312,-146 312,-146 312,-158 312,-158 312,-164 306,-170 300,-170"/>
<text text-anchor="middle" x="254.5" y="-148.3" font-family="Times,serif" font-size="14.00">xs:NOTATION</text>
</g>
<!-- anyAtomicType&#45;&gt;NOTATION -->
<g id="edge12" class="edge">
<title>anyAtomicType&#45;&gt;NOTATION</title>
<path fill="none" stroke="black" d="M78.49,-405.65C88.15,-353.71 115.66,-242.76 182,-179 186.4,-174.77 191.53,-171.19 196.98,-168.16"/>
<polygon fill="black" stroke="black" points="74.99,-405.35 76.69,-415.8 81.88,-406.57 74.99,-405.35"/>
</g>
<!-- gDateTypes -->
<g id="node37" class="node">
<title>gDateTypes</title>
<path fill="none" stroke="#e69f00" stroke-width="4" d="M204.5,-0.5C204.5,-0.5 304.5,-0.5 304.5,-0.5 310.5,-0.5 316.5,-6.5 316.5,-12.5 316.5,-12.5 316.5,-103.5 316.5,-103.5 316.5,-109.5 310.5,-115.5 304.5,-115.5 304.5,-115.5 204.5,-115.5 204.5,-115.5 198.5,-115.5 192.5,-109.5 192.5,-103.5 192.5,-103.5 192.5,-12.5 192.5,-12.5 192.5,-6.5 198.5,-0.5 204.5,-0.5"/>
<text text-anchor="middle" x="254.5" y="-100.3" font-family="Times,serif" font-size="14.00">xs:gYear</text>
<polyline fill="none" stroke="#e69f00" stroke-width="4" points="192.5,-92.5 316.5,-92.5 "/>
<text text-anchor="middle" x="254.5" y="-77.3" font-family="Times,serif" font-size="14.00">xs:gMonth</text>
<polyline fill="none" stroke="#e69f00" stroke-width="4" points="192.5,-69.5 316.5,-69.5 "/>
<text text-anchor="middle" x="254.5" y="-54.3" font-family="Times,serif" font-size="14.00">xs:gDay</text>
<polyline fill="none" stroke="#e69f00" stroke-width="4" points="192.5,-46.5 316.5,-46.5 "/>
<text text-anchor="middle" x="254.5" y="-31.3" font-family="Times,serif" font-size="14.00">xs:gYearMonth</text>
<polyline fill="none" stroke="#e69f00" stroke-width="4" points="192.5,-23.5 316.5,-23.5 "/>
<text text-anchor="middle" x="254.5" y="-8.3" font-family="Times,serif" font-size="14.00">xs:gMonthDay</text>
</g>
<!-- anyAtomicType&#45;&gt;gDateTypes -->
<g id="edge13" class="edge">
<title>anyAtomicType&#45;&gt;gDateTypes</title>
<path fill="none" stroke="black" d="M79.11,-405.9C90.4,-349.09 121.42,-218.06 182,-125 185.06,-120.3 188.52,-115.69 192.23,-111.24"/>
<polygon fill="black" stroke="black" points="75.63,-405.45 77.17,-415.93 82.5,-406.78 75.63,-405.45"/>
</g>
<!-- normalizedString -->
<g id="node26" class="node">
<title>normalizedString</title>
<path fill="none" stroke="#e69f00" stroke-width="4" d="M520.5,-749C520.5,-749 383.5,-749 383.5,-749 377.5,-749 371.5,-743 371.5,-737 371.5,-737 371.5,-725 371.5,-725 371.5,-719 377.5,-713 383.5,-713 383.5,-713 520.5,-713 520.5,-713 526.5,-713 532.5,-719 532.5,-725 532.5,-725 532.5,-737 532.5,-737 532.5,-743 526.5,-749 520.5,-749"/>
<text text-anchor="middle" x="452" y="-727.3" font-family="Times,serif" font-size="14.00">xs:normalizedString</text>
</g>
<!-- string&#45;&gt;normalizedString -->
<g id="edge29" class="edge">
<title>string&#45;&gt;normalizedString</title>
<path fill="none" stroke="black" d="M304.76,-728.76C324.88,-729.06 348.68,-729.43 371.17,-729.77"/>
<polygon fill="black" stroke="black" points="304.65,-725.25 294.59,-728.6 304.54,-732.25 304.65,-725.25"/>
</g>
<!-- dateTimeStamp -->
<g id="node4" class="node">
<title>dateTimeStamp</title>
<path fill="none" stroke="#e69f00" stroke-width="4" d="M515,-572C515,-572 389,-572 389,-572 383,-572 377,-566 377,-560 377,-560 377,-548 377,-548 377,-542 383,-536 389,-536 389,-536 515,-536 515,-536 521,-536 527,-542 527,-548 527,-548 527,-560 527,-560 527,-566 521,-572 515,-572"/>
<text text-anchor="middle" x="452" y="-550.3" font-family="Times,serif" font-size="14.00">xs:dateTimeStamp</text>
</g>
<!-- durationTypes -->
<g id="node6" class="node">
<title>durationTypes</title>
<path fill="none" stroke="#e69f00" stroke-width="4" d="M375,-648C375,-648 529,-648 529,-648 535,-648 541,-654 541,-660 541,-660 541,-682 541,-682 541,-688 535,-694 529,-694 529,-694 375,-694 375,-694 369,-694 363,-688 363,-682 363,-682 363,-660 363,-660 363,-654 369,-648 375,-648"/>
<text text-anchor="middle" x="452" y="-678.8" font-family="Times,serif" font-size="14.00">xs:yearMonthDuration</text>
<polyline fill="none" stroke="#e69f00" stroke-width="4" points="363,-671 541,-671 "/>
<text text-anchor="middle" x="452" y="-655.8" font-family="Times,serif" font-size="14.00">xs:dayTimeDuration</text>
</g>
<!-- duration&#45;&gt;durationTypes -->
<g id="edge15" class="edge">
<title>duration&#45;&gt;durationTypes</title>
<path fill="none" stroke="black" d="M313.92,-673.1C329.25,-672.87 346.13,-672.61 362.65,-672.36"/>
<polygon fill="black" stroke="black" points="313.52,-669.61 303.58,-673.26 313.63,-676.61 313.52,-669.61"/>
</g>
<!-- integer -->
<g id="node7" class="node">
<title>integer</title>
<path fill="none" stroke="#e69f00" stroke-width="4" d="M484.5,-452C484.5,-452 419.5,-452 419.5,-452 413.5,-452 407.5,-446 407.5,-440 407.5,-440 407.5,-428 407.5,-428 407.5,-422 413.5,-416 419.5,-416 419.5,-416 484.5,-416 484.5,-416 490.5,-416 496.5,-422 496.5,-428 496.5,-428 496.5,-440 496.5,-440 496.5,-446 490.5,-452 484.5,-452"/>
<text text-anchor="middle" x="452" y="-430.3" font-family="Times,serif" font-size="14.00">xs:integer</text>
</g>
<!-- nonPositiveInteger -->
<g id="node8" class="node">
<title>nonPositiveInteger</title>
<path fill="none" stroke="#e69f00" stroke-width="4" d="M741,-506C741,-506 593,-506 593,-506 587,-506 581,-500 581,-494 581,-494 581,-482 581,-482 581,-476 587,-470 593,-470 593,-470 741,-470 741,-470 747,-470 753,-476 753,-482 753,-482 753,-494 753,-494 753,-500 747,-506 741,-506"/>
<text text-anchor="middle" x="667" y="-484.3" font-family="Times,serif" font-size="14.00">xs:nonPositiveInteger</text>
</g>
<!-- integer&#45;&gt;nonPositiveInteger -->
<g id="edge17" class="edge">
<title>integer&#45;&gt;nonPositiveInteger</title>
<path fill="none" stroke="black" d="M506.55,-447.58C533.27,-454.35 565.96,-462.64 594.77,-469.94"/>
<polygon fill="black" stroke="black" points="507.17,-444.12 496.62,-445.06 505.45,-450.91 507.17,-444.12"/>
</g>
<!-- long -->
<g id="node10" class="node">
<title>long</title>
<path fill="none" stroke="#e69f00" stroke-width="4" d="M689,-452C689,-452 645,-452 645,-452 639,-452 633,-446 633,-440 633,-440 633,-428 633,-428 633,-422 639,-416 645,-416 645,-416 689,-416 689,-416 695,-416 701,-422 701,-428 701,-428 701,-440 701,-440 701,-446 695,-452 689,-452"/>
<text text-anchor="middle" x="667" y="-430.3" font-family="Times,serif" font-size="14.00">xs:long</text>
</g>
<!-- integer&#45;&gt;long -->
<g id="edge18" class="edge">
<title>integer&#45;&gt;long</title>
<path fill="none" stroke="black" d="M506.67,-434C546.37,-434 599.18,-434 632.9,-434"/>
<polygon fill="black" stroke="black" points="506.62,-430.5 496.62,-434 506.62,-437.5 506.62,-430.5"/>
</g>
<!-- nonNegativeInteger -->
<g id="node14" class="node">
<title>nonNegativeInteger</title>
<path fill="none" stroke="#e69f00" stroke-width="4" d="M745,-398C745,-398 589,-398 589,-398 583,-398 577,-392 577,-386 577,-386 577,-374 577,-374 577,-368 583,-362 589,-362 589,-362 745,-362 745,-362 751,-362 757,-368 757,-374 757,-374 757,-386 757,-386 757,-392 751,-398 745,-398"/>
<text text-anchor="middle" x="667" y="-376.3" font-family="Times,serif" font-size="14.00">xs:nonNegativeInteger</text>
</g>
<!-- integer&#45;&gt;nonNegativeInteger -->
<g id="edge19" class="edge">
<title>integer&#45;&gt;nonNegativeInteger</title>
<path fill="none" stroke="black" d="M506.55,-420.42C533.27,-413.65 565.96,-405.36 594.77,-398.06"/>
<polygon fill="black" stroke="black" points="505.45,-417.09 496.62,-422.94 507.17,-423.88 505.45,-417.09"/>
</g>
<!-- negativeInteger -->
<g id="node9" class="node">
<title>negativeInteger</title>
<path fill="none" stroke="#e69f00" stroke-width="4" d="M932,-506C932,-506 805,-506 805,-506 799,-506 793,-500 793,-494 793,-494 793,-482 793,-482 793,-476 799,-470 805,-470 805,-470 932,-470 932,-470 938,-470 944,-476 944,-482 944,-482 944,-494 944,-494 944,-500 938,-506 932,-506"/>
<text text-anchor="middle" x="868.5" y="-484.3" font-family="Times,serif" font-size="14.00">xs:negativeInteger</text>
</g>
<!-- nonPositiveInteger&#45;&gt;negativeInteger -->
<g id="edge20" class="edge">
<title>nonPositiveInteger&#45;&gt;negativeInteger</title>
<path fill="none" stroke="black" d="M763.48,-488C773.39,-488 783.36,-488 792.99,-488"/>
<polygon fill="black" stroke="black" points="763.18,-484.5 753.18,-488 763.18,-491.5 763.18,-484.5"/>
</g>
<!-- int -->
<g id="node11" class="node">
<title>int</title>
<path fill="none" stroke="#e69f00" stroke-width="4" d="M884.5,-452C884.5,-452 852.5,-452 852.5,-452 846.5,-452 840.5,-446 840.5,-440 840.5,-440 840.5,-428 840.5,-428 840.5,-422 846.5,-416 852.5,-416 852.5,-416 884.5,-416 884.5,-416 890.5,-416 896.5,-422 896.5,-428 896.5,-428 896.5,-440 896.5,-440 896.5,-446 890.5,-452 884.5,-452"/>
<text text-anchor="middle" x="868.5" y="-430.3" font-family="Times,serif" font-size="14.00">xs:int</text>
</g>
<!-- long&#45;&gt;int -->
<g id="edge21" class="edge">
<title>long&#45;&gt;int</title>
<path fill="none" stroke="black" d="M711.47,-434C750.73,-434 807.27,-434 840.41,-434"/>
<polygon fill="black" stroke="black" points="711.39,-430.5 701.39,-434 711.39,-437.5 711.39,-430.5"/>
</g>
<!-- short -->
<g id="node12" class="node">
<title>short</title>
<path fill="none" stroke="#e69f00" stroke-width="4" d="M1066,-452C1066,-452 1016,-452 1016,-452 1010,-452 1004,-446 1004,-440 1004,-440 1004,-428 1004,-428 1004,-422 1010,-416 1016,-416 1016,-416 1066,-416 1066,-416 1072,-416 1078,-422 1078,-428 1078,-428 1078,-440 1078,-440 1078,-446 1072,-452 1066,-452"/>
<text text-anchor="middle" x="1041" y="-430.3" font-family="Times,serif" font-size="14.00">xs:short</text>
</g>
<!-- int&#45;&gt;short -->
<g id="edge22" class="edge">
<title>int&#45;&gt;short</title>
<path fill="none" stroke="black" d="M906.61,-434C935.48,-434 975.3,-434 1003.9,-434"/>
<polygon fill="black" stroke="black" points="906.52,-430.5 896.52,-434 906.52,-437.5 906.52,-430.5"/>
</g>
<!-- byte -->
<g id="node13" class="node">
<title>byte</title>
<path fill="none" stroke="#e69f00" stroke-width="4" d="M1231,-452C1231,-452 1187,-452 1187,-452 1181,-452 1175,-446 1175,-440 1175,-440 1175,-428 1175,-428 1175,-422 1181,-416 1187,-416 1187,-416 1231,-416 1231,-416 1237,-416 1243,-422 1243,-428 1243,-428 1243,-440 1243,-440 1243,-446 1237,-452 1231,-452"/>
<text text-anchor="middle" x="1209" y="-430.3" font-family="Times,serif" font-size="14.00">xs:byte</text>
</g>
<!-- short&#45;&gt;byte -->
<g id="edge23" class="edge">
<title>short&#45;&gt;byte</title>
<path fill="none" stroke="black" d="M1088.21,-434C1115.74,-434 1150.04,-434 1174.87,-434"/>
<polygon fill="black" stroke="black" points="1088.02,-430.5 1078.02,-434 1088.02,-437.5 1088.02,-430.5"/>
</g>
<!-- unsignedLong -->
<g id="node15" class="node">
<title>unsignedLong</title>
<path fill="none" stroke="#e69f00" stroke-width="4" d="M925,-398C925,-398 812,-398 812,-398 806,-398 800,-392 800,-386 800,-386 800,-374 800,-374 800,-368 806,-362 812,-362 812,-362 925,-362 925,-362 931,-362 937,-368 937,-374 937,-374 937,-386 937,-386 937,-392 931,-398 925,-398"/>
<text text-anchor="middle" x="868.5" y="-376.3" font-family="Times,serif" font-size="14.00">xs:unsignedLong</text>
</g>
<!-- nonNegativeInteger&#45;&gt;unsignedLong -->
<g id="edge24" class="edge">
<title>nonNegativeInteger&#45;&gt;unsignedLong</title>
<path fill="none" stroke="black" d="M767.35,-380C778.36,-380 789.38,-380 799.88,-380"/>
<polygon fill="black" stroke="black" points="767.25,-376.5 757.25,-380 767.25,-383.5 767.25,-376.5"/>
</g>
<!-- positiveInteger -->
<g id="node19" class="node">
<title>positiveInteger</title>
<path fill="none" stroke="#e69f00" stroke-width="4" d="M929.5,-344C929.5,-344 807.5,-344 807.5,-344 801.5,-344 795.5,-338 795.5,-332 795.5,-332 795.5,-320 795.5,-320 795.5,-314 801.5,-308 807.5,-308 807.5,-308 929.5,-308 929.5,-308 935.5,-308 941.5,-314 941.5,-320 941.5,-320 941.5,-332 941.5,-332 941.5,-338 935.5,-344 929.5,-344"/>
<text text-anchor="middle" x="868.5" y="-322.3" font-family="Times,serif" font-size="14.00">xs:positiveInteger</text>
</g>
<!-- nonNegativeInteger&#45;&gt;positiveInteger -->
<g id="edge25" class="edge">
<title>nonNegativeInteger&#45;&gt;positiveInteger</title>
<path fill="none" stroke="black" d="M744.58,-359.27C763.13,-354.25 782.81,-348.92 800.85,-344.04"/>
<polygon fill="black" stroke="black" points="743.45,-355.95 734.71,-361.94 745.28,-362.71 743.45,-355.95"/>
</g>
<!-- unsignedInt -->
<g id="node16" class="node">
<title>unsignedInt</title>
<path fill="none" stroke="#e69f00" stroke-width="4" d="M1090,-398C1090,-398 992,-398 992,-398 986,-398 980,-392 980,-386 980,-386 980,-374 980,-374 980,-368 986,-362 992,-362 992,-362 1090,-362 1090,-362 1096,-362 1102,-368 1102,-374 1102,-374 1102,-386 1102,-386 1102,-392 1096,-398 1090,-398"/>
<text text-anchor="middle" x="1041" y="-376.3" font-family="Times,serif" font-size="14.00">xs:unsignedInt</text>
</g>
<!-- unsignedLong&#45;&gt;unsignedInt -->
<g id="edge26" class="edge">
<title>unsignedLong&#45;&gt;unsignedInt</title>
<path fill="none" stroke="black" d="M947.66,-380C958.45,-380 969.4,-380 979.8,-380"/>
<polygon fill="black" stroke="black" points="947.38,-376.5 937.38,-380 947.38,-383.5 947.38,-376.5"/>
</g>
<!-- unsignedShort -->
<g id="node17" class="node">
<title>unsignedShort</title>
<path fill="none" stroke="#e69f00" stroke-width="4" d="M1268,-398C1268,-398 1150,-398 1150,-398 1144,-398 1138,-392 1138,-386 1138,-386 1138,-374 1138,-374 1138,-368 1144,-362 1150,-362 1150,-362 1268,-362 1268,-362 1274,-362 1280,-368 1280,-374 1280,-374 1280,-386 1280,-386 1280,-392 1274,-398 1268,-398"/>
<text text-anchor="middle" x="1209" y="-376.3" font-family="Times,serif" font-size="14.00">xs:unsignedShort</text>
</g>
<!-- unsignedInt&#45;&gt;unsignedShort -->
<g id="edge27" class="edge">
<title>unsignedInt&#45;&gt;unsignedShort</title>
<path fill="none" stroke="black" d="M1112.5,-380C1120.87,-380 1129.42,-380 1137.79,-380"/>
<polygon fill="black" stroke="black" points="1112.4,-376.5 1102.4,-380 1112.4,-383.5 1112.4,-376.5"/>
</g>
<!-- unsignedByte -->
<g id="node18" class="node">
<title>unsignedByte</title>
<path fill="none" stroke="#e69f00" stroke-width="4" d="M1439,-398C1439,-398 1328,-398 1328,-398 1322,-398 1316,-392 1316,-386 1316,-386 1316,-374 1316,-374 1316,-368 1322,-362 1328,-362 1328,-362 1439,-362 1439,-362 1445,-362 1451,-368 1451,-374 1451,-374 1451,-386 1451,-386 1451,-392 1445,-398 1439,-398"/>
<text text-anchor="middle" x="1383.5" y="-376.3" font-family="Times,serif" font-size="14.00">xs:unsignedByte</text>
</g>
<!-- unsignedShort&#45;&gt;unsignedByte -->
<g id="edge28" class="edge">
<title>unsignedShort&#45;&gt;unsignedByte</title>
<path fill="none" stroke="black" d="M1290.44,-380C1298.91,-380 1307.45,-380 1315.75,-380"/>
<polygon fill="black" stroke="black" points="1290.16,-376.5 1280.16,-380 1290.16,-383.5 1290.16,-376.5"/>
</g>
<!-- dateTime&#45;&gt;dateTimeStamp -->
<g id="edge14" class="edge">
<title>dateTime&#45;&gt;dateTimeStamp</title>
<path fill="none" stroke="black" d="M316.63,-554C335.65,-554 356.82,-554 376.64,-554"/>
<polygon fill="black" stroke="black" points="316.61,-550.5 306.61,-554 316.61,-557.5 316.61,-550.5"/>
</g>
<!-- decimal&#45;&gt;integer -->
<g id="edge16" class="edge">
<title>decimal&#45;&gt;integer</title>
<path fill="none" stroke="black" d="M310.91,-434C341.44,-434 378.79,-434 407.25,-434"/>
<polygon fill="black" stroke="black" points="310.84,-430.5 300.84,-434 310.84,-437.5 310.84,-430.5"/>
</g>
<!-- token -->
<g id="node27" class="node">
<title>token</title>
<path fill="none" stroke="#e69f00" stroke-width="4" d="M693.5,-749C693.5,-749 640.5,-749 640.5,-749 634.5,-749 628.5,-743 628.5,-737 628.5,-737 628.5,-725 628.5,-725 628.5,-719 634.5,-713 640.5,-713 640.5,-713 693.5,-713 693.5,-713 699.5,-713 705.5,-719 705.5,-725 705.5,-725 705.5,-737 705.5,-737 705.5,-743 699.5,-749 693.5,-749"/>
<text text-anchor="middle" x="667" y="-727.3" font-family="Times,serif" font-size="14.00">xs:token</text>
</g>
<!-- normalizedString&#45;&gt;token -->
<g id="edge30" class="edge">
<title>normalizedString&#45;&gt;token</title>
<path fill="none" stroke="black" d="M542.72,-731C572.78,-731 604.66,-731 628.47,-731"/>
<polygon fill="black" stroke="black" points="542.62,-727.5 532.62,-731 542.62,-734.5 542.62,-727.5"/>
</g>
<!-- language -->
<g id="node28" class="node">
<title>language</title>
<path fill="none" stroke="#e69f00" stroke-width="4" d="M907.5,-803C907.5,-803 829.5,-803 829.5,-803 823.5,-803 817.5,-797 817.5,-791 817.5,-791 817.5,-779 817.5,-779 817.5,-773 823.5,-767 829.5,-767 829.5,-767 907.5,-767 907.5,-767 913.5,-767 919.5,-773 919.5,-779 919.5,-779 919.5,-791 919.5,-791 919.5,-797 913.5,-803 907.5,-803"/>
<text text-anchor="middle" x="868.5" y="-781.3" font-family="Times,serif" font-size="14.00">xs:language</text>
</g>
<!-- token&#45;&gt;language -->
<g id="edge31" class="edge">
<title>token&#45;&gt;language</title>
<path fill="none" stroke="black" d="M715.56,-743.87C746.26,-752.18 786.13,-762.98 817.33,-771.42"/>
<polygon fill="black" stroke="black" points="716.09,-740.39 705.52,-741.16 714.26,-747.15 716.09,-740.39"/>
</g>
<!-- NMTOKEN -->
<g id="node29" class="node">
<title>NMTOKEN</title>
<path fill="none" stroke="#e69f00" stroke-width="4" d="M914.5,-749C914.5,-749 822.5,-749 822.5,-749 816.5,-749 810.5,-743 810.5,-737 810.5,-737 810.5,-725 810.5,-725 810.5,-719 816.5,-713 822.5,-713 822.5,-713 914.5,-713 914.5,-713 920.5,-713 926.5,-719 926.5,-725 926.5,-725 926.5,-737 926.5,-737 926.5,-743 920.5,-749 914.5,-749"/>
<text text-anchor="middle" x="868.5" y="-727.3" font-family="Times,serif" font-size="14.00">xs:NMTOKEN</text>
</g>
<!-- token&#45;&gt;NMTOKEN -->
<g id="edge32" class="edge">
<title>token&#45;&gt;NMTOKEN</title>
<path fill="none" stroke="black" d="M715.6,-731C743.97,-731 780.18,-731 810.12,-731"/>
<polygon fill="black" stroke="black" points="715.52,-727.5 705.52,-731 715.52,-734.5 715.52,-727.5"/>
</g>
<!-- Name -->
<g id="node30" class="node">
<title>Name</title>
<path fill="none" stroke="#e69f00" stroke-width="4" d="M896,-695C896,-695 841,-695 841,-695 835,-695 829,-689 829,-683 829,-683 829,-671 829,-671 829,-665 835,-659 841,-659 841,-659 896,-659 896,-659 902,-659 908,-665 908,-671 908,-671 908,-683 908,-683 908,-689 902,-695 896,-695"/>
<text text-anchor="middle" x="868.5" y="-673.3" font-family="Times,serif" font-size="14.00">xs:Name</text>
</g>
<!-- token&#45;&gt;Name -->
<g id="edge33" class="edge">
<title>token&#45;&gt;Name</title>
<path fill="none" stroke="black" d="M715.41,-718.17C750.03,-708.8 796.38,-696.25 828.78,-687.48"/>
<polygon fill="black" stroke="black" points="714.26,-714.85 705.52,-720.84 716.09,-721.61 714.26,-714.85"/>
</g>
<!-- NCName -->
<g id="node31" class="node">
<title>NCName</title>
<path fill="none" stroke="#e69f00" stroke-width="4" d="M1079.5,-695C1079.5,-695 1002.5,-695 1002.5,-695 996.5,-695 990.5,-689 990.5,-683 990.5,-683 990.5,-671 990.5,-671 990.5,-665 996.5,-659 1002.5,-659 1002.5,-659 1079.5,-659 1079.5,-659 1085.5,-659 1091.5,-665 1091.5,-671 1091.5,-671 1091.5,-683 1091.5,-683 1091.5,-689 1085.5,-695 1079.5,-695"/>
<text text-anchor="middle" x="1041" y="-673.3" font-family="Times,serif" font-size="14.00">xs:NCName</text>
</g>
<!-- Name&#45;&gt;NCName -->
<g id="edge34" class="edge">
<title>Name&#45;&gt;NCName</title>
<path fill="none" stroke="black" d="M918.25,-677C940.88,-677 967.72,-677 990.44,-677"/>
<polygon fill="black" stroke="black" points="918.19,-673.5 908.19,-677 918.19,-680.5 918.19,-673.5"/>
</g>
<!-- idTypes -->
<g id="node32" class="node">
<title>idTypes</title>
<path fill="none" stroke="#e69f00" stroke-width="4" d="M1179,-684C1179,-684 1239,-684 1239,-684 1245,-684 1251,-690 1251,-696 1251,-696 1251,-718 1251,-718 1251,-724 1245,-730 1239,-730 1239,-730 1179,-730 1179,-730 1173,-730 1167,-724 1167,-718 1167,-718 1167,-696 1167,-696 1167,-690 1173,-684 1179,-684"/>
<text text-anchor="middle" x="1209" y="-714.8" font-family="Times,serif" font-size="14.00">xs:ID</text>
<polyline fill="none" stroke="#e69f00" stroke-width="4" points="1167,-707 1251,-707 "/>
<text text-anchor="middle" x="1209" y="-691.8" font-family="Times,serif" font-size="14.00">xs:IDREF</text>
</g>
<!-- NCName&#45;&gt;idTypes -->
<g id="edge35" class="edge">
<title>NCName&#45;&gt;idTypes</title>
<path fill="none" stroke="black" d="M1101.86,-687.82C1123.43,-691.72 1147.28,-696.03 1166.89,-699.57"/>
<polygon fill="black" stroke="black" points="1102.27,-684.34 1091.81,-686 1101.02,-691.22 1102.27,-684.34"/>
</g>
<!-- ENTITY -->
<g id="node33" class="node">
<title>ENTITY</title>
<path fill="none" stroke="#e69f00" stroke-width="4" d="M1243,-665C1243,-665 1175,-665 1175,-665 1169,-665 1163,-659 1163,-653 1163,-653 1163,-641 1163,-641 1163,-635 1169,-629 1175,-629 1175,-629 1243,-629 1243,-629 1249,-629 1255,-635 1255,-641 1255,-641 1255,-653 1255,-653 1255,-659 1249,-665 1243,-665"/>
<text text-anchor="middle" x="1209" y="-643.3" font-family="Times,serif" font-size="14.00">xs:ENTITY</text>
</g>
<!-- NCName&#45;&gt;ENTITY -->
<g id="edge36" class="edge">
<title>NCName&#45;&gt;ENTITY</title>
<path fill="none" stroke="black" d="M1101.8,-666.19C1121.9,-662.56 1143.97,-658.57 1162.76,-655.18"/>
<polygon fill="black" stroke="black" points="1101.02,-662.78 1091.81,-668 1102.27,-669.66 1101.02,-662.78"/>
</g>
</g>
</svg>
