<?xml version="1.0" encoding="UTF-8" standalone="no"?>
<!DOCTYPE svg PUBLIC "-//W3C//DTD SVG 1.1//EN"
 "http://www.w3.org/Graphics/SVG/1.1/DTD/svg11.dtd">
<!-- Generated by graphviz version 2.43.0 (0)
 -->
<!-- Title: g Pages: 1 -->
<svg width="206pt" height="98pt"
 viewBox="0.00 0.00 206.00 98.00" xmlns="http://www.w3.org/2000/svg" xmlns:xlink="http://www.w3.org/1999/xlink">
<g id="graph0" class="graph" transform="scale(1 1) rotate(0) translate(4 94)">
<title>g</title>
<polygon fill="white" stroke="transparent" points="-4,4 -4,-94 202,-94 202,4 -4,4"/>
<!-- d7e11989 -->
<g id="node1" class="node">
<title>d7e11989</title>
<polygon fill="none" stroke="black" points="54,-63 0,-63 0,-27 54,-27 54,-63"/>
<text text-anchor="middle" x="27" y="-41.3" font-family="Times,serif" font-size="14.00">A</text>
</g>
<!-- d7e11990 -->
<g id="node2" class="node">
<title>d7e11990</title>
<polygon fill="none" stroke="black" points="126,-90 72,-90 72,-54 126,-54 126,-90"/>
<text text-anchor="middle" x="99" y="-68.3" font-family="Times,serif" font-size="14.00">B</text>
</g>
<!-- d7e11989&#45;&gt;d7e11990 -->
<g id="edge3" class="edge">
<title>d7e11989&#45;&gt;d7e11990</title>
<path fill="none" stroke="black" d="M54.07,-55.05C56.76,-56.09 59.53,-57.16 62.31,-58.23"/>
<polygon fill="black" stroke="black" points="61.09,-61.51 71.68,-61.85 63.61,-54.98 61.09,-61.51"/>
</g>
<!-- d7e11992 -->
<g id="node4" class="node">
<title>d7e11992</title>
<polygon fill="none" stroke="black" points="126,-36 72,-36 72,0 126,0 126,-36"/>
<text text-anchor="middle" x="99" y="-14.3" font-family="Times,serif" font-size="14.00">C</text>
</g>
<!-- d7e11989&#45;&gt;d7e11992 -->
<g id="edge4" class="edge">
<title>d7e11989&#45;&gt;d7e11992</title>
<path fill="none" stroke="black" d="M54.07,-34.95C56.76,-33.91 59.53,-32.84 62.31,-31.77"/>
<polygon fill="black" stroke="black" points="63.61,-35.02 71.68,-28.15 61.09,-28.49 63.61,-35.02"/>
</g>
<!-- d7e11991 -->
<g id="node3" class="node">
<title>d7e11991</title>
<polygon fill="none" stroke="black" points="198,-90 144,-90 144,-54 198,-54 198,-90"/>
<text text-anchor="middle" x="171" y="-68.3" font-family="Times,serif" font-size="14.00">D</text>
</g>
<!-- d7e11990&#45;&gt;d7e11991 -->
<g id="edge1" class="edge">
<title>d7e11990&#45;&gt;d7e11991</title>
<path fill="none" stroke="black" d="M126.07,-72C128.49,-72 130.98,-72 133.48,-72"/>
<polygon fill="black" stroke="black" points="133.68,-75.5 143.68,-72 133.68,-68.5 133.68,-75.5"/>
</g>
<!-- d7e11993 -->
<g id="node5" class="node">
<title>d7e11993</title>
<polygon fill="none" stroke="black" points="198,-36 144,-36 144,0 198,0 198,-36"/>
<text text-anchor="middle" x="171" y="-14.3" font-family="Times,serif" font-size="14.00">E</text>
</g>
<!-- d7e11992&#45;&gt;d7e11993 -->
<g id="edge2" class="edge">
<title>d7e11992&#45;&gt;d7e11993</title>
<path fill="none" stroke="black" d="M126.07,-18C128.49,-18 130.98,-18 133.48,-18"/>
<polygon fill="black" stroke="black" points="133.68,-21.5 143.68,-18 133.68,-14.5 133.68,-21.5"/>
</g>
</g>
</svg>
