<?xml version="1.0" encoding="UTF-8" standalone="no"?>
<!DOCTYPE svg PUBLIC "-//W3C//DTD SVG 1.1//EN"
 "http://www.w3.org/Graphics/SVG/1.1/DTD/svg11.dtd">
<!-- Generated by graphviz version 2.43.0 (0)
 -->
<!-- Title: %3 Pages: 1 -->
<svg width="880pt" height="99pt"
 viewBox="0.00 0.00 880.00 99.00" xmlns="http://www.w3.org/2000/svg" xmlns:xlink="http://www.w3.org/1999/xlink">
<g id="graph0" class="graph" transform="scale(1 1) rotate(0) translate(4 95)">
<title>%3</title>
<polygon fill="white" stroke="transparent" points="-4,4 -4,-95 876,-95 876,4 -4,4"/>
<g id="clust1" class="cluster">
<title>cluster_legend</title>
<polygon fill="none" stroke="black" points="8,-8 8,-83 864,-83 864,-8 8,-8"/>
<text text-anchor="middle" x="436" y="-67.8" font-family="Times,serif" font-size="14.00">Legend</text>
</g>
<!-- _bat -->
<g id="node1" class="node">
<title>_bat</title>
<path fill="none" stroke="#e69f00" stroke-width="2" d="M169,-52C169,-52 28,-52 28,-52 22,-52 16,-46 16,-40 16,-40 16,-28 16,-28 16,-22 22,-16 28,-16 28,-16 169,-16 169,-16 175,-16 181,-22 181,-28 181,-28 181,-40 181,-40 181,-46 175,-52 169,-52"/>
<text text-anchor="middle" x="98.5" y="-30.3" font-family="Times,serif" font-size="14.00">Built&#45;in atomic types</text>
</g>
<!-- _nod -->
<g id="node2" class="node">
<title>_nod</title>
<path fill="none" stroke="#cc79a7" stroke-width="2" d="M303,-52C303,-52 229,-52 229,-52 223,-52 217,-46 217,-40 217,-40 217,-28 217,-28 217,-22 223,-16 229,-16 229,-16 303,-16 303,-16 309,-16 315,-22 315,-28 315,-28 315,-40 315,-40 315,-46 309,-52 303,-52"/>
<text text-anchor="middle" x="266" y="-30.3" font-family="Times,serif" font-size="14.00">Node types</text>
</g>
<!-- _bat&#45;&gt;_nod -->
<!-- _fit -->
<g id="node3" class="node">
<title>_fit</title>
<path fill="none" stroke="#d55e00" stroke-width="2" d="M499,-52C499,-52 363,-52 363,-52 357,-52 351,-46 351,-40 351,-40 351,-28 351,-28 351,-22 357,-16 363,-16 363,-16 499,-16 499,-16 505,-16 511,-22 511,-28 511,-28 511,-40 511,-40 511,-46 505,-52 499,-52"/>
<text text-anchor="middle" x="431" y="-30.3" font-family="Times,serif" font-size="14.00">Function item types</text>
</g>
<!-- _nod&#45;&gt;_fit -->
<!-- _udt -->
<g id="node4" class="node">
<title>_udt</title>
<path fill="none" stroke="#009e73" stroke-width="2" d="M687,-52C687,-52 559,-52 559,-52 553,-52 547,-46 547,-40 547,-40 547,-28 547,-28 547,-22 553,-16 559,-16 559,-16 687,-16 687,-16 693,-16 699,-22 699,-28 699,-28 699,-40 699,-40 699,-46 693,-52 687,-52"/>
<text text-anchor="middle" x="623" y="-30.3" font-family="Times,serif" font-size="14.00">User&#45;defined types</text>
</g>
<!-- _fit&#45;&gt;_udt -->
<!-- _abt -->
<g id="node5" class="node">
<title>_abt</title>
<polygon fill="none" stroke="black" points="856,-52 739,-52 735,-48 735,-16 852,-16 856,-20 856,-52"/>
<polyline fill="none" stroke="black" points="852,-48 735,-48 "/>
<polyline fill="none" stroke="black" points="852,-48 852,-16 "/>
<polyline fill="none" stroke="black" points="852,-48 856,-52 "/>
<text text-anchor="middle" x="795.5" y="-30.3" font-family="Times,serif" font-size="14.00">Abstract types</text>
</g>
<!-- _udt&#45;&gt;_abt -->
</g>
</svg>
