<?xml version="1.0" encoding="UTF-8" standalone="no"?>
<!DOCTYPE svg PUBLIC "-//W3C//DTD SVG 1.1//EN"
 "http://www.w3.org/Graphics/SVG/1.1/DTD/svg11.dtd">
<!-- Generated by graphviz version 7.0.0 (20221023.0053)
 -->
<!-- Pages: 1 -->
<svg width="695pt" height="330pt"
 viewBox="0.00 0.00 695.00 330.00" xmlns="http://www.w3.org/2000/svg" xmlns:xlink="http://www.w3.org/1999/xlink">
<g id="graph0" class="graph" transform="scale(1 1) rotate(0) translate(4 326)">
<polygon fill="white" stroke="none" points="-4,4 -4,-326 691,-326 691,4 -4,4"/>
<g id="clust1" class="cluster">
<title>cluster_XmlSchemaTypes</title>
</g>
<g id="clust3" class="cluster">
<title>cluster_simpleTypes</title>
</g>
<g id="clust5" class="cluster">
<title>cluster_atomicTypes</title>
</g>
<!-- anyType -->
<g id="node1" class="node">
<title>anyType</title>
<path fill="none" stroke="#cc79a7" stroke-width="4" d="M107,-131C107,-131 52,-131 52,-131 46,-131 40,-125 40,-119 40,-119 40,-107 40,-107 40,-101 46,-95 52,-95 52,-95 107,-95 107,-95 113,-95 119,-101 119,-107 119,-107 119,-119 119,-119 119,-125 113,-131 107,-131"/>
<text text-anchor="middle" x="79.5" y="-109.3" font-family="Times,serif" font-size="14.00">xs:anyType</text>
</g>
<!-- conc_xsd -->
<g id="node2" class="node">
<title>conc_xsd</title>
<polygon fill="none" stroke="black" stroke-width="2" points="143,-185 20,-185 16,-181 16,-149 139,-149 143,-153 143,-185"/>
<polyline fill="none" stroke="black" stroke-width="2" points="139,-181 16,-181"/>
<polyline fill="none" stroke="black" stroke-width="2" points="139,-181 139,-149"/>
<polyline fill="none" stroke="black" stroke-width="2" points="139,-181 143,-185"/>
<text text-anchor="middle" x="79.5" y="-163.3" font-family="Times,serif" font-size="14.00">XML Schema types</text>
</g>
<!-- anyType&#45;&gt;conc_xsd -->
<g id="edge1" class="edge">
<title>anyType&#45;&gt;conc_xsd</title>
<path fill="none" stroke="black" stroke-dasharray="1,5" d="M79.5,-132.83C79.5,-137.9 79.5,-142.97 79.5,-148.05"/>
</g>
<!-- anySimpleType -->
<g id="node3" class="node">
<title>anySimpleType</title>
<path fill="none" stroke="#d55e00" stroke-width="4" d="M285,-171C285,-171 191,-171 191,-171 185,-171 179,-165 179,-159 179,-159 179,-147 179,-147 179,-141 185,-135 191,-135 191,-135 285,-135 285,-135 291,-135 297,-141 297,-147 297,-147 297,-159 297,-159 297,-165 291,-171 285,-171"/>
<text text-anchor="middle" x="238" y="-149.3" font-family="Times,serif" font-size="14.00">xs:anySimpleType</text>
</g>
<!-- anyType&#45;&gt;anySimpleType -->
<g id="edge4" class="edge">
<title>anyType&#45;&gt;anySimpleType</title>
<path fill="none" stroke="black" d="M131.59,-126.06C146.11,-129.77 162.06,-133.84 177.05,-137.68"/>
<polygon fill="black" stroke="black" points="132.82,-122.76 122.27,-123.68 131.09,-129.54 132.82,-122.76"/>
</g>
<!-- complex_types -->
<g id="node9" class="node">
<title>complex_types</title>
<polygon fill="none" stroke="black" stroke-width="2" points="286,-90 194,-90 190,-86 190,-54 282,-54 286,-58 286,-90"/>
<polyline fill="none" stroke="black" stroke-width="2" points="282,-86 190,-86"/>
<polyline fill="none" stroke="black" stroke-width="2" points="282,-86 282,-54"/>
<polyline fill="none" stroke="black" stroke-width="2" points="282,-86 286,-90"/>
<text text-anchor="middle" x="238" y="-68.3" font-family="Times,serif" font-size="14.00">complex types</text>
</g>
<!-- anyType&#45;&gt;complex_types -->
<g id="edge5" class="edge">
<title>anyType&#45;&gt;complex_types</title>
<path fill="none" stroke="black" d="M131.92,-99.53C150.31,-94.71 170.95,-89.3 189.04,-84.57"/>
<polygon fill="black" stroke="black" points="131.05,-96.14 122.27,-102.06 132.83,-102.91 131.05,-96.14"/>
</g>
<!-- conc_simple -->
<g id="node4" class="node">
<title>conc_simple</title>
<polygon fill="none" stroke="black" stroke-width="2" points="282,-225 198,-225 194,-221 194,-189 278,-189 282,-193 282,-225"/>
<polyline fill="none" stroke="black" stroke-width="2" points="278,-221 194,-221"/>
<polyline fill="none" stroke="black" stroke-width="2" points="278,-221 278,-189"/>
<polyline fill="none" stroke="black" stroke-width="2" points="278,-221 282,-225"/>
<text text-anchor="middle" x="238" y="-203.3" font-family="Times,serif" font-size="14.00">Simple types</text>
</g>
<!-- anySimpleType&#45;&gt;conc_simple -->
<g id="edge2" class="edge">
<title>anySimpleType&#45;&gt;conc_simple</title>
<path fill="none" stroke="black" stroke-dasharray="1,5" d="M238,-172.83C238,-177.9 238,-182.97 238,-188.05"/>
</g>
<!-- anyAtomicType -->
<g id="node5" class="node">
<title>anyAtomicType</title>
<g id="a_node5"><a xlink:href="#hier_anyAtomicType" xlink:title="xs:anyAtomicType">
<path fill="none" stroke="#e69f00" stroke-width="4" d="M464.5,-252C464.5,-252 368.5,-252 368.5,-252 362.5,-252 356.5,-246 356.5,-240 356.5,-240 356.5,-228 356.5,-228 356.5,-222 362.5,-216 368.5,-216 368.5,-216 464.5,-216 464.5,-216 470.5,-216 476.5,-222 476.5,-228 476.5,-228 476.5,-240 476.5,-240 476.5,-246 470.5,-252 464.5,-252"/>
<text text-anchor="middle" x="416.5" y="-230.3" font-family="Times,serif" font-size="14.00" fill="#0000ff">xs:anyAtomicType</text>
</a>
</g>
</g>
<!-- anySimpleType&#45;&gt;anyAtomicType -->
<g id="edge6" class="edge">
<title>anySimpleType&#45;&gt;anyAtomicType</title>
<path fill="none" stroke="black" d="M302.81,-178.61C303.55,-179.07 304.28,-179.53 305,-180 319.48,-189.44 318.19,-198.09 333,-207 339.71,-211.04 347.11,-214.55 354.62,-217.59"/>
<polygon fill="black" stroke="black" points="304.59,-175.59 294.16,-173.72 301.14,-181.69 304.59,-175.59"/>
</g>
<!-- list_types -->
<g id="node7" class="node">
<title>list_types</title>
<polygon fill="none" stroke="black" stroke-width="2" points="449,-198 388,-198 384,-194 384,-162 445,-162 449,-166 449,-198"/>
<polyline fill="none" stroke="black" stroke-width="2" points="445,-194 384,-194"/>
<polyline fill="none" stroke="black" stroke-width="2" points="445,-194 445,-162"/>
<polyline fill="none" stroke="black" stroke-width="2" points="445,-194 449,-198"/>
<text text-anchor="middle" x="416.5" y="-176.3" font-family="Times,serif" font-size="14.00">list types</text>
</g>
<!-- anySimpleType&#45;&gt;list_types -->
<g id="edge7" class="edge">
<title>anySimpleType&#45;&gt;list_types</title>
<path fill="none" stroke="black" d="M309.85,-163.84C335.2,-167.72 362.54,-171.9 383.06,-175.04"/>
<polygon fill="black" stroke="black" points="310.67,-160.42 300.25,-162.37 309.61,-167.34 310.67,-160.42"/>
</g>
<!-- union_types -->
<g id="node8" class="node">
<title>union_types</title>
<polygon fill="none" stroke="black" stroke-width="2" points="456.5,-144 380.5,-144 376.5,-140 376.5,-108 452.5,-108 456.5,-112 456.5,-144"/>
<polyline fill="none" stroke="black" stroke-width="2" points="452.5,-140 376.5,-140"/>
<polyline fill="none" stroke="black" stroke-width="2" points="452.5,-140 452.5,-108"/>
<polyline fill="none" stroke="black" stroke-width="2" points="452.5,-140 456.5,-144"/>
<text text-anchor="middle" x="416.5" y="-122.3" font-family="Times,serif" font-size="14.00">union types</text>
</g>
<!-- anySimpleType&#45;&gt;union_types -->
<g id="edge8" class="edge">
<title>anySimpleType&#45;&gt;union_types</title>
<path fill="none" stroke="black" d="M309.92,-142.15C332.25,-138.73 356.14,-135.08 375.53,-132.12"/>
<polygon fill="black" stroke="black" points="309.61,-138.66 300.25,-143.63 310.67,-145.58 309.61,-138.66"/>
</g>
<!-- conc_atomic -->
<g id="node6" class="node">
<title>conc_atomic</title>
<polygon fill="none" stroke="black" stroke-width="2" points="461.5,-306 375.5,-306 371.5,-302 371.5,-270 457.5,-270 461.5,-274 461.5,-306"/>
<polyline fill="none" stroke="black" stroke-width="2" points="457.5,-302 371.5,-302"/>
<polyline fill="none" stroke="black" stroke-width="2" points="457.5,-302 457.5,-270"/>
<polyline fill="none" stroke="black" stroke-width="2" points="457.5,-302 461.5,-306"/>
<text text-anchor="middle" x="416.5" y="-284.3" font-family="Times,serif" font-size="14.00">Atomic types</text>
</g>
<!-- anyAtomicType&#45;&gt;conc_atomic -->
<g id="edge3" class="edge">
<title>anyAtomicType&#45;&gt;conc_atomic</title>
<path fill="none" stroke="black" stroke-dasharray="1,5" d="M416.5,-253.83C416.5,-258.9 416.5,-263.97 416.5,-269.05"/>
</g>
<!-- listTypes -->
<g id="node10" class="node">
<title>listTypes</title>
<path fill="none" stroke="#d55e00" stroke-width="4" d="M569.5,-216.5C569.5,-216.5 653.5,-216.5 653.5,-216.5 659.5,-216.5 665.5,-222.5 665.5,-228.5 665.5,-228.5 665.5,-273.5 665.5,-273.5 665.5,-279.5 659.5,-285.5 653.5,-285.5 653.5,-285.5 569.5,-285.5 569.5,-285.5 563.5,-285.5 557.5,-279.5 557.5,-273.5 557.5,-273.5 557.5,-228.5 557.5,-228.5 557.5,-222.5 563.5,-216.5 569.5,-216.5"/>
<text text-anchor="middle" x="611.5" y="-270.3" font-family="Times,serif" font-size="14.00">xs:IDREFS</text>
<polyline fill="none" stroke="#d55e00" stroke-width="4" points="557.5,-262.5 665.5,-262.5"/>
<text text-anchor="middle" x="611.5" y="-247.3" font-family="Times,serif" font-size="14.00">xs:NMTOKENS</text>
<polyline fill="none" stroke="#d55e00" stroke-width="4" points="557.5,-239.5 665.5,-239.5"/>
<text text-anchor="middle" x="611.5" y="-224.3" font-family="Times,serif" font-size="14.00">xs:ENTITIES</text>
</g>
<!-- list_types&#45;&gt;listTypes -->
<g id="edge9" class="edge">
<title>list_types&#45;&gt;listTypes</title>
<path fill="none" stroke="black" d="M460.75,-191.53C473.49,-195.21 487.39,-199.5 500,-204 519.05,-210.79 539.52,-219.19 557.61,-226.99"/>
<polygon fill="black" stroke="black" points="461.94,-188.23 451.37,-188.88 460.04,-194.97 461.94,-188.23"/>
</g>
<!-- user_defined_list_types -->
<g id="node11" class="node">
<title>user_defined_list_types</title>
<path fill="none" stroke="#009e73" stroke-width="4" d="M668,-198C668,-198 555,-198 555,-198 549,-198 543,-192 543,-186 543,-186 543,-174 543,-174 543,-168 549,-162 555,-162 555,-162 668,-162 668,-162 674,-162 680,-168 680,-174 680,-174 680,-186 680,-186 680,-192 674,-198 668,-198"/>
<text text-anchor="middle" x="611.5" y="-176.3" font-family="Times,serif" font-size="14.00">user&#45;defined list types</text>
</g>
<!-- list_types&#45;&gt;user_defined_list_types -->
<g id="edge10" class="edge">
<title>list_types&#45;&gt;user_defined_list_types</title>
<path fill="none" stroke="black" d="M461.21,-180C484.83,-180 514.54,-180 541.22,-180"/>
<polygon fill="black" stroke="black" points="461.32,-176.5 451.32,-180 461.32,-183.5 461.32,-176.5"/>
</g>
<!-- numeric -->
<g id="node12" class="node">
<title>numeric</title>
<path fill="none" stroke="#cc79a7" stroke-width="4" d="M638,-144C638,-144 585,-144 585,-144 579,-144 573,-138 573,-132 573,-132 573,-120 573,-120 573,-114 579,-108 585,-108 585,-108 638,-108 638,-108 644,-108 650,-114 650,-120 650,-120 650,-132 650,-132 650,-138 644,-144 638,-144"/>
<text text-anchor="middle" x="611.5" y="-122.3" font-family="Times,serif" font-size="14.00">xs:numeric</text>
</g>
<!-- union_types&#45;&gt;numeric -->
<g id="edge11" class="edge">
<title>union_types&#45;&gt;numeric</title>
<path fill="none" stroke="black" d="M468.89,-126C501,-126 541.7,-126 571.22,-126"/>
<polygon fill="black" stroke="black" points="469,-122.5 459,-126 469,-129.5 469,-122.5"/>
</g>
<!-- user_defined_union_types -->
<g id="node13" class="node">
<title>user_defined_union_types</title>
<path fill="none" stroke="#009e73" stroke-width="4" d="M675,-90C675,-90 548,-90 548,-90 542,-90 536,-84 536,-78 536,-78 536,-66 536,-66 536,-60 542,-54 548,-54 548,-54 675,-54 675,-54 681,-54 687,-60 687,-66 687,-66 687,-78 687,-78 687,-84 681,-90 675,-90"/>
<text text-anchor="middle" x="611.5" y="-68.3" font-family="Times,serif" font-size="14.00">user&#45;defined union types</text>
</g>
<!-- union_types&#45;&gt;user_defined_union_types -->
<g id="edge12" class="edge">
<title>union_types&#45;&gt;user_defined_union_types</title>
<path fill="none" stroke="black" d="M468.44,-111.75C490.14,-105.68 515.83,-98.49 539.35,-91.91"/>
<polygon fill="black" stroke="black" points="467.63,-108.34 458.95,-114.4 469.52,-115.08 467.63,-108.34"/>
</g>
<!-- untyped -->
<g id="node14" class="node">
<title>untyped</title>
<path fill="none" stroke="#cc79a7" stroke-width="4" d="M442.5,-90C442.5,-90 390.5,-90 390.5,-90 384.5,-90 378.5,-84 378.5,-78 378.5,-78 378.5,-66 378.5,-66 378.5,-60 384.5,-54 390.5,-54 390.5,-54 442.5,-54 442.5,-54 448.5,-54 454.5,-60 454.5,-66 454.5,-66 454.5,-78 454.5,-78 454.5,-84 448.5,-90 442.5,-90"/>
<text text-anchor="middle" x="416.5" y="-68.3" font-family="Times,serif" font-size="14.00">xs:untyped</text>
</g>
<!-- complex_types&#45;&gt;untyped -->
<g id="edge13" class="edge">
<title>complex_types&#45;&gt;untyped</title>
<path fill="none" stroke="black" d="M297.98,-72C323.87,-72 353.56,-72 376.62,-72"/>
<polygon fill="black" stroke="black" points="298.28,-68.5 288.28,-72 298.28,-75.5 298.28,-68.5"/>
</g>
<!-- user_defined_complex_types -->
<g id="node15" class="node">
<title>user_defined_complex_types</title>
<path fill="none" stroke="#009e73" stroke-width="4" d="M488,-36C488,-36 345,-36 345,-36 339,-36 333,-30 333,-24 333,-24 333,-12 333,-12 333,-6 339,0 345,0 345,0 488,0 488,0 494,0 500,-6 500,-12 500,-12 500,-24 500,-24 500,-30 494,-36 488,-36"/>
<text text-anchor="middle" x="416.5" y="-14.3" font-family="Times,serif" font-size="14.00">user&#45;defined complex types</text>
</g>
<!-- complex_types&#45;&gt;user_defined_complex_types -->
<g id="edge14" class="edge">
<title>complex_types&#45;&gt;user_defined_complex_types</title>
<path fill="none" stroke="black" d="M297.57,-54.08C314.42,-48.93 332.9,-43.27 350.14,-38"/>
<polygon fill="black" stroke="black" points="296.75,-50.67 288.21,-56.94 298.8,-57.37 296.75,-50.67"/>
</g>
</g>
</svg>
