<?xml version="1.0" encoding="UTF-8" standalone="no"?>
<!DOCTYPE svg PUBLIC "-//W3C//DTD SVG 1.1//EN"
 "http://www.w3.org/Graphics/SVG/1.1/DTD/svg11.dtd">
<!-- Generated by graphviz version 2.43.0 (0)
 -->
<!-- Title: %3 Pages: 1 -->
<svg width="440pt" height="99pt"
 viewBox="0.00 0.00 440.00 99.00" xmlns="http://www.w3.org/2000/svg" xmlns:xlink="http://www.w3.org/1999/xlink">
<g id="graph0" class="graph" transform="scale(1 1) rotate(0) translate(4 95)">
<title>%3</title>
<polygon fill="white" stroke="transparent" points="-4,4 -4,-95 436,-95 436,4 -4,4"/>
<g id="clust1" class="cluster">
<title>cluster_legend</title>
<polygon fill="none" stroke="black" points="8,-8 8,-83 424,-83 424,-8 8,-8"/>
<text text-anchor="middle" x="216" y="-67.8" font-family="Times,serif" font-size="14.00">Legend</text>
</g>
<!-- _bat -->
<g id="node1" class="node">
<title>_bat</title>
<path fill="none" stroke="#e69f00" stroke-width="2" d="M169,-52C169,-52 28,-52 28,-52 22,-52 16,-46 16,-40 16,-40 16,-28 16,-28 16,-22 22,-16 28,-16 28,-16 169,-16 169,-16 175,-16 181,-22 181,-28 181,-28 181,-40 181,-40 181,-46 175,-52 169,-52"/>
<text text-anchor="middle" x="98.5" y="-30.3" font-family="Times,serif" font-size="14.00">Built&#45;in atomic types</text>
</g>
<!-- _type -->
<g id="node2" class="node">
<title>_type</title>
<path fill="none" stroke="#000000" stroke-width="2" d="M294,-52C294,-52 229,-52 229,-52 223,-52 217,-46 217,-40 217,-40 217,-28 217,-28 217,-22 223,-16 229,-16 229,-16 294,-16 294,-16 300,-16 306,-22 306,-28 306,-28 306,-40 306,-40 306,-46 300,-52 294,-52"/>
<text text-anchor="middle" x="261.5" y="-30.3" font-family="Times,serif" font-size="14.00">supertype</text>
</g>
<!-- _bat&#45;&gt;_type -->
<!-- _stype -->
<g id="node3" class="node">
<title>_stype</title>
<path fill="none" stroke="#000000" stroke-width="2" d="M404,-52C404,-52 354,-52 354,-52 348,-52 342,-46 342,-40 342,-40 342,-28 342,-28 342,-22 348,-16 354,-16 354,-16 404,-16 404,-16 410,-16 416,-22 416,-28 416,-28 416,-40 416,-40 416,-46 410,-52 404,-52"/>
<text text-anchor="middle" x="379" y="-30.3" font-family="Times,serif" font-size="14.00">subtype</text>
</g>
<!-- _type&#45;&gt;_stype -->
<g id="edge2" class="edge">
<title>_type&#45;&gt;_stype</title>
<path fill="none" stroke="black" d="M316.23,-34C324.9,-34 333.68,-34 341.8,-34"/>
<polygon fill="black" stroke="black" points="316.17,-30.5 306.17,-34 316.17,-37.5 316.17,-30.5"/>
</g>
</g>
</svg>
