<?xml version="1.0" encoding="UTF-8" standalone="no"?>
<!DOCTYPE svg PUBLIC "-//W3C//DTD SVG 1.1//EN"
 "http://www.w3.org/Graphics/SVG/1.1/DTD/svg11.dtd">
<!-- Generated by graphviz version 2.43.0 (0)
 -->
<!-- Title: %3 Pages: 1 -->
<svg width="1273pt" height="650pt"
 viewBox="0.00 0.00 1273.00 650.00" xmlns="http://www.w3.org/2000/svg" xmlns:xlink="http://www.w3.org/1999/xlink">
<g id="graph0" class="graph" transform="scale(1 1) rotate(0) translate(4 646)">
<title>%3</title>
<polygon fill="white" stroke="transparent" points="-4,4 -4,-646 1269,-646 1269,4 -4,4"/>
<!-- anyAtomicType -->
<g id="node1" class="node">
<title>anyAtomicType</title>
<path fill="none" stroke="#e69f00" stroke-width="4" d="M672,-642C672,-642 550,-642 550,-642 544,-642 538,-636 538,-630 538,-630 538,-618 538,-618 538,-612 544,-606 550,-606 550,-606 672,-606 672,-606 678,-606 684,-612 684,-618 684,-618 684,-630 684,-630 684,-636 678,-642 672,-642"/>
<text text-anchor="middle" x="611" y="-620.3" font-family="Times,serif" font-size="14.00">xs:anyAtomicType</text>
</g>
<!-- string -->
<g id="node3" class="node">
<title>string</title>
<path fill="none" stroke="#e69f00" stroke-width="4" d="M548,-530C548,-530 492,-530 492,-530 486,-530 480,-524 480,-518 480,-518 480,-506 480,-506 480,-500 486,-494 492,-494 492,-494 548,-494 548,-494 554,-494 560,-500 560,-506 560,-506 560,-518 560,-518 560,-524 554,-530 548,-530"/>
<text text-anchor="middle" x="520" y="-508.3" font-family="Times,serif" font-size="14.00">xs:string</text>
</g>
<!-- anyAtomicType&#45;&gt;string -->
<g id="edge1" class="edge">
<title>anyAtomicType&#45;&gt;string</title>
<path fill="none" stroke="black" d="M590.34,-598.02C573.16,-577.26 549.17,-548.26 534.12,-530.07"/>
<polygon fill="black" stroke="black" points="587.71,-600.34 596.78,-605.81 593.1,-595.88 587.71,-600.34"/>
</g>
<!-- duration -->
<g id="node5" class="node">
<title>duration</title>
<path fill="none" stroke="#e69f00" stroke-width="4" d="M188,-530C188,-530 114,-530 114,-530 108,-530 102,-524 102,-518 102,-518 102,-506 102,-506 102,-500 108,-494 114,-494 114,-494 188,-494 188,-494 194,-494 200,-500 200,-506 200,-506 200,-518 200,-518 200,-524 194,-530 188,-530"/>
<text text-anchor="middle" x="151" y="-508.3" font-family="Times,serif" font-size="14.00">xs:duration</text>
</g>
<!-- anyAtomicType&#45;&gt;duration -->
<g id="edge2" class="edge">
<title>anyAtomicType&#45;&gt;duration</title>
<path fill="none" stroke="black" d="M527.3,-618.05C455.27,-611.98 349.3,-598.69 261,-570 231.13,-560.3 199.56,-543.12 177.93,-530.15"/>
<polygon fill="black" stroke="black" points="527.43,-621.57 537.68,-618.89 528,-614.59 527.43,-621.57"/>
</g>
<!-- dateAndTime -->
<g id="node20" class="node">
<title>dateAndTime</title>
<path fill="none" stroke="#e69f00" stroke-width="4" d="M282.5,-489C282.5,-489 327.5,-489 327.5,-489 333.5,-489 339.5,-495 339.5,-501 339.5,-501 339.5,-523 339.5,-523 339.5,-529 333.5,-535 327.5,-535 327.5,-535 282.5,-535 282.5,-535 276.5,-535 270.5,-529 270.5,-523 270.5,-523 270.5,-501 270.5,-501 270.5,-495 276.5,-489 282.5,-489"/>
<text text-anchor="middle" x="305" y="-519.8" font-family="Times,serif" font-size="14.00">xs:date</text>
<polyline fill="none" stroke="#e69f00" stroke-width="4" points="270.5,-512 339.5,-512 "/>
<text text-anchor="middle" x="305" y="-496.8" font-family="Times,serif" font-size="14.00">xs:time</text>
</g>
<!-- anyAtomicType&#45;&gt;dateAndTime -->
<g id="edge3" class="edge">
<title>anyAtomicType&#45;&gt;dateAndTime</title>
<path fill="none" stroke="black" d="M527.91,-620.98C473.46,-616.26 402.7,-603.4 349,-570 335.41,-561.55 324.41,-547.3 316.81,-535.16"/>
<polygon fill="black" stroke="black" points="527.64,-624.47 537.88,-621.78 528.19,-617.5 527.64,-624.47"/>
</g>
<!-- dateTime -->
<g id="node21" class="node">
<title>dateTime</title>
<path fill="none" stroke="#e69f00" stroke-width="4" d="M450,-530C450,-530 370,-530 370,-530 364,-530 358,-524 358,-518 358,-518 358,-506 358,-506 358,-500 364,-494 370,-494 370,-494 450,-494 450,-494 456,-494 462,-500 462,-506 462,-506 462,-518 462,-518 462,-524 456,-530 450,-530"/>
<text text-anchor="middle" x="410" y="-508.3" font-family="Times,serif" font-size="14.00">xs:dateTime</text>
</g>
<!-- anyAtomicType&#45;&gt;dateTime -->
<g id="edge4" class="edge">
<title>anyAtomicType&#45;&gt;dateTime</title>
<path fill="none" stroke="black" d="M541.24,-602.62C517.98,-594.28 492.53,-583.4 471,-570 453.4,-559.05 436.43,-542.55 424.88,-530.11"/>
<polygon fill="black" stroke="black" points="540.11,-605.94 550.71,-605.92 542.42,-599.33 540.11,-605.94"/>
</g>
<!-- floatingPoint -->
<g id="node22" class="node">
<title>floatingPoint</title>
<path fill="none" stroke="#e69f00" stroke-width="4" d="M611.5,-489C611.5,-489 672.5,-489 672.5,-489 678.5,-489 684.5,-495 684.5,-501 684.5,-501 684.5,-523 684.5,-523 684.5,-529 678.5,-535 672.5,-535 672.5,-535 611.5,-535 611.5,-535 605.5,-535 599.5,-529 599.5,-523 599.5,-523 599.5,-501 599.5,-501 599.5,-495 605.5,-489 611.5,-489"/>
<text text-anchor="middle" x="642" y="-519.8" font-family="Times,serif" font-size="14.00">xs:double</text>
<polyline fill="none" stroke="#e69f00" stroke-width="4" points="599.5,-512 684.5,-512 "/>
<text text-anchor="middle" x="642" y="-496.8" font-family="Times,serif" font-size="14.00">xs:float</text>
</g>
<!-- anyAtomicType&#45;&gt;floatingPoint -->
<g id="edge5" class="edge">
<title>anyAtomicType&#45;&gt;floatingPoint</title>
<path fill="none" stroke="black" d="M618.57,-596.15C623.82,-577.51 630.73,-552.97 635.69,-535.39"/>
<polygon fill="black" stroke="black" points="615.19,-595.24 615.84,-605.81 621.93,-597.14 615.19,-595.24"/>
</g>
<!-- decimal -->
<g id="node23" class="node">
<title>decimal</title>
<path fill="none" stroke="#e69f00" stroke-width="4" d="M783,-530C783,-530 715,-530 715,-530 709,-530 703,-524 703,-518 703,-518 703,-506 703,-506 703,-500 709,-494 715,-494 715,-494 783,-494 783,-494 789,-494 795,-500 795,-506 795,-506 795,-518 795,-518 795,-524 789,-530 783,-530"/>
<text text-anchor="middle" x="749" y="-508.3" font-family="Times,serif" font-size="14.00">xs:decimal</text>
</g>
<!-- anyAtomicType&#45;&gt;decimal -->
<g id="edge6" class="edge">
<title>anyAtomicType&#45;&gt;decimal</title>
<path fill="none" stroke="black" d="M649.49,-600.58C663.65,-591.7 679.51,-581 693,-570 707.94,-557.81 723.17,-542.06 733.97,-530.2"/>
<polygon fill="black" stroke="black" points="647.6,-597.63 640.93,-605.85 651.28,-603.59 647.6,-597.63"/>
</g>
<!-- binaryTypes -->
<g id="node24" class="node">
<title>binaryTypes</title>
<path fill="none" stroke="#e69f00" stroke-width="4" d="M825.5,-489C825.5,-489 936.5,-489 936.5,-489 942.5,-489 948.5,-495 948.5,-501 948.5,-501 948.5,-523 948.5,-523 948.5,-529 942.5,-535 936.5,-535 936.5,-535 825.5,-535 825.5,-535 819.5,-535 813.5,-529 813.5,-523 813.5,-523 813.5,-501 813.5,-501 813.5,-495 819.5,-489 825.5,-489"/>
<text text-anchor="middle" x="881" y="-519.8" font-family="Times,serif" font-size="14.00">xs:base64Binary</text>
<polyline fill="none" stroke="#e69f00" stroke-width="4" points="813.5,-512 948.5,-512 "/>
<text text-anchor="middle" x="881" y="-496.8" font-family="Times,serif" font-size="14.00">xs:hexBinary</text>
</g>
<!-- anyAtomicType&#45;&gt;binaryTypes -->
<g id="edge7" class="edge">
<title>anyAtomicType&#45;&gt;binaryTypes</title>
<path fill="none" stroke="black" d="M694.49,-607.18C729.4,-598.78 769.73,-586.67 804,-570 822.85,-560.84 841.79,-546.88 856.18,-535.08"/>
<polygon fill="black" stroke="black" points="693.26,-603.88 684.32,-609.56 694.86,-610.69 693.26,-603.88"/>
</g>
<!-- gDateTypes -->
<g id="node37" class="node">
<title>gDateTypes</title>
<path fill="none" stroke="#e69f00" stroke-width="4" d="M979,-454.5C979,-454.5 1079,-454.5 1079,-454.5 1085,-454.5 1091,-460.5 1091,-466.5 1091,-466.5 1091,-557.5 1091,-557.5 1091,-563.5 1085,-569.5 1079,-569.5 1079,-569.5 979,-569.5 979,-569.5 973,-569.5 967,-563.5 967,-557.5 967,-557.5 967,-466.5 967,-466.5 967,-460.5 973,-454.5 979,-454.5"/>
<text text-anchor="middle" x="1029" y="-554.3" font-family="Times,serif" font-size="14.00">xs:gYear</text>
<polyline fill="none" stroke="#e69f00" stroke-width="4" points="967,-546.5 1091,-546.5 "/>
<text text-anchor="middle" x="1029" y="-531.3" font-family="Times,serif" font-size="14.00">xs:gMonth</text>
<polyline fill="none" stroke="#e69f00" stroke-width="4" points="967,-523.5 1091,-523.5 "/>
<text text-anchor="middle" x="1029" y="-508.3" font-family="Times,serif" font-size="14.00">xs:gDay</text>
<polyline fill="none" stroke="#e69f00" stroke-width="4" points="967,-500.5 1091,-500.5 "/>
<text text-anchor="middle" x="1029" y="-485.3" font-family="Times,serif" font-size="14.00">xs:gYearMonth</text>
<polyline fill="none" stroke="#e69f00" stroke-width="4" points="967,-477.5 1091,-477.5 "/>
<text text-anchor="middle" x="1029" y="-462.3" font-family="Times,serif" font-size="14.00">xs:gMonthDay</text>
</g>
<!-- anyAtomicType&#45;&gt;gDateTypes -->
<g id="edge8" class="edge">
<title>anyAtomicType&#45;&gt;gDateTypes</title>
<path fill="none" stroke="black" d="M694.63,-622.1C766.85,-618.59 872.57,-606.78 957,-570 960.36,-568.54 963.7,-566.87 966.99,-565.06"/>
<polygon fill="black" stroke="black" points="694.06,-618.62 684.23,-622.56 694.37,-625.61 694.06,-618.62"/>
</g>
<!-- XXX -->
<g id="node38" class="node">
<title>XXX</title>
<ellipse fill="black" stroke="black" cx="580" cy="-512" rx="1.8" ry="1.8"/>
</g>
<!-- anyAtomicType&#45;&gt;XXX -->
<g id="edge9" class="edge">
<title>anyAtomicType&#45;&gt;XXX</title>
<path fill="none" stroke="black" d="M599.24,-596.4C595.89,-588.07 592.48,-578.76 590,-570 583.66,-547.57 580.6,-518.98 580.08,-513.82"/>
<polygon fill="black" stroke="black" points="596.01,-597.76 603.08,-605.64 602.47,-595.07 596.01,-597.76"/>
</g>
<!-- ZZZ -->
<g id="node39" class="node">
<title>ZZZ</title>
<ellipse fill="black" stroke="black" cx="1111" cy="-512" rx="1.8" ry="1.8"/>
</g>
<!-- anyAtomicType&#45;&gt;ZZZ -->
<g id="edge10" class="edge">
<title>anyAtomicType&#45;&gt;ZZZ</title>
<path fill="none" stroke="black" d="M694.08,-619.31C825.81,-612.69 1070.78,-596.9 1100,-570 1117.2,-554.16 1112.26,-520.22 1111.18,-513.99"/>
<polygon fill="black" stroke="black" points="693.83,-615.82 684.02,-619.81 694.18,-622.81 693.83,-615.82"/>
</g>
<!-- untypedAtomic -->
<g id="node2" class="node">
<title>untypedAtomic</title>
<path fill="none" stroke="#e69f00" stroke-width="4" d="M1034.5,-412.5C1034.5,-412.5 913.5,-412.5 913.5,-412.5 907.5,-412.5 901.5,-406.5 901.5,-400.5 901.5,-400.5 901.5,-388.5 901.5,-388.5 901.5,-382.5 907.5,-376.5 913.5,-376.5 913.5,-376.5 1034.5,-376.5 1034.5,-376.5 1040.5,-376.5 1046.5,-382.5 1046.5,-388.5 1046.5,-388.5 1046.5,-400.5 1046.5,-400.5 1046.5,-406.5 1040.5,-412.5 1034.5,-412.5"/>
<text text-anchor="middle" x="974" y="-390.8" font-family="Times,serif" font-size="14.00">xs:untypedAtomic</text>
</g>
<!-- normalizedString -->
<g id="node26" class="node">
<title>normalizedString</title>
<path fill="none" stroke="#e69f00" stroke-width="4" d="M513.5,-412.5C513.5,-412.5 376.5,-412.5 376.5,-412.5 370.5,-412.5 364.5,-406.5 364.5,-400.5 364.5,-400.5 364.5,-388.5 364.5,-388.5 364.5,-382.5 370.5,-376.5 376.5,-376.5 376.5,-376.5 513.5,-376.5 513.5,-376.5 519.5,-376.5 525.5,-382.5 525.5,-388.5 525.5,-388.5 525.5,-400.5 525.5,-400.5 525.5,-406.5 519.5,-412.5 513.5,-412.5"/>
<text text-anchor="middle" x="445" y="-390.8" font-family="Times,serif" font-size="14.00">xs:normalizedString</text>
</g>
<!-- string&#45;&gt;normalizedString -->
<g id="edge33" class="edge">
<title>string&#45;&gt;normalizedString</title>
<path fill="none" stroke="black" d="M503.37,-485.39C488.98,-463.24 468.59,-431.83 456.11,-412.61"/>
<polygon fill="black" stroke="black" points="500.55,-487.48 508.93,-493.96 506.42,-483.66 500.55,-487.48"/>
</g>
<!-- string&#45;&gt;XXX -->
<!-- dateTimeStamp -->
<g id="node4" class="node">
<title>dateTimeStamp</title>
<path fill="none" stroke="#e69f00" stroke-width="4" d="M334,-412.5C334,-412.5 208,-412.5 208,-412.5 202,-412.5 196,-406.5 196,-400.5 196,-400.5 196,-388.5 196,-388.5 196,-382.5 202,-376.5 208,-376.5 208,-376.5 334,-376.5 334,-376.5 340,-376.5 346,-382.5 346,-388.5 346,-388.5 346,-400.5 346,-400.5 346,-406.5 340,-412.5 334,-412.5"/>
<text text-anchor="middle" x="271" y="-390.8" font-family="Times,serif" font-size="14.00">xs:dateTimeStamp</text>
</g>
<!-- durationTypes -->
<g id="node6" class="node">
<title>durationTypes</title>
<path fill="none" stroke="#e69f00" stroke-width="4" d="M12,-371.5C12,-371.5 166,-371.5 166,-371.5 172,-371.5 178,-377.5 178,-383.5 178,-383.5 178,-405.5 178,-405.5 178,-411.5 172,-417.5 166,-417.5 166,-417.5 12,-417.5 12,-417.5 6,-417.5 0,-411.5 0,-405.5 0,-405.5 0,-383.5 0,-383.5 0,-377.5 6,-371.5 12,-371.5"/>
<text text-anchor="middle" x="89" y="-402.3" font-family="Times,serif" font-size="14.00">xs:yearMonthDuration</text>
<polyline fill="none" stroke="#e69f00" stroke-width="4" points="0,-394.5 178,-394.5 "/>
<text text-anchor="middle" x="89" y="-379.3" font-family="Times,serif" font-size="14.00">xs:dayTimeDuration</text>
</g>
<!-- duration&#45;&gt;durationTypes -->
<g id="edge19" class="edge">
<title>duration&#45;&gt;durationTypes</title>
<path fill="none" stroke="black" d="M137.03,-484.98C126.17,-464.74 111.26,-436.98 100.95,-417.77"/>
<polygon fill="black" stroke="black" points="134.04,-486.8 141.85,-493.96 140.21,-483.49 134.04,-486.8"/>
</g>
<!-- integer -->
<g id="node7" class="node">
<title>integer</title>
<path fill="none" stroke="#e69f00" stroke-width="4" d="M862.5,-412.5C862.5,-412.5 797.5,-412.5 797.5,-412.5 791.5,-412.5 785.5,-406.5 785.5,-400.5 785.5,-400.5 785.5,-388.5 785.5,-388.5 785.5,-382.5 791.5,-376.5 797.5,-376.5 797.5,-376.5 862.5,-376.5 862.5,-376.5 868.5,-376.5 874.5,-382.5 874.5,-388.5 874.5,-388.5 874.5,-400.5 874.5,-400.5 874.5,-406.5 868.5,-412.5 862.5,-412.5"/>
<text text-anchor="middle" x="830" y="-390.8" font-family="Times,serif" font-size="14.00">xs:integer</text>
</g>
<!-- nonPositiveInteger -->
<g id="node8" class="node">
<title>nonPositiveInteger</title>
<path fill="none" stroke="#e69f00" stroke-width="4" d="M1142,-335C1142,-335 994,-335 994,-335 988,-335 982,-329 982,-323 982,-323 982,-311 982,-311 982,-305 988,-299 994,-299 994,-299 1142,-299 1142,-299 1148,-299 1154,-305 1154,-311 1154,-311 1154,-323 1154,-323 1154,-329 1148,-335 1142,-335"/>
<text text-anchor="middle" x="1068" y="-313.3" font-family="Times,serif" font-size="14.00">xs:nonPositiveInteger</text>
</g>
<!-- integer&#45;&gt;nonPositiveInteger -->
<g id="edge21" class="edge">
<title>integer&#45;&gt;nonPositiveInteger</title>
<path fill="none" stroke="black" d="M884.19,-373.64C886.82,-372.73 889.44,-371.85 892,-371 930.47,-358.24 974.08,-345.1 1008.27,-335.09"/>
<polygon fill="black" stroke="black" points="882.89,-370.38 874.6,-376.98 885.19,-376.99 882.89,-370.38"/>
</g>
<!-- long -->
<g id="node10" class="node">
<title>long</title>
<path fill="none" stroke="#e69f00" stroke-width="4" d="M691,-335C691,-335 647,-335 647,-335 641,-335 635,-329 635,-323 635,-323 635,-311 635,-311 635,-305 641,-299 647,-299 647,-299 691,-299 691,-299 697,-299 703,-305 703,-311 703,-311 703,-323 703,-323 703,-329 697,-335 691,-335"/>
<text text-anchor="middle" x="669" y="-313.3" font-family="Times,serif" font-size="14.00">xs:long</text>
</g>
<!-- integer&#45;&gt;long -->
<g id="edge22" class="edge">
<title>integer&#45;&gt;long</title>
<path fill="none" stroke="black" d="M784.26,-372.05C758.47,-359.96 726.8,-345.11 703.19,-334.03"/>
<polygon fill="black" stroke="black" points="782.93,-375.29 793.47,-376.37 785.9,-368.95 782.93,-375.29"/>
</g>
<!-- nonNegativeInteger -->
<g id="node14" class="node">
<title>nonNegativeInteger</title>
<path fill="none" stroke="#e69f00" stroke-width="4" d="M908,-335C908,-335 752,-335 752,-335 746,-335 740,-329 740,-323 740,-323 740,-311 740,-311 740,-305 746,-299 752,-299 752,-299 908,-299 908,-299 914,-299 920,-305 920,-311 920,-311 920,-323 920,-323 920,-329 914,-335 908,-335"/>
<text text-anchor="middle" x="830" y="-313.3" font-family="Times,serif" font-size="14.00">xs:nonNegativeInteger</text>
</g>
<!-- integer&#45;&gt;nonNegativeInteger -->
<g id="edge23" class="edge">
<title>integer&#45;&gt;nonNegativeInteger</title>
<path fill="none" stroke="black" d="M830,-366.11C830,-355.73 830,-344.22 830,-335.06"/>
<polygon fill="black" stroke="black" points="826.5,-366.37 830,-376.37 833.5,-366.37 826.5,-366.37"/>
</g>
<!-- negativeInteger -->
<g id="node9" class="node">
<title>negativeInteger</title>
<path fill="none" stroke="#e69f00" stroke-width="4" d="M1166.5,-263C1166.5,-263 1039.5,-263 1039.5,-263 1033.5,-263 1027.5,-257 1027.5,-251 1027.5,-251 1027.5,-239 1027.5,-239 1027.5,-233 1033.5,-227 1039.5,-227 1039.5,-227 1166.5,-227 1166.5,-227 1172.5,-227 1178.5,-233 1178.5,-239 1178.5,-239 1178.5,-251 1178.5,-251 1178.5,-257 1172.5,-263 1166.5,-263"/>
<text text-anchor="middle" x="1103" y="-241.3" font-family="Times,serif" font-size="14.00">xs:negativeInteger</text>
</g>
<!-- nonPositiveInteger&#45;&gt;negativeInteger -->
<g id="edge24" class="edge">
<title>nonPositiveInteger&#45;&gt;negativeInteger</title>
<path fill="none" stroke="black" d="M1081.24,-289.51C1085.67,-280.67 1090.48,-271.04 1094.45,-263.1"/>
<polygon fill="black" stroke="black" points="1077.99,-288.19 1076.65,-298.7 1084.25,-291.32 1077.99,-288.19"/>
</g>
<!-- int -->
<g id="node11" class="node">
<title>int</title>
<path fill="none" stroke="#e69f00" stroke-width="4" d="M676,-263C676,-263 644,-263 644,-263 638,-263 632,-257 632,-251 632,-251 632,-239 632,-239 632,-233 638,-227 644,-227 644,-227 676,-227 676,-227 682,-227 688,-233 688,-239 688,-239 688,-251 688,-251 688,-257 682,-263 676,-263"/>
<text text-anchor="middle" x="660" y="-241.3" font-family="Times,serif" font-size="14.00">xs:int</text>
</g>
<!-- long&#45;&gt;int -->
<g id="edge25" class="edge">
<title>long&#45;&gt;int</title>
<path fill="none" stroke="black" d="M665.49,-288.67C664.38,-280.05 663.19,-270.79 662.2,-263.1"/>
<polygon fill="black" stroke="black" points="662.03,-289.22 666.78,-298.7 668.97,-288.33 662.03,-289.22"/>
</g>
<!-- short -->
<g id="node12" class="node">
<title>short</title>
<path fill="none" stroke="#e69f00" stroke-width="4" d="M681,-191C681,-191 631,-191 631,-191 625,-191 619,-185 619,-179 619,-179 619,-167 619,-167 619,-161 625,-155 631,-155 631,-155 681,-155 681,-155 687,-155 693,-161 693,-167 693,-167 693,-179 693,-179 693,-185 687,-191 681,-191"/>
<text text-anchor="middle" x="656" y="-169.3" font-family="Times,serif" font-size="14.00">xs:short</text>
</g>
<!-- int&#45;&gt;short -->
<g id="edge26" class="edge">
<title>int&#45;&gt;short</title>
<path fill="none" stroke="black" d="M658.44,-216.67C657.95,-208.05 657.42,-198.79 656.98,-191.1"/>
<polygon fill="black" stroke="black" points="654.95,-216.91 659.01,-226.7 661.93,-216.51 654.95,-216.91"/>
</g>
<!-- byte -->
<g id="node13" class="node">
<title>byte</title>
<path fill="none" stroke="#e69f00" stroke-width="4" d="M677,-113.5C677,-113.5 633,-113.5 633,-113.5 627,-113.5 621,-107.5 621,-101.5 621,-101.5 621,-89.5 621,-89.5 621,-83.5 627,-77.5 633,-77.5 633,-77.5 677,-77.5 677,-77.5 683,-77.5 689,-83.5 689,-89.5 689,-89.5 689,-101.5 689,-101.5 689,-107.5 683,-113.5 677,-113.5"/>
<text text-anchor="middle" x="655" y="-91.8" font-family="Times,serif" font-size="14.00">xs:byte</text>
</g>
<!-- short&#45;&gt;byte -->
<g id="edge27" class="edge">
<title>short&#45;&gt;byte</title>
<path fill="none" stroke="black" d="M655.64,-144.61C655.5,-134.23 655.35,-122.72 655.23,-113.56"/>
<polygon fill="black" stroke="black" points="652.14,-144.92 655.77,-154.87 659.14,-144.82 652.14,-144.92"/>
</g>
<!-- unsignedLong -->
<g id="node15" class="node">
<title>unsignedLong</title>
<path fill="none" stroke="#e69f00" stroke-width="4" d="M832.5,-263C832.5,-263 719.5,-263 719.5,-263 713.5,-263 707.5,-257 707.5,-251 707.5,-251 707.5,-239 707.5,-239 707.5,-233 713.5,-227 719.5,-227 719.5,-227 832.5,-227 832.5,-227 838.5,-227 844.5,-233 844.5,-239 844.5,-239 844.5,-251 844.5,-251 844.5,-257 838.5,-263 832.5,-263"/>
<text text-anchor="middle" x="776" y="-241.3" font-family="Times,serif" font-size="14.00">xs:unsignedLong</text>
</g>
<!-- nonNegativeInteger&#45;&gt;unsignedLong -->
<g id="edge28" class="edge">
<title>nonNegativeInteger&#45;&gt;unsignedLong</title>
<path fill="none" stroke="black" d="M810.44,-290.64C803.38,-281.49 795.58,-271.38 789.19,-263.1"/>
<polygon fill="black" stroke="black" points="807.77,-292.92 816.65,-298.7 813.31,-288.64 807.77,-292.92"/>
</g>
<!-- positiveInteger -->
<g id="node19" class="node">
<title>positiveInteger</title>
<path fill="none" stroke="#e69f00" stroke-width="4" d="M997,-263C997,-263 875,-263 875,-263 869,-263 863,-257 863,-251 863,-251 863,-239 863,-239 863,-233 869,-227 875,-227 875,-227 997,-227 997,-227 1003,-227 1009,-233 1009,-239 1009,-239 1009,-251 1009,-251 1009,-257 1003,-263 997,-263"/>
<text text-anchor="middle" x="936" y="-241.3" font-family="Times,serif" font-size="14.00">xs:positiveInteger</text>
</g>
<!-- nonNegativeInteger&#45;&gt;positiveInteger -->
<g id="edge29" class="edge">
<title>nonNegativeInteger&#45;&gt;positiveInteger</title>
<path fill="none" stroke="black" d="M864.36,-293.31C879.18,-283.53 896.22,-272.27 909.97,-263.19"/>
<polygon fill="black" stroke="black" points="862.35,-290.44 855.93,-298.88 866.2,-296.29 862.35,-290.44"/>
</g>
<!-- unsignedInt -->
<g id="node16" class="node">
<title>unsignedInt</title>
<path fill="none" stroke="#e69f00" stroke-width="4" d="M825,-191C825,-191 727,-191 727,-191 721,-191 715,-185 715,-179 715,-179 715,-167 715,-167 715,-161 721,-155 727,-155 727,-155 825,-155 825,-155 831,-155 837,-161 837,-167 837,-167 837,-179 837,-179 837,-185 831,-191 825,-191"/>
<text text-anchor="middle" x="776" y="-169.3" font-family="Times,serif" font-size="14.00">xs:unsignedInt</text>
</g>
<!-- unsignedLong&#45;&gt;unsignedInt -->
<g id="edge30" class="edge">
<title>unsignedLong&#45;&gt;unsignedInt</title>
<path fill="none" stroke="black" d="M776,-216.67C776,-208.05 776,-198.79 776,-191.1"/>
<polygon fill="black" stroke="black" points="772.5,-216.7 776,-226.7 779.5,-216.7 772.5,-216.7"/>
</g>
<!-- unsignedShort -->
<g id="node17" class="node">
<title>unsignedShort</title>
<path fill="none" stroke="#e69f00" stroke-width="4" d="M837,-113.5C837,-113.5 719,-113.5 719,-113.5 713,-113.5 707,-107.5 707,-101.5 707,-101.5 707,-89.5 707,-89.5 707,-83.5 713,-77.5 719,-77.5 719,-77.5 837,-77.5 837,-77.5 843,-77.5 849,-83.5 849,-89.5 849,-89.5 849,-101.5 849,-101.5 849,-107.5 843,-113.5 837,-113.5"/>
<text text-anchor="middle" x="778" y="-91.8" font-family="Times,serif" font-size="14.00">xs:unsignedShort</text>
</g>
<!-- unsignedInt&#45;&gt;unsignedShort -->
<g id="edge31" class="edge">
<title>unsignedInt&#45;&gt;unsignedShort</title>
<path fill="none" stroke="black" d="M776.73,-144.61C777,-134.23 777.31,-122.72 777.55,-113.56"/>
<polygon fill="black" stroke="black" points="773.22,-144.78 776.45,-154.87 780.22,-144.96 773.22,-144.78"/>
</g>
<!-- unsignedByte -->
<g id="node18" class="node">
<title>unsignedByte</title>
<path fill="none" stroke="#e69f00" stroke-width="4" d="M833.5,-36C833.5,-36 722.5,-36 722.5,-36 716.5,-36 710.5,-30 710.5,-24 710.5,-24 710.5,-12 710.5,-12 710.5,-6 716.5,0 722.5,0 722.5,0 833.5,0 833.5,0 839.5,0 845.5,-6 845.5,-12 845.5,-12 845.5,-24 845.5,-24 845.5,-30 839.5,-36 833.5,-36"/>
<text text-anchor="middle" x="778" y="-14.3" font-family="Times,serif" font-size="14.00">xs:unsignedByte</text>
</g>
<!-- unsignedShort&#45;&gt;unsignedByte -->
<g id="edge32" class="edge">
<title>unsignedShort&#45;&gt;unsignedByte</title>
<path fill="none" stroke="black" d="M778,-67.11C778,-56.73 778,-45.22 778,-36.06"/>
<polygon fill="black" stroke="black" points="774.5,-67.37 778,-77.37 781.5,-67.37 774.5,-67.37"/>
</g>
<!-- dateTime&#45;&gt;string -->
<!-- dateTime&#45;&gt;dateTimeStamp -->
<g id="edge18" class="edge">
<title>dateTime&#45;&gt;dateTimeStamp</title>
<path fill="none" stroke="black" d="M384.94,-486.96C373.83,-476.58 360.48,-464.44 348,-454 330.62,-439.46 310.15,-423.99 294.69,-412.61"/>
<polygon fill="black" stroke="black" points="382.55,-489.52 392.22,-493.83 387.35,-484.43 382.55,-489.52"/>
</g>
<!-- decimal&#45;&gt;integer -->
<g id="edge20" class="edge">
<title>decimal&#45;&gt;integer</title>
<path fill="none" stroke="black" d="M766.76,-485.68C782.3,-463.52 804.46,-431.92 818,-412.61"/>
<polygon fill="black" stroke="black" points="763.83,-483.76 760.95,-493.96 769.56,-487.78 763.83,-483.76"/>
</g>
<!-- boolean -->
<g id="node25" class="node">
<title>boolean</title>
<path fill="none" stroke="#e69f00" stroke-width="4" d="M1145,-412.5C1145,-412.5 1077,-412.5 1077,-412.5 1071,-412.5 1065,-406.5 1065,-400.5 1065,-400.5 1065,-388.5 1065,-388.5 1065,-382.5 1071,-376.5 1077,-376.5 1077,-376.5 1145,-376.5 1145,-376.5 1151,-376.5 1157,-382.5 1157,-388.5 1157,-388.5 1157,-400.5 1157,-400.5 1157,-406.5 1151,-412.5 1145,-412.5"/>
<text text-anchor="middle" x="1111" y="-390.8" font-family="Times,serif" font-size="14.00">xs:boolean</text>
</g>
<!-- token -->
<g id="node27" class="node">
<title>token</title>
<path fill="none" stroke="#e69f00" stroke-width="4" d="M471.5,-335C471.5,-335 418.5,-335 418.5,-335 412.5,-335 406.5,-329 406.5,-323 406.5,-323 406.5,-311 406.5,-311 406.5,-305 412.5,-299 418.5,-299 418.5,-299 471.5,-299 471.5,-299 477.5,-299 483.5,-305 483.5,-311 483.5,-311 483.5,-323 483.5,-323 483.5,-329 477.5,-335 471.5,-335"/>
<text text-anchor="middle" x="445" y="-313.3" font-family="Times,serif" font-size="14.00">xs:token</text>
</g>
<!-- normalizedString&#45;&gt;token -->
<g id="edge34" class="edge">
<title>normalizedString&#45;&gt;token</title>
<path fill="none" stroke="black" d="M445,-366.11C445,-355.73 445,-344.22 445,-335.06"/>
<polygon fill="black" stroke="black" points="441.5,-366.37 445,-376.37 448.5,-366.37 441.5,-366.37"/>
</g>
<!-- language -->
<g id="node28" class="node">
<title>language</title>
<path fill="none" stroke="#e69f00" stroke-width="4" d="M592,-263C592,-263 514,-263 514,-263 508,-263 502,-257 502,-251 502,-251 502,-239 502,-239 502,-233 508,-227 514,-227 514,-227 592,-227 592,-227 598,-227 604,-233 604,-239 604,-239 604,-251 604,-251 604,-257 598,-263 592,-263"/>
<text text-anchor="middle" x="553" y="-241.3" font-family="Times,serif" font-size="14.00">xs:language</text>
</g>
<!-- token&#45;&gt;language -->
<g id="edge35" class="edge">
<title>token&#45;&gt;language</title>
<path fill="none" stroke="black" d="M480,-293.31C495.1,-283.53 512.47,-272.27 526.48,-263.19"/>
<polygon fill="black" stroke="black" points="477.91,-290.5 471.42,-298.88 481.71,-296.37 477.91,-290.5"/>
</g>
<!-- NMTOKEN -->
<g id="node29" class="node">
<title>NMTOKEN</title>
<path fill="none" stroke="#e69f00" stroke-width="4" d="M375,-263C375,-263 283,-263 283,-263 277,-263 271,-257 271,-251 271,-251 271,-239 271,-239 271,-233 277,-227 283,-227 283,-227 375,-227 375,-227 381,-227 387,-233 387,-239 387,-239 387,-251 387,-251 387,-257 381,-263 375,-263"/>
<text text-anchor="middle" x="329" y="-241.3" font-family="Times,serif" font-size="14.00">xs:NMTOKEN</text>
</g>
<!-- token&#45;&gt;NMTOKEN -->
<g id="edge36" class="edge">
<title>token&#45;&gt;NMTOKEN</title>
<path fill="none" stroke="black" d="M407.86,-293.59C391.53,-283.74 372.67,-272.35 357.49,-263.19"/>
<polygon fill="black" stroke="black" points="406.25,-296.71 416.62,-298.88 409.87,-290.71 406.25,-296.71"/>
</g>
<!-- Name -->
<g id="node30" class="node">
<title>Name</title>
<path fill="none" stroke="#e69f00" stroke-width="4" d="M472.5,-263C472.5,-263 417.5,-263 417.5,-263 411.5,-263 405.5,-257 405.5,-251 405.5,-251 405.5,-239 405.5,-239 405.5,-233 411.5,-227 417.5,-227 417.5,-227 472.5,-227 472.5,-227 478.5,-227 484.5,-233 484.5,-239 484.5,-239 484.5,-251 484.5,-251 484.5,-257 478.5,-263 472.5,-263"/>
<text text-anchor="middle" x="445" y="-241.3" font-family="Times,serif" font-size="14.00">xs:Name</text>
</g>
<!-- token&#45;&gt;Name -->
<g id="edge37" class="edge">
<title>token&#45;&gt;Name</title>
<path fill="none" stroke="black" d="M445,-288.67C445,-280.05 445,-270.79 445,-263.1"/>
<polygon fill="black" stroke="black" points="441.5,-288.7 445,-298.7 448.5,-288.7 441.5,-288.7"/>
</g>
<!-- NCName -->
<g id="node31" class="node">
<title>NCName</title>
<path fill="none" stroke="#e69f00" stroke-width="4" d="M483.5,-191C483.5,-191 406.5,-191 406.5,-191 400.5,-191 394.5,-185 394.5,-179 394.5,-179 394.5,-167 394.5,-167 394.5,-161 400.5,-155 406.5,-155 406.5,-155 483.5,-155 483.5,-155 489.5,-155 495.5,-161 495.5,-167 495.5,-167 495.5,-179 495.5,-179 495.5,-185 489.5,-191 483.5,-191"/>
<text text-anchor="middle" x="445" y="-169.3" font-family="Times,serif" font-size="14.00">xs:NCName</text>
</g>
<!-- Name&#45;&gt;NCName -->
<g id="edge38" class="edge">
<title>Name&#45;&gt;NCName</title>
<path fill="none" stroke="black" d="M445,-216.67C445,-208.05 445,-198.79 445,-191.1"/>
<polygon fill="black" stroke="black" points="441.5,-216.7 445,-226.7 448.5,-216.7 441.5,-216.7"/>
</g>
<!-- idTypes -->
<g id="node32" class="node">
<title>idTypes</title>
<path fill="none" stroke="#e69f00" stroke-width="4" d="M362,-72.5C362,-72.5 422,-72.5 422,-72.5 428,-72.5 434,-78.5 434,-84.5 434,-84.5 434,-106.5 434,-106.5 434,-112.5 428,-118.5 422,-118.5 422,-118.5 362,-118.5 362,-118.5 356,-118.5 350,-112.5 350,-106.5 350,-106.5 350,-84.5 350,-84.5 350,-78.5 356,-72.5 362,-72.5"/>
<text text-anchor="middle" x="392" y="-103.3" font-family="Times,serif" font-size="14.00">xs:ID</text>
<polyline fill="none" stroke="#e69f00" stroke-width="4" points="350,-95.5 434,-95.5 "/>
<text text-anchor="middle" x="392" y="-80.3" font-family="Times,serif" font-size="14.00">xs:IDREF</text>
</g>
<!-- NCName&#45;&gt;idTypes -->
<g id="edge39" class="edge">
<title>NCName&#45;&gt;idTypes</title>
<path fill="none" stroke="black" d="M427.18,-146.61C420.83,-137.57 413.75,-127.48 407.6,-118.73"/>
<polygon fill="black" stroke="black" points="424.36,-148.69 432.97,-154.87 430.09,-144.67 424.36,-148.69"/>
</g>
<!-- ENTITY -->
<g id="node33" class="node">
<title>ENTITY</title>
<path fill="none" stroke="#e69f00" stroke-width="4" d="M532,-113.5C532,-113.5 464,-113.5 464,-113.5 458,-113.5 452,-107.5 452,-101.5 452,-101.5 452,-89.5 452,-89.5 452,-83.5 458,-77.5 464,-77.5 464,-77.5 532,-77.5 532,-77.5 538,-77.5 544,-83.5 544,-89.5 544,-89.5 544,-101.5 544,-101.5 544,-107.5 538,-113.5 532,-113.5"/>
<text text-anchor="middle" x="498" y="-91.8" font-family="Times,serif" font-size="14.00">xs:ENTITY</text>
</g>
<!-- NCName&#45;&gt;ENTITY -->
<g id="edge40" class="edge">
<title>NCName&#45;&gt;ENTITY</title>
<path fill="none" stroke="black" d="M462.86,-146.56C470.49,-135.7 479.19,-123.3 486.02,-113.56"/>
<polygon fill="black" stroke="black" points="459.91,-144.67 457.03,-154.87 465.64,-148.69 459.91,-144.67"/>
</g>
<!-- anyURI -->
<g id="node34" class="node">
<title>anyURI</title>
<path fill="none" stroke="#e69f00" stroke-width="4" d="M1253,-412.5C1253,-412.5 1187,-412.5 1187,-412.5 1181,-412.5 1175,-406.5 1175,-400.5 1175,-400.5 1175,-388.5 1175,-388.5 1175,-382.5 1181,-376.5 1187,-376.5 1187,-376.5 1253,-376.5 1253,-376.5 1259,-376.5 1265,-382.5 1265,-388.5 1265,-388.5 1265,-400.5 1265,-400.5 1265,-406.5 1259,-412.5 1253,-412.5"/>
<text text-anchor="middle" x="1220" y="-390.8" font-family="Times,serif" font-size="14.00">xs:anyURI</text>
</g>
<!-- QName -->
<g id="node35" class="node">
<title>QName</title>
<path fill="none" stroke="#e69f00" stroke-width="4" d="M622,-412.5C622,-412.5 556,-412.5 556,-412.5 550,-412.5 544,-406.5 544,-400.5 544,-400.5 544,-388.5 544,-388.5 544,-382.5 550,-376.5 556,-376.5 556,-376.5 622,-376.5 622,-376.5 628,-376.5 634,-382.5 634,-388.5 634,-388.5 634,-400.5 634,-400.5 634,-406.5 628,-412.5 622,-412.5"/>
<text text-anchor="middle" x="589" y="-390.8" font-family="Times,serif" font-size="14.00">xs:QName</text>
</g>
<!-- NOTATION -->
<g id="node36" class="node">
<title>NOTATION</title>
<path fill="none" stroke="#e69f00" stroke-width="4" d="M755.5,-412.5C755.5,-412.5 664.5,-412.5 664.5,-412.5 658.5,-412.5 652.5,-406.5 652.5,-400.5 652.5,-400.5 652.5,-388.5 652.5,-388.5 652.5,-382.5 658.5,-376.5 664.5,-376.5 664.5,-376.5 755.5,-376.5 755.5,-376.5 761.5,-376.5 767.5,-382.5 767.5,-388.5 767.5,-388.5 767.5,-400.5 767.5,-400.5 767.5,-406.5 761.5,-412.5 755.5,-412.5"/>
<text text-anchor="middle" x="710" y="-390.8" font-family="Times,serif" font-size="14.00">xs:NOTATION</text>
</g>
<!-- XXX&#45;&gt;QName -->
<g id="edge11" class="edge">
<title>XXX&#45;&gt;QName</title>
<path fill="none" stroke="black" d="M580.1,-509.7C580.83,-500.33 585.33,-442.55 587.64,-412.95"/>
</g>
<!-- XXX&#45;&gt;NOTATION -->
<g id="edge12" class="edge">
<title>XXX&#45;&gt;NOTATION</title>
<path fill="none" stroke="black" d="M579.88,-510.08C579.16,-504.3 575.98,-472.62 590,-454 599.79,-440.99 634.98,-424.64 664.74,-412.54"/>
</g>
<!-- ZZZ&#45;&gt;untypedAtomic -->
<g id="edge13" class="edge">
<title>ZZZ&#45;&gt;untypedAtomic</title>
<path fill="none" stroke="black" d="M1111.11,-510.08C1111.73,-504.27 1114.4,-472.42 1100,-454 1084.93,-434.71 1062,-421.52 1039.81,-412.63"/>
</g>
<!-- ZZZ&#45;&gt;boolean -->
<g id="edge14" class="edge">
<title>ZZZ&#45;&gt;boolean</title>
<path fill="none" stroke="black" d="M1111,-509.7C1111,-500.33 1111,-442.55 1111,-412.95"/>
</g>
<!-- ZZZ&#45;&gt;anyURI -->
<g id="edge15" class="edge">
<title>ZZZ&#45;&gt;anyURI</title>
<path fill="none" stroke="black" d="M1111.7,-510.26C1118.62,-502.92 1175.5,-442.65 1203.94,-412.52"/>
</g>
</g>
</svg>
