<?xml version="1.0" encoding="UTF-8" standalone="no"?>
<!DOCTYPE svg PUBLIC "-//W3C//DTD SVG 1.1//EN"
 "http://www.w3.org/Graphics/SVG/1.1/DTD/svg11.dtd">
<!-- Generated by graphviz version 2.43.0 (0)
 -->
<!-- Title: %3 Pages: 1 -->
<svg width="558pt" height="207pt"
 viewBox="0.00 0.00 558.00 207.00" xmlns="http://www.w3.org/2000/svg" xmlns:xlink="http://www.w3.org/1999/xlink">
<g id="graph0" class="graph" transform="scale(1 1) rotate(0) translate(4 203)">
<title>%3</title>
<polygon fill="white" stroke="transparent" points="-4,4 -4,-203 554,-203 554,4 -4,4"/>
<g id="clust1" class="cluster">
<title>cluster_legend</title>
<polygon fill="none" stroke="black" points="8,-8 8,-191 542,-191 542,-8 8,-8"/>
<text text-anchor="middle" x="275" y="-175.8" font-family="Times,serif" font-size="14.00">Legend</text>
</g>
<!-- _bat -->
<g id="node1" class="node">
<title>_bat</title>
<path fill="none" stroke="#e69f00" stroke-width="2" d="M169,-160C169,-160 28,-160 28,-160 22,-160 16,-154 16,-148 16,-148 16,-136 16,-136 16,-130 22,-124 28,-124 28,-124 169,-124 169,-124 175,-124 181,-130 181,-136 181,-136 181,-148 181,-148 181,-154 175,-160 169,-160"/>
<text text-anchor="middle" x="98.5" y="-138.3" font-family="Times,serif" font-size="14.00">Built&#45;in atomic types</text>
</g>
<!-- _nod -->
<g id="node2" class="node">
<title>_nod</title>
<path fill="none" stroke="#cc79a7" stroke-width="2" d="M314.5,-160C314.5,-160 240.5,-160 240.5,-160 234.5,-160 228.5,-154 228.5,-148 228.5,-148 228.5,-136 228.5,-136 228.5,-130 234.5,-124 240.5,-124 240.5,-124 314.5,-124 314.5,-124 320.5,-124 326.5,-130 326.5,-136 326.5,-136 326.5,-148 326.5,-148 326.5,-154 320.5,-160 314.5,-160"/>
<text text-anchor="middle" x="277.5" y="-138.3" font-family="Times,serif" font-size="14.00">Node types</text>
</g>
<!-- _bat&#45;&gt;_nod -->
<!-- _fit -->
<g id="node3" class="node">
<title>_fit</title>
<path fill="none" stroke="#d55e00" stroke-width="2" d="M522,-160C522,-160 386,-160 386,-160 380,-160 374,-154 374,-148 374,-148 374,-136 374,-136 374,-130 380,-124 386,-124 386,-124 522,-124 522,-124 528,-124 534,-130 534,-136 534,-136 534,-148 534,-148 534,-154 528,-160 522,-160"/>
<text text-anchor="middle" x="454" y="-138.3" font-family="Times,serif" font-size="14.00">Function item types</text>
</g>
<!-- _nod&#45;&gt;_fit -->
<!-- _udt -->
<g id="node4" class="node">
<title>_udt</title>
<path fill="none" stroke="#009e73" stroke-width="2" d="M162.5,-106C162.5,-106 34.5,-106 34.5,-106 28.5,-106 22.5,-100 22.5,-94 22.5,-94 22.5,-82 22.5,-82 22.5,-76 28.5,-70 34.5,-70 34.5,-70 162.5,-70 162.5,-70 168.5,-70 174.5,-76 174.5,-82 174.5,-82 174.5,-94 174.5,-94 174.5,-100 168.5,-106 162.5,-106"/>
<text text-anchor="middle" x="98.5" y="-84.3" font-family="Times,serif" font-size="14.00">User&#45;defined types</text>
</g>
<!-- _abt -->
<g id="node5" class="node">
<title>_abt</title>
<polygon fill="none" stroke="black" points="338,-106 221,-106 217,-102 217,-70 334,-70 338,-74 338,-106"/>
<polyline fill="none" stroke="black" points="334,-102 217,-102 "/>
<polyline fill="none" stroke="black" points="334,-102 334,-70 "/>
<polyline fill="none" stroke="black" points="334,-102 338,-106 "/>
<text text-anchor="middle" x="277.5" y="-84.3" font-family="Times,serif" font-size="14.00">Abstract types</text>
</g>
<!-- _udt&#45;&gt;_abt -->
<!-- _type -->
<g id="node6" class="node">
<title>_type</title>
<path fill="none" stroke="#000000" stroke-width="2" d="M131,-52C131,-52 66,-52 66,-52 60,-52 54,-46 54,-40 54,-40 54,-28 54,-28 54,-22 60,-16 66,-16 66,-16 131,-16 131,-16 137,-16 143,-22 143,-28 143,-28 143,-40 143,-40 143,-46 137,-52 131,-52"/>
<text text-anchor="middle" x="98.5" y="-30.3" font-family="Times,serif" font-size="14.00">supertype</text>
</g>
<!-- _stype -->
<g id="node7" class="node">
<title>_stype</title>
<path fill="none" stroke="#000000" stroke-width="2" d="M302.5,-52C302.5,-52 252.5,-52 252.5,-52 246.5,-52 240.5,-46 240.5,-40 240.5,-40 240.5,-28 240.5,-28 240.5,-22 246.5,-16 252.5,-16 252.5,-16 302.5,-16 302.5,-16 308.5,-16 314.5,-22 314.5,-28 314.5,-28 314.5,-40 314.5,-40 314.5,-46 308.5,-52 302.5,-52"/>
<text text-anchor="middle" x="277.5" y="-30.3" font-family="Times,serif" font-size="14.00">subtype</text>
</g>
<!-- _type&#45;&gt;_stype -->
<g id="edge4" class="edge">
<title>_type&#45;&gt;_stype</title>
<path fill="none" stroke="black" d="M153.37,-34C181.57,-34 215.36,-34 240.39,-34"/>
<polygon fill="black" stroke="black" points="153.25,-30.5 143.25,-34 153.25,-37.5 153.25,-30.5"/>
</g>
</g>
</svg>
