<?xml version="1.0" encoding="UTF-8" standalone="no"?>
<!DOCTYPE svg PUBLIC "-//W3C//DTD SVG 1.1//EN"
 "http://www.w3.org/Graphics/SVG/1.1/DTD/svg11.dtd">
<!-- Generated by graphviz version 2.43.0 (0)
 -->
<!-- Title: %3 Pages: 1 -->
<svg width="837pt" height="330pt"
 viewBox="0.00 0.00 837.00 330.00" xmlns="http://www.w3.org/2000/svg" xmlns:xlink="http://www.w3.org/1999/xlink">
<g id="graph0" class="graph" transform="scale(1 1) rotate(0) translate(4 326)">
<title>%3</title>
<polygon fill="white" stroke="transparent" points="-4,4 -4,-326 833,-326 833,4 -4,4"/>
<g id="clust1" class="cluster">
<title>cluster_XmlSchemaTypes</title>
</g>
<g id="clust3" class="cluster">
<title>cluster_simpleTypes</title>
</g>
<g id="clust5" class="cluster">
<title>cluster_atomicTypes</title>
</g>
<!-- anyType -->
<g id="node1" class="node">
<title>anyType</title>
<path fill="none" stroke="#cc79a7" stroke-width="4" d="M129.5,-131C129.5,-131 56.5,-131 56.5,-131 50.5,-131 44.5,-125 44.5,-119 44.5,-119 44.5,-107 44.5,-107 44.5,-101 50.5,-95 56.5,-95 56.5,-95 129.5,-95 129.5,-95 135.5,-95 141.5,-101 141.5,-107 141.5,-107 141.5,-119 141.5,-119 141.5,-125 135.5,-131 129.5,-131"/>
<text text-anchor="middle" x="93" y="-109.3" font-family="Times,serif" font-size="14.00">xs:anyType</text>
</g>
<!-- conc_xsd -->
<g id="node2" class="node">
<title>conc_xsd</title>
<polygon fill="none" stroke="black" stroke-width="2" points="170,-185 20,-185 16,-181 16,-149 166,-149 170,-153 170,-185"/>
<polyline fill="none" stroke="black" stroke-width="2" points="166,-181 16,-181 "/>
<polyline fill="none" stroke="black" stroke-width="2" points="166,-181 166,-149 "/>
<polyline fill="none" stroke="black" stroke-width="2" points="166,-181 170,-185 "/>
<text text-anchor="middle" x="93" y="-163.3" font-family="Times,serif" font-size="14.00">XML Schema types</text>
</g>
<!-- anyType&#45;&gt;conc_xsd -->
<g id="edge1" class="edge">
<title>anyType&#45;&gt;conc_xsd</title>
<path fill="none" stroke="black" stroke-dasharray="1,5" d="M93,-131.14C93,-137.02 93,-142.91 93,-148.79"/>
</g>
<!-- anySimpleType -->
<g id="node3" class="node">
<title>anySimpleType</title>
<path fill="none" stroke="#d55e00" stroke-width="4" d="M340,-171C340,-171 218,-171 218,-171 212,-171 206,-165 206,-159 206,-159 206,-147 206,-147 206,-141 212,-135 218,-135 218,-135 340,-135 340,-135 346,-135 352,-141 352,-147 352,-147 352,-159 352,-159 352,-165 346,-171 340,-171"/>
<text text-anchor="middle" x="279" y="-149.3" font-family="Times,serif" font-size="14.00">xs:anySimpleType</text>
</g>
<!-- anyType&#45;&gt;anySimpleType -->
<g id="edge4" class="edge">
<title>anyType&#45;&gt;anySimpleType</title>
<path fill="none" stroke="black" d="M151.71,-125.55C168.84,-129.27 187.82,-133.39 205.74,-137.29"/>
<polygon fill="black" stroke="black" points="152.38,-122.11 141.86,-123.41 150.89,-128.95 152.38,-122.11"/>
</g>
<!-- complex_types -->
<g id="node9" class="node">
<title>complex_types</title>
<polygon fill="none" stroke="black" stroke-width="2" points="338.5,-90 223.5,-90 219.5,-86 219.5,-54 334.5,-54 338.5,-58 338.5,-90"/>
<polyline fill="none" stroke="black" stroke-width="2" points="334.5,-86 219.5,-86 "/>
<polyline fill="none" stroke="black" stroke-width="2" points="334.5,-86 334.5,-54 "/>
<polyline fill="none" stroke="black" stroke-width="2" points="334.5,-86 338.5,-90 "/>
<text text-anchor="middle" x="279" y="-68.3" font-family="Times,serif" font-size="14.00">complex types</text>
</g>
<!-- anyType&#45;&gt;complex_types -->
<g id="edge5" class="edge">
<title>anyType&#45;&gt;complex_types</title>
<path fill="none" stroke="black" d="M151.82,-100.12C173.29,-95.33 197.65,-89.9 219.2,-85.1"/>
<polygon fill="black" stroke="black" points="150.86,-96.74 141.86,-102.33 152.39,-103.58 150.86,-96.74"/>
</g>
<!-- conc_simple -->
<g id="node4" class="node">
<title>conc_simple</title>
<polygon fill="none" stroke="black" stroke-width="2" points="334,-225 228,-225 224,-221 224,-189 330,-189 334,-193 334,-225"/>
<polyline fill="none" stroke="black" stroke-width="2" points="330,-221 224,-221 "/>
<polyline fill="none" stroke="black" stroke-width="2" points="330,-221 330,-189 "/>
<polyline fill="none" stroke="black" stroke-width="2" points="330,-221 334,-225 "/>
<text text-anchor="middle" x="279" y="-203.3" font-family="Times,serif" font-size="14.00">Simple types</text>
</g>
<!-- anySimpleType&#45;&gt;conc_simple -->
<g id="edge2" class="edge">
<title>anySimpleType&#45;&gt;conc_simple</title>
<path fill="none" stroke="black" stroke-dasharray="1,5" d="M279,-171.14C279,-177.02 279,-182.91 279,-188.79"/>
</g>
<!-- anyAtomicType -->
<g id="node5" class="node">
<title>anyAtomicType</title>
<g id="a_node5"><a xlink:href="#hier_anyAtomicType" xlink:title="xs:anyAtomicType">
<path fill="none" stroke="#e69f00" stroke-width="4" d="M555,-252C555,-252 433,-252 433,-252 427,-252 421,-246 421,-240 421,-240 421,-228 421,-228 421,-222 427,-216 433,-216 433,-216 555,-216 555,-216 561,-216 567,-222 567,-228 567,-228 567,-240 567,-240 567,-246 561,-252 555,-252"/>
<text text-anchor="middle" x="494" y="-230.3" font-family="Times,serif" font-size="14.00" fill="#0000ff">xs:anyAtomicType</text>
</a>
</g>
</g>
<!-- anySimpleType&#45;&gt;anyAtomicType -->
<g id="edge6" class="edge">
<title>anySimpleType&#45;&gt;anyAtomicType</title>
<path fill="none" stroke="black" d="M351.89,-175.48C354.68,-176.91 357.39,-178.41 360,-180 374.77,-188.98 372.91,-198.57 388,-207 398.11,-212.65 409.42,-217.14 420.77,-220.7"/>
<polygon fill="black" stroke="black" points="353.34,-172.29 342.8,-171.17 350.34,-178.61 353.34,-172.29"/>
</g>
<!-- list_types -->
<g id="node7" class="node">
<title>list_types</title>
<polygon fill="none" stroke="black" stroke-width="2" points="535.5,-198 456.5,-198 452.5,-194 452.5,-162 531.5,-162 535.5,-166 535.5,-198"/>
<polyline fill="none" stroke="black" stroke-width="2" points="531.5,-194 452.5,-194 "/>
<polyline fill="none" stroke="black" stroke-width="2" points="531.5,-194 531.5,-162 "/>
<polyline fill="none" stroke="black" stroke-width="2" points="531.5,-194 535.5,-198 "/>
<text text-anchor="middle" x="494" y="-176.3" font-family="Times,serif" font-size="14.00">list types</text>
</g>
<!-- anySimpleType&#45;&gt;list_types -->
<g id="edge7" class="edge">
<title>anySimpleType&#45;&gt;list_types</title>
<path fill="none" stroke="black" d="M362.04,-163.4C392.96,-167.32 426.8,-171.61 452.33,-174.85"/>
<polygon fill="black" stroke="black" points="362.47,-159.93 352.11,-162.14 361.59,-166.87 362.47,-159.93"/>
</g>
<!-- union_types -->
<g id="node8" class="node">
<title>union_types</title>
<polygon fill="none" stroke="black" stroke-width="2" points="544,-144 448,-144 444,-140 444,-108 540,-108 544,-112 544,-144"/>
<polyline fill="none" stroke="black" stroke-width="2" points="540,-140 444,-140 "/>
<polyline fill="none" stroke="black" stroke-width="2" points="540,-140 540,-108 "/>
<polyline fill="none" stroke="black" stroke-width="2" points="540,-140 544,-144 "/>
<text text-anchor="middle" x="494" y="-122.3" font-family="Times,serif" font-size="14.00">union types</text>
</g>
<!-- anySimpleType&#45;&gt;union_types -->
<g id="edge8" class="edge">
<title>anySimpleType&#45;&gt;union_types</title>
<path fill="none" stroke="black" d="M362.15,-142.59C389.7,-139.09 419.56,-135.31 443.78,-132.24"/>
<polygon fill="black" stroke="black" points="361.59,-139.13 352.11,-143.86 362.47,-146.07 361.59,-139.13"/>
</g>
<!-- conc_atomic -->
<g id="node6" class="node">
<title>conc_atomic</title>
<polygon fill="none" stroke="black" stroke-width="2" points="549,-306 443,-306 439,-302 439,-270 545,-270 549,-274 549,-306"/>
<polyline fill="none" stroke="black" stroke-width="2" points="545,-302 439,-302 "/>
<polyline fill="none" stroke="black" stroke-width="2" points="545,-302 545,-270 "/>
<polyline fill="none" stroke="black" stroke-width="2" points="545,-302 549,-306 "/>
<text text-anchor="middle" x="494" y="-284.3" font-family="Times,serif" font-size="14.00">Atomic types</text>
</g>
<!-- anyAtomicType&#45;&gt;conc_atomic -->
<g id="edge3" class="edge">
<title>anyAtomicType&#45;&gt;conc_atomic</title>
<path fill="none" stroke="black" stroke-dasharray="1,5" d="M494,-252.14C494,-258.02 494,-263.91 494,-269.79"/>
</g>
<!-- listTypes -->
<g id="node10" class="node">
<title>listTypes</title>
<path fill="none" stroke="#d55e00" stroke-width="4" d="M681.5,-216.5C681.5,-216.5 783.5,-216.5 783.5,-216.5 789.5,-216.5 795.5,-222.5 795.5,-228.5 795.5,-228.5 795.5,-273.5 795.5,-273.5 795.5,-279.5 789.5,-285.5 783.5,-285.5 783.5,-285.5 681.5,-285.5 681.5,-285.5 675.5,-285.5 669.5,-279.5 669.5,-273.5 669.5,-273.5 669.5,-228.5 669.5,-228.5 669.5,-222.5 675.5,-216.5 681.5,-216.5"/>
<text text-anchor="middle" x="732.5" y="-270.3" font-family="Times,serif" font-size="14.00">xs:IDREFS</text>
<polyline fill="none" stroke="#d55e00" stroke-width="4" points="669.5,-262.5 795.5,-262.5 "/>
<text text-anchor="middle" x="732.5" y="-247.3" font-family="Times,serif" font-size="14.00">xs:NMTOKENS</text>
<polyline fill="none" stroke="#d55e00" stroke-width="4" points="669.5,-239.5 795.5,-239.5 "/>
<text text-anchor="middle" x="732.5" y="-224.3" font-family="Times,serif" font-size="14.00">xs:ENTITIES</text>
</g>
<!-- list_types&#45;&gt;listTypes -->
<g id="edge9" class="edge">
<title>list_types&#45;&gt;listTypes</title>
<path fill="none" stroke="black" d="M545.62,-190.3C562.98,-194.16 582.44,-198.88 600,-204 622.92,-210.69 647.68,-219.19 669.45,-227.12"/>
<polygon fill="black" stroke="black" points="546.19,-186.84 535.68,-188.12 544.7,-193.68 546.19,-186.84"/>
</g>
<!-- user_defined_list_types -->
<g id="node11" class="node">
<title>user_defined_list_types</title>
<path fill="none" stroke="#009e73" stroke-width="4" d="M808.5,-198C808.5,-198 656.5,-198 656.5,-198 650.5,-198 644.5,-192 644.5,-186 644.5,-186 644.5,-174 644.5,-174 644.5,-168 650.5,-162 656.5,-162 656.5,-162 808.5,-162 808.5,-162 814.5,-162 820.5,-168 820.5,-174 820.5,-174 820.5,-186 820.5,-186 820.5,-192 814.5,-198 808.5,-198"/>
<text text-anchor="middle" x="732.5" y="-176.3" font-family="Times,serif" font-size="14.00">user&#45;defined list types</text>
</g>
<!-- list_types&#45;&gt;user_defined_list_types -->
<g id="edge10" class="edge">
<title>list_types&#45;&gt;user_defined_list_types</title>
<path fill="none" stroke="black" d="M545.85,-180C574.56,-180 611.23,-180 644.38,-180"/>
<polygon fill="black" stroke="black" points="545.66,-176.5 535.66,-180 545.66,-183.5 545.66,-176.5"/>
</g>
<!-- numeric -->
<g id="node12" class="node">
<title>numeric</title>
<path fill="none" stroke="#cc79a7" stroke-width="4" d="M768,-144C768,-144 697,-144 697,-144 691,-144 685,-138 685,-132 685,-132 685,-120 685,-120 685,-114 691,-108 697,-108 697,-108 768,-108 768,-108 774,-108 780,-114 780,-120 780,-120 780,-132 780,-132 780,-138 774,-144 768,-144"/>
<text text-anchor="middle" x="732.5" y="-122.3" font-family="Times,serif" font-size="14.00">xs:numeric</text>
</g>
<!-- union_types&#45;&gt;numeric -->
<g id="edge11" class="edge">
<title>union_types&#45;&gt;numeric</title>
<path fill="none" stroke="black" d="M554.01,-126C594.49,-126 647.47,-126 684.97,-126"/>
<polygon fill="black" stroke="black" points="554,-122.5 544,-126 554,-129.5 554,-122.5"/>
</g>
<!-- user_defined_union_types -->
<g id="node13" class="node">
<title>user_defined_union_types</title>
<path fill="none" stroke="#009e73" stroke-width="4" d="M817,-90C817,-90 648,-90 648,-90 642,-90 636,-84 636,-78 636,-78 636,-66 636,-66 636,-60 642,-54 648,-54 648,-54 817,-54 817,-54 823,-54 829,-60 829,-66 829,-66 829,-78 829,-78 829,-84 823,-90 817,-90"/>
<text text-anchor="middle" x="732.5" y="-68.3" font-family="Times,serif" font-size="14.00">user&#45;defined union types</text>
</g>
<!-- union_types&#45;&gt;user_defined_union_types -->
<g id="edge12" class="edge">
<title>union_types&#45;&gt;user_defined_union_types</title>
<path fill="none" stroke="black" d="M553.82,-112.57C583.57,-105.78 620.11,-97.43 652.3,-90.08"/>
<polygon fill="black" stroke="black" points="552.97,-109.17 544,-114.81 554.53,-116 552.97,-109.17"/>
</g>
<!-- untyped -->
<g id="node14" class="node">
<title>untyped</title>
<path fill="none" stroke="#cc79a7" stroke-width="4" d="M529.5,-90C529.5,-90 458.5,-90 458.5,-90 452.5,-90 446.5,-84 446.5,-78 446.5,-78 446.5,-66 446.5,-66 446.5,-60 452.5,-54 458.5,-54 458.5,-54 529.5,-54 529.5,-54 535.5,-54 541.5,-60 541.5,-66 541.5,-66 541.5,-78 541.5,-78 541.5,-84 535.5,-90 529.5,-90"/>
<text text-anchor="middle" x="494" y="-68.3" font-family="Times,serif" font-size="14.00">xs:untyped</text>
</g>
<!-- complex_types&#45;&gt;untyped -->
<g id="edge13" class="edge">
<title>complex_types&#45;&gt;untyped</title>
<path fill="none" stroke="black" d="M348.9,-72C380.73,-72 417.7,-72 446.22,-72"/>
<polygon fill="black" stroke="black" points="348.77,-68.5 338.77,-72 348.77,-75.5 348.77,-68.5"/>
</g>
<!-- user_defined_complex_types -->
<g id="node15" class="node">
<title>user_defined_complex_types</title>
<path fill="none" stroke="#009e73" stroke-width="4" d="M588,-36C588,-36 400,-36 400,-36 394,-36 388,-30 388,-24 388,-24 388,-12 388,-12 388,-6 394,0 400,0 400,0 588,0 588,0 594,0 600,-6 600,-12 600,-12 600,-24 600,-24 600,-30 594,-36 588,-36"/>
<text text-anchor="middle" x="494" y="-14.3" font-family="Times,serif" font-size="14.00">user&#45;defined complex types</text>
</g>
<!-- complex_types&#45;&gt;user_defined_complex_types -->
<g id="edge14" class="edge">
<title>complex_types&#45;&gt;user_defined_complex_types</title>
<path fill="none" stroke="black" d="M348.62,-54.6C372.06,-48.66 398.3,-42.01 421.92,-36.02"/>
<polygon fill="black" stroke="black" points="347.6,-51.25 338.77,-57.1 349.32,-58.04 347.6,-51.25"/>
</g>
</g>
</svg>
