<?xml version="1.0" encoding="UTF-8" standalone="no"?>
<!DOCTYPE svg PUBLIC "-//W3C//DTD SVG 1.1//EN"
 "http://www.w3.org/Graphics/SVG/1.1/DTD/svg11.dtd">
<!-- Generated by graphviz version 2.43.0 (0)
 -->
<!-- Title: %3 Pages: 1 -->
<svg width="716pt" height="372pt"
 viewBox="0.00 0.00 716.00 372.00" xmlns="http://www.w3.org/2000/svg" xmlns:xlink="http://www.w3.org/1999/xlink">
<g id="graph0" class="graph" transform="scale(1 1) rotate(0) translate(4 368)">
<title>%3</title>
<polygon fill="white" stroke="transparent" points="-4,4 -4,-368 712,-368 712,4 -4,4"/>
<!-- anyAtomicType -->
<g id="node1" class="node">
<title>anyAtomicType</title>
<g id="a_node1"><a xlink:href="#hier_anyAtomicType" xlink:title="xs:anyAtomicType">
<path fill="none" stroke="#e69f00" stroke-width="4" d="M224,-310C224,-310 102,-310 102,-310 96,-310 90,-304 90,-298 90,-298 90,-286 90,-286 90,-280 96,-274 102,-274 102,-274 224,-274 224,-274 230,-274 236,-280 236,-286 236,-286 236,-298 236,-298 236,-304 230,-310 224,-310"/>
<text text-anchor="middle" x="163" y="-288.3" font-family="Times,serif" font-size="14.00" fill="#0000ff">xs:anyAtomicType</text>
</a>
</g>
</g>
<!-- xitem -->
<g id="node2" class="node">
<title>xitem</title>
<polygon fill="none" stroke="black" stroke-width="2" points="54,-256 4,-256 0,-252 0,-220 50,-220 54,-224 54,-256"/>
<polyline fill="none" stroke="black" stroke-width="2" points="50,-252 0,-252 "/>
<polyline fill="none" stroke="black" stroke-width="2" points="50,-252 50,-220 "/>
<polyline fill="none" stroke="black" stroke-width="2" points="50,-252 54,-256 "/>
<text text-anchor="middle" x="27" y="-234.3" font-family="Times,serif" font-size="14.00">item</text>
</g>
<!-- xitem&#45;&gt;anyAtomicType -->
<g id="edge1" class="edge">
<title>xitem&#45;&gt;anyAtomicType</title>
<path fill="none" stroke="black" d="M63.54,-253.85C72.16,-257.6 81.38,-261.51 90,-265 97.3,-267.96 105.06,-270.98 112.68,-273.89"/>
<polygon fill="black" stroke="black" points="64.68,-250.53 54.12,-249.73 61.88,-256.95 64.68,-250.53"/>
</g>
<!-- xnode -->
<g id="node3" class="node">
<title>xnode</title>
<polygon fill="none" stroke="#cc79a7" stroke-width="2" points="190,-256 140,-256 136,-252 136,-220 186,-220 190,-224 190,-256"/>
<polyline fill="none" stroke="#cc79a7" stroke-width="2" points="186,-252 136,-252 "/>
<polyline fill="none" stroke="#cc79a7" stroke-width="2" points="186,-252 186,-220 "/>
<polyline fill="none" stroke="#cc79a7" stroke-width="2" points="186,-252 190,-256 "/>
<text text-anchor="middle" x="163" y="-234.3" font-family="Times,serif" font-size="14.00">node</text>
</g>
<!-- xitem&#45;&gt;xnode -->
<g id="edge2" class="edge">
<title>xitem&#45;&gt;xnode</title>
<path fill="none" stroke="black" d="M64.4,-238C87.01,-238 115.55,-238 135.91,-238"/>
<polygon fill="black" stroke="black" points="64.15,-234.5 54.15,-238 64.15,-241.5 64.15,-234.5"/>
</g>
<!-- function -->
<g id="node10" class="node">
<title>function</title>
<polygon fill="none" stroke="#d55e00" stroke-width="2" points="209,-90 121,-90 117,-86 117,-54 205,-54 209,-58 209,-90"/>
<polyline fill="none" stroke="#d55e00" stroke-width="2" points="205,-86 117,-86 "/>
<polyline fill="none" stroke="#d55e00" stroke-width="2" points="205,-86 205,-54 "/>
<polyline fill="none" stroke="#d55e00" stroke-width="2" points="205,-86 209,-90 "/>
<text text-anchor="middle" x="163" y="-68.3" font-family="Times,serif" font-size="14.00">function(*)</text>
</g>
<!-- xitem&#45;&gt;function -->
<g id="edge3" class="edge">
<title>xitem&#45;&gt;function</title>
<path fill="none" stroke="black" d="M49.11,-211.84C76.53,-177.88 123.67,-119.48 147.42,-90.06"/>
<polygon fill="black" stroke="black" points="46.15,-209.94 42.6,-219.92 51.6,-214.34 46.15,-209.94"/>
</g>
<!-- attribute -->
<g id="node4" class="node">
<title>attribute</title>
<path fill="none" stroke="#cc79a7" stroke-width="4" d="M388,-364C388,-364 332,-364 332,-364 326,-364 320,-358 320,-352 320,-352 320,-340 320,-340 320,-334 326,-328 332,-328 332,-328 388,-328 388,-328 394,-328 400,-334 400,-340 400,-340 400,-352 400,-352 400,-358 394,-364 388,-364"/>
<text text-anchor="middle" x="360" y="-342.3" font-family="Times,serif" font-size="14.00">attribute</text>
</g>
<!-- xnode&#45;&gt;attribute -->
<g id="edge4" class="edge">
<title>xnode&#45;&gt;attribute</title>
<path fill="none" stroke="black" d="M199.9,-246.59C212.21,-250.74 225.52,-256.68 236,-265 258.59,-282.93 248.9,-301.73 272,-319 285.93,-329.41 303.96,-335.86 319.98,-339.83"/>
<polygon fill="black" stroke="black" points="200.89,-243.23 190.3,-243.63 198.83,-249.92 200.89,-243.23"/>
</g>
<!-- document -->
<g id="node6" class="node">
<title>document</title>
<path fill="none" stroke="#cc79a7" stroke-width="4" d="M391.5,-310C391.5,-310 328.5,-310 328.5,-310 322.5,-310 316.5,-304 316.5,-298 316.5,-298 316.5,-286 316.5,-286 316.5,-280 322.5,-274 328.5,-274 328.5,-274 391.5,-274 391.5,-274 397.5,-274 403.5,-280 403.5,-286 403.5,-286 403.5,-298 403.5,-298 403.5,-304 397.5,-310 391.5,-310"/>
<text text-anchor="middle" x="360" y="-288.3" font-family="Times,serif" font-size="14.00">document</text>
</g>
<!-- xnode&#45;&gt;document -->
<g id="edge5" class="edge">
<title>xnode&#45;&gt;document</title>
<path fill="none" stroke="black" d="M199.96,-247.96C232.85,-257.07 281.53,-270.55 316.36,-280.19"/>
<polygon fill="black" stroke="black" points="200.87,-244.58 190.3,-245.28 199,-251.32 200.87,-244.58"/>
</g>
<!-- element -->
<g id="node8" class="node">
<title>element</title>
<path fill="none" stroke="#cc79a7" stroke-width="4" d="M385,-256C385,-256 335,-256 335,-256 329,-256 323,-250 323,-244 323,-244 323,-232 323,-232 323,-226 329,-220 335,-220 335,-220 385,-220 385,-220 391,-220 397,-226 397,-232 397,-232 397,-244 397,-244 397,-250 391,-256 385,-256"/>
<text text-anchor="middle" x="360" y="-234.3" font-family="Times,serif" font-size="14.00">element</text>
</g>
<!-- xnode&#45;&gt;element -->
<g id="edge6" class="edge">
<title>xnode&#45;&gt;element</title>
<path fill="none" stroke="black" d="M200.56,-238C235.54,-238 288.01,-238 322.86,-238"/>
<polygon fill="black" stroke="black" points="200.3,-234.5 190.3,-238 200.3,-241.5 200.3,-234.5"/>
</g>
<!-- leafNodes -->
<g id="node13" class="node">
<title>leafNodes</title>
<path fill="none" stroke="#cc79a7" stroke-width="4" d="M284,-109C284,-109 436,-109 436,-109 442,-109 448,-115 448,-121 448,-121 448,-189 448,-189 448,-195 442,-201 436,-201 436,-201 284,-201 284,-201 278,-201 272,-195 272,-189 272,-189 272,-121 272,-121 272,-115 278,-109 284,-109"/>
<text text-anchor="middle" x="360" y="-185.8" font-family="Times,serif" font-size="14.00">text</text>
<polyline fill="none" stroke="#cc79a7" stroke-width="4" points="272,-178 448,-178 "/>
<text text-anchor="middle" x="360" y="-162.8" font-family="Times,serif" font-size="14.00">comment</text>
<polyline fill="none" stroke="#cc79a7" stroke-width="4" points="272,-155 448,-155 "/>
<text text-anchor="middle" x="360" y="-139.8" font-family="Times,serif" font-size="14.00">processing&#45;instruction</text>
<polyline fill="none" stroke="#cc79a7" stroke-width="4" points="272,-132 448,-132 "/>
<text text-anchor="middle" x="360" y="-116.8" font-family="Times,serif" font-size="14.00">namespace</text>
</g>
<!-- xnode&#45;&gt;leafNodes -->
<g id="edge7" class="edge">
<title>xnode&#45;&gt;leafNodes</title>
<path fill="none" stroke="black" d="M199.75,-222.78C220.06,-214.14 246.45,-202.9 271.89,-192.08"/>
<polygon fill="black" stroke="black" points="198.13,-219.67 190.3,-226.81 200.87,-226.11 198.13,-219.67"/>
</g>
<!-- user_defined_attribute_types -->
<g id="node5" class="node">
<title>user_defined_attribute_types</title>
<path fill="none" stroke="#009e73" stroke-width="4" d="M692.5,-364C692.5,-364 499.5,-364 499.5,-364 493.5,-364 487.5,-358 487.5,-352 487.5,-352 487.5,-340 487.5,-340 487.5,-334 493.5,-328 499.5,-328 499.5,-328 692.5,-328 692.5,-328 698.5,-328 704.5,-334 704.5,-340 704.5,-340 704.5,-352 704.5,-352 704.5,-358 698.5,-364 692.5,-364"/>
<text text-anchor="middle" x="596" y="-342.3" font-family="Times,serif" font-size="14.00">user&#45;defined attribute types</text>
</g>
<!-- attribute&#45;&gt;user_defined_attribute_types -->
<g id="edge8" class="edge">
<title>attribute&#45;&gt;user_defined_attribute_types</title>
<path fill="none" stroke="black" d="M410.44,-346C432.91,-346 460.43,-346 487.3,-346"/>
<polygon fill="black" stroke="black" points="410.17,-342.5 400.17,-346 410.17,-349.5 410.17,-342.5"/>
</g>
<!-- user_defined_document_types -->
<g id="node7" class="node">
<title>user_defined_document_types</title>
<path fill="none" stroke="#009e73" stroke-width="4" d="M696,-310C696,-310 496,-310 496,-310 490,-310 484,-304 484,-298 484,-298 484,-286 484,-286 484,-280 490,-274 496,-274 496,-274 696,-274 696,-274 702,-274 708,-280 708,-286 708,-286 708,-298 708,-298 708,-304 702,-310 696,-310"/>
<text text-anchor="middle" x="596" y="-288.3" font-family="Times,serif" font-size="14.00">user&#45;defined document types</text>
</g>
<!-- document&#45;&gt;user_defined_document_types -->
<g id="edge9" class="edge">
<title>document&#45;&gt;user_defined_document_types</title>
<path fill="none" stroke="black" d="M413.86,-292C434.7,-292 459.48,-292 483.92,-292"/>
<polygon fill="black" stroke="black" points="413.65,-288.5 403.65,-292 413.65,-295.5 413.65,-288.5"/>
</g>
<!-- user_defined_element_types -->
<g id="node9" class="node">
<title>user_defined_element_types</title>
<path fill="none" stroke="#009e73" stroke-width="4" d="M689.5,-256C689.5,-256 502.5,-256 502.5,-256 496.5,-256 490.5,-250 490.5,-244 490.5,-244 490.5,-232 490.5,-232 490.5,-226 496.5,-220 502.5,-220 502.5,-220 689.5,-220 689.5,-220 695.5,-220 701.5,-226 701.5,-232 701.5,-232 701.5,-244 701.5,-244 701.5,-250 695.5,-256 689.5,-256"/>
<text text-anchor="middle" x="596" y="-234.3" font-family="Times,serif" font-size="14.00">user&#45;defined element types</text>
</g>
<!-- element&#45;&gt;user_defined_element_types -->
<g id="edge10" class="edge">
<title>element&#45;&gt;user_defined_element_types</title>
<path fill="none" stroke="black" d="M407.2,-238C431.06,-238 461.21,-238 490.32,-238"/>
<polygon fill="black" stroke="black" points="407.05,-234.5 397.05,-238 407.05,-241.5 407.05,-234.5"/>
</g>
<!-- array -->
<g id="node11" class="node">
<title>array</title>
<polygon fill="none" stroke="#d55e00" stroke-width="2" points="396,-90 328,-90 324,-86 324,-54 392,-54 396,-58 396,-90"/>
<polyline fill="none" stroke="#d55e00" stroke-width="2" points="392,-86 324,-86 "/>
<polyline fill="none" stroke="#d55e00" stroke-width="2" points="392,-86 392,-54 "/>
<polyline fill="none" stroke="#d55e00" stroke-width="2" points="392,-86 396,-90 "/>
<text text-anchor="middle" x="360" y="-68.3" font-family="Times,serif" font-size="14.00">array(*)</text>
</g>
<!-- function&#45;&gt;array -->
<g id="edge11" class="edge">
<title>function&#45;&gt;array</title>
<path fill="none" stroke="black" d="M219.35,-72C252.88,-72 294.66,-72 323.74,-72"/>
<polygon fill="black" stroke="black" points="219.23,-68.5 209.23,-72 219.23,-75.5 219.23,-68.5"/>
</g>
<!-- map -->
<g id="node12" class="node">
<title>map</title>
<polygon fill="none" stroke="#d55e00" stroke-width="2" points="392.5,-36 331.5,-36 327.5,-32 327.5,0 388.5,0 392.5,-4 392.5,-36"/>
<polyline fill="none" stroke="#d55e00" stroke-width="2" points="388.5,-32 327.5,-32 "/>
<polyline fill="none" stroke="#d55e00" stroke-width="2" points="388.5,-32 388.5,0 "/>
<polyline fill="none" stroke="#d55e00" stroke-width="2" points="388.5,-32 392.5,-36 "/>
<text text-anchor="middle" x="360" y="-14.3" font-family="Times,serif" font-size="14.00">map(*)</text>
</g>
<!-- function&#45;&gt;map -->
<g id="edge12" class="edge">
<title>function&#45;&gt;map</title>
<path fill="none" stroke="black" d="M219.3,-56.69C254.28,-47 298.23,-34.83 327.4,-26.75"/>
<polygon fill="black" stroke="black" points="217.93,-53.43 209.23,-59.48 219.8,-60.18 217.93,-53.43"/>
</g>
</g>
</svg>
