<?xml version="1.0" encoding="UTF-8"?>
<svg id="Layer_2" data-name="Layer 2" xmlns="http://www.w3.org/2000/svg" viewBox="0 0 528.05 499.17">
  <!-- Designed by Bethan Tovey-Walsh, https://linguacelta.com/; released under a CC0 license. -->
  <g id="Layer_1-2" data-name="Layer 1">
    <g>
      <path d="M507.58,487.05c9.86-10.55,10.51-26.4,2.31-37.65-1.74-2.39-5.21-2.64-7.23-.48l-33.45,35.82c-2.02,2.16-1.53,5.6.97,7.18,11.78,7.42,27.54,5.68,37.4-4.87Z" style="fill: #5c84b2;"/>
      <path d="M445.85,279.47l-54.39-50.79c2.02-12.47,2.87-25.31,2.42-38.41C390.17,81.54,299.01-3.6,190.27.12S-3.6,95,.12,203.73s94.88,193.87,203.61,190.16c18.87-.65,37.03-3.93,54.14-9.48l48.06,44.88c17.42,16.27,44.98,15.33,61.25-2.09l80.77-86.48c16.27-17.42,15.33-44.98-2.09-61.25Z" style="fill: #ffe649;"/>
      <path d="M313.98,196.04l-109.94,117.73c-6,6.42-5.65,16.53.77,22.52l6.31,5.89c6.42,6,16.53,5.65,22.52-.77l41.15-44.06,102.48,95.7c6.42,6,16.53,5.65,22.52-.77l5.89-6.31c6-6.42,5.65-16.53-.77-22.52l-102.48-95.7,41.15-44.06c6-6.42,5.65-16.52-.77-22.52l-6.31-5.89c-6.42-6-16.53-5.65-22.52.77Z" style="fill: #ffad4a;"/>
      <rect x="403.7" y="334.63" width="30.28" height="139.08" rx="12" ry="12" transform="translate(388.59 -177.09) rotate(43.04)" style="fill: #bacce1;"/>
      <path d="M525.66,411.12l-3.77-5.02c-3.96-5.28-11.52-6.36-16.8-2.4l-35.39,26.55,24.08-37.12c3.59-5.54,2-13.01-3.54-16.6l-5.27-3.42c-5.54-3.59-13.01-2-16.6,3.54l-62.62,96.55c-3.59,5.54-1.72,11.94,3.54,16.6l5.12,4.78c4.61,4.55,11.52,6.36,16.8,2.4l92.05-69.07c5.28-3.96,6.36-11.52,2.4-16.8Z" style="fill: #bacce1;"/>
      <path d="M339.19,108.58c2.24-2.42-16.65-28.88-45.4-49.28-43.38-30.78-92.88-36.2-94.02-32.77-.83,2.49,24.03,8.74,64.88,32.2,47.65,27.37,72.19,52.38,74.54,49.84Z" style="fill: #fffae1;"/>
    </g>
  </g>
</svg>
