<?xml version="1.0" encoding="UTF-8"?>
<svg id="Layer_2" data-name="Layer 2" xmlns="http://www.w3.org/2000/svg" viewBox="0 0 568.05 539.13">
  <!-- Designed by Bethan Tovey-Walsh, https://linguacelta.com/; released under a CC0 license. -->
  <g id="Layer_1-2" data-name="Layer 1">
    <g>
      <path d="M561.66,419.12l-3.77-5.02c-5.12-6.83-12.61-11.25-21.08-12.46-.51-.07-1.02-.13-1.53-.18-1.41-8.6-6.29-16.59-14.15-21.69l-5.27-3.42c-1.7-1.11-3.48-2.02-5.29-2.76-1.66-4.7-4.42-9.08-8.31-12.71l-4.59-4.28c-.81-.76-1.65-1.46-2.52-2.12,9.28-23.5,3.92-51.35-15.64-69.61l-46.83-43.74c1.16-10.45,1.56-21.02,1.2-31.53-1.98-57.93-26.4-111.62-68.76-151.18C322.75,18.85,267.52-1.85,209.59.13c-57.93,1.98-111.62,26.4-151.18,68.76C18.85,111.25-1.85,166.49.13,224.42s26.4,111.62,68.76,151.18c40.51,37.83,92.77,58.41,147.92,58.41,2.52,0,5.06-.04,7.6-.13,16.32-.56,32.47-2.93,48.14-7.07l39.73,37.1c11.79,11.01,27.04,17,43.16,17,.74,0,1.49-.01,2.23-.04,3.92-.13,7.76-.63,11.51-1.45,1.62,2.96,3.71,5.68,6.25,8.06l4.59,4.28c5.96,5.57,13.67,8.6,21.81,8.6.37,0,.75,0,1.12-.02.34-.01.67-.04,1-.06.31,8.81,4.36,17.56,11.84,24.3l1.16,1.08-5.28,8.15,7.77-5.83,1.15,1.07c6.85,6.65,15.54,10.07,24.09,10.07,6.56,0,13.04-2.02,18.53-6.14l11.21-8.41c1.49,1.63,3.2,3.07,5.11,4.27,8.12,5.11,17.27,7.6,26.36,7.6,13.39,0,26.65-5.4,36.32-15.75,13.75-14.72,17-36.02,9.16-53.86l3.91-2.93c14.11-10.59,16.98-30.69,6.39-44.8ZM356.31,440.89c-6.28.21-12.2-1.99-16.72-6.21l-56.67-52.93-11.21,3.63c-15.67,5.08-32.04,7.95-48.65,8.51-47.26,1.6-92.3-15.27-126.86-47.54-34.55-32.27-54.47-76.06-56.09-123.31s15.27-92.3,47.54-126.86c32.27-34.55,76.06-54.47,123.31-56.09,97.56-3.35,179.61,73.31,182.94,170.85.39,11.54-.34,23.16-2.18,34.53l-1.7,10.53,62.18,58.07c9.4,8.78,9.91,23.58,1.13,32.98l-80.77,86.48c-4.22,4.52-9.99,7.13-16.26,7.34Z" style="fill: #fcf7e3;"/>
      <g>
        <path d="M527.58,507.05c9.86-10.55,10.51-26.4,2.31-37.65-1.74-2.39-5.21-2.64-7.23-.48l-33.45,35.82c-2.02,2.16-1.53,5.6.97,7.18,11.78,7.42,27.54,5.68,37.4-4.87Z" style="fill: #5c84b2;"/>
        <path d="M465.85,299.47l-54.39-50.79c2.02-12.47,2.87-25.31,2.42-38.41-3.72-108.74-94.88-193.87-203.61-190.16S16.4,115,20.12,223.73s94.88,193.87,203.61,190.16c18.87-.65,37.03-3.93,54.14-9.48l48.06,44.88c17.42,16.27,44.98,15.33,61.25-2.09l80.77-86.48c16.27-17.42,15.33-44.98-2.09-61.25Z" style="fill: #ffe649;"/>
        <path d="M333.98,216.04l-109.94,117.73c-6,6.42-5.65,16.53.77,22.52l6.31,5.89c6.42,6,16.53,5.65,22.52-.77l41.15-44.06,102.48,95.7c6.42,6,16.53,5.65,22.52-.77l5.89-6.31c6-6.42,5.65-16.53-.77-22.52l-102.48-95.7,41.15-44.06c6-6.42,5.65-16.52-.77-22.52l-6.31-5.89c-6.42-6-16.53-5.65-22.52.77Z" style="fill: #ffad4a;"/>
        <rect x="423.7" y="354.63" width="30.28" height="139.08" rx="12" ry="12" transform="translate(407.63 -185.36) rotate(43.04)" style="fill: #bacce1;"/>
        <path d="M545.66,431.12l-3.77-5.02c-3.96-5.28-11.52-6.36-16.8-2.4l-35.39,26.55,24.08-37.12c3.59-5.54,2-13.01-3.54-16.6l-5.27-3.42c-5.54-3.59-13.01-2-16.6,3.54l-62.62,96.55c-3.59,5.54-1.72,11.94,3.54,16.6l5.12,4.78c4.61,4.55,11.52,6.36,16.8,2.4l92.05-69.07c5.28-3.96,6.36-11.52,2.4-16.8Z" style="fill: #bacce1;"/>
        <path d="M359.19,128.58c2.24-2.42-16.65-28.88-45.4-49.28-43.38-30.78-92.88-36.2-94.02-32.77-.83,2.49,24.03,8.74,64.88,32.2,47.65,27.37,72.19,52.38,74.54,49.84Z" style="fill: #fffae1;"/>
      </g>
    </g>
  </g>
</svg>
