<?xml version="1.0" encoding="UTF-8" standalone="no"?>
<!DOCTYPE svg PUBLIC "-//W3C//DTD SVG 1.1//EN"
 "http://www.w3.org/Graphics/SVG/1.1/DTD/svg11.dtd">
<!-- Generated by graphviz version 12.2.1 (20241206.2353)
 -->
<!-- Title: Processing_Model Pages: 1 -->
<svg width="452pt" height="622pt"
 viewBox="0.00 0.00 452.12 621.50" xmlns="http://www.w3.org/2000/svg" xmlns:xlink="http://www.w3.org/1999/xlink">
<g id="graph0" class="graph" transform="scale(1 1) rotate(0) translate(4 617.5)">
<title>Processing_Model</title>
<polygon fill="white" stroke="none" points="-4,4 -4,-617.5 448.12,-617.5 448.12,4 -4,4"/>
<g id="clust1" class="cluster">
<title>clusterQT4</title>
<polygon fill="none" stroke="black" points="124,-80.5 124,-528 352,-528 352,-80.5 124,-80.5"/>
</g>
<!-- Exec -->
<g id="node1" class="node">
<title>Exec</title>
<path fill="none" stroke="black" d="M196.38,-223C196.38,-223 149.62,-223 149.62,-223 143.62,-223 137.62,-217 137.62,-211 137.62,-211 137.62,-194 137.62,-194 137.62,-188 143.62,-182 149.62,-182 149.62,-182 196.38,-182 196.38,-182 202.38,-182 208.38,-188 208.38,-194 208.38,-194 208.38,-211 208.38,-211 208.38,-217 202.38,-223 196.38,-223"/>
<text text-anchor="middle" x="173" y="-205.7" font-family="Times,serif" font-size="14.00">Execution</text>
<text text-anchor="middle" x="173" y="-189.2" font-family="Times,serif" font-size="14.00">Engine</text>
</g>
<!-- XDM -->
<g id="node2" class="node">
<title>XDM</title>
<polygon fill="none" stroke="black" points="212.5,-129.5 133.5,-129.5 133.5,-88.5 212.5,-88.5 212.5,-129.5"/>
<text text-anchor="middle" x="173" y="-112.2" font-family="Times,serif" font-size="14.00">XPath Data</text>
<text text-anchor="middle" x="173" y="-95.7" font-family="Times,serif" font-size="14.00">Model</text>
</g>
<!-- Exec&#45;&gt;XDM -->
<g id="edge8" class="edge">
<title>Exec&#45;&gt;XDM</title>
<path fill="none" stroke="black" d="M173,-170.46C173,-161.01 173,-150.62 173,-141.16"/>
<polygon fill="black" stroke="black" points="169.5,-170.13 173,-180.13 176.5,-170.13 169.5,-170.13"/>
<polygon fill="black" stroke="black" points="176.5,-141.33 173,-131.33 169.5,-141.33 176.5,-141.33"/>
<text text-anchor="middle" x="188" y="-150.7" font-family="Times,serif" font-size="14.00"> DQ4</text>
</g>
<!-- Serialize -->
<g id="node12" class="node">
<title>Serialize</title>
<polygon fill="none" stroke="black" points="198.62,-36 141.38,-36 141.38,0 204.62,0 204.62,-30 198.62,-36"/>
<polyline fill="none" stroke="black" points="198.62,-36 198.62,-30"/>
<polyline fill="none" stroke="black" points="204.62,-30 198.62,-30"/>
<text text-anchor="middle" x="173" y="-12.95" font-family="Times,serif" font-size="14.00">Serialize</text>
</g>
<!-- XDM&#45;&gt;Serialize -->
<g id="edge16" class="edge">
<title>XDM&#45;&gt;Serialize</title>
<path fill="none" stroke="black" d="M173,-88.25C173,-76.33 173,-60.94 173,-47.69"/>
<polygon fill="black" stroke="black" points="176.5,-47.81 173,-37.81 169.5,-47.81 176.5,-47.81"/>
<text text-anchor="middle" x="189.5" y="-57.2" font-family="Times,serif" font-size="14.00"> DM4</text>
</g>
<!-- AST -->
<g id="node3" class="node">
<title>AST</title>
<path fill="none" stroke="black" d="M201.62,-316.5C201.62,-316.5 144.38,-316.5 144.38,-316.5 138.38,-316.5 132.38,-310.5 132.38,-304.5 132.38,-304.5 132.38,-287.5 132.38,-287.5 132.38,-281.5 138.38,-275.5 144.38,-275.5 144.38,-275.5 201.62,-275.5 201.62,-275.5 207.62,-275.5 213.62,-281.5 213.62,-287.5 213.62,-287.5 213.62,-304.5 213.62,-304.5 213.62,-310.5 207.62,-316.5 201.62,-316.5"/>
<text text-anchor="middle" x="173" y="-299.2" font-family="Times,serif" font-size="14.00">Abstract</text>
<text text-anchor="middle" x="173" y="-282.7" font-family="Times,serif" font-size="14.00">Syntax Tree</text>
</g>
<!-- AST&#45;&gt;Exec -->
<g id="edge3" class="edge">
<title>AST&#45;&gt;Exec</title>
<path fill="none" stroke="black" d="M173,-275.15C173,-263.28 173,-247.94 173,-234.5"/>
<polygon fill="black" stroke="black" points="176.5,-234.83 173,-224.83 169.5,-234.83 176.5,-234.83"/>
<text text-anchor="middle" x="188" y="-244.2" font-family="Times,serif" font-size="14.00"> DQ1</text>
</g>
<!-- AST&#45;&gt;AST -->
<g id="edge2" class="edge">
<title>AST&#45;&gt;AST</title>
<path fill="none" stroke="black" d="M214.09,-304.63C224.14,-303.99 231.62,-301.11 231.62,-296 231.62,-293.12 229.26,-290.96 225.4,-289.49"/>
<polygon fill="black" stroke="black" points="226.05,-286.06 215.58,-287.65 224.76,-292.94 226.05,-286.06"/>
<text text-anchor="middle" x="245.5" y="-290.95" font-family="Times,serif" font-size="14.00"> SQ5</text>
</g>
<!-- Static -->
<g id="node4" class="node">
<title>Static</title>
<polygon fill="none" stroke="black" points="279.38,-410 224.62,-410 220.62,-406 220.62,-369 275.38,-369 279.38,-373 279.38,-410"/>
<polyline fill="none" stroke="black" points="275.38,-406 220.62,-406"/>
<polyline fill="none" stroke="black" points="275.38,-406 275.38,-369"/>
<polyline fill="none" stroke="black" points="275.38,-406 279.38,-410"/>
<text text-anchor="middle" x="250" y="-392.7" font-family="Times,serif" font-size="14.00">Static</text>
<text text-anchor="middle" x="250" y="-376.2" font-family="Times,serif" font-size="14.00">Context</text>
</g>
<!-- Static&#45;&gt;AST -->
<g id="edge5" class="edge">
<title>Static&#45;&gt;AST</title>
<path fill="none" stroke="black" d="M233.29,-368.65C222.7,-356.06 208.82,-339.57 197.05,-325.58"/>
<polygon fill="black" stroke="black" points="199.77,-323.37 190.65,-317.97 194.41,-327.88 199.77,-323.37"/>
<text text-anchor="middle" x="232.27" y="-337.7" font-family="Times,serif" font-size="14.00"> SQ4</text>
</g>
<!-- Dynamic -->
<g id="node5" class="node">
<title>Dynamic</title>
<polygon fill="none" stroke="black" points="344.12,-316.5 281.88,-316.5 277.88,-312.5 277.88,-275.5 340.12,-275.5 344.12,-279.5 344.12,-316.5"/>
<polyline fill="none" stroke="black" points="340.12,-312.5 277.88,-312.5"/>
<polyline fill="none" stroke="black" points="340.12,-312.5 340.12,-275.5"/>
<polyline fill="none" stroke="black" points="340.12,-312.5 344.12,-316.5"/>
<text text-anchor="middle" x="311" y="-299.2" font-family="Times,serif" font-size="14.00">Dynamic</text>
<text text-anchor="middle" x="311" y="-282.7" font-family="Times,serif" font-size="14.00">Context</text>
</g>
<!-- Static&#45;&gt;Dynamic -->
<g id="edge6" class="edge">
<title>Static&#45;&gt;Dynamic</title>
<path fill="none" stroke="black" d="M255.34,-368.74C258.79,-358.04 263.96,-344.92 271,-334.5 273.2,-331.25 275.73,-328.07 278.42,-325.02"/>
<polygon fill="black" stroke="black" points="280.83,-327.56 285.27,-317.94 275.8,-322.7 280.83,-327.56"/>
<text text-anchor="middle" x="286" y="-337.7" font-family="Times,serif" font-size="14.00"> DQ2</text>
</g>
<!-- Dynamic&#45;&gt;Exec -->
<g id="edge7" class="edge">
<title>Dynamic&#45;&gt;Exec</title>
<path fill="none" stroke="black" d="M271.71,-268.95C253.08,-256.6 230.88,-241.88 212.26,-229.53"/>
<polygon fill="black" stroke="black" points="269.53,-271.7 279.79,-274.31 273.39,-265.87 269.53,-271.7"/>
<polygon fill="black" stroke="black" points="214.42,-226.76 204.15,-224.15 210.55,-232.59 214.42,-226.76"/>
<text text-anchor="middle" x="269.36" y="-244.2" font-family="Times,serif" font-size="14.00"> DQ5</text>
</g>
<!-- Schema -->
<g id="node6" class="node">
<title>Schema</title>
<polygon fill="none" stroke="black" points="223.38,-520 146.62,-520 146.62,-462.5 223.38,-462.5 223.38,-520"/>
<text text-anchor="middle" x="185" y="-502.7" font-family="Times,serif" font-size="14.00">In&#45;Scope</text>
<text text-anchor="middle" x="185" y="-486.2" font-family="Times,serif" font-size="14.00">Schema</text>
<text text-anchor="middle" x="185" y="-469.7" font-family="Times,serif" font-size="14.00">Definitions</text>
</g>
<!-- Schema&#45;&gt;Static -->
<g id="edge4" class="edge">
<title>Schema&#45;&gt;Static</title>
<path fill="none" stroke="black" d="M203.28,-462.2C211.92,-448.94 222.23,-433.11 230.97,-419.71"/>
<polygon fill="black" stroke="black" points="233.65,-422 236.18,-411.71 227.79,-418.18 233.65,-422"/>
</g>
<!-- XPath -->
<g id="node7" class="node">
<title>XPath</title>
<path fill="none" stroke="black" d="M183,-407.5C183,-407.5 153,-407.5 153,-407.5 147,-407.5 141,-401.5 141,-395.5 141,-395.5 141,-383.5 141,-383.5 141,-377.5 147,-371.5 153,-371.5 153,-371.5 183,-371.5 183,-371.5 189,-371.5 195,-377.5 195,-383.5 195,-383.5 195,-395.5 195,-395.5 195,-401.5 189,-407.5 183,-407.5"/>
<text text-anchor="middle" x="168" y="-384.45" font-family="Times,serif" font-size="14.00">XPath</text>
</g>
<!-- XPath&#45;&gt;AST -->
<g id="edge1" class="edge">
<title>XPath&#45;&gt;AST</title>
<path fill="none" stroke="black" d="M168.06,-371.46C168.18,-360.83 168.49,-346.85 169.25,-334.5 169.38,-332.43 169.53,-330.31 169.7,-328.16"/>
<polygon fill="black" stroke="black" points="173.17,-328.61 170.59,-318.34 166.2,-327.98 173.17,-328.61"/>
<text text-anchor="middle" x="183.12" y="-337.7" font-family="Times,serif" font-size="14.00"> SQ1</text>
</g>
<!-- XML -->
<g id="node8" class="node">
<title>XML</title>
<polygon fill="none" stroke="black" points="48,-314 0,-314 0,-278 54,-278 54,-308 48,-314"/>
<polyline fill="none" stroke="black" points="48,-314 48,-308"/>
<polyline fill="none" stroke="black" points="54,-308 48,-308"/>
<text text-anchor="middle" x="27" y="-290.95" font-family="Times,serif" font-size="14.00">XML</text>
</g>
<!-- XML&#45;&gt;XDM -->
<g id="edge11" class="edge">
<title>XML&#45;&gt;XDM</title>
<path fill="none" stroke="black" d="M20.09,-277.75C11.84,-254.15 1.36,-211.37 20,-182 42.28,-146.88 86.76,-128.59 122.04,-119.24"/>
<polygon fill="black" stroke="black" points="122.79,-122.66 131.66,-116.88 121.12,-115.87 122.79,-122.66"/>
<text text-anchor="middle" x="36.5" y="-197.45" font-family="Times,serif" font-size="14.00"> DM1</text>
</g>
<!-- PSVI -->
<g id="node9" class="node">
<title>PSVI</title>
<polygon fill="none" stroke="black" points="110,-220.5 62,-220.5 62,-184.5 116,-184.5 116,-214.5 110,-220.5"/>
<polyline fill="none" stroke="black" points="110,-220.5 110,-214.5"/>
<polyline fill="none" stroke="black" points="116,-214.5 110,-214.5"/>
<text text-anchor="middle" x="89" y="-197.45" font-family="Times,serif" font-size="14.00">PSVI</text>
</g>
<!-- XML&#45;&gt;PSVI -->
<g id="edge9" class="edge">
<title>XML&#45;&gt;PSVI</title>
<path fill="none" stroke="black" d="M38.66,-277.79C47.7,-264.46 60.38,-245.74 70.76,-230.42"/>
<polygon fill="black" stroke="black" points="73.62,-232.44 76.33,-222.2 67.82,-228.51 73.62,-232.44"/>
<text text-anchor="middle" x="80.05" y="-244.2" font-family="Times,serif" font-size="14.00"> DM1</text>
</g>
<!-- PSVI&#45;&gt;XDM -->
<g id="edge10" class="edge">
<title>PSVI&#45;&gt;XDM</title>
<path fill="none" stroke="black" d="M103.55,-184.23C112.7,-173.51 124.85,-159.53 136,-147.5 138.99,-144.27 142.17,-140.93 145.35,-137.64"/>
<polygon fill="black" stroke="black" points="147.63,-140.31 152.12,-130.71 142.63,-135.41 147.63,-140.31"/>
<text text-anchor="middle" x="152.5" y="-150.7" font-family="Times,serif" font-size="14.00"> DM2</text>
</g>
<!-- Direct -->
<g id="node10" class="node">
<title>Direct</title>
<path fill="none" stroke="black" d="M432.12,-223C432.12,-223 371.88,-223 371.88,-223 365.88,-223 359.88,-217 359.88,-211 359.88,-211 359.88,-194 359.88,-194 359.88,-188 365.88,-182 371.88,-182 371.88,-182 432.12,-182 432.12,-182 438.12,-182 444.12,-188 444.12,-194 444.12,-194 444.12,-211 444.12,-211 444.12,-217 438.12,-223 432.12,-223"/>
<text text-anchor="middle" x="402" y="-205.7" font-family="Times,serif" font-size="14.00">Other/Direct</text>
<text text-anchor="middle" x="402" y="-189.2" font-family="Times,serif" font-size="14.00">Generation</text>
</g>
<!-- Direct&#45;&gt;XDM -->
<g id="edge12" class="edge">
<title>Direct&#45;&gt;XDM</title>
<path fill="none" stroke="black" d="M359.41,-183.4C358.26,-182.93 357.12,-182.46 356,-182 311.27,-163.72 260.07,-143.65 223.22,-129.35"/>
<polygon fill="black" stroke="black" points="224.74,-126.19 214.16,-125.84 222.21,-132.72 224.74,-126.19"/>
<text text-anchor="middle" x="327.47" y="-150.7" font-family="Times,serif" font-size="14.00"> DM3</text>
</g>
<!-- Host -->
<g id="node11" class="node">
<title>Host</title>
<path fill="none" stroke="black" d="M290.62,-613.5C290.62,-613.5 227.38,-613.5 227.38,-613.5 221.38,-613.5 215.38,-607.5 215.38,-601.5 215.38,-601.5 215.38,-584.5 215.38,-584.5 215.38,-578.5 221.38,-572.5 227.38,-572.5 227.38,-572.5 290.62,-572.5 290.62,-572.5 296.62,-572.5 302.62,-578.5 302.62,-584.5 302.62,-584.5 302.62,-601.5 302.62,-601.5 302.62,-607.5 296.62,-613.5 290.62,-613.5"/>
<text text-anchor="middle" x="259" y="-596.2" font-family="Times,serif" font-size="14.00">Host</text>
<text text-anchor="middle" x="259" y="-579.7" font-family="Times,serif" font-size="14.00">Environment</text>
</g>
<!-- Host&#45;&gt;Static -->
<g id="edge14" class="edge">
<title>Host&#45;&gt;Static</title>
<path fill="none" stroke="black" d="M258.12,-572.31C256.55,-537.25 253.27,-463.74 251.39,-421.72"/>
<polygon fill="black" stroke="black" points="254.89,-421.61 250.95,-411.78 247.9,-421.93 254.89,-421.61"/>
<text text-anchor="middle" x="269.99" y="-486.2" font-family="Times,serif" font-size="14.00"> SQ2</text>
</g>
<!-- Host&#45;&gt;Dynamic -->
<g id="edge15" class="edge">
<title>Host&#45;&gt;Dynamic</title>
<path fill="none" stroke="black" d="M270.03,-572.16C276.36,-559.83 283.86,-543.43 288,-528 306.72,-458.3 310.5,-373.07 311.09,-328.15"/>
<polygon fill="black" stroke="black" points="314.59,-328.4 311.17,-318.37 307.59,-328.34 314.59,-328.4"/>
<text text-anchor="middle" x="320.29" y="-431.2" font-family="Times,serif" font-size="14.00"> DQ3</text>
</g>
<!-- Host&#45;&gt;Schema -->
<g id="edge13" class="edge">
<title>Host&#45;&gt;Schema</title>
<path fill="none" stroke="black" d="M238.02,-572.15C232.69,-566.66 227.16,-560.54 222.5,-554.5 216.69,-546.97 211.06,-538.48 205.99,-530.25"/>
<polygon fill="black" stroke="black" points="209.03,-528.51 200.9,-521.71 203.02,-532.09 209.03,-528.51"/>
<text text-anchor="middle" x="233.75" y="-541.2" font-family="Times,serif" font-size="14.00"> SI1</text>
</g>
</g>
</svg>
