<?xml version="1.0" encoding="UTF-8" standalone="no"?>
<!DOCTYPE svg PUBLIC "-//W3C//DTD SVG 1.1//EN"
 "http://www.w3.org/Graphics/SVG/1.1/DTD/svg11.dtd">
<!-- Generated by graphviz version 12.2.1 (20241206.2353)
 -->
<!-- Title: Processing_Model Pages: 1 -->
<svg width="432pt" height="644pt"
 viewBox="0.00 0.00 432.00 644.00" xmlns="http://www.w3.org/2000/svg" xmlns:xlink="http://www.w3.org/1999/xlink">
<g id="graph0" class="graph" transform="scale(1 1) rotate(0) translate(4 640)">
<title>Processing_Model</title>
<polygon fill="white" stroke="none" points="-4,4 -4,-640 428,-640 428,4 -4,4"/>
<g id="clust1" class="cluster">
<title>clusterQT4</title>
<polygon fill="none" stroke="black" points="188,-80.5 188,-550.5 416,-550.5 416,-80.5 188,-80.5"/>
</g>
<g id="clust2" class="cluster">
<title>clusterEP</title>
<polygon fill="none" stroke="black" points="8,-174 8,-349 180,-349 180,-174 8,-174"/>
<text text-anchor="middle" x="94" y="-331.7" font-family="Times,serif" font-size="14.00">External processing</text>
</g>
<!-- Exec -->
<g id="node1" class="node">
<title>Exec</title>
<path fill="none" stroke="black" d="M260.38,-223C260.38,-223 213.62,-223 213.62,-223 207.62,-223 201.62,-217 201.62,-211 201.62,-211 201.62,-194 201.62,-194 201.62,-188 207.62,-182 213.62,-182 213.62,-182 260.38,-182 260.38,-182 266.38,-182 272.38,-188 272.38,-194 272.38,-194 272.38,-211 272.38,-211 272.38,-217 266.38,-223 260.38,-223"/>
<text text-anchor="middle" x="237" y="-205.7" font-family="Times,serif" font-size="14.00">Execution</text>
<text text-anchor="middle" x="237" y="-189.2" font-family="Times,serif" font-size="14.00">Engine</text>
</g>
<!-- XDM -->
<g id="node2" class="node">
<title>XDM</title>
<g id="a_node2"><a xlink:href="#dt-data-model-instance" xlink:title="XPath Data\nModel">
<polygon fill="none" stroke="black" points="275.5,-129.5 196.5,-129.5 196.5,-88.5 275.5,-88.5 275.5,-129.5"/>
<text text-anchor="middle" x="236" y="-112.2" font-family="Times,serif" font-size="14.00" fill="blue">XPath Data</text>
<text text-anchor="middle" x="236" y="-95.7" font-family="Times,serif" font-size="14.00" fill="blue">Model</text>
</a>
</g>
</g>
<!-- Exec&#45;&gt;XDM -->
<g id="edge8" class="edge">
<title>Exec&#45;&gt;XDM</title>
<g id="a_edge8"><a xlink:href="#DQ12345" xlink:title=" DQ4">
<path fill="none" stroke="black" d="M236.66,-170.46C236.56,-161.01 236.44,-150.62 236.34,-141.16"/>
<polygon fill="black" stroke="black" points="233.16,-170.17 236.77,-180.13 240.16,-170.09 233.16,-170.17"/>
<polygon fill="black" stroke="black" points="239.84,-141.29 236.23,-131.33 232.84,-141.37 239.84,-141.29"/>
</a>
</g>
<g id="a_edge8&#45;label"><a xlink:href="#DQ12345" xlink:title=" DQ4">
<text text-anchor="middle" x="251.59" y="-150.7" font-family="Times,serif" font-size="14.00" fill="blue"> DQ4</text>
</a>
</g>
</g>
<!-- Serialize -->
<g id="node12" class="node">
<title>Serialize</title>
<polygon fill="none" stroke="black" points="261.62,-36 204.38,-36 204.38,0 267.62,0 267.62,-30 261.62,-36"/>
<polyline fill="none" stroke="black" points="261.62,-36 261.62,-30"/>
<polyline fill="none" stroke="black" points="267.62,-30 261.62,-30"/>
<text text-anchor="middle" x="236" y="-12.95" font-family="Times,serif" font-size="14.00">Serialize</text>
</g>
<!-- XDM&#45;&gt;Serialize -->
<g id="edge15" class="edge">
<title>XDM&#45;&gt;Serialize</title>
<g id="a_edge15"><a xlink:href="#id-serialization" xlink:title=" DM4">
<path fill="none" stroke="black" d="M236,-88.25C236,-76.33 236,-60.94 236,-47.69"/>
<polygon fill="black" stroke="black" points="239.5,-47.81 236,-37.81 232.5,-47.81 239.5,-47.81"/>
</a>
</g>
<g id="a_edge15&#45;label"><a xlink:href="#id-serialization" xlink:title=" DM4">
<text text-anchor="middle" x="252.5" y="-57.2" font-family="Times,serif" font-size="14.00" fill="blue"> DM4</text>
</a>
</g>
</g>
<!-- AST -->
<g id="node3" class="node">
<title>AST</title>
<g id="a_node3"><a xlink:href="#SQ5" xlink:title="Abstract\nSyntax Tree">
<path fill="none" stroke="black" d="M265.62,-316.5C265.62,-316.5 208.38,-316.5 208.38,-316.5 202.38,-316.5 196.38,-310.5 196.38,-304.5 196.38,-304.5 196.38,-287.5 196.38,-287.5 196.38,-281.5 202.38,-275.5 208.38,-275.5 208.38,-275.5 265.62,-275.5 265.62,-275.5 271.62,-275.5 277.62,-281.5 277.62,-287.5 277.62,-287.5 277.62,-304.5 277.62,-304.5 277.62,-310.5 271.62,-316.5 265.62,-316.5"/>
<text text-anchor="middle" x="237" y="-299.2" font-family="Times,serif" font-size="14.00" fill="blue">Abstract</text>
<text text-anchor="middle" x="237" y="-282.7" font-family="Times,serif" font-size="14.00" fill="blue">Syntax Tree</text>
</a>
</g>
</g>
<!-- AST&#45;&gt;Exec -->
<g id="edge3" class="edge">
<title>AST&#45;&gt;Exec</title>
<g id="a_edge3"><a xlink:href="#DQ12345" xlink:title=" DQ1">
<path fill="none" stroke="black" d="M237,-275.15C237,-263.28 237,-247.94 237,-234.5"/>
<polygon fill="black" stroke="black" points="240.5,-234.83 237,-224.83 233.5,-234.83 240.5,-234.83"/>
</a>
</g>
<g id="a_edge3&#45;label"><a xlink:href="#DQ12345" xlink:title=" DQ1">
<text text-anchor="middle" x="252" y="-244.2" font-family="Times,serif" font-size="14.00" fill="blue"> DQ1</text>
</a>
</g>
</g>
<!-- AST&#45;&gt;AST -->
<g id="edge2" class="edge">
<title>AST&#45;&gt;AST</title>
<g id="a_edge2"><a xlink:href="#SQ5" xlink:title=" SQ5">
<path fill="none" stroke="black" d="M278.09,-304.63C288.14,-303.99 295.62,-301.11 295.62,-296 295.62,-293.12 293.26,-290.96 289.4,-289.49"/>
<polygon fill="black" stroke="black" points="290.05,-286.06 279.58,-287.65 288.76,-292.94 290.05,-286.06"/>
</a>
</g>
<g id="a_edge2&#45;label"><a xlink:href="#SQ5" xlink:title=" SQ5">
<text text-anchor="middle" x="309.5" y="-290.95" font-family="Times,serif" font-size="14.00" fill="blue"> SQ5</text>
</a>
</g>
</g>
<!-- Static -->
<g id="node4" class="node">
<title>Static</title>
<g id="a_node4"><a xlink:href="#dt-static-context" xlink:title="Static\nContext">
<polygon fill="none" stroke="black" points="343.38,-432.5 288.62,-432.5 284.62,-428.5 284.62,-391.5 339.38,-391.5 343.38,-395.5 343.38,-432.5"/>
<polyline fill="none" stroke="black" points="339.38,-428.5 284.62,-428.5"/>
<polyline fill="none" stroke="black" points="339.38,-428.5 339.38,-391.5"/>
<polyline fill="none" stroke="black" points="339.38,-428.5 343.38,-432.5"/>
<text text-anchor="middle" x="314" y="-415.2" font-family="Times,serif" font-size="14.00" fill="blue">Static</text>
<text text-anchor="middle" x="314" y="-398.7" font-family="Times,serif" font-size="14.00" fill="blue">Context</text>
</a>
</g>
</g>
<!-- Static&#45;&gt;AST -->
<g id="edge5" class="edge">
<title>Static&#45;&gt;AST</title>
<g id="a_edge5"><a xlink:href="#SQ1234" xlink:title=" SQ4">
<path fill="none" stroke="black" d="M300.59,-391.14C288.44,-373.16 270.4,-346.44 256.63,-326.06"/>
<polygon fill="black" stroke="black" points="259.6,-324.21 251.11,-317.88 253.8,-328.13 259.6,-324.21"/>
</a>
</g>
<g id="a_edge5&#45;label"><a xlink:href="#SQ1234" xlink:title=" SQ4">
<text text-anchor="middle" x="300.77" y="-360.2" font-family="Times,serif" font-size="14.00" fill="blue"> SQ4</text>
</a>
</g>
</g>
<!-- Dynamic -->
<g id="node5" class="node">
<title>Dynamic</title>
<g id="a_node5"><a xlink:href="#dt-dynamic-context" xlink:title="Dynamic\nContext">
<polygon fill="none" stroke="black" points="408.12,-316.5 345.88,-316.5 341.88,-312.5 341.88,-275.5 404.12,-275.5 408.12,-279.5 408.12,-316.5"/>
<polyline fill="none" stroke="black" points="404.12,-312.5 341.88,-312.5"/>
<polyline fill="none" stroke="black" points="404.12,-312.5 404.12,-275.5"/>
<polyline fill="none" stroke="black" points="404.12,-312.5 408.12,-316.5"/>
<text text-anchor="middle" x="375" y="-299.2" font-family="Times,serif" font-size="14.00" fill="blue">Dynamic</text>
<text text-anchor="middle" x="375" y="-282.7" font-family="Times,serif" font-size="14.00" fill="blue">Context</text>
</a>
</g>
</g>
<!-- Static&#45;&gt;Dynamic -->
<g id="edge6" class="edge">
<title>Static&#45;&gt;Dynamic</title>
<g id="a_edge6"><a xlink:href="#DQ12345" xlink:title=" DQ2">
<path fill="none" stroke="black" d="M320.58,-391.05C324.3,-380.66 329.34,-367.89 335,-357 340.4,-346.61 347.19,-335.81 353.64,-326.28"/>
<polygon fill="black" stroke="black" points="356.47,-328.33 359.3,-318.12 350.72,-324.34 356.47,-328.33"/>
</a>
</g>
<g id="a_edge6&#45;label"><a xlink:href="#DQ12345" xlink:title=" DQ2">
<text text-anchor="middle" x="350" y="-360.2" font-family="Times,serif" font-size="14.00" fill="blue"> DQ2</text>
</a>
</g>
</g>
<!-- Dynamic&#45;&gt;Exec -->
<g id="edge7" class="edge">
<title>Dynamic&#45;&gt;Exec</title>
<g id="a_edge7"><a xlink:href="#DQ12345" xlink:title=" DQ5">
<path fill="none" stroke="black" d="M335.71,-268.95C317.08,-256.6 294.88,-241.88 276.26,-229.53"/>
<polygon fill="black" stroke="black" points="333.53,-271.7 343.79,-274.31 337.39,-265.87 333.53,-271.7"/>
<polygon fill="black" stroke="black" points="278.42,-226.76 268.15,-224.15 274.55,-232.59 278.42,-226.76"/>
</a>
</g>
<g id="a_edge7&#45;label"><a xlink:href="#DQ12345" xlink:title=" DQ5">
<text text-anchor="middle" x="333.36" y="-244.2" font-family="Times,serif" font-size="14.00" fill="blue"> DQ5</text>
</a>
</g>
</g>
<!-- Schema -->
<g id="node6" class="node">
<title>Schema</title>
<g id="a_node6"><a xlink:href="#dt-issd" xlink:title="In&#45;Scope\nSchema\nDefinitions">
<polygon fill="none" stroke="black" points="287.38,-542.5 210.62,-542.5 210.62,-485 287.38,-485 287.38,-542.5"/>
<text text-anchor="middle" x="249" y="-525.2" font-family="Times,serif" font-size="14.00" fill="blue">In&#45;Scope</text>
<text text-anchor="middle" x="249" y="-508.7" font-family="Times,serif" font-size="14.00" fill="blue">Schema</text>
<text text-anchor="middle" x="249" y="-492.2" font-family="Times,serif" font-size="14.00" fill="blue">Definitions</text>
</a>
</g>
</g>
<!-- Schema&#45;&gt;Static -->
<g id="edge4" class="edge">
<title>Schema&#45;&gt;Static</title>
<path fill="none" stroke="black" d="M267.28,-484.7C275.92,-471.44 286.23,-455.61 294.97,-442.21"/>
<polygon fill="black" stroke="black" points="297.65,-444.5 300.18,-434.21 291.79,-440.68 297.65,-444.5"/>
</g>
<!-- XPath -->
<g id="node7" class="node">
<title>XPath</title>
<path fill="none" stroke="black" d="M247,-430C247,-430 217,-430 217,-430 211,-430 205,-424 205,-418 205,-418 205,-406 205,-406 205,-400 211,-394 217,-394 217,-394 247,-394 247,-394 253,-394 259,-400 259,-406 259,-406 259,-418 259,-418 259,-424 253,-430 247,-430"/>
<text text-anchor="middle" x="232" y="-406.95" font-family="Times,serif" font-size="14.00">XPath</text>
</g>
<!-- XPath&#45;&gt;AST -->
<g id="edge1" class="edge">
<title>XPath&#45;&gt;AST</title>
<g id="a_edge1"><a xlink:href="#SQ1234" xlink:title=" SQ1">
<path fill="none" stroke="black" d="M232.22,-393.97C232.4,-383.34 232.72,-369.37 233.25,-357 233.65,-347.72 234.22,-337.64 234.8,-328.44"/>
<polygon fill="black" stroke="black" points="238.29,-328.71 235.45,-318.5 231.31,-328.25 238.29,-328.71"/>
</a>
</g>
<g id="a_edge1&#45;label"><a xlink:href="#SQ1234" xlink:title=" SQ1">
<text text-anchor="middle" x="247.12" y="-360.2" font-family="Times,serif" font-size="14.00" fill="blue"> SQ1</text>
</a>
</g>
</g>
<!-- XML -->
<g id="node8" class="node">
<title>XML</title>
<polygon fill="none" stroke="black" points="64,-314 16,-314 16,-278 70,-278 70,-308 64,-314"/>
<polyline fill="none" stroke="black" points="64,-314 64,-308"/>
<polyline fill="none" stroke="black" points="70,-308 64,-308"/>
<text text-anchor="middle" x="43" y="-290.95" font-family="Times,serif" font-size="14.00">XML</text>
</g>
<!-- PSVI -->
<g id="node9" class="node">
<title>PSVI</title>
<g id="a_node9"><a xlink:href="#id-data-model-generation" xlink:title="Infoset/\nPSVI">
<polygon fill="none" stroke="black" points="87.62,-223 36.38,-223 36.38,-182 93.62,-182 93.62,-217 87.62,-223"/>
<polyline fill="none" stroke="black" points="87.62,-223 87.62,-217"/>
<polyline fill="none" stroke="black" points="93.62,-217 87.62,-217"/>
<text text-anchor="middle" x="65" y="-205.7" font-family="Times,serif" font-size="14.00" fill="blue">Infoset/</text>
<text text-anchor="middle" x="65" y="-189.2" font-family="Times,serif" font-size="14.00" fill="blue">PSVI</text>
</a>
</g>
</g>
<!-- XML&#45;&gt;PSVI -->
<g id="edge9" class="edge">
<title>XML&#45;&gt;PSVI</title>
<g id="a_edge9"><a xlink:href="#DM1" xlink:title=" DM1">
<path fill="none" stroke="black" d="M47.14,-277.79C50.08,-265.54 54.12,-248.73 57.62,-234.21"/>
<polygon fill="black" stroke="black" points="60.98,-235.19 59.92,-224.65 54.17,-233.55 60.98,-235.19"/>
</a>
</g>
<g id="a_edge9&#45;label"><a xlink:href="#DM1" xlink:title=" DM1">
<text text-anchor="middle" x="72.47" y="-244.2" font-family="Times,serif" font-size="14.00" fill="blue"> DM1</text>
</a>
</g>
</g>
<!-- PSVI&#45;&gt;XDM -->
<g id="edge10" class="edge">
<title>PSVI&#45;&gt;XDM</title>
<g id="a_edge10"><a xlink:href="#DM2" xlink:title=" DM2">
<path fill="none" stroke="black" d="M70.78,-181.63C75.12,-170.08 82.19,-156.14 93,-147.5 118.93,-126.77 155.15,-117.42 184.66,-113.23"/>
<polygon fill="black" stroke="black" points="185.02,-116.72 194.51,-112.01 184.16,-109.77 185.02,-116.72"/>
</a>
</g>
<g id="a_edge10&#45;label"><a xlink:href="#DM2" xlink:title=" DM2">
<text text-anchor="middle" x="109.5" y="-150.7" font-family="Times,serif" font-size="14.00" fill="blue"> DM2</text>
</a>
</g>
</g>
<!-- Direct -->
<g id="node10" class="node">
<title>Direct</title>
<path fill="none" stroke="black" d="M160.12,-316.5C160.12,-316.5 99.88,-316.5 99.88,-316.5 93.88,-316.5 87.88,-310.5 87.88,-304.5 87.88,-304.5 87.88,-287.5 87.88,-287.5 87.88,-281.5 93.88,-275.5 99.88,-275.5 99.88,-275.5 160.12,-275.5 160.12,-275.5 166.12,-275.5 172.12,-281.5 172.12,-287.5 172.12,-287.5 172.12,-304.5 172.12,-304.5 172.12,-310.5 166.12,-316.5 160.12,-316.5"/>
<text text-anchor="middle" x="130" y="-299.2" font-family="Times,serif" font-size="14.00">Other/Direct</text>
<text text-anchor="middle" x="130" y="-282.7" font-family="Times,serif" font-size="14.00">Generation</text>
</g>
<!-- Direct&#45;&gt;XDM -->
<g id="edge11" class="edge">
<title>Direct&#45;&gt;XDM</title>
<g id="a_edge11"><a xlink:href="#DM3" xlink:title=" DM3">
<path fill="none" stroke="black" d="M131.17,-275.11C133.47,-249.87 140.21,-205.78 160,-174 168.96,-159.6 182.25,-146.83 195.22,-136.55"/>
<polygon fill="black" stroke="black" points="197.02,-139.58 202.88,-130.75 192.8,-133.99 197.02,-139.58"/>
</a>
</g>
<g id="a_edge11&#45;label"><a xlink:href="#DM3" xlink:title=" DM3">
<text text-anchor="middle" x="176.5" y="-197.45" font-family="Times,serif" font-size="14.00" fill="blue"> DM3</text>
</a>
</g>
</g>
<!-- Host -->
<g id="node11" class="node">
<title>Host</title>
<path fill="none" stroke="black" d="M354.62,-636C354.62,-636 291.38,-636 291.38,-636 285.38,-636 279.38,-630 279.38,-624 279.38,-624 279.38,-607 279.38,-607 279.38,-601 285.38,-595 291.38,-595 291.38,-595 354.62,-595 354.62,-595 360.62,-595 366.62,-601 366.62,-607 366.62,-607 366.62,-624 366.62,-624 366.62,-630 360.62,-636 354.62,-636"/>
<text text-anchor="middle" x="323" y="-618.7" font-family="Times,serif" font-size="14.00">Host</text>
<text text-anchor="middle" x="323" y="-602.2" font-family="Times,serif" font-size="14.00">Environment</text>
</g>
<!-- Host&#45;&gt;Static -->
<g id="edge13" class="edge">
<title>Host&#45;&gt;Static</title>
<g id="a_edge13"><a xlink:href="#SQ1234" xlink:title=" SQ2">
<path fill="none" stroke="black" d="M322.12,-594.81C320.55,-559.75 317.27,-486.24 315.39,-444.22"/>
<polygon fill="black" stroke="black" points="318.89,-444.11 314.95,-434.28 311.9,-444.43 318.89,-444.11"/>
</a>
</g>
<g id="a_edge13&#45;label"><a xlink:href="#SQ1234" xlink:title=" SQ2">
<text text-anchor="middle" x="333.99" y="-508.7" font-family="Times,serif" font-size="14.00" fill="blue"> SQ2</text>
</a>
</g>
</g>
<!-- Host&#45;&gt;Dynamic -->
<g id="edge14" class="edge">
<title>Host&#45;&gt;Dynamic</title>
<g id="a_edge14"><a xlink:href="#DQ12345" xlink:title=" DQ3">
<path fill="none" stroke="black" d="M334.07,-594.68C340.42,-582.35 347.92,-565.95 352,-550.5 372.63,-472.31 375.52,-376.37 375.49,-328.01"/>
<polygon fill="black" stroke="black" points="378.99,-328.28 375.44,-318.3 371.99,-328.32 378.99,-328.28"/>
</a>
</g>
<g id="a_edge14&#45;label"><a xlink:href="#DQ12345" xlink:title=" DQ3">
<text text-anchor="middle" x="384.14" y="-453.7" font-family="Times,serif" font-size="14.00" fill="blue"> DQ3</text>
</a>
</g>
</g>
<!-- Host&#45;&gt;Schema -->
<g id="edge12" class="edge">
<title>Host&#45;&gt;Schema</title>
<g id="a_edge12"><a xlink:href="#id-schema-import-processing" xlink:title=" SI1">
<path fill="none" stroke="black" d="M302.02,-594.65C296.69,-589.16 291.16,-583.04 286.5,-577 280.69,-569.47 275.06,-560.98 269.99,-552.75"/>
<polygon fill="black" stroke="black" points="273.03,-551.01 264.9,-544.21 267.02,-554.59 273.03,-551.01"/>
</a>
</g>
<g id="a_edge12&#45;label"><a xlink:href="#id-schema-import-processing" xlink:title=" SI1">
<text text-anchor="middle" x="297.75" y="-563.7" font-family="Times,serif" font-size="14.00" fill="blue"> SI1</text>
</a>
</g>
</g>
</g>
</svg>
