<?xml version="1.0" encoding="UTF-8" standalone="no"?>
<!DOCTYPE svg PUBLIC "-//W3C//DTD SVG 1.1//EN"
 "http://www.w3.org/Graphics/SVG/1.1/DTD/svg11.dtd">
<!-- Generated by graphviz version 7.0.0 (20221023.0053)
 -->
<!-- Pages: 1 -->
<svg width="1206pt" height="811pt"
 viewBox="0.00 0.00 1206.00 811.00" xmlns="http://www.w3.org/2000/svg" xmlns:xlink="http://www.w3.org/1999/xlink">
<g id="graph0" class="graph" transform="scale(1 1) rotate(0) translate(4 807)">
<polygon fill="white" stroke="none" points="-4,4 -4,-807 1202,-807 1202,4 -4,4"/>
<!-- anyAtomicType -->
<g id="node1" class="node">
<title>anyAtomicType</title>
<path fill="none" stroke="#e69f00" stroke-width="4" d="M108,-452C108,-452 12,-452 12,-452 6,-452 0,-446 0,-440 0,-440 0,-428 0,-428 0,-422 6,-416 12,-416 12,-416 108,-416 108,-416 114,-416 120,-422 120,-428 120,-428 120,-440 120,-440 120,-446 114,-452 108,-452"/>
<text text-anchor="middle" x="60" y="-430.3" font-family="Times,serif" font-size="14.00">xs:anyAtomicType</text>
</g>
<!-- untypedAtomic -->
<g id="node2" class="node">
<title>untypedAtomic</title>
<path fill="none" stroke="#e69f00" stroke-width="4" d="M261,-800C261,-800 168,-800 168,-800 162,-800 156,-794 156,-788 156,-788 156,-776 156,-776 156,-770 162,-764 168,-764 168,-764 261,-764 261,-764 267,-764 273,-770 273,-776 273,-776 273,-788 273,-788 273,-794 267,-800 261,-800"/>
<text text-anchor="middle" x="214.5" y="-778.3" font-family="Times,serif" font-size="14.00">xs:untypedAtomic</text>
</g>
<!-- anyAtomicType&#45;&gt;untypedAtomic -->
<g id="edge1" class="edge">
<title>anyAtomicType&#45;&gt;untypedAtomic</title>
<path fill="none" stroke="black" d="M62.03,-465.35C65.68,-527.78 82.15,-669.04 156,-755 158.23,-757.59 160.76,-759.95 163.49,-762.1"/>
<polygon fill="black" stroke="black" points="65.53,-465.28 61.53,-455.46 58.54,-465.63 65.53,-465.28"/>
</g>
<!-- string -->
<g id="node3" class="node">
<title>string</title>
<path fill="none" stroke="#e69f00" stroke-width="4" d="M234,-746C234,-746 195,-746 195,-746 189,-746 183,-740 183,-734 183,-734 183,-722 183,-722 183,-716 189,-710 195,-710 195,-710 234,-710 234,-710 240,-710 246,-716 246,-722 246,-722 246,-734 246,-734 246,-740 240,-746 234,-746"/>
<text text-anchor="middle" x="214.5" y="-724.3" font-family="Times,serif" font-size="14.00">xs:string</text>
</g>
<!-- anyAtomicType&#45;&gt;string -->
<g id="edge2" class="edge">
<title>anyAtomicType&#45;&gt;string</title>
<path fill="none" stroke="black" d="M64.25,-464.98C71.47,-519.19 93.45,-632.06 156,-701 162.74,-708.43 171.96,-713.99 181.04,-718.07"/>
<polygon fill="black" stroke="black" points="67.75,-464.72 63.05,-455.23 60.8,-465.58 67.75,-464.72"/>
</g>
<!-- duration -->
<g id="node5" class="node">
<title>duration</title>
<path fill="none" stroke="#e69f00" stroke-width="4" d="M241,-692C241,-692 188,-692 188,-692 182,-692 176,-686 176,-680 176,-680 176,-668 176,-668 176,-662 182,-656 188,-656 188,-656 241,-656 241,-656 247,-656 253,-662 253,-668 253,-668 253,-680 253,-680 253,-686 247,-692 241,-692"/>
<text text-anchor="middle" x="214.5" y="-670.3" font-family="Times,serif" font-size="14.00">xs:duration</text>
</g>
<!-- anyAtomicType&#45;&gt;duration -->
<g id="edge3" class="edge">
<title>anyAtomicType&#45;&gt;duration</title>
<path fill="none" stroke="black" d="M67.58,-465.13C78.62,-510.44 104.86,-594.85 156,-647 161.17,-652.28 167.58,-656.64 174.21,-660.21"/>
<polygon fill="black" stroke="black" points="71,-464.38 65.33,-455.44 64.19,-465.97 71,-464.38"/>
</g>
<!-- dateAndTime -->
<g id="node20" class="node">
<title>dateAndTime</title>
<path fill="none" stroke="#e69f00" stroke-width="4" d="M198,-591C198,-591 231,-591 231,-591 237,-591 243,-597 243,-603 243,-603 243,-625 243,-625 243,-631 237,-637 231,-637 231,-637 198,-637 198,-637 192,-637 186,-631 186,-625 186,-625 186,-603 186,-603 186,-597 192,-591 198,-591"/>
<text text-anchor="middle" x="214.5" y="-621.8" font-family="Times,serif" font-size="14.00">xs:date</text>
<polyline fill="none" stroke="#e69f00" stroke-width="4" points="186,-614 243,-614"/>
<text text-anchor="middle" x="214.5" y="-598.8" font-family="Times,serif" font-size="14.00">xs:time</text>
</g>
<!-- anyAtomicType&#45;&gt;dateAndTime -->
<g id="edge4" class="edge">
<title>anyAtomicType&#45;&gt;dateAndTime</title>
<path fill="none" stroke="black" d="M74.99,-464.04C91.04,-496.04 119.85,-546.71 156,-581 164.77,-589.32 176.02,-596.36 186.24,-601.78"/>
<polygon fill="black" stroke="black" points="78.26,-462.75 70.71,-455.32 71.97,-465.83 78.26,-462.75"/>
</g>
<!-- dateTime -->
<g id="node21" class="node">
<title>dateTime</title>
<path fill="none" stroke="#e69f00" stroke-width="4" d="M244.5,-572C244.5,-572 184.5,-572 184.5,-572 178.5,-572 172.5,-566 172.5,-560 172.5,-560 172.5,-548 172.5,-548 172.5,-542 178.5,-536 184.5,-536 184.5,-536 244.5,-536 244.5,-536 250.5,-536 256.5,-542 256.5,-548 256.5,-548 256.5,-560 256.5,-560 256.5,-566 250.5,-572 244.5,-572"/>
<text text-anchor="middle" x="214.5" y="-550.3" font-family="Times,serif" font-size="14.00">xs:dateTime</text>
</g>
<!-- anyAtomicType&#45;&gt;dateTime -->
<g id="edge5" class="edge">
<title>anyAtomicType&#45;&gt;dateTime</title>
<path fill="none" stroke="black" d="M85.06,-462.15C103.12,-482.07 129.25,-508.42 156,-527 160.53,-530.14 165.48,-533.09 170.52,-535.8"/>
<polygon fill="black" stroke="black" points="87.87,-460.05 78.6,-454.91 82.65,-464.71 87.87,-460.05"/>
</g>
<!-- floatingPoint -->
<g id="node22" class="node">
<title>floatingPoint</title>
<path fill="none" stroke="#e69f00" stroke-width="4" d="M192,-471C192,-471 237,-471 237,-471 243,-471 249,-477 249,-483 249,-483 249,-505 249,-505 249,-511 243,-517 237,-517 237,-517 192,-517 192,-517 186,-517 180,-511 180,-505 180,-505 180,-483 180,-483 180,-477 186,-471 192,-471"/>
<text text-anchor="middle" x="214.5" y="-501.8" font-family="Times,serif" font-size="14.00">xs:double</text>
<polyline fill="none" stroke="#e69f00" stroke-width="4" points="180,-494 249,-494"/>
<text text-anchor="middle" x="214.5" y="-478.8" font-family="Times,serif" font-size="14.00">xs:float</text>
</g>
<!-- anyAtomicType&#45;&gt;floatingPoint -->
<g id="edge6" class="edge">
<title>anyAtomicType&#45;&gt;floatingPoint</title>
<path fill="none" stroke="black" d="M122.28,-458.11C142.06,-465.89 163.24,-474.22 180.2,-480.9"/>
<polygon fill="black" stroke="black" points="123.78,-454.94 113.19,-454.53 121.21,-461.45 123.78,-454.94"/>
</g>
<!-- decimal -->
<g id="node23" class="node">
<title>decimal</title>
<path fill="none" stroke="#e69f00" stroke-width="4" d="M240.5,-452C240.5,-452 188.5,-452 188.5,-452 182.5,-452 176.5,-446 176.5,-440 176.5,-440 176.5,-428 176.5,-428 176.5,-422 182.5,-416 188.5,-416 188.5,-416 240.5,-416 240.5,-416 246.5,-416 252.5,-422 252.5,-428 252.5,-428 252.5,-440 252.5,-440 252.5,-446 246.5,-452 240.5,-452"/>
<text text-anchor="middle" x="214.5" y="-430.3" font-family="Times,serif" font-size="14.00">xs:decimal</text>
</g>
<!-- anyAtomicType&#45;&gt;decimal -->
<g id="edge7" class="edge">
<title>anyAtomicType&#45;&gt;decimal</title>
<path fill="none" stroke="black" d="M133.18,-434C147.59,-434 162.19,-434 174.93,-434"/>
<polygon fill="black" stroke="black" points="133.22,-430.5 123.22,-434 133.22,-437.5 133.22,-430.5"/>
</g>
<!-- binaryTypes -->
<g id="node24" class="node">
<title>binaryTypes</title>
<path fill="none" stroke="#e69f00" stroke-width="4" d="M173,-351C173,-351 256,-351 256,-351 262,-351 268,-357 268,-363 268,-363 268,-385 268,-385 268,-391 262,-397 256,-397 256,-397 173,-397 173,-397 167,-397 161,-391 161,-385 161,-385 161,-363 161,-363 161,-357 167,-351 173,-351"/>
<text text-anchor="middle" x="214.5" y="-381.8" font-family="Times,serif" font-size="14.00">xs:base64Binary</text>
<polyline fill="none" stroke="#e69f00" stroke-width="4" points="161,-374 268,-374"/>
<text text-anchor="middle" x="214.5" y="-358.8" font-family="Times,serif" font-size="14.00">xs:hexBinary</text>
</g>
<!-- anyAtomicType&#45;&gt;binaryTypes -->
<g id="edge8" class="edge">
<title>anyAtomicType&#45;&gt;binaryTypes</title>
<path fill="none" stroke="black" d="M122.39,-409.85C135.23,-404.8 148.64,-399.52 161.12,-394.61"/>
<polygon fill="black" stroke="black" points="121.21,-406.55 113.19,-413.47 123.78,-413.06 121.21,-406.55"/>
</g>
<!-- boolean -->
<g id="node25" class="node">
<title>boolean</title>
<path fill="none" stroke="#e69f00" stroke-width="4" d="M240,-332C240,-332 189,-332 189,-332 183,-332 177,-326 177,-320 177,-320 177,-308 177,-308 177,-302 183,-296 189,-296 189,-296 240,-296 240,-296 246,-296 252,-302 252,-308 252,-308 252,-320 252,-320 252,-326 246,-332 240,-332"/>
<text text-anchor="middle" x="214.5" y="-310.3" font-family="Times,serif" font-size="14.00">xs:boolean</text>
</g>
<!-- anyAtomicType&#45;&gt;boolean -->
<g id="edge9" class="edge">
<title>anyAtomicType&#45;&gt;boolean</title>
<path fill="none" stroke="black" d="M85.06,-405.85C103.12,-385.93 129.25,-359.58 156,-341 161.89,-336.91 168.49,-333.16 175.07,-329.83"/>
<polygon fill="black" stroke="black" points="82.65,-403.29 78.6,-413.09 87.87,-407.95 82.65,-403.29"/>
</g>
<!-- anyURI -->
<g id="node34" class="node">
<title>anyURI</title>
<path fill="none" stroke="#e69f00" stroke-width="4" d="M240,-278C240,-278 189,-278 189,-278 183,-278 177,-272 177,-266 177,-266 177,-254 177,-254 177,-248 183,-242 189,-242 189,-242 240,-242 240,-242 246,-242 252,-248 252,-254 252,-254 252,-266 252,-266 252,-272 246,-278 240,-278"/>
<text text-anchor="middle" x="214.5" y="-256.3" font-family="Times,serif" font-size="14.00">xs:anyURI</text>
</g>
<!-- anyAtomicType&#45;&gt;anyURI -->
<g id="edge10" class="edge">
<title>anyAtomicType&#45;&gt;anyURI</title>
<path fill="none" stroke="black" d="M74.2,-403.9C89.74,-371.43 118.27,-319.96 156,-287 161.65,-282.07 168.35,-277.85 175.15,-274.31"/>
<polygon fill="black" stroke="black" points="71.13,-402.22 70.08,-412.76 77.47,-405.18 71.13,-402.22"/>
</g>
<!-- QName -->
<g id="node35" class="node">
<title>QName</title>
<path fill="none" stroke="#e69f00" stroke-width="4" d="M240,-224C240,-224 189,-224 189,-224 183,-224 177,-218 177,-212 177,-212 177,-200 177,-200 177,-194 183,-188 189,-188 189,-188 240,-188 240,-188 246,-188 252,-194 252,-200 252,-200 252,-212 252,-212 252,-218 246,-224 240,-224"/>
<text text-anchor="middle" x="214.5" y="-202.3" font-family="Times,serif" font-size="14.00">xs:QName</text>
</g>
<!-- anyAtomicType&#45;&gt;QName -->
<g id="edge11" class="edge">
<title>anyAtomicType&#45;&gt;QName</title>
<path fill="none" stroke="black" d="M68.41,-403.36C80.24,-360.29 107.19,-281.69 156,-233 161.47,-227.55 168.24,-223.06 175.2,-219.41"/>
<polygon fill="black" stroke="black" points="65.09,-402.23 65.92,-412.79 71.86,-404.02 65.09,-402.23"/>
</g>
<!-- NOTATION -->
<g id="node36" class="node">
<title>NOTATION</title>
<path fill="none" stroke="#e69f00" stroke-width="4" d="M252.5,-170C252.5,-170 176.5,-170 176.5,-170 170.5,-170 164.5,-164 164.5,-158 164.5,-158 164.5,-146 164.5,-146 164.5,-140 170.5,-134 176.5,-134 176.5,-134 252.5,-134 252.5,-134 258.5,-134 264.5,-140 264.5,-146 264.5,-146 264.5,-158 264.5,-158 264.5,-164 258.5,-170 252.5,-170"/>
<text text-anchor="middle" x="214.5" y="-148.3" font-family="Times,serif" font-size="14.00">xs:NOTATION</text>
</g>
<!-- anyAtomicType&#45;&gt;NOTATION -->
<g id="edge12" class="edge">
<title>anyAtomicType&#45;&gt;NOTATION</title>
<path fill="none" stroke="black" d="M64.89,-402.91C72.95,-350.55 96.03,-244.13 156,-179 158.39,-176.4 161.08,-174.03 163.96,-171.88"/>
<polygon fill="black" stroke="black" points="61.45,-402.22 63.49,-412.62 68.38,-403.23 61.45,-402.22"/>
</g>
<!-- gDateTypes -->
<g id="node37" class="node">
<title>gDateTypes</title>
<path fill="none" stroke="#e69f00" stroke-width="4" d="M176,-0.5C176,-0.5 253,-0.5 253,-0.5 259,-0.5 265,-6.5 265,-12.5 265,-12.5 265,-103.5 265,-103.5 265,-109.5 259,-115.5 253,-115.5 253,-115.5 176,-115.5 176,-115.5 170,-115.5 164,-109.5 164,-103.5 164,-103.5 164,-12.5 164,-12.5 164,-6.5 170,-0.5 176,-0.5"/>
<text text-anchor="middle" x="214.5" y="-100.3" font-family="Times,serif" font-size="14.00">xs:gYear</text>
<polyline fill="none" stroke="#e69f00" stroke-width="4" points="164,-92.5 265,-92.5"/>
<text text-anchor="middle" x="214.5" y="-77.3" font-family="Times,serif" font-size="14.00">xs:gMonth</text>
<polyline fill="none" stroke="#e69f00" stroke-width="4" points="164,-69.5 265,-69.5"/>
<text text-anchor="middle" x="214.5" y="-54.3" font-family="Times,serif" font-size="14.00">xs:gDay</text>
<polyline fill="none" stroke="#e69f00" stroke-width="4" points="164,-46.5 265,-46.5"/>
<text text-anchor="middle" x="214.5" y="-31.3" font-family="Times,serif" font-size="14.00">xs:gYearMonth</text>
<polyline fill="none" stroke="#e69f00" stroke-width="4" points="164,-23.5 265,-23.5"/>
<text text-anchor="middle" x="214.5" y="-8.3" font-family="Times,serif" font-size="14.00">xs:gMonthDay</text>
</g>
<!-- anyAtomicType&#45;&gt;gDateTypes -->
<g id="edge13" class="edge">
<title>anyAtomicType&#45;&gt;gDateTypes</title>
<path fill="none" stroke="black" d="M66.19,-402.86C76.73,-345.19 104.15,-219.07 156,-125 158.44,-120.57 161.21,-116.17 164.18,-111.86"/>
<polygon fill="black" stroke="black" points="62.76,-402.14 64.46,-412.6 69.66,-403.37 62.76,-402.14"/>
</g>
<!-- normalizedString -->
<g id="node26" class="node">
<title>normalizedString</title>
<path fill="none" stroke="#e69f00" stroke-width="4" d="M430.5,-749C430.5,-749 327.5,-749 327.5,-749 321.5,-749 315.5,-743 315.5,-737 315.5,-737 315.5,-725 315.5,-725 315.5,-719 321.5,-713 327.5,-713 327.5,-713 430.5,-713 430.5,-713 436.5,-713 442.5,-719 442.5,-725 442.5,-725 442.5,-737 442.5,-737 442.5,-743 436.5,-749 430.5,-749"/>
<text text-anchor="middle" x="379" y="-727.3" font-family="Times,serif" font-size="14.00">xs:normalizedString</text>
</g>
<!-- string&#45;&gt;normalizedString -->
<g id="edge29" class="edge">
<title>string&#45;&gt;normalizedString</title>
<path fill="none" stroke="black" d="M259.1,-728.81C275.86,-729.11 295.35,-729.47 313.64,-729.81"/>
<polygon fill="black" stroke="black" points="259.57,-725.31 249.51,-728.63 259.44,-732.31 259.57,-725.31"/>
</g>
<!-- dateTimeStamp -->
<g id="node4" class="node">
<title>dateTimeStamp</title>
<path fill="none" stroke="#e69f00" stroke-width="4" d="M426.5,-572C426.5,-572 331.5,-572 331.5,-572 325.5,-572 319.5,-566 319.5,-560 319.5,-560 319.5,-548 319.5,-548 319.5,-542 325.5,-536 331.5,-536 331.5,-536 426.5,-536 426.5,-536 432.5,-536 438.5,-542 438.5,-548 438.5,-548 438.5,-560 438.5,-560 438.5,-566 432.5,-572 426.5,-572"/>
<text text-anchor="middle" x="379" y="-550.3" font-family="Times,serif" font-size="14.00">xs:dateTimeStamp</text>
</g>
<!-- durationTypes -->
<g id="node6" class="node">
<title>durationTypes</title>
<path fill="none" stroke="#e69f00" stroke-width="4" d="M321,-648C321,-648 437,-648 437,-648 443,-648 449,-654 449,-660 449,-660 449,-682 449,-682 449,-688 443,-694 437,-694 437,-694 321,-694 321,-694 315,-694 309,-688 309,-682 309,-682 309,-660 309,-660 309,-654 315,-648 321,-648"/>
<text text-anchor="middle" x="379" y="-678.8" font-family="Times,serif" font-size="14.00">xs:yearMonthDuration</text>
<polyline fill="none" stroke="#e69f00" stroke-width="4" points="309,-671 449,-671"/>
<text text-anchor="middle" x="379" y="-655.8" font-family="Times,serif" font-size="14.00">xs:dayTimeDuration</text>
</g>
<!-- duration&#45;&gt;durationTypes -->
<g id="edge15" class="edge">
<title>duration&#45;&gt;durationTypes</title>
<path fill="none" stroke="black" d="M265.97,-673.07C279.65,-672.82 294.7,-672.54 309.21,-672.27"/>
<polygon fill="black" stroke="black" points="266.28,-669.56 256.35,-673.25 266.41,-676.56 266.28,-669.56"/>
</g>
<!-- integer -->
<g id="node7" class="node">
<title>integer</title>
<path fill="none" stroke="#e69f00" stroke-width="4" d="M402,-452C402,-452 356,-452 356,-452 350,-452 344,-446 344,-440 344,-440 344,-428 344,-428 344,-422 350,-416 356,-416 356,-416 402,-416 402,-416 408,-416 414,-422 414,-428 414,-428 414,-440 414,-440 414,-446 408,-452 402,-452"/>
<text text-anchor="middle" x="379" y="-430.3" font-family="Times,serif" font-size="14.00">xs:integer</text>
</g>
<!-- nonPositiveInteger -->
<g id="node8" class="node">
<title>nonPositiveInteger</title>
<path fill="none" stroke="#e69f00" stroke-width="4" d="M610,-506C610,-506 500,-506 500,-506 494,-506 488,-500 488,-494 488,-494 488,-482 488,-482 488,-476 494,-470 500,-470 500,-470 610,-470 610,-470 616,-470 622,-476 622,-482 622,-482 622,-494 622,-494 622,-500 616,-506 610,-506"/>
<text text-anchor="middle" x="555" y="-484.3" font-family="Times,serif" font-size="14.00">xs:nonPositiveInteger</text>
</g>
<!-- integer&#45;&gt;nonPositiveInteger -->
<g id="edge17" class="edge">
<title>integer&#45;&gt;nonPositiveInteger</title>
<path fill="none" stroke="black" d="M426.58,-448.46C445.91,-454.46 468.67,-461.52 489.57,-468"/>
<polygon fill="black" stroke="black" points="427.66,-445.13 417.08,-445.51 425.59,-451.81 427.66,-445.13"/>
</g>
<!-- long -->
<g id="node10" class="node">
<title>long</title>
<path fill="none" stroke="#e69f00" stroke-width="4" d="M571,-452C571,-452 539,-452 539,-452 533,-452 527,-446 527,-440 527,-440 527,-428 527,-428 527,-422 533,-416 539,-416 539,-416 571,-416 571,-416 577,-416 583,-422 583,-428 583,-428 583,-440 583,-440 583,-446 577,-452 571,-452"/>
<text text-anchor="middle" x="555" y="-430.3" font-family="Times,serif" font-size="14.00">xs:long</text>
</g>
<!-- integer&#45;&gt;long -->
<g id="edge18" class="edge">
<title>integer&#45;&gt;long</title>
<path fill="none" stroke="black" d="M427.13,-434C458.38,-434 498.39,-434 525.04,-434"/>
<polygon fill="black" stroke="black" points="427.14,-430.5 417.14,-434 427.14,-437.5 427.14,-430.5"/>
</g>
<!-- nonNegativeInteger -->
<g id="node14" class="node">
<title>nonNegativeInteger</title>
<path fill="none" stroke="#e69f00" stroke-width="4" d="M613,-398C613,-398 497,-398 497,-398 491,-398 485,-392 485,-386 485,-386 485,-374 485,-374 485,-368 491,-362 497,-362 497,-362 613,-362 613,-362 619,-362 625,-368 625,-374 625,-374 625,-386 625,-386 625,-392 619,-398 613,-398"/>
<text text-anchor="middle" x="555" y="-376.3" font-family="Times,serif" font-size="14.00">xs:nonNegativeInteger</text>
</g>
<!-- integer&#45;&gt;nonNegativeInteger -->
<g id="edge19" class="edge">
<title>integer&#45;&gt;nonNegativeInteger</title>
<path fill="none" stroke="black" d="M426.58,-419.54C445.91,-413.54 468.67,-406.48 489.57,-400"/>
<polygon fill="black" stroke="black" points="425.59,-416.19 417.08,-422.49 427.66,-422.87 425.59,-416.19"/>
</g>
<!-- negativeInteger -->
<g id="node9" class="node">
<title>negativeInteger</title>
<path fill="none" stroke="#e69f00" stroke-width="4" d="M765,-506C765,-506 673,-506 673,-506 667,-506 661,-500 661,-494 661,-494 661,-482 661,-482 661,-476 667,-470 673,-470 673,-470 765,-470 765,-470 771,-470 777,-476 777,-482 777,-482 777,-494 777,-494 777,-500 771,-506 765,-506"/>
<text text-anchor="middle" x="719" y="-484.3" font-family="Times,serif" font-size="14.00">xs:negativeInteger</text>
</g>
<!-- nonPositiveInteger&#45;&gt;negativeInteger -->
<g id="edge20" class="edge">
<title>nonPositiveInteger&#45;&gt;negativeInteger</title>
<path fill="none" stroke="black" d="M635.1,-488C643.15,-488 651.22,-488 659,-488"/>
<polygon fill="black" stroke="black" points="635.28,-484.5 625.28,-488 635.28,-491.5 635.28,-484.5"/>
</g>
<!-- int -->
<g id="node11" class="node">
<title>int</title>
<path fill="none" stroke="#e69f00" stroke-width="4" d="M734,-452C734,-452 704,-452 704,-452 698,-452 692,-446 692,-440 692,-440 692,-428 692,-428 692,-422 698,-416 704,-416 704,-416 734,-416 734,-416 740,-416 746,-422 746,-428 746,-428 746,-440 746,-440 746,-446 740,-452 734,-452"/>
<text text-anchor="middle" x="719" y="-430.3" font-family="Times,serif" font-size="14.00">xs:int</text>
</g>
<!-- long&#45;&gt;int -->
<g id="edge21" class="edge">
<title>long&#45;&gt;int</title>
<path fill="none" stroke="black" d="M596.43,-434C625.62,-434 664.29,-434 690.1,-434"/>
<polygon fill="black" stroke="black" points="596.48,-430.5 586.48,-434 596.48,-437.5 596.48,-430.5"/>
</g>
<!-- short -->
<g id="node12" class="node">
<title>short</title>
<path fill="none" stroke="#e69f00" stroke-width="4" d="M878.5,-452C878.5,-452 843.5,-452 843.5,-452 837.5,-452 831.5,-446 831.5,-440 831.5,-440 831.5,-428 831.5,-428 831.5,-422 837.5,-416 843.5,-416 843.5,-416 878.5,-416 878.5,-416 884.5,-416 890.5,-422 890.5,-428 890.5,-428 890.5,-440 890.5,-440 890.5,-446 884.5,-452 878.5,-452"/>
<text text-anchor="middle" x="861" y="-430.3" font-family="Times,serif" font-size="14.00">xs:short</text>
</g>
<!-- int&#45;&gt;short -->
<g id="edge22" class="edge">
<title>int&#45;&gt;short</title>
<path fill="none" stroke="black" d="M759.43,-434C781.68,-434 809.06,-434 829.63,-434"/>
<polygon fill="black" stroke="black" points="759.51,-430.5 749.51,-434 759.51,-437.5 759.51,-430.5"/>
</g>
<!-- byte -->
<g id="node13" class="node">
<title>byte</title>
<path fill="none" stroke="#e69f00" stroke-width="4" d="M1016,-452C1016,-452 984,-452 984,-452 978,-452 972,-446 972,-440 972,-440 972,-428 972,-428 972,-422 978,-416 984,-416 984,-416 1016,-416 1016,-416 1022,-416 1028,-422 1028,-428 1028,-428 1028,-440 1028,-440 1028,-446 1022,-452 1016,-452"/>
<text text-anchor="middle" x="1000" y="-430.3" font-family="Times,serif" font-size="14.00">xs:byte</text>
</g>
<!-- short&#45;&gt;byte -->
<g id="edge23" class="edge">
<title>short&#45;&gt;byte</title>
<path fill="none" stroke="black" d="M903.83,-434C925.27,-434 950.85,-434 970.09,-434"/>
<polygon fill="black" stroke="black" points="903.92,-430.5 893.92,-434 903.92,-437.5 903.92,-430.5"/>
</g>
<!-- unsignedLong -->
<g id="node15" class="node">
<title>unsignedLong</title>
<path fill="none" stroke="#e69f00" stroke-width="4" d="M762,-398C762,-398 676,-398 676,-398 670,-398 664,-392 664,-386 664,-386 664,-374 664,-374 664,-368 670,-362 676,-362 676,-362 762,-362 762,-362 768,-362 774,-368 774,-374 774,-374 774,-386 774,-386 774,-392 768,-398 762,-398"/>
<text text-anchor="middle" x="719" y="-376.3" font-family="Times,serif" font-size="14.00">xs:unsignedLong</text>
</g>
<!-- nonNegativeInteger&#45;&gt;unsignedLong -->
<g id="edge24" class="edge">
<title>nonNegativeInteger&#45;&gt;unsignedLong</title>
<path fill="none" stroke="black" d="M637.83,-380C646.1,-380 654.36,-380 662.26,-380"/>
<polygon fill="black" stroke="black" points="638.1,-376.5 628.1,-380 638.1,-383.5 638.1,-376.5"/>
</g>
<!-- positiveInteger -->
<g id="node19" class="node">
<title>positiveInteger</title>
<path fill="none" stroke="#e69f00" stroke-width="4" d="M763.5,-344C763.5,-344 674.5,-344 674.5,-344 668.5,-344 662.5,-338 662.5,-332 662.5,-332 662.5,-320 662.5,-320 662.5,-314 668.5,-308 674.5,-308 674.5,-308 763.5,-308 763.5,-308 769.5,-308 775.5,-314 775.5,-320 775.5,-320 775.5,-332 775.5,-332 775.5,-338 769.5,-344 763.5,-344"/>
<text text-anchor="middle" x="719" y="-322.3" font-family="Times,serif" font-size="14.00">xs:positiveInteger</text>
</g>
<!-- nonNegativeInteger&#45;&gt;positiveInteger -->
<g id="edge25" class="edge">
<title>nonNegativeInteger&#45;&gt;positiveInteger</title>
<path fill="none" stroke="black" d="M626.62,-356.46C637.95,-352.68 649.56,-348.81 660.54,-345.15"/>
<polygon fill="black" stroke="black" points="625.68,-353.08 617.3,-359.57 627.89,-359.73 625.68,-353.08"/>
</g>
<!-- unsignedInt -->
<g id="node16" class="node">
<title>unsignedInt</title>
<path fill="none" stroke="#e69f00" stroke-width="4" d="M897,-398C897,-398 825,-398 825,-398 819,-398 813,-392 813,-386 813,-386 813,-374 813,-374 813,-368 819,-362 825,-362 825,-362 897,-362 897,-362 903,-362 909,-368 909,-374 909,-374 909,-386 909,-386 909,-392 903,-398 897,-398"/>
<text text-anchor="middle" x="861" y="-376.3" font-family="Times,serif" font-size="14.00">xs:unsignedInt</text>
</g>
<!-- unsignedLong&#45;&gt;unsignedInt -->
<g id="edge26" class="edge">
<title>unsignedLong&#45;&gt;unsignedInt</title>
<path fill="none" stroke="black" d="M787.14,-380C795.27,-380 803.45,-380 811.24,-380"/>
<polygon fill="black" stroke="black" points="787.25,-376.5 777.25,-380 787.25,-383.5 787.25,-376.5"/>
</g>
<!-- unsignedShort -->
<g id="node17" class="node">
<title>unsignedShort</title>
<path fill="none" stroke="#e69f00" stroke-width="4" d="M1043,-398C1043,-398 957,-398 957,-398 951,-398 945,-392 945,-386 945,-386 945,-374 945,-374 945,-368 951,-362 957,-362 957,-362 1043,-362 1043,-362 1049,-362 1055,-368 1055,-374 1055,-374 1055,-386 1055,-386 1055,-392 1049,-398 1043,-398"/>
<text text-anchor="middle" x="1000" y="-376.3" font-family="Times,serif" font-size="14.00">xs:unsignedShort</text>
</g>
<!-- unsignedInt&#45;&gt;unsignedShort -->
<g id="edge27" class="edge">
<title>unsignedInt&#45;&gt;unsignedShort</title>
<path fill="none" stroke="black" d="M922.09,-380C929.2,-380 936.43,-380 943.47,-380"/>
<polygon fill="black" stroke="black" points="922.2,-376.5 912.2,-380 922.2,-383.5 922.2,-376.5"/>
</g>
<!-- unsignedByte -->
<g id="node18" class="node">
<title>unsignedByte</title>
<path fill="none" stroke="#e69f00" stroke-width="4" d="M1186,-398C1186,-398 1103,-398 1103,-398 1097,-398 1091,-392 1091,-386 1091,-386 1091,-374 1091,-374 1091,-368 1097,-362 1103,-362 1103,-362 1186,-362 1186,-362 1192,-362 1198,-368 1198,-374 1198,-374 1198,-386 1198,-386 1198,-392 1192,-398 1186,-398"/>
<text text-anchor="middle" x="1144.5" y="-376.3" font-family="Times,serif" font-size="14.00">xs:unsignedByte</text>
</g>
<!-- unsignedShort&#45;&gt;unsignedByte -->
<g id="edge28" class="edge">
<title>unsignedShort&#45;&gt;unsignedByte</title>
<path fill="none" stroke="black" d="M1068.23,-380C1075.24,-380 1082.31,-380 1089.15,-380"/>
<polygon fill="black" stroke="black" points="1068.42,-376.5 1058.42,-380 1068.42,-383.5 1068.42,-376.5"/>
</g>
<!-- dateTime&#45;&gt;dateTimeStamp -->
<g id="edge14" class="edge">
<title>dateTime&#45;&gt;dateTimeStamp</title>
<path fill="none" stroke="black" d="M269.63,-554C285,-554 301.84,-554 317.57,-554"/>
<polygon fill="black" stroke="black" points="269.71,-550.5 259.71,-554 269.71,-557.5 269.71,-550.5"/>
</g>
<!-- decimal&#45;&gt;integer -->
<g id="edge16" class="edge">
<title>decimal&#45;&gt;integer</title>
<path fill="none" stroke="black" d="M265.79,-434C290.52,-434 319.75,-434 342.17,-434"/>
<polygon fill="black" stroke="black" points="265.94,-430.5 255.94,-434 265.94,-437.5 265.94,-430.5"/>
</g>
<!-- token -->
<g id="node27" class="node">
<title>token</title>
<path fill="none" stroke="#e69f00" stroke-width="4" d="M574,-749C574,-749 536,-749 536,-749 530,-749 524,-743 524,-737 524,-737 524,-725 524,-725 524,-719 530,-713 536,-713 536,-713 574,-713 574,-713 580,-713 586,-719 586,-725 586,-725 586,-737 586,-737 586,-743 580,-749 574,-749"/>
<text text-anchor="middle" x="555" y="-727.3" font-family="Times,serif" font-size="14.00">xs:token</text>
</g>
<!-- normalizedString&#45;&gt;token -->
<g id="edge30" class="edge">
<title>normalizedString&#45;&gt;token</title>
<path fill="none" stroke="black" d="M455.64,-731C478.98,-731 503.43,-731 522.12,-731"/>
<polygon fill="black" stroke="black" points="455.81,-727.5 445.81,-731 455.81,-734.5 455.81,-727.5"/>
</g>
<!-- language -->
<g id="node28" class="node">
<title>language</title>
<path fill="none" stroke="#e69f00" stroke-width="4" d="M747.5,-803C747.5,-803 690.5,-803 690.5,-803 684.5,-803 678.5,-797 678.5,-791 678.5,-791 678.5,-779 678.5,-779 678.5,-773 684.5,-767 690.5,-767 690.5,-767 747.5,-767 747.5,-767 753.5,-767 759.5,-773 759.5,-779 759.5,-779 759.5,-791 759.5,-791 759.5,-797 753.5,-803 747.5,-803"/>
<text text-anchor="middle" x="719" y="-781.3" font-family="Times,serif" font-size="14.00">xs:language</text>
</g>
<!-- token&#45;&gt;language -->
<g id="edge31" class="edge">
<title>token&#45;&gt;language</title>
<path fill="none" stroke="black" d="M598.26,-745.09C622.43,-753.14 652.61,-763.2 676.63,-771.21"/>
<polygon fill="black" stroke="black" points="599.65,-741.86 589.06,-742.02 597.44,-748.5 599.65,-741.86"/>
</g>
<!-- NMTOKEN -->
<g id="node29" class="node">
<title>NMTOKEN</title>
<path fill="none" stroke="#e69f00" stroke-width="4" d="M757.5,-749C757.5,-749 680.5,-749 680.5,-749 674.5,-749 668.5,-743 668.5,-737 668.5,-737 668.5,-725 668.5,-725 668.5,-719 674.5,-713 680.5,-713 680.5,-713 757.5,-713 757.5,-713 763.5,-713 769.5,-719 769.5,-725 769.5,-725 769.5,-737 769.5,-737 769.5,-743 763.5,-749 757.5,-749"/>
<text text-anchor="middle" x="719" y="-727.3" font-family="Times,serif" font-size="14.00">xs:NMTOKEN</text>
</g>
<!-- token&#45;&gt;NMTOKEN -->
<g id="edge32" class="edge">
<title>token&#45;&gt;NMTOKEN</title>
<path fill="none" stroke="black" d="M598.99,-731C619.79,-731 644.91,-731 666.7,-731"/>
<polygon fill="black" stroke="black" points="599.13,-727.5 589.13,-731 599.13,-734.5 599.13,-727.5"/>
</g>
<!-- Name -->
<g id="node30" class="node">
<title>Name</title>
<path fill="none" stroke="#e69f00" stroke-width="4" d="M739.5,-695C739.5,-695 698.5,-695 698.5,-695 692.5,-695 686.5,-689 686.5,-683 686.5,-683 686.5,-671 686.5,-671 686.5,-665 692.5,-659 698.5,-659 698.5,-659 739.5,-659 739.5,-659 745.5,-659 751.5,-665 751.5,-671 751.5,-671 751.5,-683 751.5,-683 751.5,-689 745.5,-695 739.5,-695"/>
<text text-anchor="middle" x="719" y="-673.3" font-family="Times,serif" font-size="14.00">xs:Name</text>
</g>
<!-- token&#45;&gt;Name -->
<g id="edge33" class="edge">
<title>token&#45;&gt;Name</title>
<path fill="none" stroke="black" d="M598.27,-716.91C625.16,-707.95 659.5,-696.5 684.51,-688.16"/>
<polygon fill="black" stroke="black" points="597.44,-713.5 589.06,-719.98 599.65,-720.14 597.44,-713.5"/>
</g>
<!-- NCName -->
<g id="node31" class="node">
<title>NCName</title>
<path fill="none" stroke="#e69f00" stroke-width="4" d="M891,-695C891,-695 831,-695 831,-695 825,-695 819,-689 819,-683 819,-683 819,-671 819,-671 819,-665 825,-659 831,-659 831,-659 891,-659 891,-659 897,-659 903,-665 903,-671 903,-671 903,-683 903,-683 903,-689 897,-695 891,-695"/>
<text text-anchor="middle" x="861" y="-673.3" font-family="Times,serif" font-size="14.00">xs:NCName</text>
</g>
<!-- Name&#45;&gt;NCName -->
<g id="edge34" class="edge">
<title>Name&#45;&gt;NCName</title>
<path fill="none" stroke="black" d="M764.44,-677C781.33,-677 800.51,-677 817.24,-677"/>
<polygon fill="black" stroke="black" points="764.69,-673.5 754.69,-677 764.69,-680.5 764.69,-673.5"/>
</g>
<!-- idTypes -->
<g id="node32" class="node">
<title>idTypes</title>
<path fill="none" stroke="#e69f00" stroke-width="4" d="M976.5,-684C976.5,-684 1023.5,-684 1023.5,-684 1029.5,-684 1035.5,-690 1035.5,-696 1035.5,-696 1035.5,-718 1035.5,-718 1035.5,-724 1029.5,-730 1023.5,-730 1023.5,-730 976.5,-730 976.5,-730 970.5,-730 964.5,-724 964.5,-718 964.5,-718 964.5,-696 964.5,-696 964.5,-690 970.5,-684 976.5,-684"/>
<text text-anchor="middle" x="1000" y="-714.8" font-family="Times,serif" font-size="14.00">xs:ID</text>
<polyline fill="none" stroke="#e69f00" stroke-width="4" points="964.5,-707 1035.5,-707"/>
<text text-anchor="middle" x="1000" y="-691.8" font-family="Times,serif" font-size="14.00">xs:IDREF</text>
</g>
<!-- NCName&#45;&gt;idTypes -->
<g id="edge35" class="edge">
<title>NCName&#45;&gt;idTypes</title>
<path fill="none" stroke="black" d="M916.11,-688.85C932.55,-692.45 950.14,-696.3 964.86,-699.52"/>
<polygon fill="black" stroke="black" points="916.97,-685.45 906.45,-686.73 915.47,-692.29 916.97,-685.45"/>
</g>
<!-- ENTITY -->
<g id="node33" class="node">
<title>ENTITY</title>
<path fill="none" stroke="#e69f00" stroke-width="4" d="M1028.5,-665C1028.5,-665 971.5,-665 971.5,-665 965.5,-665 959.5,-659 959.5,-653 959.5,-653 959.5,-641 959.5,-641 959.5,-635 965.5,-629 971.5,-629 971.5,-629 1028.5,-629 1028.5,-629 1034.5,-629 1040.5,-635 1040.5,-641 1040.5,-641 1040.5,-653 1040.5,-653 1040.5,-659 1034.5,-665 1028.5,-665"/>
<text text-anchor="middle" x="1000" y="-643.3" font-family="Times,serif" font-size="14.00">xs:ENTITY</text>
</g>
<!-- NCName&#45;&gt;ENTITY -->
<g id="edge36" class="edge">
<title>NCName&#45;&gt;ENTITY</title>
<path fill="none" stroke="black" d="M915.87,-665.2C929.74,-662.17 944.46,-658.94 957.59,-656.07"/>
<polygon fill="black" stroke="black" points="915.47,-661.71 906.45,-667.27 916.97,-668.55 915.47,-661.71"/>
</g>
</g>
</svg>
