<?xml version="1.0" encoding="UTF-8" standalone="no"?>
<!DOCTYPE svg PUBLIC "-//W3C//DTD SVG 1.1//EN"
 "http://www.w3.org/Graphics/SVG/1.1/DTD/svg11.dtd">
<!-- Generated by graphviz version 7.0.0 (20221023.0053)
 -->
<!-- Pages: 1 -->
<svg width="172pt" height="99pt"
 viewBox="0.00 0.00 172.00 99.00" xmlns="http://www.w3.org/2000/svg" xmlns:xlink="http://www.w3.org/1999/xlink">
<g id="graph0" class="graph" transform="scale(1 1) rotate(0) translate(4 95)">
<polygon fill="white" stroke="none" points="-4,4 -4,-95 168,-95 168,4 -4,4"/>
<g id="clust1" class="cluster">
<title>cluster_legend</title>
<polygon fill="none" stroke="black" points="8,-8 8,-83 156,-83 156,-8 8,-8"/>
<text text-anchor="middle" x="82" y="-67.8" font-family="Times,serif" font-size="14.00">Legend</text>
</g>
<!-- _bat -->
<g id="node1" class="node">
<title>_bat</title>
<path fill="none" stroke="#e69f00" stroke-width="2" d="M136,-52C136,-52 28,-52 28,-52 22,-52 16,-46 16,-40 16,-40 16,-28 16,-28 16,-22 22,-16 28,-16 28,-16 136,-16 136,-16 142,-16 148,-22 148,-28 148,-28 148,-40 148,-40 148,-46 142,-52 136,-52"/>
<text text-anchor="middle" x="82" y="-30.3" font-family="Times,serif" font-size="14.00">Built&#45;in atomic types</text>
</g>
</g>
</svg>
