<?xml version="1.0" encoding="UTF-8" standalone="no"?>
<!DOCTYPE svg PUBLIC "-//W3C//DTD SVG 1.1//EN"
 "http://www.w3.org/Graphics/SVG/1.1/DTD/svg11.dtd">
<!-- Generated by graphviz version 14.0.0 (20250921.2048)
 -->
<!-- Title: jnodes Pages: 1 -->
<svg width="807pt" height="431pt"
 viewBox="0.00 0.00 807.00 431.00" xmlns="http://www.w3.org/2000/svg" xmlns:xlink="http://www.w3.org/1999/xlink">
<g id="graph0" class="graph" transform="scale(1 1) rotate(0) translate(4 426.5)">
<title>jnodes</title>
<polygon fill="white" stroke="none" points="-4,4 -4,-426.5 802.75,-426.5 802.75,4 -4,4"/>
<!-- R -->
<g id="node1" class="node">
<title>R</title>
<polygon fill="none" stroke="black" points="249.5,-400 249.5,-422.5 543.5,-422.5 543.5,-400 249.5,-400"/>
<text xml:space="preserve" text-anchor="start" x="392" y="-406.2" font-family="Times,serif" font-size="14.00">R</text>
<polygon fill="none" stroke="black" points="249.5,-361 249.5,-400 295.25,-400 295.25,-361 249.5,-361"/>
<text xml:space="preserve" text-anchor="start" x="252.5" y="-375.45" font-family="Times,serif" font-size="14.00">content</text>
<polygon fill="none" stroke="black" points="295.25,-361 295.25,-400 543.5,-400 543.5,-361 295.25,-361"/>
<text xml:space="preserve" text-anchor="start" x="298.25" y="-383.7" font-family="Times,serif" font-size="14.00">[{&quot;a&quot;: 1, &quot;b&quot;: &quot;XXX&quot;, &quot;c&quot;: true, &quot;d&quot;: null},</text>
<text xml:space="preserve" text-anchor="start" x="298.25" y="-367.2" font-family="Times,serif" font-size="14.00"> {&quot;a&quot;: 2, &quot;b&quot;: &quot;YYY&quot;, &quot;c&quot;: false, &quot;d&quot;: null}]</text>
</g>
<!-- M1 -->
<g id="node2" class="node">
<title>M1</title>
<polygon fill="none" stroke="black" points="102,-286 102,-308.5 387,-308.5 387,-286 102,-286"/>
<text xml:space="preserve" text-anchor="start" x="234.75" y="-292.2" font-family="Times,serif" font-size="14.00">M1</text>
<polygon fill="none" stroke="black" points="102,-263.5 102,-286 151.5,-286 151.5,-263.5 102,-263.5"/>
<text xml:space="preserve" text-anchor="start" x="106.88" y="-269.7" font-family="Times,serif" font-size="14.00">content</text>
<polygon fill="none" stroke="black" points="151.5,-263.5 151.5,-286 387,-286 387,-263.5 151.5,-263.5"/>
<text xml:space="preserve" text-anchor="start" x="154.5" y="-269.7" font-family="Times,serif" font-size="14.00">{&quot;a&quot;: 1, &quot;b&quot;: &quot;XXX&quot;, &quot;c&quot;: true, &quot;d&quot;: null}</text>
<polygon fill="none" stroke="black" points="102,-241 102,-263.5 151.5,-263.5 151.5,-241 102,-241"/>
<text xml:space="preserve" text-anchor="start" x="109.88" y="-247.2" font-family="Times,serif" font-size="14.00">parent</text>
<polygon fill="none" stroke="black" points="151.5,-241 151.5,-263.5 387,-263.5 387,-241 151.5,-241"/>
<text xml:space="preserve" text-anchor="start" x="264.75" y="-247.2" font-family="Times,serif" font-size="14.00">R</text>
<polygon fill="none" stroke="black" points="102,-218.5 102,-241 151.5,-241 151.5,-218.5 102,-218.5"/>
<text xml:space="preserve" text-anchor="start" x="105" y="-224.7" font-family="Times,serif" font-size="14.00">position</text>
<polygon fill="none" stroke="black" points="151.5,-218.5 151.5,-241 387,-241 387,-218.5 151.5,-218.5"/>
<text xml:space="preserve" text-anchor="start" x="265.88" y="-224.7" font-family="Times,serif" font-size="14.00">1</text>
<polygon fill="none" stroke="black" points="102,-196 102,-218.5 151.5,-218.5 151.5,-196 102,-196"/>
<text xml:space="preserve" text-anchor="start" x="105.75" y="-202.2" font-family="Times,serif" font-size="14.00">selector</text>
<polygon fill="none" stroke="black" points="151.5,-196 151.5,-218.5 387,-218.5 387,-196 151.5,-196"/>
<text xml:space="preserve" text-anchor="start" x="265.88" y="-202.2" font-family="Times,serif" font-size="14.00">1</text>
</g>
<!-- R&#45;&gt;M1 -->
<g id="edge1" class="edge">
<title>R&#45;&gt;M1</title>
<path fill="none" stroke="black" d="M363.89,-361.25C349.27,-348.03 331.44,-331.89 314.05,-316.16"/>
<polygon fill="black" stroke="black" points="316.45,-313.62 306.69,-309.51 311.76,-318.81 316.45,-313.62"/>
<text xml:space="preserve" text-anchor="middle" x="350.87" y="-329.7" font-family="Times,serif" font-size="14.00">[1]</text>
</g>
<!-- M2 -->
<g id="node7" class="node">
<title>M2</title>
<polygon fill="none" stroke="black" points="404.75,-286 404.75,-308.5 694.25,-308.5 694.25,-286 404.75,-286"/>
<text xml:space="preserve" text-anchor="start" x="539.75" y="-292.2" font-family="Times,serif" font-size="14.00">M2</text>
<polygon fill="none" stroke="black" points="404.75,-263.5 404.75,-286 454.25,-286 454.25,-263.5 404.75,-263.5"/>
<text xml:space="preserve" text-anchor="start" x="409.62" y="-269.7" font-family="Times,serif" font-size="14.00">content</text>
<polygon fill="none" stroke="black" points="454.25,-263.5 454.25,-286 694.25,-286 694.25,-263.5 454.25,-263.5"/>
<text xml:space="preserve" text-anchor="start" x="457.25" y="-269.7" font-family="Times,serif" font-size="14.00">{&quot;a&quot;: 2, &quot;b&quot;: &quot;YYY&quot;, &quot;c&quot;: false, &quot;d&quot;: null}</text>
<polygon fill="none" stroke="black" points="404.75,-241 404.75,-263.5 454.25,-263.5 454.25,-241 404.75,-241"/>
<text xml:space="preserve" text-anchor="start" x="412.62" y="-247.2" font-family="Times,serif" font-size="14.00">parent</text>
<polygon fill="none" stroke="black" points="454.25,-241 454.25,-263.5 694.25,-263.5 694.25,-241 454.25,-241"/>
<text xml:space="preserve" text-anchor="start" x="569.75" y="-247.2" font-family="Times,serif" font-size="14.00">R</text>
<polygon fill="none" stroke="black" points="404.75,-218.5 404.75,-241 454.25,-241 454.25,-218.5 404.75,-218.5"/>
<text xml:space="preserve" text-anchor="start" x="407.75" y="-224.7" font-family="Times,serif" font-size="14.00">position</text>
<polygon fill="none" stroke="black" points="454.25,-218.5 454.25,-241 694.25,-241 694.25,-218.5 454.25,-218.5"/>
<text xml:space="preserve" text-anchor="start" x="570.88" y="-224.7" font-family="Times,serif" font-size="14.00">1</text>
<polygon fill="none" stroke="black" points="404.75,-196 404.75,-218.5 454.25,-218.5 454.25,-196 404.75,-196"/>
<text xml:space="preserve" text-anchor="start" x="408.5" y="-202.2" font-family="Times,serif" font-size="14.00">selector</text>
<polygon fill="none" stroke="black" points="454.25,-196 454.25,-218.5 694.25,-218.5 694.25,-196 454.25,-196"/>
<text xml:space="preserve" text-anchor="start" x="570.88" y="-202.2" font-family="Times,serif" font-size="14.00">2</text>
</g>
<!-- R&#45;&gt;M2 -->
<g id="edge10" class="edge">
<title>R&#45;&gt;M2</title>
<path fill="none" stroke="black" d="M429.32,-361.25C444.04,-348.03 461.99,-331.89 479.49,-316.16"/>
<polygon fill="black" stroke="black" points="481.81,-318.79 486.91,-309.5 477.13,-313.58 481.81,-318.79"/>
<text xml:space="preserve" text-anchor="middle" x="471.71" y="-329.7" font-family="Times,serif" font-size="14.00">[2]</text>
</g>
<!-- M1a -->
<g id="node3" class="node">
<title>M1a</title>
<polygon fill="none" stroke="black" points="0,-121 0,-143.5 49.5,-143.5 49.5,-121 0,-121"/>
<text xml:space="preserve" text-anchor="start" x="4.88" y="-127.2" font-family="Times,serif" font-size="14.00">content</text>
<polygon fill="none" stroke="black" points="49.5,-121 49.5,-143.5 75,-143.5 75,-121 49.5,-121"/>
<text xml:space="preserve" text-anchor="start" x="58.88" y="-127.2" font-family="Times,serif" font-size="14.00">1</text>
<polygon fill="none" stroke="black" points="0,-98.5 0,-121 49.5,-121 49.5,-98.5 0,-98.5"/>
<text xml:space="preserve" text-anchor="start" x="7.88" y="-104.7" font-family="Times,serif" font-size="14.00">parent</text>
<polygon fill="none" stroke="black" points="49.5,-98.5 49.5,-121 75,-121 75,-98.5 49.5,-98.5"/>
<text xml:space="preserve" text-anchor="start" x="52.5" y="-104.7" font-family="Times,serif" font-size="14.00">M1</text>
<polygon fill="none" stroke="black" points="0,-76 0,-98.5 49.5,-98.5 49.5,-76 0,-76"/>
<text xml:space="preserve" text-anchor="start" x="3" y="-82.2" font-family="Times,serif" font-size="14.00">position</text>
<polygon fill="none" stroke="black" points="49.5,-76 49.5,-98.5 75,-98.5 75,-76 49.5,-76"/>
<text xml:space="preserve" text-anchor="start" x="58.88" y="-82.2" font-family="Times,serif" font-size="14.00">1</text>
<polygon fill="none" stroke="black" points="0,-53.5 0,-76 49.5,-76 49.5,-53.5 0,-53.5"/>
<text xml:space="preserve" text-anchor="start" x="3.75" y="-59.7" font-family="Times,serif" font-size="14.00">selector</text>
<polygon fill="none" stroke="black" points="49.5,-53.5 49.5,-76 75,-76 75,-53.5 49.5,-53.5"/>
<text xml:space="preserve" text-anchor="start" x="53.25" y="-59.7" font-family="Times,serif" font-size="14.00">&quot;a&quot;</text>
</g>
<!-- M1&#45;&gt;M1a -->
<g id="edge2" class="edge">
<title>M1&#45;&gt;M1a</title>
<path fill="none" stroke="black" d="M157.17,-196.11C133.07,-179.91 107.29,-161.65 84.5,-143.5 84.2,-143.26 83.91,-143.03 83.61,-142.79"/>
<polygon fill="black" stroke="black" points="86.07,-140.29 76.16,-136.55 81.58,-145.65 86.07,-140.29"/>
<text xml:space="preserve" text-anchor="middle" x="134.77" y="-164.7" font-family="Times,serif" font-size="14.00">[1]</text>
</g>
<!-- M1b -->
<g id="node4" class="node">
<title>M1b</title>
<polygon fill="none" stroke="black" points="93.12,-121 93.12,-143.5 142.62,-143.5 142.62,-121 93.12,-121"/>
<text xml:space="preserve" text-anchor="start" x="98" y="-127.2" font-family="Times,serif" font-size="14.00">content</text>
<polygon fill="none" stroke="black" points="142.62,-121 142.62,-143.5 189.88,-143.5 189.88,-121 142.62,-121"/>
<text xml:space="preserve" text-anchor="start" x="145.62" y="-127.2" font-family="Times,serif" font-size="14.00">&quot;XXX&quot;</text>
<polygon fill="none" stroke="black" points="93.12,-98.5 93.12,-121 142.62,-121 142.62,-98.5 93.12,-98.5"/>
<text xml:space="preserve" text-anchor="start" x="101" y="-104.7" font-family="Times,serif" font-size="14.00">parent</text>
<polygon fill="none" stroke="black" points="142.62,-98.5 142.62,-121 189.88,-121 189.88,-98.5 142.62,-98.5"/>
<text xml:space="preserve" text-anchor="start" x="156.5" y="-104.7" font-family="Times,serif" font-size="14.00">M1</text>
<polygon fill="none" stroke="black" points="93.12,-76 93.12,-98.5 142.62,-98.5 142.62,-76 93.12,-76"/>
<text xml:space="preserve" text-anchor="start" x="96.12" y="-82.2" font-family="Times,serif" font-size="14.00">position</text>
<polygon fill="none" stroke="black" points="142.62,-76 142.62,-98.5 189.88,-98.5 189.88,-76 142.62,-76"/>
<text xml:space="preserve" text-anchor="start" x="162.88" y="-82.2" font-family="Times,serif" font-size="14.00">1</text>
<polygon fill="none" stroke="black" points="93.12,-53.5 93.12,-76 142.62,-76 142.62,-53.5 93.12,-53.5"/>
<text xml:space="preserve" text-anchor="start" x="96.88" y="-59.7" font-family="Times,serif" font-size="14.00">selector</text>
<polygon fill="none" stroke="black" points="142.62,-53.5 142.62,-76 189.88,-76 189.88,-53.5 142.62,-53.5"/>
<text xml:space="preserve" text-anchor="start" x="156.88" y="-59.7" font-family="Times,serif" font-size="14.00">&quot;b&quot;</text>
</g>
<!-- M1&#45;&gt;M1b -->
<g id="edge4" class="edge">
<title>M1&#45;&gt;M1b</title>
<path fill="none" stroke="black" d="M207.02,-196.04C197.3,-181.72 186.86,-166.33 177.23,-152.15"/>
<polygon fill="black" stroke="black" points="180.4,-150.58 171.89,-144.27 174.61,-154.51 180.4,-150.58"/>
<text xml:space="preserve" text-anchor="middle" x="200.88" y="-164.7" font-family="Times,serif" font-size="14.00">[2]</text>
</g>
<!-- M1c -->
<g id="node5" class="node">
<title>M1c</title>
<polygon fill="none" stroke="black" points="207.75,-121 207.75,-143.5 257.25,-143.5 257.25,-121 207.75,-121"/>
<text xml:space="preserve" text-anchor="start" x="212.62" y="-127.2" font-family="Times,serif" font-size="14.00">content</text>
<polygon fill="none" stroke="black" points="257.25,-121 257.25,-143.5 293.25,-143.5 293.25,-121 257.25,-121"/>
<text xml:space="preserve" text-anchor="start" x="260.25" y="-127.2" font-family="Times,serif" font-size="14.00">true()</text>
<polygon fill="none" stroke="black" points="207.75,-98.5 207.75,-121 257.25,-121 257.25,-98.5 207.75,-98.5"/>
<text xml:space="preserve" text-anchor="start" x="215.62" y="-104.7" font-family="Times,serif" font-size="14.00">parent</text>
<polygon fill="none" stroke="black" points="257.25,-98.5 257.25,-121 293.25,-121 293.25,-98.5 257.25,-98.5"/>
<text xml:space="preserve" text-anchor="start" x="265.5" y="-104.7" font-family="Times,serif" font-size="14.00">M1</text>
<polygon fill="none" stroke="black" points="207.75,-76 207.75,-98.5 257.25,-98.5 257.25,-76 207.75,-76"/>
<text xml:space="preserve" text-anchor="start" x="210.75" y="-82.2" font-family="Times,serif" font-size="14.00">position</text>
<polygon fill="none" stroke="black" points="257.25,-76 257.25,-98.5 293.25,-98.5 293.25,-76 257.25,-76"/>
<text xml:space="preserve" text-anchor="start" x="271.88" y="-82.2" font-family="Times,serif" font-size="14.00">1</text>
<polygon fill="none" stroke="black" points="207.75,-53.5 207.75,-76 257.25,-76 257.25,-53.5 207.75,-53.5"/>
<text xml:space="preserve" text-anchor="start" x="211.5" y="-59.7" font-family="Times,serif" font-size="14.00">selector</text>
<polygon fill="none" stroke="black" points="257.25,-53.5 257.25,-76 293.25,-76 293.25,-53.5 257.25,-53.5"/>
<text xml:space="preserve" text-anchor="start" x="266.25" y="-59.7" font-family="Times,serif" font-size="14.00">&quot;c&quot;</text>
</g>
<!-- M1&#45;&gt;M1c -->
<g id="edge6" class="edge">
<title>M1&#45;&gt;M1c</title>
<path fill="none" stroke="black" d="M246.68,-196.04C247.22,-182.4 247.8,-167.79 248.34,-154.18"/>
<polygon fill="black" stroke="black" points="251.82,-154.66 248.72,-144.53 244.83,-154.39 251.82,-154.66"/>
<text xml:space="preserve" text-anchor="middle" x="255.91" y="-164.7" font-family="Times,serif" font-size="14.00">[3]</text>
</g>
<!-- M1d -->
<g id="node6" class="node">
<title>M1d</title>
<polygon fill="none" stroke="black" points="311.25,-121 311.25,-143.5 360.75,-143.5 360.75,-121 311.25,-121"/>
<text xml:space="preserve" text-anchor="start" x="316.12" y="-127.2" font-family="Times,serif" font-size="14.00">content</text>
<polygon fill="none" stroke="black" points="360.75,-121 360.75,-143.5 387.75,-143.5 387.75,-121 360.75,-121"/>
<text xml:space="preserve" text-anchor="start" x="363.75" y="-127.2" font-family="Times,serif" font-size="14.00">null</text>
<polygon fill="none" stroke="black" points="311.25,-98.5 311.25,-121 360.75,-121 360.75,-98.5 311.25,-98.5"/>
<text xml:space="preserve" text-anchor="start" x="319.12" y="-104.7" font-family="Times,serif" font-size="14.00">parent</text>
<polygon fill="none" stroke="black" points="360.75,-98.5 360.75,-121 387.75,-121 387.75,-98.5 360.75,-98.5"/>
<text xml:space="preserve" text-anchor="start" x="364.5" y="-104.7" font-family="Times,serif" font-size="14.00">M1</text>
<polygon fill="none" stroke="black" points="311.25,-76 311.25,-98.5 360.75,-98.5 360.75,-76 311.25,-76"/>
<text xml:space="preserve" text-anchor="start" x="314.25" y="-82.2" font-family="Times,serif" font-size="14.00">position</text>
<polygon fill="none" stroke="black" points="360.75,-76 360.75,-98.5 387.75,-98.5 387.75,-76 360.75,-76"/>
<text xml:space="preserve" text-anchor="start" x="370.88" y="-82.2" font-family="Times,serif" font-size="14.00">1</text>
<polygon fill="none" stroke="black" points="311.25,-53.5 311.25,-76 360.75,-76 360.75,-53.5 311.25,-53.5"/>
<text xml:space="preserve" text-anchor="start" x="315" y="-59.7" font-family="Times,serif" font-size="14.00">selector</text>
<polygon fill="none" stroke="black" points="360.75,-53.5 360.75,-76 387.75,-76 387.75,-53.5 360.75,-53.5"/>
<text xml:space="preserve" text-anchor="start" x="364.88" y="-59.7" font-family="Times,serif" font-size="14.00">&quot;d&quot;</text>
</g>
<!-- M1&#45;&gt;M1d -->
<g id="edge8" class="edge">
<title>M1&#45;&gt;M1d</title>
<path fill="none" stroke="black" d="M282.7,-196.04C292.61,-181.72 303.26,-166.33 313.07,-152.15"/>
<polygon fill="black" stroke="black" points="315.71,-154.48 318.52,-144.27 309.96,-150.5 315.71,-154.48"/>
<text xml:space="preserve" text-anchor="middle" x="314.28" y="-164.7" font-family="Times,serif" font-size="14.00">[4]</text>
</g>
<!-- M1a_ch -->
<g id="node12" class="node">
<title>M1a_ch</title>
<text xml:space="preserve" text-anchor="middle" x="37.5" y="-3.2" font-family="Times,serif" font-size="14.00">()</text>
</g>
<!-- M1a&#45;&gt;M1a_ch -->
<g id="edge3" class="edge">
<title>M1a&#45;&gt;M1a_ch</title>
<path fill="none" stroke="black" d="M37.5,-53.63C37.5,-44.44 37.5,-35.22 37.5,-27.59"/>
<polygon fill="black" stroke="black" points="41,-27.74 37.5,-17.74 34,-27.74 41,-27.74"/>
</g>
<!-- M1b_ch -->
<g id="node13" class="node">
<title>M1b_ch</title>
<text xml:space="preserve" text-anchor="middle" x="141.5" y="-3.2" font-family="Times,serif" font-size="14.00">()</text>
</g>
<!-- M1b&#45;&gt;M1b_ch -->
<g id="edge5" class="edge">
<title>M1b&#45;&gt;M1b_ch</title>
<path fill="none" stroke="black" d="M141.5,-53.63C141.5,-44.44 141.5,-35.22 141.5,-27.59"/>
<polygon fill="black" stroke="black" points="145,-27.74 141.5,-17.74 138,-27.74 145,-27.74"/>
</g>
<!-- M1c_ch -->
<g id="node14" class="node">
<title>M1c_ch</title>
<text xml:space="preserve" text-anchor="middle" x="250.5" y="-3.2" font-family="Times,serif" font-size="14.00">()</text>
</g>
<!-- M1c&#45;&gt;M1c_ch -->
<g id="edge7" class="edge">
<title>M1c&#45;&gt;M1c_ch</title>
<path fill="none" stroke="black" d="M250.5,-53.63C250.5,-44.44 250.5,-35.22 250.5,-27.59"/>
<polygon fill="black" stroke="black" points="254,-27.74 250.5,-17.74 247,-27.74 254,-27.74"/>
</g>
<!-- M1d_ch -->
<g id="node15" class="node">
<title>M1d_ch</title>
<text xml:space="preserve" text-anchor="middle" x="349.5" y="-3.2" font-family="Times,serif" font-size="14.00">()</text>
</g>
<!-- M1d&#45;&gt;M1d_ch -->
<g id="edge9" class="edge">
<title>M1d&#45;&gt;M1d_ch</title>
<path fill="none" stroke="black" d="M349.5,-53.63C349.5,-44.44 349.5,-35.22 349.5,-27.59"/>
<polygon fill="black" stroke="black" points="353,-27.74 349.5,-17.74 346,-27.74 353,-27.74"/>
</g>
<!-- M2a -->
<g id="node8" class="node">
<title>M2a</title>
<polygon fill="none" stroke="black" points="407,-121 407,-143.5 456.5,-143.5 456.5,-121 407,-121"/>
<text xml:space="preserve" text-anchor="start" x="411.88" y="-127.2" font-family="Times,serif" font-size="14.00">content</text>
<polygon fill="none" stroke="black" points="456.5,-121 456.5,-143.5 482,-143.5 482,-121 456.5,-121"/>
<text xml:space="preserve" text-anchor="start" x="465.88" y="-127.2" font-family="Times,serif" font-size="14.00">2</text>
<polygon fill="none" stroke="black" points="407,-98.5 407,-121 456.5,-121 456.5,-98.5 407,-98.5"/>
<text xml:space="preserve" text-anchor="start" x="414.88" y="-104.7" font-family="Times,serif" font-size="14.00">parent</text>
<polygon fill="none" stroke="black" points="456.5,-98.5 456.5,-121 482,-121 482,-98.5 456.5,-98.5"/>
<text xml:space="preserve" text-anchor="start" x="459.5" y="-104.7" font-family="Times,serif" font-size="14.00">M2</text>
<polygon fill="none" stroke="black" points="407,-76 407,-98.5 456.5,-98.5 456.5,-76 407,-76"/>
<text xml:space="preserve" text-anchor="start" x="410" y="-82.2" font-family="Times,serif" font-size="14.00">position</text>
<polygon fill="none" stroke="black" points="456.5,-76 456.5,-98.5 482,-98.5 482,-76 456.5,-76"/>
<text xml:space="preserve" text-anchor="start" x="465.88" y="-82.2" font-family="Times,serif" font-size="14.00">1</text>
<polygon fill="none" stroke="black" points="407,-53.5 407,-76 456.5,-76 456.5,-53.5 407,-53.5"/>
<text xml:space="preserve" text-anchor="start" x="410.75" y="-59.7" font-family="Times,serif" font-size="14.00">selector</text>
<polygon fill="none" stroke="black" points="456.5,-53.5 456.5,-76 482,-76 482,-53.5 456.5,-53.5"/>
<text xml:space="preserve" text-anchor="start" x="460.25" y="-59.7" font-family="Times,serif" font-size="14.00">&quot;a&quot;</text>
</g>
<!-- M2&#45;&gt;M2a -->
<g id="edge11" class="edge">
<title>M2&#45;&gt;M2a</title>
<path fill="none" stroke="black" d="M511.3,-196.04C501.39,-181.72 490.74,-166.33 480.93,-152.15"/>
<polygon fill="black" stroke="black" points="484.04,-150.5 475.48,-144.27 478.29,-154.48 484.04,-150.5"/>
<text xml:space="preserve" text-anchor="middle" x="504.88" y="-164.7" font-family="Times,serif" font-size="14.00">[1]</text>
</g>
<!-- M2b -->
<g id="node9" class="node">
<title>M2b</title>
<polygon fill="none" stroke="black" points="500.12,-121 500.12,-143.5 549.62,-143.5 549.62,-121 500.12,-121"/>
<text xml:space="preserve" text-anchor="start" x="505" y="-127.2" font-family="Times,serif" font-size="14.00">content</text>
<polygon fill="none" stroke="black" points="549.62,-121 549.62,-143.5 596.88,-143.5 596.88,-121 549.62,-121"/>
<text xml:space="preserve" text-anchor="start" x="552.62" y="-127.2" font-family="Times,serif" font-size="14.00">&quot;YYY&quot;</text>
<polygon fill="none" stroke="black" points="500.12,-98.5 500.12,-121 549.62,-121 549.62,-98.5 500.12,-98.5"/>
<text xml:space="preserve" text-anchor="start" x="508" y="-104.7" font-family="Times,serif" font-size="14.00">parent</text>
<polygon fill="none" stroke="black" points="549.62,-98.5 549.62,-121 596.88,-121 596.88,-98.5 549.62,-98.5"/>
<text xml:space="preserve" text-anchor="start" x="563.5" y="-104.7" font-family="Times,serif" font-size="14.00">M2</text>
<polygon fill="none" stroke="black" points="500.12,-76 500.12,-98.5 549.62,-98.5 549.62,-76 500.12,-76"/>
<text xml:space="preserve" text-anchor="start" x="503.12" y="-82.2" font-family="Times,serif" font-size="14.00">position</text>
<polygon fill="none" stroke="black" points="549.62,-76 549.62,-98.5 596.88,-98.5 596.88,-76 549.62,-76"/>
<text xml:space="preserve" text-anchor="start" x="569.88" y="-82.2" font-family="Times,serif" font-size="14.00">1</text>
<polygon fill="none" stroke="black" points="500.12,-53.5 500.12,-76 549.62,-76 549.62,-53.5 500.12,-53.5"/>
<text xml:space="preserve" text-anchor="start" x="503.88" y="-59.7" font-family="Times,serif" font-size="14.00">selector</text>
<polygon fill="none" stroke="black" points="549.62,-53.5 549.62,-76 596.88,-76 596.88,-53.5 549.62,-53.5"/>
<text xml:space="preserve" text-anchor="start" x="563.88" y="-59.7" font-family="Times,serif" font-size="14.00">&quot;b&quot;</text>
</g>
<!-- M2&#45;&gt;M2b -->
<g id="edge13" class="edge">
<title>M2&#45;&gt;M2b</title>
<path fill="none" stroke="black" d="M549.14,-196.04C549.05,-182.4 548.95,-167.79 548.86,-154.18"/>
<polygon fill="black" stroke="black" points="552.36,-154.51 548.8,-144.54 545.36,-154.56 552.36,-154.51"/>
<text xml:space="preserve" text-anchor="middle" x="556.88" y="-164.7" font-family="Times,serif" font-size="14.00">[2]</text>
</g>
<!-- M2c -->
<g id="node10" class="node">
<title>M2c</title>
<polygon fill="none" stroke="black" points="614.5,-121 614.5,-143.5 664,-143.5 664,-121 614.5,-121"/>
<text xml:space="preserve" text-anchor="start" x="619.38" y="-127.2" font-family="Times,serif" font-size="14.00">content</text>
<polygon fill="none" stroke="black" points="664,-121 664,-143.5 704.5,-143.5 704.5,-121 664,-121"/>
<text xml:space="preserve" text-anchor="start" x="667" y="-127.2" font-family="Times,serif" font-size="14.00">false()</text>
<polygon fill="none" stroke="black" points="614.5,-98.5 614.5,-121 664,-121 664,-98.5 614.5,-98.5"/>
<text xml:space="preserve" text-anchor="start" x="622.38" y="-104.7" font-family="Times,serif" font-size="14.00">parent</text>
<polygon fill="none" stroke="black" points="664,-98.5 664,-121 704.5,-121 704.5,-98.5 664,-98.5"/>
<text xml:space="preserve" text-anchor="start" x="674.5" y="-104.7" font-family="Times,serif" font-size="14.00">M2</text>
<polygon fill="none" stroke="black" points="614.5,-76 614.5,-98.5 664,-98.5 664,-76 614.5,-76"/>
<text xml:space="preserve" text-anchor="start" x="617.5" y="-82.2" font-family="Times,serif" font-size="14.00">position</text>
<polygon fill="none" stroke="black" points="664,-76 664,-98.5 704.5,-98.5 704.5,-76 664,-76"/>
<text xml:space="preserve" text-anchor="start" x="680.88" y="-82.2" font-family="Times,serif" font-size="14.00">1</text>
<polygon fill="none" stroke="black" points="614.5,-53.5 614.5,-76 664,-76 664,-53.5 614.5,-53.5"/>
<text xml:space="preserve" text-anchor="start" x="618.25" y="-59.7" font-family="Times,serif" font-size="14.00">selector</text>
<polygon fill="none" stroke="black" points="664,-53.5 664,-76 704.5,-76 704.5,-53.5 664,-53.5"/>
<text xml:space="preserve" text-anchor="start" x="675.25" y="-59.7" font-family="Times,serif" font-size="14.00">&quot;c&quot;</text>
</g>
<!-- M2&#45;&gt;M2c -->
<g id="edge15" class="edge">
<title>M2&#45;&gt;M2c</title>
<path fill="none" stroke="black" d="M589.52,-196.04C599.9,-181.72 611.06,-166.33 621.34,-152.15"/>
<polygon fill="black" stroke="black" points="624.03,-154.4 627.06,-144.25 618.36,-150.29 624.03,-154.4"/>
<text xml:space="preserve" text-anchor="middle" x="622.23" y="-164.7" font-family="Times,serif" font-size="14.00">[3]</text>
</g>
<!-- M2d -->
<g id="node11" class="node">
<title>M2d</title>
<polygon fill="none" stroke="black" points="722.25,-121 722.25,-143.5 771.75,-143.5 771.75,-121 722.25,-121"/>
<text xml:space="preserve" text-anchor="start" x="727.12" y="-127.2" font-family="Times,serif" font-size="14.00">content</text>
<polygon fill="none" stroke="black" points="771.75,-121 771.75,-143.5 798.75,-143.5 798.75,-121 771.75,-121"/>
<text xml:space="preserve" text-anchor="start" x="774.75" y="-127.2" font-family="Times,serif" font-size="14.00">null</text>
<polygon fill="none" stroke="black" points="722.25,-98.5 722.25,-121 771.75,-121 771.75,-98.5 722.25,-98.5"/>
<text xml:space="preserve" text-anchor="start" x="730.12" y="-104.7" font-family="Times,serif" font-size="14.00">parent</text>
<polygon fill="none" stroke="black" points="771.75,-98.5 771.75,-121 798.75,-121 798.75,-98.5 771.75,-98.5"/>
<text xml:space="preserve" text-anchor="start" x="775.5" y="-104.7" font-family="Times,serif" font-size="14.00">M2</text>
<polygon fill="none" stroke="black" points="722.25,-76 722.25,-98.5 771.75,-98.5 771.75,-76 722.25,-76"/>
<text xml:space="preserve" text-anchor="start" x="725.25" y="-82.2" font-family="Times,serif" font-size="14.00">position</text>
<polygon fill="none" stroke="black" points="771.75,-76 771.75,-98.5 798.75,-98.5 798.75,-76 771.75,-76"/>
<text xml:space="preserve" text-anchor="start" x="781.88" y="-82.2" font-family="Times,serif" font-size="14.00">1</text>
<polygon fill="none" stroke="black" points="722.25,-53.5 722.25,-76 771.75,-76 771.75,-53.5 722.25,-53.5"/>
<text xml:space="preserve" text-anchor="start" x="726" y="-59.7" font-family="Times,serif" font-size="14.00">selector</text>
<polygon fill="none" stroke="black" points="771.75,-53.5 771.75,-76 798.75,-76 798.75,-53.5 771.75,-53.5"/>
<text xml:space="preserve" text-anchor="start" x="775.88" y="-59.7" font-family="Times,serif" font-size="14.00">&quot;d&quot;</text>
</g>
<!-- M2&#45;&gt;M2d -->
<g id="edge17" class="edge">
<title>M2&#45;&gt;M2d</title>
<path fill="none" stroke="black" d="M639.53,-196.06C664.11,-179.94 690.34,-161.73 713.5,-143.5 713.59,-143.43 713.69,-143.35 713.78,-143.28"/>
<polygon fill="black" stroke="black" points="715.85,-146.1 721.34,-137.04 711.4,-140.71 715.85,-146.1"/>
<text xml:space="preserve" text-anchor="middle" x="695.75" y="-164.7" font-family="Times,serif" font-size="14.00">[4]</text>
</g>
<!-- M2a_ch -->
<g id="node16" class="node">
<title>M2a_ch</title>
<text xml:space="preserve" text-anchor="middle" x="444.5" y="-3.2" font-family="Times,serif" font-size="14.00">()</text>
</g>
<!-- M2a&#45;&gt;M2a_ch -->
<g id="edge12" class="edge">
<title>M2a&#45;&gt;M2a_ch</title>
<path fill="none" stroke="black" d="M444.5,-53.63C444.5,-44.44 444.5,-35.22 444.5,-27.59"/>
<polygon fill="black" stroke="black" points="448,-27.74 444.5,-17.74 441,-27.74 448,-27.74"/>
</g>
<!-- M2b_ch -->
<g id="node17" class="node">
<title>M2b_ch</title>
<text xml:space="preserve" text-anchor="middle" x="548.5" y="-3.2" font-family="Times,serif" font-size="14.00">()</text>
</g>
<!-- M2b&#45;&gt;M2b_ch -->
<g id="edge14" class="edge">
<title>M2b&#45;&gt;M2b_ch</title>
<path fill="none" stroke="black" d="M548.5,-53.63C548.5,-44.44 548.5,-35.22 548.5,-27.59"/>
<polygon fill="black" stroke="black" points="552,-27.74 548.5,-17.74 545,-27.74 552,-27.74"/>
</g>
<!-- M2c_ch -->
<g id="node18" class="node">
<title>M2c_ch</title>
<text xml:space="preserve" text-anchor="middle" x="659.5" y="-3.2" font-family="Times,serif" font-size="14.00">()</text>
</g>
<!-- M2c&#45;&gt;M2c_ch -->
<g id="edge16" class="edge">
<title>M2c&#45;&gt;M2c_ch</title>
<path fill="none" stroke="black" d="M659.5,-53.63C659.5,-44.44 659.5,-35.22 659.5,-27.59"/>
<polygon fill="black" stroke="black" points="663,-27.74 659.5,-17.74 656,-27.74 663,-27.74"/>
</g>
<!-- M2d_ch -->
<g id="node19" class="node">
<title>M2d_ch</title>
<text xml:space="preserve" text-anchor="middle" x="760.5" y="-3.2" font-family="Times,serif" font-size="14.00">()</text>
</g>
<!-- M2d&#45;&gt;M2d_ch -->
<g id="edge18" class="edge">
<title>M2d&#45;&gt;M2d_ch</title>
<path fill="none" stroke="black" d="M760.5,-53.63C760.5,-44.44 760.5,-35.22 760.5,-27.59"/>
<polygon fill="black" stroke="black" points="764,-27.74 760.5,-17.74 757,-27.74 764,-27.74"/>
</g>
</g>
</svg>
