<?xml version="1.0" encoding="UTF-8" standalone="no"?>
<!DOCTYPE svg PUBLIC "-//W3C//DTD SVG 1.1//EN"
 "http://www.w3.org/Graphics/SVG/1.1/DTD/svg11.dtd">
<!-- Generated by graphviz version 14.0.0 (20250921.2048)
 -->
<!-- Title: jnodes Pages: 1 -->
<svg width="644pt" height="513pt"
 viewBox="0.00 0.00 644.00 513.00" xmlns="http://www.w3.org/2000/svg" xmlns:xlink="http://www.w3.org/1999/xlink">
<g id="graph0" class="graph" transform="scale(1 1) rotate(0) translate(4 509)">
<title>jnodes</title>
<polygon fill="white" stroke="none" points="-4,4 -4,-509 639.75,-509 639.75,4 -4,4"/>
<!-- R -->
<g id="node1" class="node">
<title>R</title>
<polygon fill="none" stroke="black" points="196.5,-482.5 196.5,-505 363,-505 363,-482.5 196.5,-482.5"/>
<text xml:space="preserve" text-anchor="start" x="275.25" y="-488.7" font-family="Times,serif" font-size="14.00">R</text>
<polygon fill="none" stroke="black" points="196.5,-361 196.5,-482.5 242.25,-482.5 242.25,-361 196.5,-361"/>
<text xml:space="preserve" text-anchor="start" x="199.5" y="-416.7" font-family="Times,serif" font-size="14.00">content</text>
<polygon fill="none" stroke="black" points="242.25,-361 242.25,-482.5 363,-482.5 363,-361 242.25,-361"/>
<text xml:space="preserve" text-anchor="start" x="245.25" y="-466.2" font-family="Times,serif" font-size="14.00">{</text>
<text xml:space="preserve" text-anchor="start" x="245.25" y="-449.7" font-family="Times,serif" font-size="14.00"> &#160;&#160;&quot;a&quot;: 1,</text>
<text xml:space="preserve" text-anchor="start" x="245.25" y="-433.2" font-family="Times,serif" font-size="14.00"> &#160;&#160;&quot;b&quot;: (&quot;x&quot;, &quot;y&quot;),</text>
<text xml:space="preserve" text-anchor="start" x="245.25" y="-416.7" font-family="Times,serif" font-size="14.00"> &#160;&#160;&quot;c&quot;: [(10, 20), 30],</text>
<text xml:space="preserve" text-anchor="start" x="245.25" y="-400.2" font-family="Times,serif" font-size="14.00"> &#160;&#160;&quot;d&quot;: (10, [20, 30]),</text>
<text xml:space="preserve" text-anchor="start" x="245.25" y="-383.7" font-family="Times,serif" font-size="14.00"> &#160;&#160;&quot;e&quot;: (&lt;p/&gt;, &lt;q/&gt;)</text>
<text xml:space="preserve" text-anchor="start" x="245.25" y="-367.2" font-family="Times,serif" font-size="14.00">}</text>
</g>
<!-- J1 -->
<g id="node2" class="node">
<title>J1</title>
<polygon fill="none" stroke="black" points="0,-286 0,-308.5 73.5,-308.5 73.5,-286 0,-286"/>
<text xml:space="preserve" text-anchor="start" x="30.75" y="-292.2" font-family="Times,serif" font-size="14.00">J1</text>
<polygon fill="none" stroke="black" points="0,-263.5 0,-286 49.5,-286 49.5,-263.5 0,-263.5"/>
<text xml:space="preserve" text-anchor="start" x="4.88" y="-269.7" font-family="Times,serif" font-size="14.00">content</text>
<polygon fill="none" stroke="black" points="49.5,-263.5 49.5,-286 73.5,-286 73.5,-263.5 49.5,-263.5"/>
<text xml:space="preserve" text-anchor="start" x="58.12" y="-269.7" font-family="Times,serif" font-size="14.00">1</text>
<polygon fill="none" stroke="black" points="0,-241 0,-263.5 49.5,-263.5 49.5,-241 0,-241"/>
<text xml:space="preserve" text-anchor="start" x="7.88" y="-247.2" font-family="Times,serif" font-size="14.00">parent</text>
<polygon fill="none" stroke="black" points="49.5,-241 49.5,-263.5 73.5,-263.5 73.5,-241 49.5,-241"/>
<text xml:space="preserve" text-anchor="start" x="57" y="-247.2" font-family="Times,serif" font-size="14.00">R</text>
<polygon fill="none" stroke="black" points="0,-218.5 0,-241 49.5,-241 49.5,-218.5 0,-218.5"/>
<text xml:space="preserve" text-anchor="start" x="3" y="-224.7" font-family="Times,serif" font-size="14.00">position</text>
<polygon fill="none" stroke="black" points="49.5,-218.5 49.5,-241 73.5,-241 73.5,-218.5 49.5,-218.5"/>
<text xml:space="preserve" text-anchor="start" x="58.12" y="-224.7" font-family="Times,serif" font-size="14.00">1</text>
<polygon fill="none" stroke="black" points="0,-196 0,-218.5 49.5,-218.5 49.5,-196 0,-196"/>
<text xml:space="preserve" text-anchor="start" x="3.75" y="-202.2" font-family="Times,serif" font-size="14.00">selector</text>
<polygon fill="none" stroke="black" points="49.5,-196 49.5,-218.5 73.5,-218.5 73.5,-196 49.5,-196"/>
<text xml:space="preserve" text-anchor="start" x="52.5" y="-202.2" font-family="Times,serif" font-size="14.00">&quot;a&quot;</text>
</g>
<!-- R&#45;&gt;J1 -->
<g id="edge1" class="edge">
<title>R&#45;&gt;J1</title>
<path fill="none" stroke="black" d="M196.65,-387.83C159.88,-366.34 117.25,-338.65 82.75,-308.5 82.35,-308.15 81.95,-307.8 81.55,-307.44"/>
<polygon fill="black" stroke="black" points="84.05,-304.99 74.41,-300.58 79.2,-310.04 84.05,-304.99"/>
<text xml:space="preserve" text-anchor="middle" x="130.49" y="-329.7" font-family="Times,serif" font-size="14.00">[1]</text>
</g>
<!-- J2 -->
<g id="node4" class="node">
<title>J2</title>
<polygon fill="none" stroke="black" points="91.88,-286 91.88,-308.5 197.62,-308.5 197.62,-286 91.88,-286"/>
<text xml:space="preserve" text-anchor="start" x="138.75" y="-292.2" font-family="Times,serif" font-size="14.00">J2</text>
<polygon fill="none" stroke="black" points="91.88,-263.5 91.88,-286 141.38,-286 141.38,-263.5 91.88,-263.5"/>
<text xml:space="preserve" text-anchor="start" x="96.75" y="-269.7" font-family="Times,serif" font-size="14.00">content</text>
<polygon fill="none" stroke="black" points="141.38,-263.5 141.38,-286 197.62,-286 197.62,-263.5 141.38,-263.5"/>
<text xml:space="preserve" text-anchor="start" x="144.38" y="-269.7" font-family="Times,serif" font-size="14.00">(&quot;x&quot;,&quot;y&quot;)</text>
<polygon fill="none" stroke="black" points="91.88,-241 91.88,-263.5 141.38,-263.5 141.38,-241 91.88,-241"/>
<text xml:space="preserve" text-anchor="start" x="99.75" y="-247.2" font-family="Times,serif" font-size="14.00">parent</text>
<polygon fill="none" stroke="black" points="141.38,-241 141.38,-263.5 197.62,-263.5 197.62,-241 141.38,-241"/>
<text xml:space="preserve" text-anchor="start" x="165" y="-247.2" font-family="Times,serif" font-size="14.00">R</text>
<polygon fill="none" stroke="black" points="91.88,-218.5 91.88,-241 141.38,-241 141.38,-218.5 91.88,-218.5"/>
<text xml:space="preserve" text-anchor="start" x="94.88" y="-224.7" font-family="Times,serif" font-size="14.00">position</text>
<polygon fill="none" stroke="black" points="141.38,-218.5 141.38,-241 197.62,-241 197.62,-218.5 141.38,-218.5"/>
<text xml:space="preserve" text-anchor="start" x="166.12" y="-224.7" font-family="Times,serif" font-size="14.00">1</text>
<polygon fill="none" stroke="black" points="91.88,-196 91.88,-218.5 141.38,-218.5 141.38,-196 91.88,-196"/>
<text xml:space="preserve" text-anchor="start" x="95.62" y="-202.2" font-family="Times,serif" font-size="14.00">selector</text>
<polygon fill="none" stroke="black" points="141.38,-196 141.38,-218.5 197.62,-218.5 197.62,-196 141.38,-196"/>
<text xml:space="preserve" text-anchor="start" x="160.12" y="-202.2" font-family="Times,serif" font-size="14.00">&quot;b&quot;</text>
</g>
<!-- R&#45;&gt;J2 -->
<g id="edge3" class="edge">
<title>R&#45;&gt;J2</title>
<path fill="none" stroke="black" d="M226.2,-361.1C215.33,-346.7 203.96,-331.64 193.27,-317.5"/>
<polygon fill="black" stroke="black" points="196.1,-315.43 187.28,-309.56 190.51,-319.65 196.1,-315.43"/>
<text xml:space="preserve" text-anchor="middle" x="220.12" y="-329.7" font-family="Times,serif" font-size="14.00">[2]</text>
</g>
<!-- J3 -->
<g id="node6" class="node">
<title>J3</title>
<polygon fill="none" stroke="black" points="215.25,-286 215.25,-308.5 344.25,-308.5 344.25,-286 215.25,-286"/>
<text xml:space="preserve" text-anchor="start" x="273.75" y="-292.2" font-family="Times,serif" font-size="14.00">J3</text>
<polygon fill="none" stroke="black" points="215.25,-263.5 215.25,-286 264.75,-286 264.75,-263.5 215.25,-263.5"/>
<text xml:space="preserve" text-anchor="start" x="220.12" y="-269.7" font-family="Times,serif" font-size="14.00">content</text>
<polygon fill="none" stroke="black" points="264.75,-263.5 264.75,-286 344.25,-286 344.25,-263.5 264.75,-263.5"/>
<text xml:space="preserve" text-anchor="start" x="267.75" y="-269.7" font-family="Times,serif" font-size="14.00">[(10, 20), 30]</text>
<polygon fill="none" stroke="black" points="215.25,-241 215.25,-263.5 264.75,-263.5 264.75,-241 215.25,-241"/>
<text xml:space="preserve" text-anchor="start" x="223.12" y="-247.2" font-family="Times,serif" font-size="14.00">parent</text>
<polygon fill="none" stroke="black" points="264.75,-241 264.75,-263.5 344.25,-263.5 344.25,-241 264.75,-241"/>
<text xml:space="preserve" text-anchor="start" x="300" y="-247.2" font-family="Times,serif" font-size="14.00">R</text>
<polygon fill="none" stroke="black" points="215.25,-218.5 215.25,-241 264.75,-241 264.75,-218.5 215.25,-218.5"/>
<text xml:space="preserve" text-anchor="start" x="218.25" y="-224.7" font-family="Times,serif" font-size="14.00">position</text>
<polygon fill="none" stroke="black" points="264.75,-218.5 264.75,-241 344.25,-241 344.25,-218.5 264.75,-218.5"/>
<text xml:space="preserve" text-anchor="start" x="301.12" y="-224.7" font-family="Times,serif" font-size="14.00">1</text>
<polygon fill="none" stroke="black" points="215.25,-196 215.25,-218.5 264.75,-218.5 264.75,-196 215.25,-196"/>
<text xml:space="preserve" text-anchor="start" x="219" y="-202.2" font-family="Times,serif" font-size="14.00">selector</text>
<polygon fill="none" stroke="black" points="264.75,-196 264.75,-218.5 344.25,-218.5 344.25,-196 264.75,-196"/>
<text xml:space="preserve" text-anchor="start" x="295.5" y="-202.2" font-family="Times,serif" font-size="14.00">&quot;c&quot;</text>
</g>
<!-- R&#45;&gt;J3 -->
<g id="edge5" class="edge">
<title>R&#45;&gt;J3</title>
<path fill="none" stroke="black" d="M279.75,-361.1C279.75,-347.39 279.75,-333.08 279.75,-319.52"/>
<polygon fill="black" stroke="black" points="283.25,-319.86 279.75,-309.86 276.25,-319.86 283.25,-319.86"/>
<text xml:space="preserve" text-anchor="middle" x="287.62" y="-329.7" font-family="Times,serif" font-size="14.00">[3]</text>
</g>
<!-- J4 -->
<g id="node11" class="node">
<title>J4</title>
<polygon fill="none" stroke="black" points="362.25,-286 362.25,-308.5 491.25,-308.5 491.25,-286 362.25,-286"/>
<text xml:space="preserve" text-anchor="start" x="420.75" y="-292.2" font-family="Times,serif" font-size="14.00">J4</text>
<polygon fill="none" stroke="black" points="362.25,-263.5 362.25,-286 411.75,-286 411.75,-263.5 362.25,-263.5"/>
<text xml:space="preserve" text-anchor="start" x="367.12" y="-269.7" font-family="Times,serif" font-size="14.00">content</text>
<polygon fill="none" stroke="black" points="411.75,-263.5 411.75,-286 491.25,-286 491.25,-263.5 411.75,-263.5"/>
<text xml:space="preserve" text-anchor="start" x="414.75" y="-269.7" font-family="Times,serif" font-size="14.00">(10, [20, 30])</text>
<polygon fill="none" stroke="black" points="362.25,-241 362.25,-263.5 411.75,-263.5 411.75,-241 362.25,-241"/>
<text xml:space="preserve" text-anchor="start" x="370.12" y="-247.2" font-family="Times,serif" font-size="14.00">parent</text>
<polygon fill="none" stroke="black" points="411.75,-241 411.75,-263.5 491.25,-263.5 491.25,-241 411.75,-241"/>
<text xml:space="preserve" text-anchor="start" x="447" y="-247.2" font-family="Times,serif" font-size="14.00">R</text>
<polygon fill="none" stroke="black" points="362.25,-218.5 362.25,-241 411.75,-241 411.75,-218.5 362.25,-218.5"/>
<text xml:space="preserve" text-anchor="start" x="365.25" y="-224.7" font-family="Times,serif" font-size="14.00">position</text>
<polygon fill="none" stroke="black" points="411.75,-218.5 411.75,-241 491.25,-241 491.25,-218.5 411.75,-218.5"/>
<text xml:space="preserve" text-anchor="start" x="448.12" y="-224.7" font-family="Times,serif" font-size="14.00">1</text>
<polygon fill="none" stroke="black" points="362.25,-196 362.25,-218.5 411.75,-218.5 411.75,-196 362.25,-196"/>
<text xml:space="preserve" text-anchor="start" x="366" y="-202.2" font-family="Times,serif" font-size="14.00">selector</text>
<polygon fill="none" stroke="black" points="411.75,-196 411.75,-218.5 491.25,-218.5 491.25,-196 411.75,-196"/>
<text xml:space="preserve" text-anchor="start" x="442.12" y="-202.2" font-family="Times,serif" font-size="14.00">&quot;d&quot;</text>
</g>
<!-- R&#45;&gt;J4 -->
<g id="edge10" class="edge">
<title>R&#45;&gt;J4</title>
<path fill="none" stroke="black" d="M338.06,-361.1C350.01,-346.57 362.52,-331.36 374.25,-317.09"/>
<polygon fill="black" stroke="black" points="376.83,-319.46 380.48,-309.52 371.42,-315.02 376.83,-319.46"/>
<text xml:space="preserve" text-anchor="middle" x="374.29" y="-329.7" font-family="Times,serif" font-size="14.00">[4]</text>
</g>
<!-- J5 -->
<g id="node16" class="node">
<title>J5</title>
<polygon fill="none" stroke="black" points="509.75,-286 509.75,-308.5 635.75,-308.5 635.75,-286 509.75,-286"/>
<text xml:space="preserve" text-anchor="start" x="566.75" y="-292.2" font-family="Times,serif" font-size="14.00">J5</text>
<polygon fill="none" stroke="black" points="509.75,-263.5 509.75,-286 559.25,-286 559.25,-263.5 509.75,-263.5"/>
<text xml:space="preserve" text-anchor="start" x="514.62" y="-269.7" font-family="Times,serif" font-size="14.00">content</text>
<polygon fill="none" stroke="black" points="559.25,-263.5 559.25,-286 635.75,-286 635.75,-263.5 559.25,-263.5"/>
<text xml:space="preserve" text-anchor="start" x="562.25" y="-269.7" font-family="Times,serif" font-size="14.00">(&lt;p/&gt;, &lt;q/&gt;)</text>
<polygon fill="none" stroke="black" points="509.75,-241 509.75,-263.5 559.25,-263.5 559.25,-241 509.75,-241"/>
<text xml:space="preserve" text-anchor="start" x="517.62" y="-247.2" font-family="Times,serif" font-size="14.00">parent</text>
<polygon fill="none" stroke="black" points="559.25,-241 559.25,-263.5 635.75,-263.5 635.75,-241 559.25,-241"/>
<text xml:space="preserve" text-anchor="start" x="593" y="-247.2" font-family="Times,serif" font-size="14.00">R</text>
<polygon fill="none" stroke="black" points="509.75,-218.5 509.75,-241 559.25,-241 559.25,-218.5 509.75,-218.5"/>
<text xml:space="preserve" text-anchor="start" x="512.75" y="-224.7" font-family="Times,serif" font-size="14.00">position</text>
<polygon fill="none" stroke="black" points="559.25,-218.5 559.25,-241 635.75,-241 635.75,-218.5 559.25,-218.5"/>
<text xml:space="preserve" text-anchor="start" x="594.12" y="-224.7" font-family="Times,serif" font-size="14.00">1</text>
<polygon fill="none" stroke="black" points="509.75,-196 509.75,-218.5 559.25,-218.5 559.25,-196 509.75,-196"/>
<text xml:space="preserve" text-anchor="start" x="513.5" y="-202.2" font-family="Times,serif" font-size="14.00">selector</text>
<polygon fill="none" stroke="black" points="559.25,-196 559.25,-218.5 635.75,-218.5 635.75,-196 559.25,-196"/>
<text xml:space="preserve" text-anchor="start" x="588.5" y="-202.2" font-family="Times,serif" font-size="14.00">&quot;e&quot;</text>
</g>
<!-- R&#45;&gt;J5 -->
<g id="edge15" class="edge">
<title>R&#45;&gt;J5</title>
<path fill="none" stroke="black" d="M362.77,-389.3C402.48,-368.01 450.5,-341 500.55,-308.44"/>
<polygon fill="black" stroke="black" points="502.21,-311.53 508.65,-303.12 498.37,-305.68 502.21,-311.53"/>
<text xml:space="preserve" text-anchor="middle" x="479.6" y="-329.7" font-family="Times,serif" font-size="14.00">[5]</text>
</g>
<!-- J1_ch -->
<g id="node3" class="node">
<title>J1_ch</title>
<text xml:space="preserve" text-anchor="middle" x="36.75" y="-93.45" font-family="Times,serif" font-size="14.00">()</text>
</g>
<!-- J1&#45;&gt;J1_ch -->
<g id="edge2" class="edge">
<title>J1&#45;&gt;J1_ch</title>
<path fill="none" stroke="black" d="M36.75,-196.04C36.75,-168.63 36.75,-137.32 36.75,-117.98"/>
<polygon fill="black" stroke="black" points="40.25,-117.98 36.75,-107.98 33.25,-117.98 40.25,-117.98"/>
</g>
<!-- J2_ch -->
<g id="node5" class="node">
<title>J2_ch</title>
<text xml:space="preserve" text-anchor="middle" x="144.75" y="-93.45" font-family="Times,serif" font-size="14.00">()</text>
</g>
<!-- J2&#45;&gt;J2_ch -->
<g id="edge4" class="edge">
<title>J2&#45;&gt;J2_ch</title>
<path fill="none" stroke="black" d="M144.75,-196.04C144.75,-168.63 144.75,-137.32 144.75,-117.98"/>
<polygon fill="black" stroke="black" points="148.25,-117.98 144.75,-107.98 141.25,-117.98 148.25,-117.98"/>
</g>
<!-- J3_1 -->
<g id="node7" class="node">
<title>J3_1</title>
<polygon fill="none" stroke="black" points="170.25,-121 170.25,-143.5 219.75,-143.5 219.75,-121 170.25,-121"/>
<text xml:space="preserve" text-anchor="start" x="175.12" y="-127.2" font-family="Times,serif" font-size="14.00">content</text>
<polygon fill="none" stroke="black" points="219.75,-121 219.75,-143.5 269.25,-143.5 269.25,-121 219.75,-121"/>
<text xml:space="preserve" text-anchor="start" x="222.75" y="-127.2" font-family="Times,serif" font-size="14.00">(10, 20)</text>
<polygon fill="none" stroke="black" points="170.25,-98.5 170.25,-121 219.75,-121 219.75,-98.5 170.25,-98.5"/>
<text xml:space="preserve" text-anchor="start" x="178.12" y="-104.7" font-family="Times,serif" font-size="14.00">parent</text>
<polygon fill="none" stroke="black" points="219.75,-98.5 219.75,-121 269.25,-121 269.25,-98.5 219.75,-98.5"/>
<text xml:space="preserve" text-anchor="start" x="238.5" y="-104.7" font-family="Times,serif" font-size="14.00">J3</text>
<polygon fill="none" stroke="black" points="170.25,-76 170.25,-98.5 219.75,-98.5 219.75,-76 170.25,-76"/>
<text xml:space="preserve" text-anchor="start" x="173.25" y="-82.2" font-family="Times,serif" font-size="14.00">position</text>
<polygon fill="none" stroke="black" points="219.75,-76 219.75,-98.5 269.25,-98.5 269.25,-76 219.75,-76"/>
<text xml:space="preserve" text-anchor="start" x="241.12" y="-82.2" font-family="Times,serif" font-size="14.00">1</text>
<polygon fill="none" stroke="black" points="170.25,-53.5 170.25,-76 219.75,-76 219.75,-53.5 170.25,-53.5"/>
<text xml:space="preserve" text-anchor="start" x="174" y="-59.7" font-family="Times,serif" font-size="14.00">selector</text>
<polygon fill="none" stroke="black" points="219.75,-53.5 219.75,-76 269.25,-76 269.25,-53.5 219.75,-53.5"/>
<text xml:space="preserve" text-anchor="start" x="241.12" y="-59.7" font-family="Times,serif" font-size="14.00">1</text>
</g>
<!-- J3&#45;&gt;J3_1 -->
<g id="edge6" class="edge">
<title>J3&#45;&gt;J3_1</title>
<path fill="none" stroke="black" d="M257.92,-196.04C252.42,-182.12 246.52,-167.21 241.05,-153.37"/>
<polygon fill="black" stroke="black" points="244.45,-152.44 237.51,-144.43 237.94,-155.02 244.45,-152.44"/>
<text xml:space="preserve" text-anchor="middle" x="257.62" y="-164.7" font-family="Times,serif" font-size="14.00">[1]</text>
</g>
<!-- J3_2 -->
<g id="node9" class="node">
<title>J3_2</title>
<polygon fill="none" stroke="black" points="287.25,-121 287.25,-143.5 336.75,-143.5 336.75,-121 287.25,-121"/>
<text xml:space="preserve" text-anchor="start" x="292.12" y="-127.2" font-family="Times,serif" font-size="14.00">content</text>
<polygon fill="none" stroke="black" points="336.75,-121 336.75,-143.5 356.25,-143.5 356.25,-121 336.75,-121"/>
<text xml:space="preserve" text-anchor="start" x="339.75" y="-127.2" font-family="Times,serif" font-size="14.00">30</text>
<polygon fill="none" stroke="black" points="287.25,-98.5 287.25,-121 336.75,-121 336.75,-98.5 287.25,-98.5"/>
<text xml:space="preserve" text-anchor="start" x="295.12" y="-104.7" font-family="Times,serif" font-size="14.00">parent</text>
<polygon fill="none" stroke="black" points="336.75,-98.5 336.75,-121 356.25,-121 356.25,-98.5 336.75,-98.5"/>
<text xml:space="preserve" text-anchor="start" x="340.5" y="-104.7" font-family="Times,serif" font-size="14.00">J3</text>
<polygon fill="none" stroke="black" points="287.25,-76 287.25,-98.5 336.75,-98.5 336.75,-76 287.25,-76"/>
<text xml:space="preserve" text-anchor="start" x="290.25" y="-82.2" font-family="Times,serif" font-size="14.00">position</text>
<polygon fill="none" stroke="black" points="336.75,-76 336.75,-98.5 356.25,-98.5 356.25,-76 336.75,-76"/>
<text xml:space="preserve" text-anchor="start" x="343.12" y="-82.2" font-family="Times,serif" font-size="14.00">1</text>
<polygon fill="none" stroke="black" points="287.25,-53.5 287.25,-76 336.75,-76 336.75,-53.5 287.25,-53.5"/>
<text xml:space="preserve" text-anchor="start" x="291" y="-59.7" font-family="Times,serif" font-size="14.00">selector</text>
<polygon fill="none" stroke="black" points="336.75,-53.5 336.75,-76 356.25,-76 356.25,-53.5 336.75,-53.5"/>
<text xml:space="preserve" text-anchor="start" x="343.12" y="-59.7" font-family="Times,serif" font-size="14.00">2</text>
</g>
<!-- J3&#45;&gt;J3_2 -->
<g id="edge7" class="edge">
<title>J3&#45;&gt;J3_2</title>
<path fill="none" stroke="black" d="M295.03,-196.04C298.84,-182.26 302.93,-167.5 306.73,-153.77"/>
<polygon fill="black" stroke="black" points="310.01,-155.05 309.3,-144.48 303.26,-153.18 310.01,-155.05"/>
<text xml:space="preserve" text-anchor="middle" x="312.39" y="-164.7" font-family="Times,serif" font-size="14.00">[2]</text>
</g>
<!-- J3_1_ch -->
<g id="node8" class="node">
<title>J3_1_ch</title>
<text xml:space="preserve" text-anchor="middle" x="219.75" y="-3.2" font-family="Times,serif" font-size="14.00">()</text>
</g>
<!-- J3_1&#45;&gt;J3_1_ch -->
<g id="edge8" class="edge">
<title>J3_1&#45;&gt;J3_1_ch</title>
<path fill="none" stroke="black" d="M219.75,-53.63C219.75,-44.44 219.75,-35.22 219.75,-27.59"/>
<polygon fill="black" stroke="black" points="223.25,-27.74 219.75,-17.74 216.25,-27.74 223.25,-27.74"/>
</g>
<!-- J3_2_ch -->
<g id="node10" class="node">
<title>J3_2_ch</title>
<text xml:space="preserve" text-anchor="middle" x="321.75" y="-3.2" font-family="Times,serif" font-size="14.00">()</text>
</g>
<!-- J3_2&#45;&gt;J3_2_ch -->
<g id="edge9" class="edge">
<title>J3_2&#45;&gt;J3_2_ch</title>
<path fill="none" stroke="black" d="M321.75,-53.63C321.75,-44.44 321.75,-35.22 321.75,-27.59"/>
<polygon fill="black" stroke="black" points="325.25,-27.74 321.75,-17.74 318.25,-27.74 325.25,-27.74"/>
</g>
<!-- J4_1 -->
<g id="node12" class="node">
<title>J4_1</title>
<polygon fill="none" stroke="black" points="379.25,-121 379.25,-143.5 428.75,-143.5 428.75,-121 379.25,-121"/>
<text xml:space="preserve" text-anchor="start" x="384.12" y="-127.2" font-family="Times,serif" font-size="14.00">content</text>
<polygon fill="none" stroke="black" points="428.75,-121 428.75,-143.5 448.25,-143.5 448.25,-121 428.75,-121"/>
<text xml:space="preserve" text-anchor="start" x="431.75" y="-127.2" font-family="Times,serif" font-size="14.00">20</text>
<polygon fill="none" stroke="black" points="379.25,-98.5 379.25,-121 428.75,-121 428.75,-98.5 379.25,-98.5"/>
<text xml:space="preserve" text-anchor="start" x="387.12" y="-104.7" font-family="Times,serif" font-size="14.00">parent</text>
<polygon fill="none" stroke="black" points="428.75,-98.5 428.75,-121 448.25,-121 448.25,-98.5 428.75,-98.5"/>
<text xml:space="preserve" text-anchor="start" x="432.5" y="-104.7" font-family="Times,serif" font-size="14.00">J4</text>
<polygon fill="none" stroke="black" points="379.25,-76 379.25,-98.5 428.75,-98.5 428.75,-76 379.25,-76"/>
<text xml:space="preserve" text-anchor="start" x="382.25" y="-82.2" font-family="Times,serif" font-size="14.00">position</text>
<polygon fill="none" stroke="black" points="428.75,-76 428.75,-98.5 448.25,-98.5 448.25,-76 428.75,-76"/>
<text xml:space="preserve" text-anchor="start" x="435.12" y="-82.2" font-family="Times,serif" font-size="14.00">2</text>
<polygon fill="none" stroke="black" points="379.25,-53.5 379.25,-76 428.75,-76 428.75,-53.5 379.25,-53.5"/>
<text xml:space="preserve" text-anchor="start" x="383" y="-59.7" font-family="Times,serif" font-size="14.00">selector</text>
<polygon fill="none" stroke="black" points="428.75,-53.5 428.75,-76 448.25,-76 448.25,-53.5 428.75,-53.5"/>
<text xml:space="preserve" text-anchor="start" x="435.12" y="-59.7" font-family="Times,serif" font-size="14.00">1</text>
</g>
<!-- J4&#45;&gt;J4_1 -->
<g id="edge11" class="edge">
<title>J4&#45;&gt;J4_1</title>
<path fill="none" stroke="black" d="M422.02,-196.04C420.85,-182.4 419.6,-167.79 418.43,-154.18"/>
<polygon fill="black" stroke="black" points="421.95,-154.19 417.61,-144.53 414.97,-154.79 421.95,-154.19"/>
<text xml:space="preserve" text-anchor="middle" x="428.12" y="-164.7" font-family="Times,serif" font-size="14.00">[1]</text>
</g>
<!-- J4_2 -->
<g id="node14" class="node">
<title>J4_2</title>
<polygon fill="none" stroke="black" points="466.25,-121 466.25,-143.5 515.75,-143.5 515.75,-121 466.25,-121"/>
<text xml:space="preserve" text-anchor="start" x="471.12" y="-127.2" font-family="Times,serif" font-size="14.00">content</text>
<polygon fill="none" stroke="black" points="515.75,-121 515.75,-143.5 535.25,-143.5 535.25,-121 515.75,-121"/>
<text xml:space="preserve" text-anchor="start" x="518.75" y="-127.2" font-family="Times,serif" font-size="14.00">30</text>
<polygon fill="none" stroke="black" points="466.25,-98.5 466.25,-121 515.75,-121 515.75,-98.5 466.25,-98.5"/>
<text xml:space="preserve" text-anchor="start" x="474.12" y="-104.7" font-family="Times,serif" font-size="14.00">parent</text>
<polygon fill="none" stroke="black" points="515.75,-98.5 515.75,-121 535.25,-121 535.25,-98.5 515.75,-98.5"/>
<text xml:space="preserve" text-anchor="start" x="519.5" y="-104.7" font-family="Times,serif" font-size="14.00">J4</text>
<polygon fill="none" stroke="black" points="466.25,-76 466.25,-98.5 515.75,-98.5 515.75,-76 466.25,-76"/>
<text xml:space="preserve" text-anchor="start" x="469.25" y="-82.2" font-family="Times,serif" font-size="14.00">position</text>
<polygon fill="none" stroke="black" points="515.75,-76 515.75,-98.5 535.25,-98.5 535.25,-76 515.75,-76"/>
<text xml:space="preserve" text-anchor="start" x="522.12" y="-82.2" font-family="Times,serif" font-size="14.00">2</text>
<polygon fill="none" stroke="black" points="466.25,-53.5 466.25,-76 515.75,-76 515.75,-53.5 466.25,-53.5"/>
<text xml:space="preserve" text-anchor="start" x="470" y="-59.7" font-family="Times,serif" font-size="14.00">selector</text>
<polygon fill="none" stroke="black" points="515.75,-53.5 515.75,-76 535.25,-76 535.25,-53.5 515.75,-53.5"/>
<text xml:space="preserve" text-anchor="start" x="522.12" y="-59.7" font-family="Times,serif" font-size="14.00">2</text>
</g>
<!-- J4&#45;&gt;J4_2 -->
<g id="edge12" class="edge">
<title>J4&#45;&gt;J4_2</title>
<path fill="none" stroke="black" d="M453.68,-196.04C460.46,-182.12 467.73,-167.21 474.48,-153.37"/>
<polygon fill="black" stroke="black" points="477.63,-154.9 478.86,-144.38 471.33,-151.84 477.63,-154.9"/>
<text xml:space="preserve" text-anchor="middle" x="478.25" y="-164.7" font-family="Times,serif" font-size="14.00">[2]</text>
</g>
<!-- J4_1_ch -->
<g id="node13" class="node">
<title>J4_1_ch</title>
<text xml:space="preserve" text-anchor="middle" x="413.75" y="-3.2" font-family="Times,serif" font-size="14.00">()</text>
</g>
<!-- J4_1&#45;&gt;J4_1_ch -->
<g id="edge13" class="edge">
<title>J4_1&#45;&gt;J4_1_ch</title>
<path fill="none" stroke="black" d="M413.75,-53.63C413.75,-44.44 413.75,-35.22 413.75,-27.59"/>
<polygon fill="black" stroke="black" points="417.25,-27.74 413.75,-17.74 410.25,-27.74 417.25,-27.74"/>
</g>
<!-- J4_2_ch -->
<g id="node15" class="node">
<title>J4_2_ch</title>
<text xml:space="preserve" text-anchor="middle" x="500.75" y="-3.2" font-family="Times,serif" font-size="14.00">()</text>
</g>
<!-- J4_2&#45;&gt;J4_2_ch -->
<g id="edge14" class="edge">
<title>J4_2&#45;&gt;J4_2_ch</title>
<path fill="none" stroke="black" d="M500.75,-53.63C500.75,-44.44 500.75,-35.22 500.75,-27.59"/>
<polygon fill="black" stroke="black" points="504.25,-27.74 500.75,-17.74 497.25,-27.74 504.25,-27.74"/>
</g>
<!-- J5_ch -->
<g id="node17" class="node">
<title>J5_ch</title>
<text xml:space="preserve" text-anchor="middle" x="572.75" y="-93.45" font-family="Times,serif" font-size="14.00">()</text>
</g>
<!-- J5&#45;&gt;J5_ch -->
<g id="edge16" class="edge">
<title>J5&#45;&gt;J5_ch</title>
<path fill="none" stroke="black" d="M572.75,-196.04C572.75,-168.63 572.75,-137.32 572.75,-117.98"/>
<polygon fill="black" stroke="black" points="576.25,-117.98 572.75,-107.98 569.25,-117.98 576.25,-117.98"/>
</g>
</g>
</svg>
