<?xml version="1.0" encoding="UTF-8" standalone="no"?>
<!DOCTYPE svg PUBLIC "-//W3C//DTD SVG 1.1//EN"
 "http://www.w3.org/Graphics/SVG/1.1/DTD/svg11.dtd">
<!-- Generated by graphviz version 14.0.0 (20250921.2048)
 -->
<!-- Title: jnodes Pages: 1 -->
<svg width="486pt" height="214pt"
 viewBox="0.00 0.00 486.00 214.00" xmlns="http://www.w3.org/2000/svg" xmlns:xlink="http://www.w3.org/1999/xlink">
<g id="graph0" class="graph" transform="scale(0.535832 0.535832) rotate(0) translate(4 395.75)">
<title>jnodes</title>
<!-- R -->
<g id="node1" class="node">
<title>R</title>
<polygon fill="none" stroke="black" points="216.38,-369.25 216.38,-391.75 659.62,-391.75 659.62,-369.25 216.38,-369.25"/>
<text xml:space="preserve" text-anchor="start" x="433.5" y="-375.45" font-family="Times,serif" font-size="14.00">R</text>
<polygon fill="none" stroke="black" points="216.38,-328.75 216.38,-369.25 265.88,-369.25 265.88,-328.75 216.38,-328.75"/>
<text xml:space="preserve" text-anchor="start" x="219.38" y="-343.95" font-family="Times,serif" font-size="14.00">content:</text>
<polygon fill="none" stroke="black" points="265.88,-328.75 265.88,-369.25 659.62,-369.25 659.62,-328.75 265.88,-328.75"/>
<text xml:space="preserve" text-anchor="start" x="268.88" y="-352.95" font-family="monospace" font-size="14.00">[{&quot;a&quot;: 1, &quot;b&quot;: &quot;XXX&quot;, &quot;c&quot;: true(), &quot;d&quot;: ()},</text>
<text xml:space="preserve" text-anchor="start" x="268.88" y="-335.7" font-family="monospace" font-size="14.00"> {&quot;a&quot;: 2, &quot;b&quot;: &quot;YYY&quot;, &quot;c&quot;: false(), &quot;d&quot;: ()}]  </text>
</g>
<!-- M1 -->
<g id="node2" class="node">
<title>M1</title>
<polygon fill="none" stroke="black" points="8.75,-250 8.75,-272.5 427.25,-272.5 427.25,-250 8.75,-250"/>
<text xml:space="preserve" text-anchor="start" x="208.25" y="-256.2" font-family="Times,serif" font-size="14.00">M1</text>
<polygon fill="none" stroke="black" points="8.75,-226.75 8.75,-250 58.25,-250 58.25,-226.75 8.75,-226.75"/>
<text xml:space="preserve" text-anchor="start" x="11.75" y="-233.32" font-family="Times,serif" font-size="14.00">content:</text>
<polygon fill="none" stroke="black" points="58.25,-226.75 58.25,-250 427.25,-250 427.25,-226.75 58.25,-226.75"/>
<text xml:space="preserve" text-anchor="start" x="61.25" y="-233.7" font-family="monospace" font-size="14.00">{&quot;a&quot;: 1, &quot;b&quot;: &quot;XXX&quot;, &quot;c&quot;: true(), &quot;d&quot;: ()}  </text>
<polygon fill="none" stroke="black" points="8.75,-203.5 8.75,-226.75 58.25,-226.75 58.25,-203.5 8.75,-203.5"/>
<text xml:space="preserve" text-anchor="start" x="14.75" y="-210.07" font-family="Times,serif" font-size="14.00">parent:</text>
<polygon fill="none" stroke="black" points="58.25,-203.5 58.25,-226.75 116.75,-226.75 116.75,-203.5 58.25,-203.5"/>
<text xml:space="preserve" text-anchor="start" x="83.38" y="-210.45" font-family="monospace" font-size="14.00">R</text>
<polygon fill="none" stroke="black" points="116.75,-203.5 116.75,-226.75 214.25,-226.75 214.25,-203.5 116.75,-203.5"/>
<text xml:space="preserve" text-anchor="start" x="141.88" y="-210.07" font-family="Times,serif" font-size="14.00">position:</text>
<polygon fill="none" stroke="black" points="214.25,-203.5 214.25,-226.75 272.75,-226.75 272.75,-203.5 214.25,-203.5"/>
<text xml:space="preserve" text-anchor="start" x="239.38" y="-210.45" font-family="monospace" font-size="14.00">1</text>
<polygon fill="none" stroke="black" points="272.75,-203.5 272.75,-226.75 368.75,-226.75 368.75,-203.5 272.75,-203.5"/>
<text xml:space="preserve" text-anchor="start" x="297.88" y="-210.07" font-family="Times,serif" font-size="14.00">selector:</text>
<polygon fill="none" stroke="black" points="368.75,-203.5 368.75,-226.75 427.25,-226.75 427.25,-203.5 368.75,-203.5"/>
<text xml:space="preserve" text-anchor="start" x="393.88" y="-210.45" font-family="monospace" font-size="14.00">1</text>
</g>
<!-- R&#45;&gt;M1 -->
<g id="edge1" class="edge">
<title>R&#45;&gt;M1</title>
<path fill="none" stroke="black" d="M382.2,-328.75C353.95,-313.31 319.34,-294.39 289.2,-277.91"/>
<polygon fill="black" stroke="black" points="290.94,-274.88 280.49,-273.15 287.58,-281.02 290.94,-274.88"/>
<text xml:space="preserve" text-anchor="middle" x="354.83" y="-297.45" font-family="Times,serif" font-size="14.00">①</text>
</g>
<!-- M2 -->
<g id="node7" class="node">
<title>M2</title>
<polygon fill="none" stroke="black" points="445.62,-250 445.62,-272.5 872.38,-272.5 872.38,-250 445.62,-250"/>
<text xml:space="preserve" text-anchor="start" x="649.25" y="-256.2" font-family="Times,serif" font-size="14.00">M2</text>
<polygon fill="none" stroke="black" points="445.62,-226.75 445.62,-250 495.12,-250 495.12,-226.75 445.62,-226.75"/>
<text xml:space="preserve" text-anchor="start" x="448.62" y="-233.32" font-family="Times,serif" font-size="14.00">content:</text>
<polygon fill="none" stroke="black" points="495.12,-226.75 495.12,-250 872.38,-250 872.38,-226.75 495.12,-226.75"/>
<text xml:space="preserve" text-anchor="start" x="498.12" y="-233.7" font-family="monospace" font-size="14.00">{&quot;a&quot;: 2, &quot;b&quot;: &quot;YYY&quot;, &quot;c&quot;: false(), &quot;d&quot;: ()}  </text>
<polygon fill="none" stroke="black" points="445.62,-203.5 445.62,-226.75 495.12,-226.75 495.12,-203.5 445.62,-203.5"/>
<text xml:space="preserve" text-anchor="start" x="451.62" y="-210.07" font-family="Times,serif" font-size="14.00">parent:</text>
<polygon fill="none" stroke="black" points="495.12,-203.5 495.12,-226.75 555.27,-226.75 555.27,-203.5 495.12,-203.5"/>
<text xml:space="preserve" text-anchor="start" x="521.08" y="-210.45" font-family="monospace" font-size="14.00">R</text>
<polygon fill="none" stroke="black" points="555.27,-203.5 555.27,-226.75 654.42,-226.75 654.42,-203.5 555.27,-203.5"/>
<text xml:space="preserve" text-anchor="start" x="581.23" y="-210.07" font-family="Times,serif" font-size="14.00">position:</text>
<polygon fill="none" stroke="black" points="654.42,-203.5 654.42,-226.75 714.58,-226.75 714.58,-203.5 654.42,-203.5"/>
<text xml:space="preserve" text-anchor="start" x="680.38" y="-210.45" font-family="monospace" font-size="14.00">1</text>
<polygon fill="none" stroke="black" points="714.58,-203.5 714.58,-226.75 812.23,-226.75 812.23,-203.5 714.58,-203.5"/>
<text xml:space="preserve" text-anchor="start" x="740.52" y="-210.07" font-family="Times,serif" font-size="14.00">selector:</text>
<polygon fill="none" stroke="black" points="812.23,-203.5 812.23,-226.75 872.38,-226.75 872.38,-203.5 812.23,-203.5"/>
<text xml:space="preserve" text-anchor="start" x="838.17" y="-210.45" font-family="monospace" font-size="14.00">2</text>
</g>
<!-- R&#45;&gt;M2 -->
<g id="edge10" class="edge">
<title>R&#45;&gt;M2</title>
<path fill="none" stroke="black" d="M494.05,-328.75C522.43,-313.31 557.2,-294.39 587.48,-277.91"/>
<polygon fill="black" stroke="black" points="589.12,-281.01 596.23,-273.15 585.78,-274.86 589.12,-281.01"/>
<text xml:space="preserve" text-anchor="middle" x="568.86" y="-297.45" font-family="Times,serif" font-size="14.00">②</text>
</g>
<!-- M1a -->
<g id="node3" class="node">
<title>M1a</title>
<polygon fill="none" stroke="black" points="0,-124 0,-147.25 53.25,-147.25 53.25,-124 0,-124"/>
<text xml:space="preserve" text-anchor="start" x="4.88" y="-130.57" font-family="Times,serif" font-size="14.00">content:</text>
<polygon fill="none" stroke="black" points="53.25,-124 53.25,-147.25 84,-147.25 84,-124 53.25,-124"/>
<text xml:space="preserve" text-anchor="start" x="64.5" y="-130.95" font-family="monospace" font-size="14.00">1</text>
<polygon fill="none" stroke="black" points="0,-100.75 0,-124 53.25,-124 53.25,-100.75 0,-100.75"/>
<text xml:space="preserve" text-anchor="start" x="7.88" y="-107.33" font-family="Times,serif" font-size="14.00">parent:</text>
<polygon fill="none" stroke="black" points="53.25,-100.75 53.25,-124 84,-124 84,-100.75 53.25,-100.75"/>
<text xml:space="preserve" text-anchor="start" x="60.38" y="-107.7" font-family="monospace" font-size="14.00">M1</text>
<polygon fill="none" stroke="black" points="0,-77.5 0,-100.75 53.25,-100.75 53.25,-77.5 0,-77.5"/>
<text xml:space="preserve" text-anchor="start" x="3" y="-84.08" font-family="Times,serif" font-size="14.00">position:</text>
<polygon fill="none" stroke="black" points="53.25,-77.5 53.25,-100.75 84,-100.75 84,-77.5 53.25,-77.5"/>
<text xml:space="preserve" text-anchor="start" x="64.5" y="-84.45" font-family="monospace" font-size="14.00">1</text>
<polygon fill="none" stroke="black" points="0,-54.25 0,-77.5 53.25,-77.5 53.25,-54.25 0,-54.25"/>
<text xml:space="preserve" text-anchor="start" x="3.75" y="-60.83" font-family="Times,serif" font-size="14.00">selector:</text>
<polygon fill="none" stroke="black" points="53.25,-54.25 53.25,-77.5 84,-77.5 84,-54.25 53.25,-54.25"/>
<text xml:space="preserve" text-anchor="start" x="56.25" y="-61.2" font-family="monospace" font-size="14.00">&quot;a&quot;</text>
</g>
<!-- M1&#45;&gt;M1a -->
<g id="edge2" class="edge">
<title>M1&#45;&gt;M1a</title>
<path fill="none" stroke="black" d="M169.04,-203.64C145.6,-187.22 117.39,-166.8 93,-147.25 92.81,-147.1 92.62,-146.94 92.43,-146.79"/>
<polygon fill="black" stroke="black" points="94.83,-144.23 84.89,-140.57 90.37,-149.63 94.83,-144.23"/>
<text xml:space="preserve" text-anchor="middle" x="150.66" y="-172.2" font-family="Times,serif" font-size="14.00">①</text>
</g>
<!-- M1b -->
<g id="node4" class="node">
<title>M1b</title>
<polygon fill="none" stroke="black" points="101.75,-124 101.75,-147.25 155,-147.25 155,-124 101.75,-124"/>
<text xml:space="preserve" text-anchor="start" x="106.62" y="-130.57" font-family="Times,serif" font-size="14.00">content:</text>
<polygon fill="none" stroke="black" points="155,-124 155,-147.25 202.25,-147.25 202.25,-124 155,-124"/>
<text xml:space="preserve" text-anchor="start" x="158" y="-130.95" font-family="monospace" font-size="14.00">&quot;XXX&quot;</text>
<polygon fill="none" stroke="black" points="101.75,-100.75 101.75,-124 155,-124 155,-100.75 101.75,-100.75"/>
<text xml:space="preserve" text-anchor="start" x="109.62" y="-107.33" font-family="Times,serif" font-size="14.00">parent:</text>
<polygon fill="none" stroke="black" points="155,-100.75 155,-124 202.25,-124 202.25,-100.75 155,-100.75"/>
<text xml:space="preserve" text-anchor="start" x="170.38" y="-107.7" font-family="monospace" font-size="14.00">M1</text>
<polygon fill="none" stroke="black" points="101.75,-77.5 101.75,-100.75 155,-100.75 155,-77.5 101.75,-77.5"/>
<text xml:space="preserve" text-anchor="start" x="104.75" y="-84.08" font-family="Times,serif" font-size="14.00">position:</text>
<polygon fill="none" stroke="black" points="155,-77.5 155,-100.75 202.25,-100.75 202.25,-77.5 155,-77.5"/>
<text xml:space="preserve" text-anchor="start" x="174.5" y="-84.45" font-family="monospace" font-size="14.00">1</text>
<polygon fill="none" stroke="black" points="101.75,-54.25 101.75,-77.5 155,-77.5 155,-54.25 101.75,-54.25"/>
<text xml:space="preserve" text-anchor="start" x="105.5" y="-60.83" font-family="Times,serif" font-size="14.00">selector:</text>
<polygon fill="none" stroke="black" points="155,-54.25 155,-77.5 202.25,-77.5 202.25,-54.25 155,-54.25"/>
<text xml:space="preserve" text-anchor="start" x="166.25" y="-61.2" font-family="monospace" font-size="14.00">&quot;b&quot;</text>
</g>
<!-- M1&#45;&gt;M1b -->
<g id="edge4" class="edge">
<title>M1&#45;&gt;M1b</title>
<path fill="none" stroke="black" d="M201.69,-203.57C194.86,-189.58 186.74,-172.94 179.06,-157.21"/>
<polygon fill="black" stroke="black" points="182.3,-155.85 174.77,-148.4 176.01,-158.92 182.3,-155.85"/>
<text xml:space="preserve" text-anchor="middle" x="199.98" y="-172.2" font-family="Times,serif" font-size="14.00">②</text>
</g>
<!-- M1c -->
<g id="node5" class="node">
<title>M1c</title>
<polygon fill="none" stroke="black" points="220.62,-124 220.62,-147.25 273.88,-147.25 273.88,-124 220.62,-124"/>
<text xml:space="preserve" text-anchor="start" x="225.5" y="-130.57" font-family="Times,serif" font-size="14.00">content:</text>
<polygon fill="none" stroke="black" points="273.88,-124 273.88,-147.25 329.38,-147.25 329.38,-124 273.88,-124"/>
<text xml:space="preserve" text-anchor="start" x="276.88" y="-130.95" font-family="monospace" font-size="14.00">true()</text>
<polygon fill="none" stroke="black" points="220.62,-100.75 220.62,-124 273.88,-124 273.88,-100.75 220.62,-100.75"/>
<text xml:space="preserve" text-anchor="start" x="228.5" y="-107.33" font-family="Times,serif" font-size="14.00">parent:</text>
<polygon fill="none" stroke="black" points="273.88,-100.75 273.88,-124 329.38,-124 329.38,-100.75 273.88,-100.75"/>
<text xml:space="preserve" text-anchor="start" x="293.38" y="-107.7" font-family="monospace" font-size="14.00">M1</text>
<polygon fill="none" stroke="black" points="220.62,-77.5 220.62,-100.75 273.88,-100.75 273.88,-77.5 220.62,-77.5"/>
<text xml:space="preserve" text-anchor="start" x="223.62" y="-84.08" font-family="Times,serif" font-size="14.00">position:</text>
<polygon fill="none" stroke="black" points="273.88,-77.5 273.88,-100.75 329.38,-100.75 329.38,-77.5 273.88,-77.5"/>
<text xml:space="preserve" text-anchor="start" x="297.5" y="-84.45" font-family="monospace" font-size="14.00">1</text>
<polygon fill="none" stroke="black" points="220.62,-54.25 220.62,-77.5 273.88,-77.5 273.88,-54.25 220.62,-54.25"/>
<text xml:space="preserve" text-anchor="start" x="224.38" y="-60.83" font-family="Times,serif" font-size="14.00">selector:</text>
<polygon fill="none" stroke="black" points="273.88,-54.25 273.88,-77.5 329.38,-77.5 329.38,-54.25 273.88,-54.25"/>
<text xml:space="preserve" text-anchor="start" x="289.25" y="-61.2" font-family="monospace" font-size="14.00">&quot;c&quot;</text>
</g>
<!-- M1&#45;&gt;M1c -->
<g id="edge6" class="edge">
<title>M1&#45;&gt;M1c</title>
<path fill="none" stroke="black" d="M232.09,-203.57C237.99,-189.58 245,-172.94 251.63,-157.21"/>
<polygon fill="black" stroke="black" points="254.67,-159.01 255.32,-148.44 248.22,-156.29 254.67,-159.01"/>
<text xml:space="preserve" text-anchor="middle" x="255.33" y="-172.2" font-family="Times,serif" font-size="14.00">③</text>
</g>
<!-- M1d -->
<g id="node6" class="node">
<title>M1d</title>
<polygon fill="none" stroke="black" points="347,-124 347,-147.25 400.25,-147.25 400.25,-124 347,-124"/>
<text xml:space="preserve" text-anchor="start" x="351.88" y="-130.57" font-family="Times,serif" font-size="14.00">content:</text>
<polygon fill="none" stroke="black" points="400.25,-124 400.25,-147.25 431,-147.25 431,-124 400.25,-124"/>
<text xml:space="preserve" text-anchor="start" x="407.38" y="-130.95" font-family="monospace" font-size="14.00">()</text>
<polygon fill="none" stroke="black" points="347,-100.75 347,-124 400.25,-124 400.25,-100.75 347,-100.75"/>
<text xml:space="preserve" text-anchor="start" x="354.88" y="-107.33" font-family="Times,serif" font-size="14.00">parent:</text>
<polygon fill="none" stroke="black" points="400.25,-100.75 400.25,-124 431,-124 431,-100.75 400.25,-100.75"/>
<text xml:space="preserve" text-anchor="start" x="407.38" y="-107.7" font-family="monospace" font-size="14.00">M1</text>
<polygon fill="none" stroke="black" points="347,-77.5 347,-100.75 400.25,-100.75 400.25,-77.5 347,-77.5"/>
<text xml:space="preserve" text-anchor="start" x="350" y="-84.08" font-family="Times,serif" font-size="14.00">position:</text>
<polygon fill="none" stroke="black" points="400.25,-77.5 400.25,-100.75 431,-100.75 431,-77.5 400.25,-77.5"/>
<text xml:space="preserve" text-anchor="start" x="411.5" y="-84.45" font-family="monospace" font-size="14.00">1</text>
<polygon fill="none" stroke="black" points="347,-54.25 347,-77.5 400.25,-77.5 400.25,-54.25 347,-54.25"/>
<text xml:space="preserve" text-anchor="start" x="350.75" y="-60.83" font-family="Times,serif" font-size="14.00">selector:</text>
<polygon fill="none" stroke="black" points="400.25,-54.25 400.25,-77.5 431,-77.5 431,-54.25 400.25,-54.25"/>
<text xml:space="preserve" text-anchor="start" x="403.25" y="-61.2" font-family="monospace" font-size="14.00">&quot;d&quot;</text>
</g>
<!-- M1&#45;&gt;M1d -->
<g id="edge8" class="edge">
<title>M1&#45;&gt;M1d</title>
<path fill="none" stroke="black" d="M264.58,-203.6C287.11,-187.09 314.33,-166.6 338,-147.25 338.19,-147.1 338.38,-146.94 338.57,-146.78"/>
<polygon fill="black" stroke="black" points="340.65,-149.61 346.06,-140.51 336.15,-144.24 340.65,-149.61"/>
<text xml:space="preserve" text-anchor="middle" x="319.43" y="-172.2" font-family="Times,serif" font-size="14.00">④</text>
</g>
<!-- M1a_ch -->
<g id="node12" class="node">
<title>M1a_ch</title>
<text xml:space="preserve" text-anchor="start" x="33.75" y="-3.95" font-family="monospace" font-size="14.00">()</text>
</g>
<!-- M1a&#45;&gt;M1a_ch -->
<g id="edge3" class="edge">
<title>M1a&#45;&gt;M1a_ch</title>
<path fill="none" stroke="black" d="M42,-54.42C42,-45.21 42,-36.02 42,-28.38"/>
<polygon fill="black" stroke="black" points="45.5,-28.46 42,-18.46 38.5,-28.46 45.5,-28.46"/>
</g>
<!-- M1b_ch -->
<g id="node13" class="node">
<title>M1b_ch</title>
<text xml:space="preserve" text-anchor="start" x="143.75" y="-3.95" font-family="monospace" font-size="14.00">()</text>
</g>
<!-- M1b&#45;&gt;M1b_ch -->
<g id="edge5" class="edge">
<title>M1b&#45;&gt;M1b_ch</title>
<path fill="none" stroke="black" d="M152,-54.42C152,-45.21 152,-36.02 152,-28.38"/>
<polygon fill="black" stroke="black" points="155.5,-28.46 152,-18.46 148.5,-28.46 155.5,-28.46"/>
</g>
<!-- M1c_ch -->
<g id="node14" class="node">
<title>M1c_ch</title>
<text xml:space="preserve" text-anchor="start" x="266.75" y="-3.95" font-family="monospace" font-size="14.00">()</text>
</g>
<!-- M1c&#45;&gt;M1c_ch -->
<g id="edge7" class="edge">
<title>M1c&#45;&gt;M1c_ch</title>
<path fill="none" stroke="black" d="M275,-54.42C275,-45.21 275,-36.02 275,-28.38"/>
<polygon fill="black" stroke="black" points="278.5,-28.46 275,-18.46 271.5,-28.46 278.5,-28.46"/>
</g>
<!-- M1d_ch -->
<g id="node15" class="node">
<title>M1d_ch</title>
<text xml:space="preserve" text-anchor="start" x="380.75" y="-3.95" font-family="monospace" font-size="14.00">()</text>
</g>
<!-- M1d&#45;&gt;M1d_ch -->
<g id="edge9" class="edge">
<title>M1d&#45;&gt;M1d_ch</title>
<path fill="none" stroke="black" d="M389,-54.42C389,-45.21 389,-36.02 389,-28.38"/>
<polygon fill="black" stroke="black" points="392.5,-28.46 389,-18.46 385.5,-28.46 392.5,-28.46"/>
</g>
<!-- M2a -->
<g id="node8" class="node">
<title>M2a</title>
<polygon fill="none" stroke="black" points="459,-124 459,-147.25 512.25,-147.25 512.25,-124 459,-124"/>
<text xml:space="preserve" text-anchor="start" x="463.88" y="-130.57" font-family="Times,serif" font-size="14.00">content:</text>
<polygon fill="none" stroke="black" points="512.25,-124 512.25,-147.25 543,-147.25 543,-124 512.25,-124"/>
<text xml:space="preserve" text-anchor="start" x="523.5" y="-130.95" font-family="monospace" font-size="14.00">2</text>
<polygon fill="none" stroke="black" points="459,-100.75 459,-124 512.25,-124 512.25,-100.75 459,-100.75"/>
<text xml:space="preserve" text-anchor="start" x="466.88" y="-107.33" font-family="Times,serif" font-size="14.00">parent:</text>
<polygon fill="none" stroke="black" points="512.25,-100.75 512.25,-124 543,-124 543,-100.75 512.25,-100.75"/>
<text xml:space="preserve" text-anchor="start" x="519.38" y="-107.7" font-family="monospace" font-size="14.00">M2</text>
<polygon fill="none" stroke="black" points="459,-77.5 459,-100.75 512.25,-100.75 512.25,-77.5 459,-77.5"/>
<text xml:space="preserve" text-anchor="start" x="462" y="-84.08" font-family="Times,serif" font-size="14.00">position:</text>
<polygon fill="none" stroke="black" points="512.25,-77.5 512.25,-100.75 543,-100.75 543,-77.5 512.25,-77.5"/>
<text xml:space="preserve" text-anchor="start" x="523.5" y="-84.45" font-family="monospace" font-size="14.00">1</text>
<polygon fill="none" stroke="black" points="459,-54.25 459,-77.5 512.25,-77.5 512.25,-54.25 459,-54.25"/>
<text xml:space="preserve" text-anchor="start" x="462.75" y="-60.83" font-family="Times,serif" font-size="14.00">selector:</text>
<polygon fill="none" stroke="black" points="512.25,-54.25 512.25,-77.5 543,-77.5 543,-54.25 512.25,-54.25"/>
<text xml:space="preserve" text-anchor="start" x="515.25" y="-61.2" font-family="monospace" font-size="14.00">&quot;a&quot;</text>
</g>
<!-- M2&#45;&gt;M2a -->
<g id="edge11" class="edge">
<title>M2&#45;&gt;M2a</title>
<path fill="none" stroke="black" d="M618.61,-203.62C598.48,-186.85 573.82,-166.13 552,-147.25 551.81,-147.09 551.63,-146.93 551.44,-146.77"/>
<polygon fill="black" stroke="black" points="553.91,-144.28 544.08,-140.34 549.31,-149.55 553.91,-144.28"/>
<text xml:space="preserve" text-anchor="middle" x="602.94" y="-172.2" font-family="Times,serif" font-size="14.00">①</text>
</g>
<!-- M2b -->
<g id="node9" class="node">
<title>M2b</title>
<polygon fill="none" stroke="black" points="560.75,-124 560.75,-147.25 614,-147.25 614,-124 560.75,-124"/>
<text xml:space="preserve" text-anchor="start" x="565.62" y="-130.57" font-family="Times,serif" font-size="14.00">content:</text>
<polygon fill="none" stroke="black" points="614,-124 614,-147.25 661.25,-147.25 661.25,-124 614,-124"/>
<text xml:space="preserve" text-anchor="start" x="617" y="-130.95" font-family="monospace" font-size="14.00">&quot;YYY&quot;</text>
<polygon fill="none" stroke="black" points="560.75,-100.75 560.75,-124 614,-124 614,-100.75 560.75,-100.75"/>
<text xml:space="preserve" text-anchor="start" x="568.62" y="-107.33" font-family="Times,serif" font-size="14.00">parent:</text>
<polygon fill="none" stroke="black" points="614,-100.75 614,-124 661.25,-124 661.25,-100.75 614,-100.75"/>
<text xml:space="preserve" text-anchor="start" x="629.38" y="-107.7" font-family="monospace" font-size="14.00">M2</text>
<polygon fill="none" stroke="black" points="560.75,-77.5 560.75,-100.75 614,-100.75 614,-77.5 560.75,-77.5"/>
<text xml:space="preserve" text-anchor="start" x="563.75" y="-84.08" font-family="Times,serif" font-size="14.00">position:</text>
<polygon fill="none" stroke="black" points="614,-77.5 614,-100.75 661.25,-100.75 661.25,-77.5 614,-77.5"/>
<text xml:space="preserve" text-anchor="start" x="633.5" y="-84.45" font-family="monospace" font-size="14.00">1</text>
<polygon fill="none" stroke="black" points="560.75,-54.25 560.75,-77.5 614,-77.5 614,-54.25 560.75,-54.25"/>
<text xml:space="preserve" text-anchor="start" x="564.5" y="-60.83" font-family="Times,serif" font-size="14.00">selector:</text>
<polygon fill="none" stroke="black" points="614,-54.25 614,-77.5 661.25,-77.5 661.25,-54.25 614,-54.25"/>
<text xml:space="preserve" text-anchor="start" x="625.25" y="-61.2" font-family="monospace" font-size="14.00">&quot;b&quot;</text>
</g>
<!-- M2&#45;&gt;M2b -->
<g id="edge13" class="edge">
<title>M2&#45;&gt;M2b</title>
<path fill="none" stroke="black" d="M647.13,-203.57C642.22,-189.71 636.38,-173.26 630.84,-157.66"/>
<polygon fill="black" stroke="black" points="634.22,-156.72 627.58,-148.47 627.63,-159.06 634.22,-156.72"/>
<text xml:space="preserve" text-anchor="middle" x="647.84" y="-172.2" font-family="Times,serif" font-size="14.00">②</text>
</g>
<!-- M2c -->
<g id="node10" class="node">
<title>M2c</title>
<polygon fill="none" stroke="black" points="679.5,-124 679.5,-147.25 732.75,-147.25 732.75,-124 679.5,-124"/>
<text xml:space="preserve" text-anchor="start" x="684.38" y="-130.57" font-family="Times,serif" font-size="14.00">content:</text>
<polygon fill="none" stroke="black" points="732.75,-124 732.75,-147.25 796.5,-147.25 796.5,-124 732.75,-124"/>
<text xml:space="preserve" text-anchor="start" x="735.75" y="-130.95" font-family="monospace" font-size="14.00">false()</text>
<polygon fill="none" stroke="black" points="679.5,-100.75 679.5,-124 732.75,-124 732.75,-100.75 679.5,-100.75"/>
<text xml:space="preserve" text-anchor="start" x="687.38" y="-107.33" font-family="Times,serif" font-size="14.00">parent:</text>
<polygon fill="none" stroke="black" points="732.75,-100.75 732.75,-124 796.5,-124 796.5,-100.75 732.75,-100.75"/>
<text xml:space="preserve" text-anchor="start" x="756.38" y="-107.7" font-family="monospace" font-size="14.00">M2</text>
<polygon fill="none" stroke="black" points="679.5,-77.5 679.5,-100.75 732.75,-100.75 732.75,-77.5 679.5,-77.5"/>
<text xml:space="preserve" text-anchor="start" x="682.5" y="-84.08" font-family="Times,serif" font-size="14.00">position:</text>
<polygon fill="none" stroke="black" points="732.75,-77.5 732.75,-100.75 796.5,-100.75 796.5,-77.5 732.75,-77.5"/>
<text xml:space="preserve" text-anchor="start" x="760.5" y="-84.45" font-family="monospace" font-size="14.00">1</text>
<polygon fill="none" stroke="black" points="679.5,-54.25 679.5,-77.5 732.75,-77.5 732.75,-54.25 679.5,-54.25"/>
<text xml:space="preserve" text-anchor="start" x="683.25" y="-60.83" font-family="Times,serif" font-size="14.00">selector:</text>
<polygon fill="none" stroke="black" points="732.75,-54.25 732.75,-77.5 796.5,-77.5 796.5,-54.25 732.75,-54.25"/>
<text xml:space="preserve" text-anchor="start" x="752.25" y="-61.2" font-family="monospace" font-size="14.00">&quot;c&quot;</text>
</g>
<!-- M2&#45;&gt;M2c -->
<g id="edge15" class="edge">
<title>M2&#45;&gt;M2c</title>
<path fill="none" stroke="black" d="M678.53,-203.57C686.78,-189.45 696.6,-172.62 705.87,-156.76"/>
<polygon fill="black" stroke="black" points="708.76,-158.75 710.78,-148.35 702.72,-155.22 708.76,-158.75"/>
<text xml:space="preserve" text-anchor="middle" x="707.99" y="-172.2" font-family="Times,serif" font-size="14.00">③</text>
</g>
<!-- M2d -->
<g id="node11" class="node">
<title>M2d</title>
<polygon fill="none" stroke="black" points="815,-124 815,-147.25 868.25,-147.25 868.25,-124 815,-124"/>
<text xml:space="preserve" text-anchor="start" x="819.88" y="-130.57" font-family="Times,serif" font-size="14.00">content:</text>
<polygon fill="none" stroke="black" points="868.25,-124 868.25,-147.25 899,-147.25 899,-124 868.25,-124"/>
<text xml:space="preserve" text-anchor="start" x="875.38" y="-130.95" font-family="monospace" font-size="14.00">()</text>
<polygon fill="none" stroke="black" points="815,-100.75 815,-124 868.25,-124 868.25,-100.75 815,-100.75"/>
<text xml:space="preserve" text-anchor="start" x="822.88" y="-107.33" font-family="Times,serif" font-size="14.00">parent:</text>
<polygon fill="none" stroke="black" points="868.25,-100.75 868.25,-124 899,-124 899,-100.75 868.25,-100.75"/>
<text xml:space="preserve" text-anchor="start" x="875.38" y="-107.7" font-family="monospace" font-size="14.00">M2</text>
<polygon fill="none" stroke="black" points="815,-77.5 815,-100.75 868.25,-100.75 868.25,-77.5 815,-77.5"/>
<text xml:space="preserve" text-anchor="start" x="818" y="-84.08" font-family="Times,serif" font-size="14.00">position:</text>
<polygon fill="none" stroke="black" points="868.25,-77.5 868.25,-100.75 899,-100.75 899,-77.5 868.25,-77.5"/>
<text xml:space="preserve" text-anchor="start" x="879.5" y="-84.45" font-family="monospace" font-size="14.00">1</text>
<polygon fill="none" stroke="black" points="815,-54.25 815,-77.5 868.25,-77.5 868.25,-54.25 815,-54.25"/>
<text xml:space="preserve" text-anchor="start" x="818.75" y="-60.83" font-family="Times,serif" font-size="14.00">selector:</text>
<polygon fill="none" stroke="black" points="868.25,-54.25 868.25,-77.5 899,-77.5 899,-54.25 868.25,-54.25"/>
<text xml:space="preserve" text-anchor="start" x="871.25" y="-61.2" font-family="monospace" font-size="14.00">&quot;d&quot;</text>
</g>
<!-- M2&#45;&gt;M2d -->
<g id="edge17" class="edge">
<title>M2&#45;&gt;M2d</title>
<path fill="none" stroke="black" d="M719.24,-203.54C746.48,-187.58 778.62,-167.56 806,-147.25 806.1,-147.18 806.19,-147.11 806.29,-147.04"/>
<polygon fill="black" stroke="black" points="808.26,-149.93 814,-141.03 803.96,-144.41 808.26,-149.93"/>
<text xml:space="preserve" text-anchor="middle" x="786.19" y="-172.2" font-family="Times,serif" font-size="14.00">④</text>
</g>
<!-- M2a_ch -->
<g id="node16" class="node">
<title>M2a_ch</title>
<text xml:space="preserve" text-anchor="start" x="492.75" y="-3.95" font-family="monospace" font-size="14.00">()</text>
</g>
<!-- M2a&#45;&gt;M2a_ch -->
<g id="edge12" class="edge">
<title>M2a&#45;&gt;M2a_ch</title>
<path fill="none" stroke="black" d="M501,-54.42C501,-45.21 501,-36.02 501,-28.38"/>
<polygon fill="black" stroke="black" points="504.5,-28.46 501,-18.46 497.5,-28.46 504.5,-28.46"/>
</g>
<!-- M2b_ch -->
<g id="node17" class="node">
<title>M2b_ch</title>
<text xml:space="preserve" text-anchor="start" x="602.75" y="-3.95" font-family="monospace" font-size="14.00">()</text>
</g>
<!-- M2b&#45;&gt;M2b_ch -->
<g id="edge14" class="edge">
<title>M2b&#45;&gt;M2b_ch</title>
<path fill="none" stroke="black" d="M611,-54.42C611,-45.21 611,-36.02 611,-28.38"/>
<polygon fill="black" stroke="black" points="614.5,-28.46 611,-18.46 607.5,-28.46 614.5,-28.46"/>
</g>
<!-- M2c_ch -->
<g id="node18" class="node">
<title>M2c_ch</title>
<text xml:space="preserve" text-anchor="start" x="729.75" y="-3.95" font-family="monospace" font-size="14.00">()</text>
</g>
<!-- M2c&#45;&gt;M2c_ch -->
<g id="edge16" class="edge">
<title>M2c&#45;&gt;M2c_ch</title>
<path fill="none" stroke="black" d="M738,-54.42C738,-45.21 738,-36.02 738,-28.38"/>
<polygon fill="black" stroke="black" points="741.5,-28.46 738,-18.46 734.5,-28.46 741.5,-28.46"/>
</g>
<!-- M2d_ch -->
<g id="node19" class="node">
<title>M2d_ch</title>
<text xml:space="preserve" text-anchor="start" x="848.75" y="-3.95" font-family="monospace" font-size="14.00">()</text>
</g>
<!-- M2d&#45;&gt;M2d_ch -->
<g id="edge18" class="edge">
<title>M2d&#45;&gt;M2d_ch</title>
<path fill="none" stroke="black" d="M857,-54.42C857,-45.21 857,-36.02 857,-28.38"/>
<polygon fill="black" stroke="black" points="860.5,-28.46 857,-18.46 853.5,-28.46 860.5,-28.46"/>
</g>
</g>
</svg>
