<?xml version="1.0" encoding="UTF-8" standalone="no"?>
<!DOCTYPE svg PUBLIC "-//W3C//DTD SVG 1.1//EN"
 "http://www.w3.org/Graphics/SVG/1.1/DTD/svg11.dtd">
<!-- Generated by graphviz version 2.43.0 (0)
 -->
<!-- Title: %3 Pages: 1 -->
<svg width="593pt" height="153pt"
 viewBox="0.00 0.00 593.00 153.00" xmlns="http://www.w3.org/2000/svg" xmlns:xlink="http://www.w3.org/1999/xlink">
<g id="graph0" class="graph" transform="scale(1 1) rotate(0) translate(4 149)">
<title>%3</title>
<polygon fill="white" stroke="transparent" points="-4,4 -4,-149 589,-149 589,4 -4,4"/>
<g id="clust1" class="cluster">
<title>cluster_legend</title>
<polygon fill="none" stroke="black" points="8,-8 8,-137 577,-137 577,-8 8,-8"/>
<text text-anchor="middle" x="292.5" y="-121.8" font-family="Times,serif" font-size="14.00">Legend</text>
</g>
<!-- _bat -->
<g id="node1" class="node">
<title>_bat</title>
<path fill="none" stroke="#e69f00" stroke-width="2" d="M169,-106C169,-106 28,-106 28,-106 22,-106 16,-100 16,-94 16,-94 16,-82 16,-82 16,-76 22,-70 28,-70 28,-70 169,-70 169,-70 175,-70 181,-76 181,-82 181,-82 181,-94 181,-94 181,-100 175,-106 169,-106"/>
<text text-anchor="middle" x="98.5" y="-84.3" font-family="Times,serif" font-size="14.00">Built&#45;in atomic types</text>
</g>
<!-- _bic -->
<g id="node2" class="node">
<title>_bic</title>
<path fill="none" stroke="#cc79a7" stroke-width="2" d="M381,-106C381,-106 229,-106 229,-106 223,-106 217,-100 217,-94 217,-94 217,-82 217,-82 217,-76 223,-70 229,-70 229,-70 381,-70 381,-70 387,-70 393,-76 393,-82 393,-82 393,-94 393,-94 393,-100 387,-106 381,-106"/>
<text text-anchor="middle" x="305" y="-84.3" font-family="Times,serif" font-size="14.00">Built&#45;in complex types</text>
</g>
<!-- _bat&#45;&gt;_bic -->
<!-- _fit -->
<g id="node3" class="node">
<title>_fit</title>
<path fill="none" stroke="#d55e00" stroke-width="2" d="M557,-106C557,-106 441,-106 441,-106 435,-106 429,-100 429,-94 429,-94 429,-82 429,-82 429,-76 435,-70 441,-70 441,-70 557,-70 557,-70 563,-70 569,-76 569,-82 569,-82 569,-94 569,-94 569,-100 563,-106 557,-106"/>
<text text-anchor="middle" x="499" y="-84.3" font-family="Times,serif" font-size="14.00">Built&#45;in list types</text>
</g>
<!-- _bic&#45;&gt;_fit -->
<!-- _udt -->
<g id="node4" class="node">
<title>_udt</title>
<path fill="none" stroke="#009e73" stroke-width="2" d="M162.5,-52C162.5,-52 34.5,-52 34.5,-52 28.5,-52 22.5,-46 22.5,-40 22.5,-40 22.5,-28 22.5,-28 22.5,-22 28.5,-16 34.5,-16 34.5,-16 162.5,-16 162.5,-16 168.5,-16 174.5,-22 174.5,-28 174.5,-28 174.5,-40 174.5,-40 174.5,-46 168.5,-52 162.5,-52"/>
<text text-anchor="middle" x="98.5" y="-30.3" font-family="Times,serif" font-size="14.00">User&#45;defined types</text>
</g>
<!-- _abt -->
<g id="node5" class="node">
<title>_abt</title>
<polygon fill="none" stroke="black" points="375,-52 239,-52 235,-48 235,-16 371,-16 375,-20 375,-52"/>
<polyline fill="none" stroke="black" points="371,-48 235,-48 "/>
<polyline fill="none" stroke="black" points="371,-48 371,-16 "/>
<polyline fill="none" stroke="black" points="371,-48 375,-52 "/>
<text text-anchor="middle" x="305" y="-30.3" font-family="Times,serif" font-size="14.00">Conceptual types</text>
</g>
<!-- _udt&#45;&gt;_abt -->
</g>
</svg>
