<?xml version="1.0" encoding="UTF-8" standalone="no"?>
<!DOCTYPE svg PUBLIC "-//W3C//DTD SVG 1.1//EN"
 "http://www.w3.org/Graphics/SVG/1.1/DTD/svg11.dtd">
<!-- Generated by graphviz version 12.2.1 (20241206.2353)
 -->
<!-- Title: Processing_Model Pages: 1 -->
<svg width="630pt" height="667pt"
 viewBox="0.00 0.00 629.62 666.50" xmlns="http://www.w3.org/2000/svg" xmlns:xlink="http://www.w3.org/1999/xlink">
<g id="graph0" class="graph" transform="scale(1 1) rotate(0) translate(4 662.5)">
<title>Processing_Model</title>
<g id="a_graph0"><a xlink:title="XQuery Processing Model">
<polygon fill="white" stroke="none" points="-4,4 -4,-662.5 625.62,-662.5 625.62,4 -4,4"/>
</a>
</g>
<g id="clust1" class="cluster">
<title>clusterQT4</title>
<g id="a_clust1"><a xlink:title="Query Processing">
<polygon fill="none" stroke="black" points="260,-80.5 260,-575 526,-575 526,-80.5 260,-80.5"/>
<text text-anchor="middle" x="393" y="-557.7" font-family="Times,serif" font-size="14.00">Query Processing</text>
</a>
</g>
</g>
<g id="clust2" class="cluster">
<title>clusterEP</title>
<g id="a_clust2"><a xlink:title="XQuery Processing Model">
<polygon fill="none" stroke="black" points="8,-174 8,-349 252,-349 252,-174 8,-174"/>
<text text-anchor="middle" x="130" y="-331.7" font-family="Times,serif" font-size="14.00">External processing</text>
</a>
</g>
</g>
<!-- Exec -->
<g id="node1" class="node">
<title>Exec</title>
<g id="a_node1"><a xlink:title="Execution Engine">
<path fill="none" stroke="black" d="M351.38,-223C351.38,-223 304.62,-223 304.62,-223 298.62,-223 292.62,-217 292.62,-211 292.62,-211 292.62,-194 292.62,-194 292.62,-188 298.62,-182 304.62,-182 304.62,-182 351.38,-182 351.38,-182 357.38,-182 363.38,-188 363.38,-194 363.38,-194 363.38,-211 363.38,-211 363.38,-217 357.38,-223 351.38,-223"/>
<text text-anchor="middle" x="328" y="-205.7" font-family="Times,serif" font-size="14.00">Execution</text>
<text text-anchor="middle" x="328" y="-189.2" font-family="Times,serif" font-size="14.00">Engine</text>
</a>
</g>
</g>
<!-- XDM -->
<g id="node2" class="node">
<title>XDM</title>
<g id="a_node2"><a xlink:href="#dt-data-model-instance" xlink:title="XPath Data Model">
<polygon fill="none" stroke="black" points="347.5,-129.5 268.5,-129.5 268.5,-88.5 347.5,-88.5 347.5,-129.5"/>
<text text-anchor="middle" x="308" y="-112.2" font-family="Times,serif" font-size="14.00" fill="blue">XPath Data</text>
<text text-anchor="middle" x="308" y="-95.7" font-family="Times,serif" font-size="14.00" fill="blue">Model</text>
</a>
</g>
</g>
<!-- Exec&#45;&gt;XDM -->
<g id="edge9" class="edge">
<title>Exec&#45;&gt;XDM</title>
<g id="a_edge9"><a xlink:href="#DQ12345" xlink:title=" DQ4">
<path fill="none" stroke="black" d="M321.21,-170.46C319.13,-160.9 316.83,-150.39 314.74,-140.84"/>
<polygon fill="black" stroke="black" points="317.78,-171.15 323.34,-180.17 324.62,-169.65 317.78,-171.15"/>
<polygon fill="black" stroke="black" points="318.21,-140.32 312.65,-131.29 311.37,-141.81 318.21,-140.32"/>
</a>
</g>
<g id="a_edge9&#45;label"><a xlink:href="#DQ12345" xlink:title="Access and create">
<text text-anchor="middle" x="334.79" y="-150.7" font-family="Times,serif" font-size="14.00" fill="blue"> DQ4</text>
</a>
</g>
</g>
<!-- Serialize -->
<g id="node16" class="node">
<title>Serialize</title>
<polygon fill="none" stroke="black" points="333.62,-36 276.38,-36 276.38,0 339.62,0 339.62,-30 333.62,-36"/>
<polyline fill="none" stroke="black" points="333.62,-36 333.62,-30"/>
<polyline fill="none" stroke="black" points="339.62,-30 333.62,-30"/>
<text text-anchor="middle" x="308" y="-12.95" font-family="Times,serif" font-size="14.00">Serialize</text>
</g>
<!-- XDM&#45;&gt;Serialize -->
<g id="edge18" class="edge">
<title>XDM&#45;&gt;Serialize</title>
<g id="a_edge18"><a xlink:href="#id-serialization" xlink:title=" DM4">
<path fill="none" stroke="black" d="M308,-88.25C308,-76.33 308,-60.94 308,-47.69"/>
<polygon fill="black" stroke="black" points="311.5,-47.81 308,-37.81 304.5,-47.81 311.5,-47.81"/>
</a>
</g>
<g id="a_edge18&#45;label"><a xlink:href="#id-serialization" xlink:title="Serialize">
<text text-anchor="middle" x="324.5" y="-57.2" font-family="Times,serif" font-size="14.00" fill="blue"> DM4</text>
</a>
</g>
</g>
<!-- AST -->
<g id="node3" class="node">
<title>AST</title>
<g id="a_node3"><a xlink:href="#SQ5" xlink:title="Abstract Syntax Tree (AST)">
<path fill="none" stroke="black" d="M375.75,-316.5C375.75,-316.5 280.25,-316.5 280.25,-316.5 274.25,-316.5 268.25,-310.5 268.25,-304.5 268.25,-304.5 268.25,-287.5 268.25,-287.5 268.25,-281.5 274.25,-275.5 280.25,-275.5 280.25,-275.5 375.75,-275.5 375.75,-275.5 381.75,-275.5 387.75,-281.5 387.75,-287.5 387.75,-287.5 387.75,-304.5 387.75,-304.5 387.75,-310.5 381.75,-316.5 375.75,-316.5"/>
<text text-anchor="middle" x="328" y="-299.2" font-family="Times,serif" font-size="14.00" fill="blue">Abstract</text>
<text text-anchor="middle" x="328" y="-282.7" font-family="Times,serif" font-size="14.00" fill="blue">Syntax Tree (AST)</text>
</a>
</g>
</g>
<!-- AST&#45;&gt;Exec -->
<g id="edge3" class="edge">
<title>AST&#45;&gt;Exec</title>
<g id="a_edge3"><a xlink:href="#DQ12345" xlink:title=" DQ1">
<path fill="none" stroke="black" d="M328,-275.15C328,-263.28 328,-247.94 328,-234.5"/>
<polygon fill="black" stroke="black" points="331.5,-234.83 328,-224.83 324.5,-234.83 331.5,-234.83"/>
</a>
</g>
<g id="a_edge3&#45;label"><a xlink:href="#DQ12345" xlink:title="Access AST">
<text text-anchor="middle" x="343" y="-244.2" font-family="Times,serif" font-size="14.00" fill="blue"> DQ1</text>
</a>
</g>
</g>
<!-- AST&#45;&gt;AST -->
<g id="edge2" class="edge">
<title>AST&#45;&gt;AST</title>
<g id="a_edge2"><a xlink:href="#SQ5" xlink:title=" SQ5">
<path fill="none" stroke="black" d="M387.98,-304.22C398.46,-303.12 405.75,-300.38 405.75,-296 405.75,-293.47 403.31,-291.48 399.23,-290.05"/>
<polygon fill="black" stroke="black" points="399.96,-286.62 389.47,-288.08 398.58,-293.49 399.96,-286.62"/>
</a>
</g>
<g id="a_edge2&#45;label"><a xlink:href="#SQ5" xlink:title="Normalize">
<text text-anchor="middle" x="419.62" y="-290.95" font-family="Times,serif" font-size="14.00" fill="blue"> SQ5</text>
</a>
</g>
</g>
<!-- Static -->
<g id="node4" class="node">
<title>Static</title>
<g id="a_node4"><a xlink:href="#dt-static-context" xlink:title="Static Context">
<polygon fill="none" stroke="black" points="513.38,-432.5 458.62,-432.5 454.62,-428.5 454.62,-391.5 509.38,-391.5 513.38,-395.5 513.38,-432.5"/>
<polyline fill="none" stroke="black" points="509.38,-428.5 454.62,-428.5"/>
<polyline fill="none" stroke="black" points="509.38,-428.5 509.38,-391.5"/>
<polyline fill="none" stroke="black" points="509.38,-428.5 513.38,-432.5"/>
<text text-anchor="middle" x="484" y="-415.2" font-family="Times,serif" font-size="14.00" fill="blue">Static</text>
<text text-anchor="middle" x="484" y="-398.7" font-family="Times,serif" font-size="14.00" fill="blue">Context</text>
</a>
</g>
</g>
<!-- Static&#45;&gt;AST -->
<g id="edge6" class="edge">
<title>Static&#45;&gt;AST</title>
<g id="a_edge6"><a xlink:href="#SQ1234" xlink:title=" SQ4">
<path fill="none" stroke="black" d="M456.83,-391.14C431.18,-372.4 392.55,-344.17 364.28,-323.51"/>
<polygon fill="black" stroke="black" points="366.48,-320.79 356.35,-317.71 362.35,-326.44 366.48,-320.79"/>
</a>
</g>
<g id="a_edge6&#45;label"><a xlink:href="#SQ1234" xlink:title="Resolve names">
<text text-anchor="middle" x="442.96" y="-360.2" font-family="Times,serif" font-size="14.00" fill="blue"> SQ4</text>
</a>
</g>
</g>
<!-- Dynamic -->
<g id="node5" class="node">
<title>Dynamic</title>
<g id="a_node5"><a xlink:href="#dt-dynamic-context" xlink:title="Dynamic Context">
<polygon fill="none" stroke="black" points="518.12,-316.5 455.88,-316.5 451.88,-312.5 451.88,-275.5 514.12,-275.5 518.12,-279.5 518.12,-316.5"/>
<polyline fill="none" stroke="black" points="514.12,-312.5 451.88,-312.5"/>
<polyline fill="none" stroke="black" points="514.12,-312.5 514.12,-275.5"/>
<polyline fill="none" stroke="black" points="514.12,-312.5 518.12,-316.5"/>
<text text-anchor="middle" x="485" y="-299.2" font-family="Times,serif" font-size="14.00" fill="blue">Dynamic</text>
<text text-anchor="middle" x="485" y="-282.7" font-family="Times,serif" font-size="14.00" fill="blue">Context</text>
</a>
</g>
</g>
<!-- Static&#45;&gt;Dynamic -->
<g id="edge7" class="edge">
<title>Static&#45;&gt;Dynamic</title>
<g id="a_edge7"><a xlink:href="#DQ12345" xlink:title=" DQ2">
<path fill="none" stroke="black" d="M484.17,-391.14C484.33,-373.73 484.55,-348.14 484.73,-328.03"/>
<polygon fill="black" stroke="black" points="488.23,-328.17 484.81,-318.14 481.23,-328.11 488.23,-328.17"/>
</a>
</g>
<g id="a_edge7&#45;label"><a xlink:href="#DQ12345" xlink:title="Provide access">
<text text-anchor="middle" x="499.47" y="-360.2" font-family="Times,serif" font-size="14.00" fill="blue"> DQ2</text>
</a>
</g>
</g>
<!-- Dynamic&#45;&gt;Exec -->
<g id="edge8" class="edge">
<title>Dynamic&#45;&gt;Exec</title>
<g id="a_edge8"><a xlink:href="#DQ12345" xlink:title=" DQ5">
<path fill="none" stroke="black" d="M442.04,-269.96C420.21,-257.24 393.74,-241.81 371.79,-229.02"/>
<polygon fill="black" stroke="black" points="439.99,-272.82 450.4,-274.83 443.52,-266.77 439.99,-272.82"/>
<polygon fill="black" stroke="black" points="373.77,-226.12 363.37,-224.11 370.25,-232.17 373.77,-226.12"/>
</a>
</g>
<g id="a_edge8&#45;label"><a xlink:href="#DQ12345" xlink:title="Access and change">
<text text-anchor="middle" x="435.56" y="-244.2" font-family="Times,serif" font-size="14.00" fill="blue"> DQ5</text>
</a>
</g>
</g>
<!-- Schema -->
<g id="node6" class="node">
<title>Schema</title>
<g id="a_node6"><a xlink:href="#dt-issd" xlink:title="In&#45;Scope Schema Definitions">
<polygon fill="none" stroke="black" points="434.38,-542.5 357.62,-542.5 357.62,-485 434.38,-485 434.38,-542.5"/>
<text text-anchor="middle" x="396" y="-525.2" font-family="Times,serif" font-size="14.00" fill="blue">In&#45;Scope</text>
<text text-anchor="middle" x="396" y="-508.7" font-family="Times,serif" font-size="14.00" fill="blue">Schema</text>
<text text-anchor="middle" x="396" y="-492.2" font-family="Times,serif" font-size="14.00" fill="blue">Definitions</text>
</a>
</g>
</g>
<!-- Schema&#45;&gt;Static -->
<g id="edge4" class="edge">
<title>Schema&#45;&gt;Static</title>
<path fill="none" stroke="black" d="M420.75,-484.7C432.67,-471.18 446.95,-455 458.92,-441.43"/>
<polygon fill="black" stroke="black" points="461.41,-443.89 465.4,-434.08 456.16,-439.26 461.41,-443.89"/>
</g>
<!-- XQuery -->
<g id="node7" class="node">
<title>XQuery</title>
<g id="a_node7"><a xlink:title="XQuery/XQueryX">
<path fill="none" stroke="black" d="M350.62,-432.5C350.62,-432.5 305.38,-432.5 305.38,-432.5 299.38,-432.5 293.38,-426.5 293.38,-420.5 293.38,-420.5 293.38,-403.5 293.38,-403.5 293.38,-397.5 299.38,-391.5 305.38,-391.5 305.38,-391.5 350.62,-391.5 350.62,-391.5 356.62,-391.5 362.62,-397.5 362.62,-403.5 362.62,-403.5 362.62,-420.5 362.62,-420.5 362.62,-426.5 356.62,-432.5 350.62,-432.5"/>
<text text-anchor="middle" x="328" y="-415.2" font-family="Times,serif" font-size="14.00">XQuery/</text>
<text text-anchor="middle" x="328" y="-398.7" font-family="Times,serif" font-size="14.00">XQueryX</text>
</a>
</g>
</g>
<!-- XQuery&#45;&gt;AST -->
<g id="edge1" class="edge">
<title>XQuery&#45;&gt;AST</title>
<g id="a_edge1"><a xlink:href="#SQ1234" xlink:title=" SQ1">
<path fill="none" stroke="black" d="M328,-391.14C328,-373.73 328,-348.14 328,-328.03"/>
<polygon fill="black" stroke="black" points="331.5,-328.14 328,-318.14 324.5,-328.14 331.5,-328.14"/>
</a>
</g>
<g id="a_edge1&#45;label"><a xlink:href="#SQ1234" xlink:title="Parse query">
<text text-anchor="middle" x="341.88" y="-360.2" font-family="Times,serif" font-size="14.00" fill="blue"> SQ1</text>
</a>
</g>
</g>
<!-- Modules -->
<g id="node8" class="node">
<title>Modules</title>
<g id="a_node8"><a xlink:href="#id-module-declaration" xlink:title="Modules">
<path fill="none" stroke="black" d="M504,-531.75C504,-531.75 464,-531.75 464,-531.75 458,-531.75 452,-525.75 452,-519.75 452,-519.75 452,-507.75 452,-507.75 452,-501.75 458,-495.75 464,-495.75 464,-495.75 504,-495.75 504,-495.75 510,-495.75 516,-501.75 516,-507.75 516,-507.75 516,-519.75 516,-519.75 516,-525.75 510,-531.75 504,-531.75"/>
<text text-anchor="middle" x="484" y="-508.7" font-family="Times,serif" font-size="14.00" fill="blue">Modules</text>
</a>
</g>
</g>
<!-- Modules&#45;&gt;Static -->
<g id="edge5" class="edge">
<title>Modules&#45;&gt;Static</title>
<g id="a_edge5"><a xlink:href="#SQ1234" xlink:title=" SQ3">
<path fill="none" stroke="black" d="M484,-495.37C484,-481.22 484,-460.89 484,-443.97"/>
<polygon fill="black" stroke="black" points="487.5,-444.43 484,-434.43 480.5,-444.43 487.5,-444.43"/>
</a>
</g>
<g id="a_edge5&#45;label"><a xlink:href="#SQ1234" xlink:title="Augment with module prolog">
<text text-anchor="middle" x="497.88" y="-453.7" font-family="Times,serif" font-size="14.00" fill="blue"> SQ3</text>
</a>
</g>
</g>
<!-- XML -->
<g id="node9" class="node">
<title>XML</title>
<polygon fill="none" stroke="black" points="64,-314 16,-314 16,-278 70,-278 70,-308 64,-314"/>
<polyline fill="none" stroke="black" points="64,-314 64,-308"/>
<polyline fill="none" stroke="black" points="70,-308 64,-308"/>
<text text-anchor="middle" x="43" y="-290.95" font-family="Times,serif" font-size="14.00">XML</text>
</g>
<!-- PSVI -->
<g id="node11" class="node">
<title>PSVI</title>
<g id="a_node11"><a xlink:href="#id-data-model-generation" xlink:title="Infoset/PSVI">
<polygon fill="none" stroke="black" points="89.62,-223 38.38,-223 38.38,-182 95.62,-182 95.62,-217 89.62,-223"/>
<polyline fill="none" stroke="black" points="89.62,-223 89.62,-217"/>
<polyline fill="none" stroke="black" points="95.62,-217 89.62,-217"/>
<text text-anchor="middle" x="67" y="-205.7" font-family="Times,serif" font-size="14.00" fill="blue">Infoset/</text>
<text text-anchor="middle" x="67" y="-189.2" font-family="Times,serif" font-size="14.00" fill="blue">PSVI</text>
</a>
</g>
</g>
<!-- XML&#45;&gt;PSVI -->
<g id="edge10" class="edge">
<title>XML&#45;&gt;PSVI</title>
<g id="a_edge10"><a xlink:href="#DM1" xlink:title=" DM1">
<path fill="none" stroke="black" d="M47.51,-277.79C50.73,-265.54 55.14,-248.73 58.95,-234.21"/>
<polygon fill="black" stroke="black" points="62.3,-235.2 61.46,-224.64 55.53,-233.42 62.3,-235.2"/>
</a>
</g>
<g id="a_edge10&#45;label"><a xlink:href="#DM1" xlink:title="Parse and optionally validate">
<text text-anchor="middle" x="73.65" y="-244.2" font-family="Times,serif" font-size="14.00" fill="blue"> DM1</text>
</a>
</g>
</g>
<!-- JSON -->
<g id="node10" class="node">
<title>JSON</title>
<polygon fill="none" stroke="black" points="136,-314 88,-314 88,-278 142,-278 142,-308 136,-314"/>
<polyline fill="none" stroke="black" points="136,-314 136,-308"/>
<polyline fill="none" stroke="black" points="142,-308 136,-308"/>
<text text-anchor="middle" x="115" y="-290.95" font-family="Times,serif" font-size="14.00">JSON</text>
</g>
<!-- JSON&#45;&gt;XDM -->
<g id="edge11" class="edge">
<title>JSON&#45;&gt;XDM</title>
<g id="a_edge11"><a xlink:href="#DM2" xlink:title=" DM2">
<path fill="none" stroke="black" d="M122.16,-277.83C133.44,-252.48 157.47,-204.7 190,-174 209.46,-155.63 235.2,-140.87 257.67,-130.17"/>
<polygon fill="black" stroke="black" points="259.07,-133.38 266.69,-126.02 256.14,-127.02 259.07,-133.38"/>
</a>
</g>
<g id="a_edge11&#45;label"><a xlink:href="#DM2" xlink:title="Generate Data Model">
<text text-anchor="middle" x="206.5" y="-197.45" font-family="Times,serif" font-size="14.00" fill="blue"> DM2</text>
</a>
</g>
</g>
<!-- PSVI&#45;&gt;XDM -->
<g id="edge12" class="edge">
<title>PSVI&#45;&gt;XDM</title>
<g id="a_edge12"><a xlink:href="#DM2" xlink:title=" DM2">
<path fill="none" stroke="black" d="M69.38,-181.69C71.84,-170.02 76.84,-155.92 87,-147.5 112.23,-126.59 199.89,-116.96 256.94,-112.82"/>
<polygon fill="black" stroke="black" points="257.02,-116.33 266.75,-112.15 256.53,-109.34 257.02,-116.33"/>
</a>
</g>
<g id="a_edge12&#45;label"><a xlink:href="#DM2" xlink:title="Generate Data Model">
<text text-anchor="middle" x="103.5" y="-150.7" font-family="Times,serif" font-size="14.00" fill="blue"> DM2</text>
</a>
</g>
</g>
<!-- Direct -->
<g id="node12" class="node">
<title>Direct</title>
<g id="a_node12"><a xlink:title="Other/Direct Generation">
<path fill="none" stroke="black" d="M232.12,-316.5C232.12,-316.5 171.88,-316.5 171.88,-316.5 165.88,-316.5 159.88,-310.5 159.88,-304.5 159.88,-304.5 159.88,-287.5 159.88,-287.5 159.88,-281.5 165.88,-275.5 171.88,-275.5 171.88,-275.5 232.12,-275.5 232.12,-275.5 238.12,-275.5 244.12,-281.5 244.12,-287.5 244.12,-287.5 244.12,-304.5 244.12,-304.5 244.12,-310.5 238.12,-316.5 232.12,-316.5"/>
<text text-anchor="middle" x="202" y="-299.2" font-family="Times,serif" font-size="14.00">Other/Direct</text>
<text text-anchor="middle" x="202" y="-282.7" font-family="Times,serif" font-size="14.00">Generation</text>
</a>
</g>
</g>
<!-- Direct&#45;&gt;XDM -->
<g id="edge13" class="edge">
<title>Direct&#45;&gt;XDM</title>
<g id="a_edge13"><a xlink:href="#DM3" xlink:title=" DM3">
<path fill="none" stroke="black" d="M207.72,-275.16C215.37,-250.35 230.42,-207.11 251,-174 258.93,-161.24 269.48,-148.58 279.34,-137.94"/>
<polygon fill="black" stroke="black" points="281.63,-140.62 286,-130.96 276.56,-135.78 281.63,-140.62"/>
</a>
</g>
<g id="a_edge13&#45;label"><a xlink:href="#DM3" xlink:title="Other/Direct Generation">
<text text-anchor="middle" x="267.5" y="-197.45" font-family="Times,serif" font-size="14.00" fill="blue"> DM3</text>
</a>
</g>
</g>
<!-- XSD -->
<g id="node13" class="node">
<title>XSD</title>
<g id="a_node13"><a xlink:title="XML Schema">
<polygon fill="none" stroke="black" points="374.75,-658.5 321.25,-658.5 321.25,-617.5 380.75,-617.5 380.75,-652.5 374.75,-658.5"/>
<polyline fill="none" stroke="black" points="374.75,-658.5 374.75,-652.5"/>
<polyline fill="none" stroke="black" points="380.75,-652.5 374.75,-652.5"/>
<text text-anchor="middle" x="351" y="-641.2" font-family="Times,serif" font-size="14.00">XML</text>
<text text-anchor="middle" x="351" y="-624.7" font-family="Times,serif" font-size="14.00">Schema</text>
</a>
</g>
</g>
<!-- XSD&#45;&gt;Schema -->
<g id="edge14" class="edge">
<title>XSD&#45;&gt;Schema</title>
<g id="a_edge14"><a xlink:href="#id-schema-import-processing" xlink:title=" SI1">
<path fill="none" stroke="black" d="M358.33,-617.09C364.65,-599.92 373.96,-574.63 381.74,-553.49"/>
<polygon fill="black" stroke="black" points="384.96,-554.89 385.13,-544.29 378.39,-552.47 384.96,-554.89"/>
</a>
</g>
<g id="a_edge14&#45;label"><a xlink:href="#id-schema-import-processing" xlink:title="XML Schema Import">
<text text-anchor="middle" x="382.06" y="-586.2" font-family="Times,serif" font-size="14.00" fill="blue"> SI1</text>
</a>
</g>
</g>
<!-- DirectXSD -->
<g id="node14" class="node">
<title>DirectXSD</title>
<g id="a_node14"><a xlink:title="Other/Direct Generation">
<path fill="none" stroke="black" d="M471.12,-658.5C471.12,-658.5 410.88,-658.5 410.88,-658.5 404.88,-658.5 398.88,-652.5 398.88,-646.5 398.88,-646.5 398.88,-629.5 398.88,-629.5 398.88,-623.5 404.88,-617.5 410.88,-617.5 410.88,-617.5 471.12,-617.5 471.12,-617.5 477.12,-617.5 483.12,-623.5 483.12,-629.5 483.12,-629.5 483.12,-646.5 483.12,-646.5 483.12,-652.5 477.12,-658.5 471.12,-658.5"/>
<text text-anchor="middle" x="441" y="-641.2" font-family="Times,serif" font-size="14.00">Other/Direct</text>
<text text-anchor="middle" x="441" y="-624.7" font-family="Times,serif" font-size="14.00">Generation</text>
</a>
</g>
</g>
<!-- DirectXSD&#45;&gt;Schema -->
<g id="edge15" class="edge">
<title>DirectXSD&#45;&gt;Schema</title>
<g id="a_edge15"><a xlink:href="#SI2" xlink:title=" SI2">
<path fill="none" stroke="black" d="M433.67,-617.09C427.35,-599.92 418.04,-574.63 410.26,-553.49"/>
<polygon fill="black" stroke="black" points="413.61,-552.47 406.87,-544.29 407.04,-554.89 413.61,-552.47"/>
</a>
</g>
<g id="a_edge15&#45;label"><a xlink:href="#SI2" xlink:title="Other/Direct Generation">
<text text-anchor="middle" x="437.69" y="-586.2" font-family="Times,serif" font-size="14.00" fill="blue"> SI2</text>
</a>
</g>
</g>
<!-- Host -->
<g id="node15" class="node">
<title>Host</title>
<g id="a_node15"><a xlink:title="Host Environment">
<path fill="none" stroke="black" d="M609.62,-534.25C609.62,-534.25 546.38,-534.25 546.38,-534.25 540.38,-534.25 534.38,-528.25 534.38,-522.25 534.38,-522.25 534.38,-505.25 534.38,-505.25 534.38,-499.25 540.38,-493.25 546.38,-493.25 546.38,-493.25 609.62,-493.25 609.62,-493.25 615.62,-493.25 621.62,-499.25 621.62,-505.25 621.62,-505.25 621.62,-522.25 621.62,-522.25 621.62,-528.25 615.62,-534.25 609.62,-534.25"/>
<text text-anchor="middle" x="578" y="-516.95" font-family="Times,serif" font-size="14.00">Host</text>
<text text-anchor="middle" x="578" y="-500.45" font-family="Times,serif" font-size="14.00">Environment</text>
</a>
</g>
</g>
<!-- Host&#45;&gt;Static -->
<g id="edge16" class="edge">
<title>Host&#45;&gt;Static</title>
<g id="a_edge16"><a xlink:href="#SQ1234" xlink:title=" SQ2">
<path fill="none" stroke="black" d="M559.43,-493.04C545.4,-478.15 525.95,-457.51 510.31,-440.92"/>
<polygon fill="black" stroke="black" points="512.98,-438.65 503.57,-433.77 507.88,-443.45 512.98,-438.65"/>
</a>
</g>
<g id="a_edge16&#45;label"><a xlink:href="#SQ1234" xlink:title="Initialize from host environment">
<text text-anchor="middle" x="547.69" y="-453.7" font-family="Times,serif" font-size="14.00" fill="blue"> SQ2</text>
</a>
</g>
</g>
<!-- Host&#45;&gt;Dynamic -->
<g id="edge17" class="edge">
<title>Host&#45;&gt;Dynamic</title>
<g id="a_edge17"><a xlink:href="#DQ12345" xlink:title=" DQ3">
<path fill="none" stroke="black" d="M574.75,-492.79C572.44,-480.41 568.87,-464.29 564,-450.5 548.03,-405.24 521.13,-356.55 503.22,-326.42"/>
<polygon fill="black" stroke="black" points="506.23,-324.64 498.08,-317.87 500.24,-328.25 506.23,-324.64"/>
</a>
</g>
<g id="a_edge17&#45;label"><a xlink:href="#DQ12345" xlink:title="Initialize from host environment">
<text text-anchor="middle" x="571.59" y="-406.95" font-family="Times,serif" font-size="14.00" fill="blue"> DQ3</text>
</a>
</g>
</g>
</g>
</svg>
